<svg xmlns="http://www.w3.org/2000/svg" xmlns:xlink="http://www.w3.org/1999/xlink" xmlns:lucid="lucid" width="2347.52" height="2318"><g transform="translate(0 0)" lucid:page-tab-id="HWEp-vi-RSFO"><path d="M0 0h2347.52v2318H0z" fill="#fff"/><path d="M1000 416.97h300v283h-300z" stroke="#333" stroke-width="2" fill="#fff"/><path d="M1000 454.57h300m-300 144.5h300" stroke="#333" stroke-width="2" fill="none"/><use xlink:href="#a" transform="matrix(1,0,0,1,1008,424.97357891838874) translate(105.07499999999999 14.6)"/><use xlink:href="#b" transform="matrix(1,0,0,1,1012,462.57357891838876) translate(0 24.89999999999999)"/><use xlink:href="#c" transform="matrix(1,0,0,1,1012,462.57357891838876) translate(10.95 24.89999999999999)"/><use xlink:href="#d" transform="matrix(1,0,0,1,1012,462.57357891838876) translate(34.9 24.89999999999999)"/><use xlink:href="#b" transform="matrix(1,0,0,1,1012,462.57357891838876) translate(0 46.49999999999999)"/><use xlink:href="#e" transform="matrix(1,0,0,1,1012,462.57357891838876) translate(10.95 46.49999999999999)"/><use xlink:href="#f" transform="matrix(1,0,0,1,1012,462.57357891838876) translate(72.9 46.49999999999999)"/><use xlink:href="#b" transform="matrix(1,0,0,1,1012,462.57357891838876) translate(0 68.1)"/><use xlink:href="#g" transform="matrix(1,0,0,1,1012,462.57357891838876) translate(10.95 68.1)"/><use xlink:href="#f" transform="matrix(1,0,0,1,1012,462.57357891838876) translate(70.85000000000001 68.1)"/><use xlink:href="#h" transform="matrix(1,0,0,1,1012,462.57357891838876) translate(0 89.70000000000002)"/><use xlink:href="#i" transform="matrix(1,0,0,1,1012,462.57357891838876) translate(10.95 89.70000000000002)"/><use xlink:href="#j" transform="matrix(1,0,0,1,1012,462.57357891838876) translate(69.15 89.70000000000002)"/><use xlink:href="#k" transform="matrix(1,0,0,1,1012,462.57357891838876) translate(0 111.30000000000001)"/><use xlink:href="#l" transform="matrix(1,0,0,1,1012,462.57357891838876) translate(112.85000000000001 111.30000000000001)"/><use xlink:href="#m" transform="matrix(1,0,0,1,1012,607.0735789183888) translate(0 25)"/><use xlink:href="#n" transform="matrix(1,0,0,1,1012,607.0735789183888) translate(15.5 25)"/><use xlink:href="#m" transform="matrix(1,0,0,1,1012,607.0735789183888) translate(0 46.6)"/><use xlink:href="#o" transform="matrix(1,0,0,1,1012,607.0735789183888) translate(15.5 46.6)"/><use xlink:href="#m" transform="matrix(1,0,0,1,1012,607.0735789183888) translate(0 68.2)"/><use xlink:href="#p" transform="matrix(1,0,0,1,1012,607.0735789183888) translate(15.5 68.2)"/><path d="M1400 448.3h300v126h-300z" stroke="#333" stroke-width="2" fill="#fff"/><path d="M1400 485.9h300" stroke="#333" stroke-width="2" fill="none"/><use xlink:href="#q" transform="matrix(1,0,0,1,1408,456.306912251722) translate(86.32499999999999 14.6)"/><use xlink:href="#b" transform="matrix(1,0,0,1,1412,493.906912251722) translate(0 29.299999999999997)"/><use xlink:href="#c" transform="matrix(1,0,0,1,1412,493.906912251722) translate(10.95 29.299999999999997)"/><use xlink:href="#d" transform="matrix(1,0,0,1,1412,493.906912251722) translate(34.9 29.299999999999997)"/><use xlink:href="#b" transform="matrix(1,0,0,1,1412,493.906912251722) translate(0 50.9)"/><use xlink:href="#r" transform="matrix(1,0,0,1,1412,493.906912251722) translate(10.95 50.9)"/><use xlink:href="#s" transform="matrix(1,0,0,1,1412,493.906912251722) translate(49.900000000000006 50.9)"/><path d="M1310 512.3h-8v-2h8zm18.83 0H1318v-2h10.83zm68.35 0h-7.86v-2h7.86zm-15.73 0h-10.28v-2h10.28z" stroke="#333" stroke-width=".05" fill="#333"/><path d="M1302.03 512.3H1301v-2h1.03z" fill="#333"/><path d="M1302.05 512.33h-1.08v-2.05h1.08zm-1.02-2v1.95h.97v-1.95zM1399 511.3l-18.67 11.05-1.02-1.72 15.77-9.32-15.76-9.3 1.03-1.73z" stroke="#333" stroke-width=".05" fill="#333"/><use xlink:href="#t" transform="matrix(1,0,0,1,1328.8271604938273,501.9735789183888) translate(0 12.444444444444446)"/><path d="M746.9 75a8 8 0 0 1 8-8h836.76a8 8 0 0 1 8 8v25.16a8 8 0 0 1-8 8H754.9a8 8 0 0 1-8-8z" stroke="#000" stroke-opacity="0" stroke-width="2" fill="#fff" fill-opacity="0"/><use xlink:href="#u" transform="matrix(1,0,0,1,750.9071690257708,70.99999999994924) translate(303.5488888888889 23.657777777777778)"/><use xlink:href="#v" transform="matrix(1,0,0,1,750.9071690257708,70.99999999994924) translate(430.14395061728396 23.657777777777778)"/><use xlink:href="#w" transform="matrix(1,0,0,1,750.9071690257708,70.99999999994924) translate(467.9476543209876 23.657777777777778)"/><path d="M1023.4 106.8h309.35M1023.4 106.8h-1M1332.73 106.8h1.02" stroke="#a9afb8" stroke-width="2" fill="none"/><path d="M746.9 116.16a8 8 0 0 1 8-8h837.7a8 8 0 0 1 8 8V119a8 8 0 0 1-8 8H754.9a8 8 0 0 1-8-8z" stroke="#000" stroke-opacity="0" stroke-width="2" fill="#fff" fill-opacity="0"/><use xlink:href="#x" transform="matrix(1,0,0,1,750.9071690257713,112.15522395684805) translate(379.6562962962963 14.917037037037037)"/><path d="M1000 928.07h300v262h-300z" stroke="#333" stroke-width="2" fill="#fff"/><path d="M1000 965.67h300m-300 166.1h300" stroke="#333" stroke-width="2" fill="none"/><use xlink:href="#y" transform="matrix(1,0,0,1,1008,936.0729994482567) translate(83.67499999999998 14.6)"/><use xlink:href="#b" transform="matrix(1,0,0,1,1012,973.6729994482567) translate(0 25.1)"/><use xlink:href="#c" transform="matrix(1,0,0,1,1012,973.6729994482567) translate(10.95 25.1)"/><use xlink:href="#d" transform="matrix(1,0,0,1,1012,973.6729994482567) translate(34.9 25.1)"/><use xlink:href="#b" transform="matrix(1,0,0,1,1012,973.6729994482567) translate(0 46.7)"/><use xlink:href="#z" transform="matrix(1,0,0,1,1012,973.6729994482567) translate(10.95 46.7)"/><use xlink:href="#d" transform="matrix(1,0,0,1,1012,973.6729994482567) translate(79.85000000000001 46.7)"/><use xlink:href="#b" transform="matrix(1,0,0,1,1012,973.6729994482567) translate(0 68.30000000000001)"/><use xlink:href="#A" transform="matrix(1,0,0,1,1012,973.6729994482567) translate(10.95 68.30000000000001)"/><use xlink:href="#d" transform="matrix(1,0,0,1,1012,973.6729994482567) translate(90.75 68.30000000000001)"/><use xlink:href="#h" transform="matrix(1,0,0,1,1012,973.6729994482567) translate(0 89.90000000000002)"/><use xlink:href="#B" transform="matrix(1,0,0,1,1012,973.6729994482567) translate(10.95 89.90000000000002)"/><use xlink:href="#j" transform="matrix(1,0,0,1,1012,973.6729994482567) translate(102.80000000000001 89.90000000000002)"/><use xlink:href="#h" transform="matrix(1,0,0,1,1012,973.6729994482567) translate(0 111.50000000000001)"/><use xlink:href="#C" transform="matrix(1,0,0,1,1012,973.6729994482567) translate(10.95 111.50000000000001)"/><use xlink:href="#j" transform="matrix(1,0,0,1,1012,973.6729994482567) translate(115.8 111.50000000000001)"/><use xlink:href="#b" transform="matrix(1,0,0,1,1012,973.6729994482567) translate(0 133.1)"/><use xlink:href="#D" transform="matrix(1,0,0,1,1012,973.6729994482567) translate(10.95 133.1)"/><use xlink:href="#E" transform="matrix(1,0,0,1,1012,973.6729994482567) translate(124.9 133.1)"/><use xlink:href="#m" transform="matrix(1,0,0,1,1012,1139.7729994482568) translate(0 25.1)"/><use xlink:href="#F" transform="matrix(1,0,0,1,1012,1139.7729994482568) translate(15.5 25.1)"/><path d="M1400 917.57h300v283h-300z" stroke="#333" stroke-width="2" fill="#fff"/><path d="M1400 955.17h300m-300 144.5h300" stroke="#333" stroke-width="2" fill="none"/><use xlink:href="#G" transform="matrix(1,0,0,1,1408,925.5729994482567) translate(109.57499999999999 14.6)"/><use xlink:href="#b" transform="matrix(1,0,0,1,1412,963.1729994482567) translate(0 24.89999999999999)"/><use xlink:href="#c" transform="matrix(1,0,0,1,1412,963.1729994482567) translate(10.95 24.89999999999999)"/><use xlink:href="#d" transform="matrix(1,0,0,1,1412,963.1729994482567) translate(34.9 24.89999999999999)"/><use xlink:href="#b" transform="matrix(1,0,0,1,1412,963.1729994482567) translate(0 46.49999999999999)"/><use xlink:href="#H" transform="matrix(1,0,0,1,1412,963.1729994482567) translate(10.95 46.49999999999999)"/><use xlink:href="#d" transform="matrix(1,0,0,1,1412,963.1729994482567) translate(143.75 46.49999999999999)"/><use xlink:href="#h" transform="matrix(1,0,0,1,1412,963.1729994482567) translate(0 68.1)"/><use xlink:href="#I" transform="matrix(1,0,0,1,1412,963.1729994482567) translate(10.95 68.1)"/><use xlink:href="#j" transform="matrix(1,0,0,1,1412,963.1729994482567) translate(94.85000000000001 68.1)"/><use xlink:href="#h" transform="matrix(1,0,0,1,1412,963.1729994482567) translate(0 89.70000000000002)"/><use xlink:href="#J" transform="matrix(1,0,0,1,1412,963.1729994482567) translate(10.95 89.70000000000002)"/><use xlink:href="#j" transform="matrix(1,0,0,1,1412,963.1729994482567) translate(78.75000000000001 89.70000000000002)"/><use xlink:href="#h" transform="matrix(1,0,0,1,1412,963.1729994482567) translate(0 111.30000000000001)"/><use xlink:href="#K" transform="matrix(1,0,0,1,1412,963.1729994482567) translate(10.95 111.30000000000001)"/><use xlink:href="#L" transform="matrix(1,0,0,1,1412,963.1729994482567) translate(114.85000000000001 111.30000000000001)"/><use xlink:href="#m" transform="matrix(1,0,0,1,1412,1107.6729994482566) translate(0 25)"/><use xlink:href="#M" transform="matrix(1,0,0,1,1412,1107.6729994482566) translate(15.5 25)"/><use xlink:href="#m" transform="matrix(1,0,0,1,1412,1107.6729994482566) translate(0 46.6)"/><use xlink:href="#N" transform="matrix(1,0,0,1,1412,1107.6729994482566) translate(15.5 46.6)"/><use xlink:href="#m" transform="matrix(1,0,0,1,1412,1107.6729994482566) translate(0 68.2)"/><use xlink:href="#O" transform="matrix(1,0,0,1,1412,1107.6729994482566) translate(15.5 68.2)"/><path d="M1000 1300h300v219h-300z" stroke="#333" stroke-width="2" fill="#fff"/><path d="M1000 1337.6h300m-300 122.9h300" stroke="#333" stroke-width="2" fill="none"/><use xlink:href="#P" transform="matrix(1,0,0,1,1008,1308) translate(119 14.6)"/><use xlink:href="#b" transform="matrix(1,0,0,1,1012,1345.6) translate(0 24.69999999999999)"/><use xlink:href="#c" transform="matrix(1,0,0,1,1012,1345.6) translate(10.95 24.69999999999999)"/><use xlink:href="#d" transform="matrix(1,0,0,1,1012,1345.6) translate(34.9 24.69999999999999)"/><use xlink:href="#b" transform="matrix(1,0,0,1,1012,1345.6) translate(0 46.29999999999999)"/><use xlink:href="#Q" transform="matrix(1,0,0,1,1012,1345.6) translate(10.95 46.29999999999999)"/><use xlink:href="#f" transform="matrix(1,0,0,1,1012,1345.6) translate(81.85000000000001 46.29999999999999)"/><use xlink:href="#b" transform="matrix(1,0,0,1,1012,1345.6) translate(0 67.89999999999999)"/><use xlink:href="#r" transform="matrix(1,0,0,1,1012,1345.6) translate(10.95 67.89999999999999)"/><use xlink:href="#f" transform="matrix(1,0,0,1,1012,1345.6) translate(49.900000000000006 67.89999999999999)"/><use xlink:href="#b" transform="matrix(1,0,0,1,1012,1345.6) translate(0 89.5)"/><use xlink:href="#R" transform="matrix(1,0,0,1,1012,1345.6) translate(10.95 89.5)"/><use xlink:href="#s" transform="matrix(1,0,0,1,1012,1345.6) translate(74.95 89.5)"/><use xlink:href="#m" transform="matrix(1,0,0,1,1012,1468.5) translate(0 25.1)"/><use xlink:href="#S" transform="matrix(1,0,0,1,1012,1468.5) translate(15.5 25.1)"/><path d="M640 256.3h300v175H640z" stroke="#333" stroke-width="2" fill="#fff"/><path d="M640 293.9h300M640 352h300" stroke="#333" stroke-width="2" fill="none"/><g><use xlink:href="#T" transform="matrix(1,0,0,1,648,264.30691225172194) translate(112.07499999999999 14.6)"/></g><g><use xlink:href="#U" transform="matrix(1,0,0,1,652,301.90691225172196) translate(0 25.1)"/><use xlink:href="#V" transform="matrix(1,0,0,1,652,301.90691225172196) translate(15.95 25.1)"/><use xlink:href="#s" transform="matrix(1,0,0,1,652,301.90691225172196) translate(76.85 25.1)"/></g><g><use xlink:href="#m" transform="matrix(1,0,0,1,652,360.006912251722) translate(0 24.799999999999997)"/><use xlink:href="#W" transform="matrix(1,0,0,1,652,360.006912251722) translate(15.5 24.799999999999997)"/><use xlink:href="#m" transform="matrix(1,0,0,1,652,360.006912251722) translate(0 46.4)"/><use xlink:href="#X" transform="matrix(1,0,0,1,652,360.006912251722) translate(15.5 46.4)"/></g><path d="M200 559.07h300v219H200z" stroke="#333" stroke-width="2" fill="#fff"/><path d="M200 596.67h300m-300 101.3h300" stroke="#333" stroke-width="2" fill="none"/><g><use xlink:href="#Y" transform="matrix(1,0,0,1,208,567.0729994482567) translate(99.07499999999999 14.6)"/></g><g><use xlink:href="#b" transform="matrix(1,0,0,1,212,604.6729994482567) translate(0 25)"/><use xlink:href="#Z" transform="matrix(1,0,0,1,212,604.6729994482567) translate(10.95 25)"/><use xlink:href="#f" transform="matrix(1,0,0,1,212,604.6729994482567) translate(40.849999999999994 25)"/><use xlink:href="#b" transform="matrix(1,0,0,1,212,604.6729994482567) translate(0 46.6)"/><use xlink:href="#aa" transform="matrix(1,0,0,1,212,604.6729994482567) translate(10.95 46.6)"/><use xlink:href="#f" transform="matrix(1,0,0,1,212,604.6729994482567) translate(49.95 46.6)"/><use xlink:href="#b" transform="matrix(1,0,0,1,212,604.6729994482567) translate(0 68.2)"/><use xlink:href="#ab" transform="matrix(1,0,0,1,212,604.6729994482567) translate(10.95 68.2)"/><use xlink:href="#ac" transform="matrix(1,0,0,1,212,604.6729994482567) translate(73.80000000000001 68.2)"/></g><g><use xlink:href="#m" transform="matrix(1,0,0,1,212,705.9729994482567) translate(0 24.799999999999997)"/><use xlink:href="#ad" transform="matrix(1,0,0,1,212,705.9729994482567) translate(15.5 24.799999999999997)"/><use xlink:href="#m" transform="matrix(1,0,0,1,212,705.9729994482567) translate(0 46.4)"/><use xlink:href="#ae" transform="matrix(1,0,0,1,212,705.9729994482567) translate(15.5 46.4)"/></g><path d="M525.48 350H638" stroke="#333" stroke-width="2" fill="none"/><path d="M502.96 350l21.52-12.73v25.46z" stroke="#333" stroke-width="2" fill="#fff"/><path d="M639 351h-1.03v-2H639z" stroke="#333" stroke-width=".05" fill="#333"/><path d="M350 557.07v-40.1" stroke="#333" stroke-width="2" fill="none"/><path d="M351 558.07h-2v-1.02h2z" stroke="#333" stroke-width=".05" fill="#333"/><path d="M350 494.46l12.73 21.52h-25.46z" stroke="#333" stroke-width="2" fill="#fff"/><path d="M790 463.06v596h208" stroke="#333" stroke-width="2" fill="none"/><path d="M790 433.72l14.85 14.85L790 463.72l-14.85-15.15z" stroke="#333" stroke-width="2" fill="#333"/><path d="M999 1060.07h-1.03v-2H999z" stroke="#333" stroke-width=".05" fill="#333"/><g><use xlink:href="#af" transform="matrix(1,0,0,1,756,437.8353843786445) translate(0 14.4)"/></g><g><use xlink:href="#ag" transform="matrix(1,0,0,1,980.7956141253796,1033.4729994482568) translate(0 14.4)"/></g><path d="M1150 896.32V701.97" stroke="#333" stroke-width="2" fill="none"/><path d="M1150 925.66l-14.85-14.85 14.85-15.14 14.85 15.15z" stroke="#333" stroke-width="2" fill="#333"/><path d="M1151 702h-2v-1.03h2z" stroke="#333" stroke-width=".05" fill="#333"/><g><use xlink:href="#ag" transform="matrix(1,0,0,1,1174,906.2729994482568) translate(0 14.4)"/></g><g><use xlink:href="#af" transform="matrix(1,0,0,1,1132,720.1902261266646) translate(0 14.4)"/></g><path d="M1150 1298v-76.18" stroke="#333" stroke-width="2" fill="none"/><path d="M1151 1299h-2v-1.03h2z" stroke="#333" stroke-width=".05" fill="#333"/><path d="M1150 1192.5l14.85 14.84-14.85 15.15-14.85-15.16z" stroke="#333" stroke-width="2" fill="#333"/><g><use xlink:href="#ah" transform="matrix(1,0,0,1,1158,1278.335361201629) translate(0 14.4)"/></g><g><use xlink:href="#ai" transform="matrix(1,0,0,1,1119,1190.7544226027424) translate(0 14.4)"/></g><path d="M1302 1059.07h66.25" stroke="#333" stroke-width="2" fill="none"/><path d="M1302.03 1060.07H1301v-2h1.03z" stroke="#333" stroke-width=".05" fill="#333"/><path d="M1397.6 1059.07l-14.86 14.85-15.15-14.85 15.14-14.85z" stroke="#333" stroke-width="2" fill="#333"/><g><use xlink:href="#af" transform="matrix(1,0,0,1,1310.2000000000003,1063.0729994482567) translate(0 14.4)"/></g><g><use xlink:href="#af" transform="matrix(1,0,0,1,1381.4000000000003,1017.4729994482568) translate(0 14.4)"/></g><path d="M1801 1060.07h-99v-2h97V344.8H971.75v-2H1801z" stroke="#333" stroke-width=".05" fill="#333"/><path d="M1702.03 1060.07H1701v-2h1.03z" fill="#333"/><path d="M1702.05 1060.1h-1.08v-2.05h1.08zm-1.02-2v1.95h.97v-1.95z" stroke="#333" stroke-width=".05" fill="#333"/><path d="M972.4 343.8l-15.14 14.86-14.85-14.85 14.86-14.84z" fill="#333"/><path d="M973.84 343.8l-16.58 16.26L941 343.8l16.26-16.25zm-30 0l13.43 13.45L971 343.8l-13.73-13.44z" stroke="#333" stroke-width=".05" fill="#333"/><g><use xlink:href="#ag" transform="matrix(1,0,0,1,1710.0652894044279,1063.0729994482567) translate(0 14.4)"/></g><g><use xlink:href="#af" transform="matrix(1,0,0,1,946.1559818568351,363.80691225172194) translate(0 14.4)"/></g><path d="M1400 1300h300v116h-300z" stroke="#333" stroke-width="2" fill="#fff"/><path d="M1400 1337.6h300" stroke="#333" stroke-width="2" fill="none"/><g><use xlink:href="#aj" transform="matrix(1,0,0,1,1408,1308) translate(88.175 14.6)"/></g><g><use xlink:href="#ak" transform="matrix(1,0,0,1,1412,1345.6) translate(0 24.299999999999997)"/><use xlink:href="#al" transform="matrix(1,0,0,1,1412,1345.6) translate(10.95 24.299999999999997)"/><use xlink:href="#am" transform="matrix(1,0,0,1,1412,1345.6) translate(34.9 24.299999999999997)"/><use xlink:href="#ak" transform="matrix(1,0,0,1,1412,1345.6) translate(0 45.9)"/><use xlink:href="#an" transform="matrix(1,0,0,1,1412,1345.6) translate(10.95 45.9)"/><use xlink:href="#ao" transform="matrix(1,0,0,1,1412,1345.6) translate(80.9 45.9)"/></g><path d="M1551 1297.18h-2v-10.5h2zm0-21.02h-2v-16.54h2zm0-35.2h-2v-17.36h2zm0-27.87h-2v-10.53h2z" stroke="#333" stroke-width=".05" fill="#333"/><path d="M1551 1202.6h-2v-1.03h2z" fill="#333"/><path d="M1551.03 1202.62h-2.06v-1.07h2.06zm-2-1.02v.97h1.94v-.97zM1561.04 1280.33L1550 1299l-11.04-18.67 1.72-1.02 9.32 15.77 9.32-15.76z" stroke="#333" stroke-width=".05" fill="#333"/><g><use xlink:href="#ap" transform="matrix(1,0,0,1,1528.8271604938273,1240.953166390795) translate(0 12.444444444444446)"/></g><path d="M1400 636.44h300v219h-300z" stroke="#333" stroke-width="2" fill="#fff"/><path d="M1400 674.04h300m-300 122.9h300" stroke="#333" stroke-width="2" fill="none"/><g><use xlink:href="#aq" transform="matrix(1,0,0,1,1408,644.4399558499894) translate(113.225 14.6)"/></g><g><use xlink:href="#h" transform="matrix(1,0,0,1,1412,682.0399558499894) translate(0 24.69999999999999)"/><use xlink:href="#ar" transform="matrix(1,0,0,1,1412,682.0399558499894) translate(10.95 24.69999999999999)"/><use xlink:href="#j" transform="matrix(1,0,0,1,1412,682.0399558499894) translate(34.9 24.69999999999999)"/><use xlink:href="#h" transform="matrix(1,0,0,1,1412,682.0399558499894) translate(0 46.29999999999999)"/><use xlink:href="#as" transform="matrix(1,0,0,1,1412,682.0399558499894) translate(10.95 46.29999999999999)"/><use xlink:href="#at" transform="matrix(1,0,0,1,1412,682.0399558499894) translate(60.849999999999994 46.29999999999999)"/><use xlink:href="#h" transform="matrix(1,0,0,1,1412,682.0399558499894) translate(0 67.89999999999999)"/><use xlink:href="#au" transform="matrix(1,0,0,1,1412,682.0399558499894) translate(10.95 67.89999999999999)"/><use xlink:href="#at" transform="matrix(1,0,0,1,1412,682.0399558499894) translate(74.85 67.89999999999999)"/><use xlink:href="#h" transform="matrix(1,0,0,1,1412,682.0399558499894) translate(0 89.5)"/><use xlink:href="#i" transform="matrix(1,0,0,1,1412,682.0399558499894) translate(10.95 89.5)"/><use xlink:href="#av" transform="matrix(1,0,0,1,1412,682.0399558499894) translate(69.15 89.5)"/></g><g><use xlink:href="#m" transform="matrix(1,0,0,1,1412,804.9399558499894) translate(0 25.1)"/><use xlink:href="#aw" transform="matrix(1,0,0,1,1412,804.9399558499894) translate(15.5 25.1)"/></g><path d="M200 208.5h300v283H200z" stroke="#333" stroke-width="2" fill="#fff"/><path d="M200 246.1h300M200 390.6h300" stroke="#333" stroke-width="2" fill="none"/><g><use xlink:href="#ax" transform="matrix(1,0,0,1,208,216.5) translate(106.55 14.6)"/></g><g><use xlink:href="#h" transform="matrix(1,0,0,1,212,254.1) translate(0 24.89999999999999)"/><use xlink:href="#ar" transform="matrix(1,0,0,1,212,254.1) translate(10.95 24.89999999999999)"/><use xlink:href="#j" transform="matrix(1,0,0,1,212,254.1) translate(34.9 24.89999999999999)"/><use xlink:href="#h" transform="matrix(1,0,0,1,212,254.1) translate(0 46.49999999999999)"/><use xlink:href="#ay" transform="matrix(1,0,0,1,212,254.1) translate(10.95 46.49999999999999)"/><use xlink:href="#az" transform="matrix(1,0,0,1,212,254.1) translate(109.9 46.49999999999999)"/><use xlink:href="#h" transform="matrix(1,0,0,1,212,254.1) translate(0 68.1)"/><use xlink:href="#aA" transform="matrix(1,0,0,1,212,254.1) translate(10.95 68.1)"/><use xlink:href="#az" transform="matrix(1,0,0,1,212,254.1) translate(81.85000000000001 68.1)"/><use xlink:href="#h" transform="matrix(1,0,0,1,212,254.1) translate(0 89.70000000000002)"/><use xlink:href="#aB" transform="matrix(1,0,0,1,212,254.1) translate(10.95 89.70000000000002)"/><use xlink:href="#az" transform="matrix(1,0,0,1,212,254.1) translate(82.80000000000001 89.70000000000002)"/><use xlink:href="#h" transform="matrix(1,0,0,1,212,254.1) translate(0 111.30000000000001)"/><use xlink:href="#aC" transform="matrix(1,0,0,1,212,254.1) translate(10.95 111.30000000000001)"/><use xlink:href="#l" transform="matrix(1,0,0,1,212,254.1) translate(84.9 111.30000000000001)"/></g><g><use xlink:href="#m" transform="matrix(1,0,0,1,212,398.6) translate(0 25)"/><use xlink:href="#n" transform="matrix(1,0,0,1,212,398.6) translate(15.5 25)"/><use xlink:href="#m" transform="matrix(1,0,0,1,212,398.6) translate(0 46.6)"/><use xlink:href="#o" transform="matrix(1,0,0,1,212,398.6) translate(15.5 46.6)"/><use xlink:href="#m" transform="matrix(1,0,0,1,212,398.6) translate(0 68.2)"/><use xlink:href="#p" transform="matrix(1,0,0,1,212,398.6) translate(15.5 68.2)"/></g><path d="M1550 857.44v58.13" stroke="#333" stroke-width="2" fill="none"/><path d="M1551 857.47h-2v-1.03h2zM1551 916.57h-2v-1.02h2zM1551 634.44h-2v-9.55h2zm0-19.1h-2v-.63h2zm0-28.66h-2v-9.55h2z" stroke="#333" stroke-width=".05" fill="#333"/><path d="M1551 635.44h-2v-1.03h2z" fill="#333"/><path d="M1551.03 635.46h-2.06v-1.07h2.06zm-2-1.02v.97h1.94v-.96zM1561.04 593.98l-1.72 1.02-9.32-15.76-9.32 15.76-1.72-1.02L1550 575.3z" stroke="#333" stroke-width=".05" fill="#333"/><g><use xlink:href="#ap" transform="matrix(1,0,0,1,1528.8271604938273,596.0401007175223) translate(0 12.444444444444446)"/></g><path d="M350 780.07v376.08h648" stroke="#333" stroke-width="2" fill="none"/><path d="M351 780.1h-2v-1.03h2zM999 1157.15h-1.03v-2H999z" stroke="#333" stroke-width=".05" fill="#333"/><g><use xlink:href="#ah" transform="matrix(1,0,0,1,332,789.0665307056622) translate(0 14.4)"/></g><g><use xlink:href="#ai" transform="matrix(1,0,0,1,979.7000000000002,1130.5516417172432) translate(0 14.4)"/></g><defs><path fill="#333" d="M147 0H94L2-248h55l64 206c17-72 42-137 63-206h54" id="aD"/><path fill="#333" d="M185-48c-13 30-37 53-82 52C43 2 14-33 14-96s30-98 90-98c62 0 83 45 84 108H66c0 31 8 55 39 56 18 0 30-7 34-22zm-45-69c5-46-57-63-70-21-2 6-4 13-4 21h74" id="aE"/><path fill="#333" d="M114-157C55-157 80-60 75 0H25v-261h50l-1 109c12-26 28-41 61-42 86-1 58 113 63 194h-50c-7-57 23-157-34-157" id="aF"/><path fill="#333" d="M25-224v-37h50v37H25zM25 0v-190h50V0H25" id="aG"/><path fill="#333" d="M190-63c-7 42-38 67-86 67-59 0-84-38-90-98-12-110 154-137 174-36l-49 2c-2-19-15-32-35-32-30 0-35 28-38 64-6 74 65 87 74 30" id="aH"/><path fill="#333" d="M85 4C-2 5 27-109 22-190h50c7 57-23 150 33 157 60-5 35-97 40-157h50l1 190h-47c-2-12 1-28-3-38-12 25-28 42-61 42" id="aI"/><path fill="#333" d="M25 0v-261h50V0H25" id="aJ"/><path fill="#333" d="M110-194c64 0 96 36 96 99 0 64-35 99-97 99-61 0-95-36-95-99 0-62 34-99 96-99zm-1 164c35 0 45-28 45-65 0-40-10-65-43-65-34 0-45 26-45 65 0 36 10 65 43 65" id="aK"/><g id="a"><use transform="matrix(0.05,0,0,0.05,0,0)" xlink:href="#aD"/><use transform="matrix(0.05,0,0,0.05,11,0)" xlink:href="#aE"/><use transform="matrix(0.05,0,0,0.05,21,0)" xlink:href="#aF"/><use transform="matrix(0.05,0,0,0.05,31.950000000000003,0)" xlink:href="#aG"/><use transform="matrix(0.05,0,0,0.05,36.95,0)" xlink:href="#aH"/><use transform="matrix(0.05,0,0,0.05,46.95,0)" xlink:href="#aI"/><use transform="matrix(0.05,0,0,0.05,57.900000000000006,0)" xlink:href="#aJ"/><use transform="matrix(0.05,0,0,0.05,62.900000000000006,0)" xlink:href="#aK"/></g><path fill="#333" d="M16-82v-28h88v28H16" id="aL"/><use transform="matrix(0.05,0,0,0.05,0,0)" xlink:href="#aL" id="b"/><path fill="#333" d="M24-231v-30h32v30H24zM24 0v-190h32V0H24" id="aM"/><path fill="#333" d="M85-194c31 0 48 13 60 33l-1-100h32l1 261h-30c-2-10 0-23-3-31C134-8 116 4 85 4 32 4 16-35 15-94c0-66 23-100 70-100zm9 24c-40 0-46 34-46 75 0 40 6 74 45 74 42 0 51-32 51-76 0-42-9-74-50-73" id="aN"/><path fill="#333" d="M33-154v-36h34v36H33zM33 0v-36h34V0H33" id="aO"/><g id="c"><use transform="matrix(0.05,0,0,0.05,0,0)" xlink:href="#aM"/><use transform="matrix(0.05,0,0,0.05,3.95,0)" xlink:href="#aN"/><use transform="matrix(0.05,0,0,0.05,13.949999999999998,0)" xlink:href="#aO"/></g><path fill="#333" d="M33 0v-248h34V0H33" id="aP"/><path fill="#333" d="M117-194c89-4 53 116 60 194h-32v-121c0-31-8-49-39-48C34-167 62-67 57 0H25l-1-190h30c1 10-1 24 2 32 11-22 29-35 61-36" id="aQ"/><path fill="#333" d="M59-47c-2 24 18 29 38 22v24C64 9 27 4 27-40v-127H5v-23h24l9-43h21v43h35v23H59v120" id="aR"/><path fill="#333" d="M100-194c63 0 86 42 84 106H49c0 40 14 67 53 68 26 1 43-12 49-29l28 8c-11 28-37 45-77 45C44 4 14-33 15-96c1-61 26-98 85-98zm52 81c6-60-76-77-97-28-3 7-6 17-6 28h103" id="aS"/><path fill="#333" d="M177-190C167-65 218 103 67 71c-23-6-38-20-44-43l32-5c15 47 100 32 89-28v-30C133-14 115 1 83 1 29 1 15-40 15-95c0-56 16-97 71-98 29-1 48 16 59 35 1-10 0-23 2-32h30zM94-22c36 0 50-32 50-73 0-42-14-75-50-75-39 0-46 34-46 75s6 73 46 73" id="aT"/><path fill="#333" d="M114-163C36-179 61-72 57 0H25l-1-190h30c1 12-1 29 2 39 6-27 23-49 58-41v29" id="aU"/><g id="d"><use transform="matrix(0.05,0,0,0.05,0,0)" xlink:href="#aP"/><use transform="matrix(0.05,0,0,0.05,5,0)" xlink:href="#aQ"/><use transform="matrix(0.05,0,0,0.05,15,0)" xlink:href="#aR"/><use transform="matrix(0.05,0,0,0.05,20,0)" xlink:href="#aS"/><use transform="matrix(0.05,0,0,0.05,30,0)" xlink:href="#aT"/><use transform="matrix(0.05,0,0,0.05,40,0)" xlink:href="#aS"/><use transform="matrix(0.05,0,0,0.05,50,0)" xlink:href="#aU"/></g><path fill="#333" d="M115-194c55 1 70 41 70 98S169 2 115 4C84 4 66-9 55-30l1 105H24l-1-265h31l2 30c10-21 28-34 59-34zm-8 174c40 0 45-34 45-75s-6-73-45-74c-42 0-51 32-51 76 0 43 10 73 51 73" id="aV"/><path fill="#333" d="M24 0v-261h32V0H24" id="aW"/><path fill="#333" d="M141-36C126-15 110 5 73 4 37 3 15-17 15-53c-1-64 63-63 125-63 3-35-9-54-41-54-24 1-41 7-42 31l-33-3c5-37 33-52 76-52 45 0 72 20 72 64v82c-1 20 7 32 28 27v20c-31 9-61-2-59-35zM48-53c0 20 12 33 32 33 41-3 63-29 60-74-43 2-92-5-92 41" id="aX"/><path fill="#333" d="M96-169c-40 0-48 33-48 73s9 75 48 75c24 0 41-14 43-38l32 2c-6 37-31 61-74 61-59 0-76-41-82-99-10-93 101-131 147-64 4 7 5 14 7 22l-32 3c-4-21-16-35-41-35" id="aY"/><path fill="#333" d="M135-143c-3-34-86-38-87 0 15 53 115 12 119 90S17 21 10-45l28-5c4 36 97 45 98 0-10-56-113-15-118-90-4-57 82-63 122-42 12 7 21 19 24 35" id="aZ"/><g id="e"><use transform="matrix(0.05,0,0,0.05,0,0)" xlink:href="#aV"/><use transform="matrix(0.05,0,0,0.05,10,0)" xlink:href="#aW"/><use transform="matrix(0.05,0,0,0.05,13.949999999999998,0)" xlink:href="#aX"/><use transform="matrix(0.05,0,0,0.05,23.95,0)" xlink:href="#aY"/><use transform="matrix(0.05,0,0,0.05,32.95,0)" xlink:href="#aX"/><use transform="matrix(0.05,0,0,0.05,42.95,0)" xlink:href="#aZ"/><use transform="matrix(0.05,0,0,0.05,51.95,0)" xlink:href="#aO"/></g><path fill="#333" d="M185-189c-5-48-123-54-124 2 14 75 158 14 163 119 3 78-121 87-175 55-17-10-28-26-33-46l33-7c5 56 141 63 141-1 0-78-155-14-162-118-5-82 145-84 179-34 5 7 8 16 11 25" id="ba"/><g id="f"><use transform="matrix(0.05,0,0,0.05,0,0)" xlink:href="#ba"/><use transform="matrix(0.05,0,0,0.05,12,0)" xlink:href="#aR"/><use transform="matrix(0.05,0,0,0.05,17,0)" xlink:href="#aU"/><use transform="matrix(0.05,0,0,0.05,22.95,0)" xlink:href="#aM"/><use transform="matrix(0.05,0,0,0.05,26.899999999999995,0)" xlink:href="#aQ"/><use transform="matrix(0.05,0,0,0.05,36.9,0)" xlink:href="#aT"/></g><path fill="#333" d="M210-169c-67 3-38 105-44 169h-31v-121c0-29-5-50-35-48C34-165 62-65 56 0H25l-1-190h30c1 10-1 24 2 32 10-44 99-50 107 0 11-21 27-35 58-36 85-2 47 119 55 194h-31v-121c0-29-5-49-35-48" id="bb"/><g id="g"><use transform="matrix(0.05,0,0,0.05,0,0)" xlink:href="#bb"/><use transform="matrix(0.05,0,0,0.05,14.950000000000001,0)" xlink:href="#aX"/><use transform="matrix(0.05,0,0,0.05,24.950000000000003,0)" xlink:href="#aU"/><use transform="matrix(0.05,0,0,0.05,30.900000000000002,0)" xlink:href="#aY"/><use transform="matrix(0.05,0,0,0.05,39.900000000000006,0)" xlink:href="#aX"/><use transform="matrix(0.05,0,0,0.05,49.900000000000006,0)" xlink:href="#aO"/></g><use transform="matrix(0.05,0,0,0.05,0,0)" xlink:href="#aL" id="h"/><path fill="#333" d="M127-220V0H93v-220H8v-28h204v28h-85" id="bc"/><path fill="#333" d="M100-194c62-1 85 37 85 99 1 63-27 99-86 99S16-35 15-95c0-66 28-99 85-99zM99-20c44 1 53-31 53-75 0-43-8-75-51-75s-53 32-53 75 10 74 51 75" id="bd"/><g id="i"><use transform="matrix(0.05,0,0,0.05,0,0)" xlink:href="#aM"/><use transform="matrix(0.05,0,0,0.05,3.95,0)" xlink:href="#aN"/><use transform="matrix(0.05,0,0,0.05,13.949999999999998,0)" xlink:href="#bc"/><use transform="matrix(0.05,0,0,0.05,24.25,0)" xlink:href="#aM"/><use transform="matrix(0.05,0,0,0.05,28.200000000000003,0)" xlink:href="#aV"/><use transform="matrix(0.05,0,0,0.05,38.2,0)" xlink:href="#bd"/><use transform="matrix(0.05,0,0,0.05,48.2,0)" xlink:href="#aO"/></g><g id="j"><use transform="matrix(0.05,0,0,0.05,0,0)" xlink:href="#aP"/><use transform="matrix(0.05,0,0,0.05,5,0)" xlink:href="#aQ"/><use transform="matrix(0.05,0,0,0.05,15,0)" xlink:href="#aR"/><use transform="matrix(0.05,0,0,0.05,20,0)" xlink:href="#aS"/><use transform="matrix(0.05,0,0,0.05,30,0)" xlink:href="#aT"/><use transform="matrix(0.05,0,0,0.05,40,0)" xlink:href="#aS"/><use transform="matrix(0.05,0,0,0.05,50,0)" xlink:href="#aU"/></g><path fill="#333" d="M115-194c53 0 69 39 70 98 0 66-23 100-70 100C84 3 66-7 56-30L54 0H23l1-261h32v101c10-23 28-34 59-34zm-8 174c40 0 45-34 45-75 0-40-5-75-45-74-42 0-51 32-51 76 0 43 10 73 51 73" id="be"/><path fill="#333" d="M108 0H70L1-190h34L89-25l56-165h34" id="bf"/><g id="k"><use transform="matrix(0.05,0,0,0.05,0,0)" xlink:href="#aL"/><use transform="matrix(0.05,0,0,0.05,5.95,0)" xlink:href="#bd"/><use transform="matrix(0.05,0,0,0.05,15.949999999999998,0)" xlink:href="#be"/><use transform="matrix(0.05,0,0,0.05,25.950000000000003,0)" xlink:href="#aZ"/><use transform="matrix(0.05,0,0,0.05,34.95,0)" xlink:href="#aS"/><use transform="matrix(0.05,0,0,0.05,44.95,0)" xlink:href="#aU"/><use transform="matrix(0.05,0,0,0.05,50.900000000000006,0)" xlink:href="#bf"/><use transform="matrix(0.05,0,0,0.05,59.900000000000006,0)" xlink:href="#aX"/><use transform="matrix(0.05,0,0,0.05,69.9,0)" xlink:href="#aY"/><use transform="matrix(0.05,0,0,0.05,78.9,0)" xlink:href="#aM"/><use transform="matrix(0.05,0,0,0.05,82.85000000000001,0)" xlink:href="#bd"/><use transform="matrix(0.05,0,0,0.05,92.85000000000001,0)" xlink:href="#aQ"/><use transform="matrix(0.05,0,0,0.05,102.85000000000001,0)" xlink:href="#aO"/></g><g id="l"><use transform="matrix(0.05,0,0,0.05,0,0)" xlink:href="#ba"/><use transform="matrix(0.05,0,0,0.05,12,0)" xlink:href="#aR"/><use transform="matrix(0.05,0,0,0.05,17,0)" xlink:href="#aU"/><use transform="matrix(0.05,0,0,0.05,22.95,0)" xlink:href="#aM"/><use transform="matrix(0.05,0,0,0.05,26.899999999999995,0)" xlink:href="#aQ"/><use transform="matrix(0.05,0,0,0.05,36.9,0)" xlink:href="#aT"/></g><path fill="#333" d="M118-107v75H92v-75H18v-26h74v-75h26v75h74v26h-74" id="bg"/><use transform="matrix(0.05,0,0,0.05,0,0)" xlink:href="#bg" id="m"/><path fill="#333" d="M87 75C49 33 22-17 22-94c0-76 28-126 65-167h31c-38 41-64 92-64 168S80 34 118 75H87" id="bh"/><path fill="#333" d="M33-261c38 41 65 92 65 168S71 34 33 75H2C39 34 66-17 66-93S39-220 2-261h31" id="bi"/><g id="n"><use transform="matrix(0.05,0,0,0.05,0,0)" xlink:href="#aX"/><use transform="matrix(0.05,0,0,0.05,10,0)" xlink:href="#aT"/><use transform="matrix(0.05,0,0,0.05,20,0)" xlink:href="#aU"/><use transform="matrix(0.05,0,0,0.05,25.950000000000003,0)" xlink:href="#aS"/><use transform="matrix(0.05,0,0,0.05,35.95,0)" xlink:href="#aT"/><use transform="matrix(0.05,0,0,0.05,45.95,0)" xlink:href="#aX"/><use transform="matrix(0.05,0,0,0.05,55.95,0)" xlink:href="#aU"/><use transform="matrix(0.05,0,0,0.05,61.900000000000006,0)" xlink:href="#bh"/><use transform="matrix(0.05,0,0,0.05,67.85000000000001,0)" xlink:href="#bi"/></g><path fill="#333" d="M84 4C-5 8 30-112 23-190h32v120c0 31 7 50 39 49 72-2 45-101 50-169h31l1 190h-30c-1-10 1-25-2-33-11 22-28 36-60 37" id="bj"/><path fill="#333" d="M9 0v-24l116-142H16v-24h144v24L44-24h123V0H9" id="bk"/><g id="o"><use transform="matrix(0.05,0,0,0.05,0,0)" xlink:href="#aX"/><use transform="matrix(0.05,0,0,0.05,10,0)" xlink:href="#aY"/><use transform="matrix(0.05,0,0,0.05,19,0)" xlink:href="#aR"/><use transform="matrix(0.05,0,0,0.05,24,0)" xlink:href="#bj"/><use transform="matrix(0.05,0,0,0.05,34,0)" xlink:href="#aX"/><use transform="matrix(0.05,0,0,0.05,44,0)" xlink:href="#aW"/><use transform="matrix(0.05,0,0,0.05,47.95,0)" xlink:href="#aM"/><use transform="matrix(0.05,0,0,0.05,51.900000000000006,0)" xlink:href="#bk"/><use transform="matrix(0.05,0,0,0.05,60.900000000000006,0)" xlink:href="#aX"/><use transform="matrix(0.05,0,0,0.05,70.9,0)" xlink:href="#aU"/><use transform="matrix(0.05,0,0,0.05,76.85000000000001,0)" xlink:href="#bh"/><use transform="matrix(0.05,0,0,0.05,82.80000000000001,0)" xlink:href="#bi"/></g><g id="p"><use transform="matrix(0.05,0,0,0.05,0,0)" xlink:href="#aS"/><use transform="matrix(0.05,0,0,0.05,10,0)" xlink:href="#aW"/><use transform="matrix(0.05,0,0,0.05,13.949999999999998,0)" xlink:href="#aM"/><use transform="matrix(0.05,0,0,0.05,17.9,0)" xlink:href="#bb"/><use transform="matrix(0.05,0,0,0.05,32.85,0)" xlink:href="#aM"/><use transform="matrix(0.05,0,0,0.05,36.800000000000004,0)" xlink:href="#aQ"/><use transform="matrix(0.05,0,0,0.05,46.800000000000004,0)" xlink:href="#aX"/><use transform="matrix(0.05,0,0,0.05,56.800000000000004,0)" xlink:href="#aU"/><use transform="matrix(0.05,0,0,0.05,62.75,0)" xlink:href="#bh"/><use transform="matrix(0.05,0,0,0.05,68.7,0)" xlink:href="#bi"/></g><path fill="#333" d="M136-208V0H84v-208H4v-40h212v40h-80" id="bl"/><path fill="#333" d="M135-194c53 0 70 44 70 98 0 56-19 98-73 100-31 1-45-17-59-34 3 33 2 69 2 105H25l-1-265h48c2 10 0 23 3 31 11-24 29-35 60-35zM114-30c33 0 39-31 40-66 0-38-9-64-40-64-56 0-55 130 0 130" id="bm"/><g id="q"><use transform="matrix(0.05,0,0,0.05,0,0)" xlink:href="#bl"/><use transform="matrix(0.05,0,0,0.05,10.600000000000001,0)" xlink:href="#aG"/><use transform="matrix(0.05,0,0,0.05,15.600000000000001,0)" xlink:href="#bm"/><use transform="matrix(0.05,0,0,0.05,26.55,0)" xlink:href="#aK"/><use transform="matrix(0.05,0,0,0.05,37.50000000000001,0)" xlink:href="#aD"/><use transform="matrix(0.05,0,0,0.05,48.50000000000001,0)" xlink:href="#aE"/><use transform="matrix(0.05,0,0,0.05,58.5,0)" xlink:href="#aF"/><use transform="matrix(0.05,0,0,0.05,69.45,0)" xlink:href="#aG"/><use transform="matrix(0.05,0,0,0.05,74.45,0)" xlink:href="#aH"/><use transform="matrix(0.05,0,0,0.05,84.45,0)" xlink:href="#aI"/><use transform="matrix(0.05,0,0,0.05,95.4,0)" xlink:href="#aJ"/><use transform="matrix(0.05,0,0,0.05,100.4,0)" xlink:href="#aK"/></g><g id="r"><use transform="matrix(0.05,0,0,0.05,0,0)" xlink:href="#aR"/><use transform="matrix(0.05,0,0,0.05,5,0)" xlink:href="#aM"/><use transform="matrix(0.05,0,0,0.05,8.95,0)" xlink:href="#aV"/><use transform="matrix(0.05,0,0,0.05,18.95,0)" xlink:href="#bd"/><use transform="matrix(0.05,0,0,0.05,28.950000000000003,0)" xlink:href="#aO"/></g><g id="s"><use transform="matrix(0.05,0,0,0.05,0,0)" xlink:href="#ba"/><use transform="matrix(0.05,0,0,0.05,12,0)" xlink:href="#aR"/><use transform="matrix(0.05,0,0,0.05,17,0)" xlink:href="#aU"/><use transform="matrix(0.05,0,0,0.05,22.95,0)" xlink:href="#aM"/><use transform="matrix(0.05,0,0,0.05,26.899999999999995,0)" xlink:href="#aQ"/><use transform="matrix(0.05,0,0,0.05,36.9,0)" xlink:href="#aT"/></g><path fill="#333" d="M156-25L96-89v-11l60-65h29v5l-59 66 60 64v5h-30zm-82 0L15-89v-11l59-65h29v5L44-94l59 64v5H74" id="bn"/><path fill="#333" d="M126-25H97v-5l59-64-59-66v-5h29l60 65v11zm-82 0H15v-5l59-64-59-66v-5h29l59 65v11" id="bo"/><g id="t"><use transform="matrix(0.04320987654320988,0,0,0.04320987654320988,0,0)" xlink:href="#bn"/><use transform="matrix(0.04320987654320988,0,0,0.04320987654320988,8.641975308641976,0)" xlink:href="#bj"/><use transform="matrix(0.04320987654320988,0,0,0.04320987654320988,17.283950617283953,0)" xlink:href="#aZ"/><use transform="matrix(0.04320987654320988,0,0,0.04320987654320988,25.06172839506173,0)" xlink:href="#aS"/><use transform="matrix(0.04320987654320988,0,0,0.04320987654320988,33.70370370370371,0)" xlink:href="#bo"/></g><path fill="#a9afb8" d="M24-248c120-7 223 5 221 122C244-46 201 0 124 0H24v-248zM76-40c74 7 117-18 117-86 0-67-45-88-117-82v168" id="bp"/><path fill="#a9afb8" d="M25-224v-37h50v37H25zM25 0v-190h50V0H25" id="bq"/><path fill="#a9afb8" d="M133-34C117-15 103 5 69 4 32 3 11-16 11-54c-1-60 55-63 116-61 1-26-3-47-28-47-18 1-26 9-28 27l-52-2c7-38 36-58 82-57s74 22 75 68l1 82c-1 14 12 18 25 15v27c-30 8-71 5-69-32zm-48 3c29 0 43-24 42-57-32 0-66-3-65 30 0 17 8 27 23 27" id="br"/><path fill="#a9afb8" d="M195-6C206 82 75 100 31 46c-4-6-6-13-8-21l49-6c3 16 16 24 34 25 40 0 42-37 40-79-11 22-30 35-61 35-53 0-70-43-70-97 0-56 18-96 73-97 30 0 46 14 59 34l2-30h47zm-90-29c32 0 41-27 41-63 0-35-9-62-40-62-32 0-39 29-40 63 0 36 9 62 39 62" id="bs"/><path fill="#a9afb8" d="M135-150c-39-12-60 13-60 57V0H25l-1-190h47c2 13-1 29 3 40 6-28 27-53 61-41v41" id="bt"/><path fill="#a9afb8" d="M220-157c-53 9-28 100-34 157h-49v-107c1-27-5-49-29-50C55-147 81-57 75 0H25l-1-190h47c2 12-1 28 3 38 10-53 101-56 108 0 13-22 24-43 59-42 82 1 51 116 57 194h-49v-107c-1-25-5-48-29-50" id="bu"/><g id="u"><use transform="matrix(0.0728395061728395,0,0,0.0728395061728395,0,0)" xlink:href="#bp"/><use transform="matrix(0.0728395061728395,0,0,0.0728395061728395,18.86543209876543,0)" xlink:href="#bq"/><use transform="matrix(0.0728395061728395,0,0,0.0728395061728395,26.14938271604938,0)" xlink:href="#br"/><use transform="matrix(0.0728395061728395,0,0,0.0728395061728395,40.717283950617286,0)" xlink:href="#bs"/><use transform="matrix(0.0728395061728395,0,0,0.0728395061728395,56.66913580246913,0)" xlink:href="#bt"/><use transform="matrix(0.0728395061728395,0,0,0.0728395061728395,66.86666666666666,0)" xlink:href="#br"/><use transform="matrix(0.0728395061728395,0,0,0.0728395061728395,81.43456790123457,0)" xlink:href="#bu"/><use transform="matrix(0.0728395061728395,0,0,0.0728395061728395,104.7432098765432,0)" xlink:href="#br"/></g><path fill="#a9afb8" d="M88-194c31-1 46 15 58 34l-1-101h50l1 261h-48c-2-10 0-23-3-31C134-8 116 4 84 4 32 4 16-41 15-95c0-56 19-97 73-99zm17 164c33 0 40-30 41-66 1-37-9-64-41-64s-38 30-39 65c0 43 13 65 39 65" id="bv"/><path fill="#a9afb8" d="M185-48c-13 30-37 53-82 52C43 2 14-33 14-96s30-98 90-98c62 0 83 45 84 108H66c0 31 8 55 39 56 18 0 30-7 34-22zm-45-69c5-46-57-63-70-21-2 6-4 13-4 21h74" id="bw"/><g id="v"><use transform="matrix(0.0728395061728395,0,0,0.0728395061728395,0,0)" xlink:href="#bv"/><use transform="matrix(0.0728395061728395,0,0,0.0728395061728395,15.95185185185185,0)" xlink:href="#bw"/></g><path fill="#a9afb8" d="M190-63c-7 42-38 67-86 67-59 0-84-38-90-98-12-110 154-137 174-36l-49 2c-2-19-15-32-35-32-30 0-35 28-38 64-6 74 65 87 74 30" id="bx"/><path fill="#a9afb8" d="M25 0v-261h50V0H25" id="by"/><path fill="#a9afb8" d="M137-138c1-29-70-34-71-4 15 46 118 7 119 86 1 83-164 76-172 9l43-7c4 19 20 25 44 25 33 8 57-30 24-41C81-84 22-81 20-136c-2-80 154-74 161-7" id="bz"/><g id="w"><use transform="matrix(0.0728395061728395,0,0,0.0728395061728395,0,0)" xlink:href="#bx"/><use transform="matrix(0.0728395061728395,0,0,0.0728395061728395,14.5679012345679,0)" xlink:href="#by"/><use transform="matrix(0.0728395061728395,0,0,0.0728395061728395,21.85185185185185,0)" xlink:href="#br"/><use transform="matrix(0.0728395061728395,0,0,0.0728395061728395,36.41975308641975,0)" xlink:href="#bz"/><use transform="matrix(0.0728395061728395,0,0,0.0728395061728395,50.98765432098765,0)" xlink:href="#bw"/><use transform="matrix(0.0728395061728395,0,0,0.0728395061728395,65.55555555555556,0)" xlink:href="#bz"/></g><path fill="#a9afb8" d="M24-248c93 1 206-16 204 79-1 75-69 88-152 82V0H24v-248zm52 121c47 0 100 7 100-41 0-47-54-39-100-39v80" id="bA"/><path fill="#a9afb8" d="M84 4C32 4 15-41 15-95c0-55 18-99 73-99 29 0 47 12 58 34l2-30h48l-1 265h-49V-32C136-9 114 4 84 4zm21-34c32 0 41-29 41-66 0-36-9-64-40-64-33 0-39 30-40 65 0 43 13 65 39 65" id="bB"/><path fill="#a9afb8" d="M85 4C-2 5 27-109 22-190h50c7 57-23 150 33 157 60-5 35-97 40-157h50l1 190h-47c-2-12 1-28-3-38-12 25-28 42-61 42" id="bC"/><path fill="#a9afb8" d="M110-194c64 0 96 36 96 99 0 64-35 99-97 99-61 0-95-36-95-99 0-62 34-99 96-99zm-1 164c35 0 45-28 45-65 0-40-10-65-43-65-34 0-45 26-45 65 0 36 10 65 43 65" id="bD"/><g id="x"><use transform="matrix(0.04248971193415638,0,0,0.04248971193415638,0,0)" xlink:href="#bA"/><use transform="matrix(0.04248971193415638,0,0,0.04248971193415638,10.19753086419753,0)" xlink:href="#br"/><use transform="matrix(0.04248971193415638,0,0,0.04248971193415638,18.695473251028805,0)" xlink:href="#bt"/><use transform="matrix(0.04248971193415638,0,0,0.04248971193415638,24.644032921810698,0)" xlink:href="#bB"/><use transform="matrix(0.04248971193415638,0,0,0.04248971193415638,33.949279835390946,0)" xlink:href="#bC"/><use transform="matrix(0.04248971193415638,0,0,0.04248971193415638,43.254526748971195,0)" xlink:href="#bw"/><use transform="matrix(0.04248971193415638,0,0,0.04248971193415638,51.752469135802464,0)" xlink:href="#br"/><use transform="matrix(0.04248971193415638,0,0,0.04248971193415638,60.250411522633755,0)" xlink:href="#bv"/><use transform="matrix(0.04248971193415638,0,0,0.04248971193415638,69.55565843621399,0)" xlink:href="#bw"/><use transform="matrix(0.04248971193415638,0,0,0.04248971193415638,78.05360082304526,0)" xlink:href="#bt"/><use transform="matrix(0.04248971193415638,0,0,0.04248971193415638,84.00216049382715,0)" xlink:href="#bD"/></g><path fill="#333" d="M67-125c0 53 21 87 73 88 37 1 54-22 65-47l45 17C233-25 199 4 140 4 58 4 20-42 15-125 8-235 124-281 211-232c18 10 29 29 36 50l-46 12c-8-25-30-41-62-41-52 0-71 34-72 86" id="bE"/><path fill="#333" d="M220-157c-53 9-28 100-34 157h-49v-107c1-27-5-49-29-50C55-147 81-57 75 0H25l-1-190h47c2 12-1 28 3 38 10-53 101-56 108 0 13-22 24-43 59-42 82 1 51 116 57 194h-49v-107c-1-25-5-48-29-50" id="bF"/><path fill="#333" d="M135-150c-39-12-60 13-60 57V0H25l-1-190h47c2 13-1 29 3 40 6-28 27-53 61-41v41" id="bG"/><path fill="#333" d="M135-194c52 0 70 43 70 98 0 56-19 99-73 100-30 1-46-15-58-35L72 0H24l1-261h50v104c11-23 29-37 60-37zM114-30c31 0 40-27 40-66 0-37-7-63-39-63s-41 28-41 65c0 36 8 64 40 64" id="bH"/><path fill="#333" d="M133-34C117-15 103 5 69 4 32 3 11-16 11-54c-1-60 55-63 116-61 1-26-3-47-28-47-18 1-26 9-28 27l-52-2c7-38 36-58 82-57s74 22 75 68l1 82c-1 14 12 18 25 15v27c-30 8-71 5-69-32zm-48 3c29 0 43-24 42-57-32 0-66-3-65 30 0 17 8 27 23 27" id="bI"/><path fill="#333" d="M135-194c87-1 58 113 63 194h-50c-7-57 23-157-34-157-59 0-34 97-39 157H25l-1-190h47c2 12-1 28 3 38 12-26 28-41 61-42" id="bJ"/><path fill="#333" d="M115-3C79 11 28 4 28-45v-112H4v-33h27l15-45h31v45h36v33H77v99c-1 23 16 31 38 25v30" id="bK"/><g id="y"><use transform="matrix(0.05,0,0,0.05,0,0)" xlink:href="#bE"/><use transform="matrix(0.05,0,0,0.05,12.950000000000001,0)" xlink:href="#aK"/><use transform="matrix(0.05,0,0,0.05,23.900000000000002,0)" xlink:href="#bF"/><use transform="matrix(0.05,0,0,0.05,39.900000000000006,0)" xlink:href="#bm"/><use transform="matrix(0.05,0,0,0.05,50.85000000000001,0)" xlink:href="#bG"/><use transform="matrix(0.05,0,0,0.05,57.85,0)" xlink:href="#aK"/><use transform="matrix(0.05,0,0,0.05,68.80000000000001,0)" xlink:href="#bH"/><use transform="matrix(0.05,0,0,0.05,79.75000000000001,0)" xlink:href="#bI"/><use transform="matrix(0.05,0,0,0.05,89.75000000000001,0)" xlink:href="#bJ"/><use transform="matrix(0.05,0,0,0.05,100.70000000000002,0)" xlink:href="#bK"/><use transform="matrix(0.05,0,0,0.05,106.65000000000003,0)" xlink:href="#aE"/></g><path fill="#333" d="M30-248c87 1 191-15 191 75 0 78-77 80-158 76V0H30v-248zm33 125c57 0 124 11 124-50 0-59-68-47-124-48v98" id="bL"/><g id="z"><use transform="matrix(0.05,0,0,0.05,0,0)" xlink:href="#aM"/><use transform="matrix(0.05,0,0,0.05,3.95,0)" xlink:href="#aN"/><use transform="matrix(0.05,0,0,0.05,13.949999999999998,0)" xlink:href="#bL"/><use transform="matrix(0.05,0,0,0.05,25.950000000000003,0)" xlink:href="#aW"/><use transform="matrix(0.05,0,0,0.05,29.899999999999995,0)" xlink:href="#aX"/><use transform="matrix(0.05,0,0,0.05,39.9,0)" xlink:href="#bk"/><use transform="matrix(0.05,0,0,0.05,48.9,0)" xlink:href="#aX"/><use transform="matrix(0.05,0,0,0.05,58.900000000000006,0)" xlink:href="#aO"/></g><path fill="#333" d="M212-179c-10-28-35-45-73-45-59 0-87 40-87 99 0 60 29 101 89 101 43 0 62-24 78-52l27 14C228-24 195 4 139 4 59 4 22-46 18-125c-6-104 99-153 187-111 19 9 31 26 39 46" id="bM"/><g id="A"><use transform="matrix(0.05,0,0,0.05,0,0)" xlink:href="#aM"/><use transform="matrix(0.05,0,0,0.05,3.95,0)" xlink:href="#aN"/><use transform="matrix(0.05,0,0,0.05,13.949999999999998,0)" xlink:href="#bM"/><use transform="matrix(0.05,0,0,0.05,26.899999999999995,0)" xlink:href="#aW"/><use transform="matrix(0.05,0,0,0.05,30.849999999999994,0)" xlink:href="#aM"/><use transform="matrix(0.05,0,0,0.05,34.8,0)" xlink:href="#aS"/><use transform="matrix(0.05,0,0,0.05,44.8,0)" xlink:href="#aQ"/><use transform="matrix(0.05,0,0,0.05,54.79999999999999,0)" xlink:href="#aR"/><use transform="matrix(0.05,0,0,0.05,59.79999999999999,0)" xlink:href="#aS"/><use transform="matrix(0.05,0,0,0.05,69.8,0)" xlink:href="#aO"/></g><path fill="#333" d="M137 0h-34L2-248h35l83 218 83-218h36" id="bN"/><path fill="#333" d="M106-169C34-169 62-67 57 0H25v-261h32l-1 103c12-21 28-36 61-36 89 0 53 116 60 194h-32v-121c2-32-8-49-39-48" id="bO"/><g id="B"><use transform="matrix(0.05,0,0,0.05,0,0)" xlink:href="#aM"/><use transform="matrix(0.05,0,0,0.05,3.95,0)" xlink:href="#aN"/><use transform="matrix(0.05,0,0,0.05,13.949999999999998,0)" xlink:href="#bN"/><use transform="matrix(0.05,0,0,0.05,24.95,0)" xlink:href="#aS"/><use transform="matrix(0.05,0,0,0.05,34.95,0)" xlink:href="#bO"/><use transform="matrix(0.05,0,0,0.05,44.95,0)" xlink:href="#aM"/><use transform="matrix(0.05,0,0,0.05,48.900000000000006,0)" xlink:href="#aY"/><use transform="matrix(0.05,0,0,0.05,57.900000000000006,0)" xlink:href="#bj"/><use transform="matrix(0.05,0,0,0.05,67.9,0)" xlink:href="#aW"/><use transform="matrix(0.05,0,0,0.05,71.85000000000001,0)" xlink:href="#bd"/><use transform="matrix(0.05,0,0,0.05,81.85000000000001,0)" xlink:href="#aO"/></g><path fill="#333" d="M30 0v-248h187v28H63v79h144v27H63v87h162V0H30" id="bP"/><g id="C"><use transform="matrix(0.05,0,0,0.05,0,0)" xlink:href="#aM"/><use transform="matrix(0.05,0,0,0.05,3.95,0)" xlink:href="#aN"/><use transform="matrix(0.05,0,0,0.05,13.949999999999998,0)" xlink:href="#bP"/><use transform="matrix(0.05,0,0,0.05,25.950000000000003,0)" xlink:href="#bb"/><use transform="matrix(0.05,0,0,0.05,40.9,0)" xlink:href="#aV"/><use transform="matrix(0.05,0,0,0.05,50.9,0)" xlink:href="#aW"/><use transform="matrix(0.05,0,0,0.05,54.85,0)" xlink:href="#aS"/><use transform="matrix(0.05,0,0,0.05,64.85,0)" xlink:href="#aX"/><use transform="matrix(0.05,0,0,0.05,74.85,0)" xlink:href="#aN"/><use transform="matrix(0.05,0,0,0.05,84.85,0)" xlink:href="#bd"/><use transform="matrix(0.05,0,0,0.05,94.85,0)" xlink:href="#aO"/></g><path fill="#333" d="M101-234c-31-9-42 10-38 44h38v23H63V0H32v-167H5v-23h27c-7-52 17-82 69-68v24" id="bQ"/><g id="D"><use transform="matrix(0.05,0,0,0.05,0,0)" xlink:href="#bQ"/><use transform="matrix(0.05,0,0,0.05,5,0)" xlink:href="#aS"/><use transform="matrix(0.05,0,0,0.05,15,0)" xlink:href="#aY"/><use transform="matrix(0.05,0,0,0.05,24,0)" xlink:href="#bO"/><use transform="matrix(0.05,0,0,0.05,34,0)" xlink:href="#aX"/><use transform="matrix(0.05,0,0,0.05,44,0)" xlink:href="#aP"/><use transform="matrix(0.05,0,0,0.05,49,0)" xlink:href="#aQ"/><use transform="matrix(0.05,0,0,0.05,59,0)" xlink:href="#aT"/><use transform="matrix(0.05,0,0,0.05,69,0)" xlink:href="#aU"/><use transform="matrix(0.05,0,0,0.05,74.95,0)" xlink:href="#aS"/><use transform="matrix(0.05,0,0,0.05,84.95,0)" xlink:href="#aZ"/><use transform="matrix(0.05,0,0,0.05,93.95,0)" xlink:href="#bd"/><use transform="matrix(0.05,0,0,0.05,103.95,0)" xlink:href="#aO"/></g><path fill="#333" d="M30-248c118-7 216 8 213 122C240-48 200 0 122 0H30v-248zM63-27c89 8 146-16 146-99s-60-101-146-95v194" id="bR"/><g id="E"><use transform="matrix(0.05,0,0,0.05,0,0)" xlink:href="#bR"/><use transform="matrix(0.05,0,0,0.05,12.950000000000001,0)" xlink:href="#aX"/><use transform="matrix(0.05,0,0,0.05,22.950000000000003,0)" xlink:href="#aR"/><use transform="matrix(0.05,0,0,0.05,27.950000000000003,0)" xlink:href="#aS"/></g><g id="F"><use transform="matrix(0.05,0,0,0.05,0,0)" xlink:href="#aT"/><use transform="matrix(0.05,0,0,0.05,10,0)" xlink:href="#aS"/><use transform="matrix(0.05,0,0,0.05,20,0)" xlink:href="#aQ"/><use transform="matrix(0.05,0,0,0.05,30,0)" xlink:href="#aS"/><use transform="matrix(0.05,0,0,0.05,40,0)" xlink:href="#aU"/><use transform="matrix(0.05,0,0,0.05,45.95,0)" xlink:href="#aX"/><use transform="matrix(0.05,0,0,0.05,55.95,0)" xlink:href="#aU"/><use transform="matrix(0.05,0,0,0.05,61.900000000000006,0)" xlink:href="#bM"/><use transform="matrix(0.05,0,0,0.05,74.85000000000001,0)" xlink:href="#bd"/><use transform="matrix(0.05,0,0,0.05,84.85000000000001,0)" xlink:href="#bb"/><use transform="matrix(0.05,0,0,0.05,99.80000000000001,0)" xlink:href="#aV"/><use transform="matrix(0.05,0,0,0.05,109.80000000000001,0)" xlink:href="#aU"/><use transform="matrix(0.05,0,0,0.05,115.75,0)" xlink:href="#bd"/><use transform="matrix(0.05,0,0,0.05,125.75,0)" xlink:href="#be"/><use transform="matrix(0.05,0,0,0.05,135.75,0)" xlink:href="#aX"/><use transform="matrix(0.05,0,0,0.05,145.75,0)" xlink:href="#aQ"/><use transform="matrix(0.05,0,0,0.05,155.75,0)" xlink:href="#aR"/><use transform="matrix(0.05,0,0,0.05,160.75,0)" xlink:href="#aS"/><use transform="matrix(0.05,0,0,0.05,170.75,0)" xlink:href="#bh"/><use transform="matrix(0.05,0,0,0.05,176.7,0)" xlink:href="#bi"/></g><path fill="#333" d="M76-208v77h127v40H76V0H24v-248h183v40H76" id="bS"/><g id="G"><use transform="matrix(0.05,0,0,0.05,0,0)" xlink:href="#bS"/><use transform="matrix(0.05,0,0,0.05,10.950000000000001,0)" xlink:href="#bI"/><use transform="matrix(0.05,0,0,0.05,20.950000000000003,0)" xlink:href="#aH"/><use transform="matrix(0.05,0,0,0.05,30.950000000000003,0)" xlink:href="#bK"/><use transform="matrix(0.05,0,0,0.05,36.900000000000006,0)" xlink:href="#aI"/><use transform="matrix(0.05,0,0,0.05,47.85000000000001,0)" xlink:href="#bG"/><use transform="matrix(0.05,0,0,0.05,54.85,0)" xlink:href="#bI"/></g><g id="H"><use transform="matrix(0.05,0,0,0.05,0,0)" xlink:href="#aM"/><use transform="matrix(0.05,0,0,0.05,3.95,0)" xlink:href="#aN"/><use transform="matrix(0.05,0,0,0.05,13.949999999999998,0)" xlink:href="#bM"/><use transform="matrix(0.05,0,0,0.05,26.899999999999995,0)" xlink:href="#bd"/><use transform="matrix(0.05,0,0,0.05,36.9,0)" xlink:href="#bb"/><use transform="matrix(0.05,0,0,0.05,51.85,0)" xlink:href="#aV"/><use transform="matrix(0.05,0,0,0.05,61.85,0)" xlink:href="#aU"/><use transform="matrix(0.05,0,0,0.05,67.8,0)" xlink:href="#bd"/><use transform="matrix(0.05,0,0,0.05,77.8,0)" xlink:href="#be"/><use transform="matrix(0.05,0,0,0.05,87.8,0)" xlink:href="#aX"/><use transform="matrix(0.05,0,0,0.05,97.8,0)" xlink:href="#aQ"/><use transform="matrix(0.05,0,0,0.05,107.80000000000001,0)" xlink:href="#aR"/><use transform="matrix(0.05,0,0,0.05,112.80000000000001,0)" xlink:href="#aS"/><use transform="matrix(0.05,0,0,0.05,122.80000000000001,0)" xlink:href="#aO"/></g><path fill="#333" d="M240 0l2-218c-23 76-54 145-80 218h-23L58-218 59 0H30v-248h44l77 211c21-75 51-140 76-211h43V0h-30" id="bT"/><g id="I"><use transform="matrix(0.05,0,0,0.05,0,0)" xlink:href="#aM"/><use transform="matrix(0.05,0,0,0.05,3.95,0)" xlink:href="#aN"/><use transform="matrix(0.05,0,0,0.05,13.949999999999998,0)" xlink:href="#bT"/><use transform="matrix(0.05,0,0,0.05,28.899999999999995,0)" xlink:href="#aS"/><use transform="matrix(0.05,0,0,0.05,38.9,0)" xlink:href="#aR"/><use transform="matrix(0.05,0,0,0.05,43.9,0)" xlink:href="#bd"/><use transform="matrix(0.05,0,0,0.05,53.900000000000006,0)" xlink:href="#aN"/><use transform="matrix(0.05,0,0,0.05,63.900000000000006,0)" xlink:href="#bd"/><use transform="matrix(0.05,0,0,0.05,73.9,0)" xlink:href="#aO"/></g><g id="J"><use transform="matrix(0.05,0,0,0.05,0,0)" xlink:href="#aM"/><use transform="matrix(0.05,0,0,0.05,3.95,0)" xlink:href="#aN"/><use transform="matrix(0.05,0,0,0.05,13.949999999999998,0)" xlink:href="#bc"/><use transform="matrix(0.05,0,0,0.05,22.9,0)" xlink:href="#aX"/><use transform="matrix(0.05,0,0,0.05,32.9,0)" xlink:href="#aU"/><use transform="matrix(0.05,0,0,0.05,38.85,0)" xlink:href="#aM"/><use transform="matrix(0.05,0,0,0.05,42.800000000000004,0)" xlink:href="#bQ"/><use transform="matrix(0.05,0,0,0.05,47.800000000000004,0)" xlink:href="#aX"/><use transform="matrix(0.05,0,0,0.05,57.800000000000004,0)" xlink:href="#aO"/></g><g id="K"><use transform="matrix(0.05,0,0,0.05,0,0)" xlink:href="#bQ"/><use transform="matrix(0.05,0,0,0.05,5,0)" xlink:href="#aS"/><use transform="matrix(0.05,0,0,0.05,15,0)" xlink:href="#aY"/><use transform="matrix(0.05,0,0,0.05,24,0)" xlink:href="#bO"/><use transform="matrix(0.05,0,0,0.05,34,0)" xlink:href="#aX"/><use transform="matrix(0.05,0,0,0.05,44,0)" xlink:href="#ba"/><use transform="matrix(0.05,0,0,0.05,56,0)" xlink:href="#aX"/><use transform="matrix(0.05,0,0,0.05,66,0)" xlink:href="#aW"/><use transform="matrix(0.05,0,0,0.05,69.95,0)" xlink:href="#aM"/><use transform="matrix(0.05,0,0,0.05,73.9,0)" xlink:href="#aN"/><use transform="matrix(0.05,0,0,0.05,83.9,0)" xlink:href="#aX"/><use transform="matrix(0.05,0,0,0.05,93.9,0)" xlink:href="#aO"/></g><g id="L"><use transform="matrix(0.05,0,0,0.05,0,0)" xlink:href="#bR"/><use transform="matrix(0.05,0,0,0.05,12.950000000000001,0)" xlink:href="#aX"/><use transform="matrix(0.05,0,0,0.05,22.950000000000003,0)" xlink:href="#aR"/><use transform="matrix(0.05,0,0,0.05,27.950000000000003,0)" xlink:href="#aS"/></g><g id="M"><use transform="matrix(0.05,0,0,0.05,0,0)" xlink:href="#aY"/><use transform="matrix(0.05,0,0,0.05,9,0)" xlink:href="#aX"/><use transform="matrix(0.05,0,0,0.05,19,0)" xlink:href="#aW"/><use transform="matrix(0.05,0,0,0.05,22.95,0)" xlink:href="#aY"/><use transform="matrix(0.05,0,0,0.05,31.950000000000003,0)" xlink:href="#bj"/><use transform="matrix(0.05,0,0,0.05,41.95,0)" xlink:href="#aW"/><use transform="matrix(0.05,0,0,0.05,45.900000000000006,0)" xlink:href="#aX"/><use transform="matrix(0.05,0,0,0.05,55.900000000000006,0)" xlink:href="#aU"/><use transform="matrix(0.05,0,0,0.05,61.85,0)" xlink:href="#bc"/><use transform="matrix(0.05,0,0,0.05,72.15,0)" xlink:href="#aM"/><use transform="matrix(0.05,0,0,0.05,76.10000000000001,0)" xlink:href="#aS"/><use transform="matrix(0.05,0,0,0.05,86.10000000000001,0)" xlink:href="#bb"/><use transform="matrix(0.05,0,0,0.05,101.05000000000001,0)" xlink:href="#aV"/><use transform="matrix(0.05,0,0,0.05,111.05000000000001,0)" xlink:href="#bd"/><use transform="matrix(0.05,0,0,0.05,121.05000000000001,0)" xlink:href="#bh"/><use transform="matrix(0.05,0,0,0.05,127,0)" xlink:href="#bi"/></g><g id="N"><use transform="matrix(0.05,0,0,0.05,0,0)" xlink:href="#aY"/><use transform="matrix(0.05,0,0,0.05,9,0)" xlink:href="#aX"/><use transform="matrix(0.05,0,0,0.05,19,0)" xlink:href="#aW"/><use transform="matrix(0.05,0,0,0.05,22.95,0)" xlink:href="#aY"/><use transform="matrix(0.05,0,0,0.05,31.950000000000003,0)" xlink:href="#bj"/><use transform="matrix(0.05,0,0,0.05,41.95,0)" xlink:href="#aW"/><use transform="matrix(0.05,0,0,0.05,45.900000000000006,0)" xlink:href="#aX"/><use transform="matrix(0.05,0,0,0.05,55.900000000000006,0)" xlink:href="#aU"/><use transform="matrix(0.05,0,0,0.05,61.85,0)" xlink:href="#bL"/><use transform="matrix(0.05,0,0,0.05,73.85000000000001,0)" xlink:href="#aX"/><use transform="matrix(0.05,0,0,0.05,83.85000000000001,0)" xlink:href="#aT"/><use transform="matrix(0.05,0,0,0.05,93.85000000000001,0)" xlink:href="#bd"/><use transform="matrix(0.05,0,0,0.05,103.85000000000001,0)" xlink:href="#bh"/><use transform="matrix(0.05,0,0,0.05,109.80000000000001,0)" xlink:href="#bi"/></g><path fill="#333" d="M63-220v92h138v28H63V0H30v-248h175v28H63" id="bU"/><g id="O"><use transform="matrix(0.05,0,0,0.05,0,0)" xlink:href="#aT"/><use transform="matrix(0.05,0,0,0.05,10,0)" xlink:href="#aS"/><use transform="matrix(0.05,0,0,0.05,20,0)" xlink:href="#aQ"/><use transform="matrix(0.05,0,0,0.05,30,0)" xlink:href="#aS"/><use transform="matrix(0.05,0,0,0.05,40,0)" xlink:href="#aU"/><use transform="matrix(0.05,0,0,0.05,45.95,0)" xlink:href="#aX"/><use transform="matrix(0.05,0,0,0.05,55.95,0)" xlink:href="#aU"/><use transform="matrix(0.05,0,0,0.05,61.900000000000006,0)" xlink:href="#bU"/><use transform="matrix(0.05,0,0,0.05,72.85000000000001,0)" xlink:href="#aX"/><use transform="matrix(0.05,0,0,0.05,82.85000000000001,0)" xlink:href="#aY"/><use transform="matrix(0.05,0,0,0.05,91.85000000000001,0)" xlink:href="#aR"/><use transform="matrix(0.05,0,0,0.05,96.85000000000001,0)" xlink:href="#bj"/><use transform="matrix(0.05,0,0,0.05,106.85000000000001,0)" xlink:href="#aU"/><use transform="matrix(0.05,0,0,0.05,112.80000000000001,0)" xlink:href="#aX"/><use transform="matrix(0.05,0,0,0.05,122.80000000000001,0)" xlink:href="#bh"/><use transform="matrix(0.05,0,0,0.05,128.75,0)" xlink:href="#bi"/></g><path fill="#333" d="M24-248c93 1 206-16 204 79-1 75-69 88-152 82V0H24v-248zm52 121c47 0 100 7 100-41 0-47-54-39-100-39v80" id="bV"/><path fill="#333" d="M12 0v-35l95-120H19v-35h142v35L67-36h103V0H12" id="bW"/><g id="P"><use transform="matrix(0.05,0,0,0.05,0,0)" xlink:href="#bV"/><use transform="matrix(0.05,0,0,0.05,12,0)" xlink:href="#aJ"/><use transform="matrix(0.05,0,0,0.05,17,0)" xlink:href="#bI"/><use transform="matrix(0.05,0,0,0.05,27,0)" xlink:href="#bW"/><use transform="matrix(0.05,0,0,0.05,36,0)" xlink:href="#bI"/></g><g id="Q"><use transform="matrix(0.05,0,0,0.05,0,0)" xlink:href="#aQ"/><use transform="matrix(0.05,0,0,0.05,10,0)" xlink:href="#bj"/><use transform="matrix(0.05,0,0,0.05,20,0)" xlink:href="#bb"/><use transform="matrix(0.05,0,0,0.05,34.95,0)" xlink:href="#aS"/><use transform="matrix(0.05,0,0,0.05,44.95,0)" xlink:href="#aU"/><use transform="matrix(0.05,0,0,0.05,50.900000000000006,0)" xlink:href="#bd"/><use transform="matrix(0.05,0,0,0.05,60.900000000000006,0)" xlink:href="#aO"/></g><g id="R"><use transform="matrix(0.05,0,0,0.05,0,0)" xlink:href="#aS"/><use transform="matrix(0.05,0,0,0.05,10,0)" xlink:href="#aZ"/><use transform="matrix(0.05,0,0,0.05,19,0)" xlink:href="#aR"/><use transform="matrix(0.05,0,0,0.05,24,0)" xlink:href="#aX"/><use transform="matrix(0.05,0,0,0.05,34,0)" xlink:href="#aN"/><use transform="matrix(0.05,0,0,0.05,44,0)" xlink:href="#bd"/><use transform="matrix(0.05,0,0,0.05,54,0)" xlink:href="#aO"/></g><g id="S"><use transform="matrix(0.05,0,0,0.05,0,0)" xlink:href="#bb"/><use transform="matrix(0.05,0,0,0.05,14.950000000000001,0)" xlink:href="#bd"/><use transform="matrix(0.05,0,0,0.05,24.950000000000003,0)" xlink:href="#aN"/><use transform="matrix(0.05,0,0,0.05,34.95,0)" xlink:href="#aM"/><use transform="matrix(0.05,0,0,0.05,38.900000000000006,0)" xlink:href="#bQ"/><use transform="matrix(0.05,0,0,0.05,43.900000000000006,0)" xlink:href="#aM"/><use transform="matrix(0.05,0,0,0.05,47.85000000000001,0)" xlink:href="#aY"/><use transform="matrix(0.05,0,0,0.05,56.85,0)" xlink:href="#aX"/><use transform="matrix(0.05,0,0,0.05,66.85000000000001,0)" xlink:href="#aU"/><use transform="matrix(0.05,0,0,0.05,72.80000000000001,0)" xlink:href="#bP"/><use transform="matrix(0.05,0,0,0.05,84.80000000000001,0)" xlink:href="#aZ"/><use transform="matrix(0.05,0,0,0.05,93.80000000000001,0)" xlink:href="#aR"/><use transform="matrix(0.05,0,0,0.05,98.80000000000001,0)" xlink:href="#aX"/><use transform="matrix(0.05,0,0,0.05,108.80000000000001,0)" xlink:href="#aN"/><use transform="matrix(0.05,0,0,0.05,118.80000000000001,0)" xlink:href="#bd"/><use transform="matrix(0.05,0,0,0.05,128.8,0)" xlink:href="#bh"/><use transform="matrix(0.05,0,0,0.05,134.75,0)" xlink:href="#bi"/></g><g id="T"><use transform="matrix(0.05,0,0,0.05,0,0)" xlink:href="#bE"/><use transform="matrix(0.05,0,0,0.05,12.950000000000001,0)" xlink:href="#aJ"/><use transform="matrix(0.05,0,0,0.05,17.950000000000003,0)" xlink:href="#aG"/><use transform="matrix(0.05,0,0,0.05,22.950000000000003,0)" xlink:href="#aE"/><use transform="matrix(0.05,0,0,0.05,32.95,0)" xlink:href="#bJ"/><use transform="matrix(0.05,0,0,0.05,43.900000000000006,0)" xlink:href="#bK"/><use transform="matrix(0.05,0,0,0.05,49.85000000000001,0)" xlink:href="#aE"/></g><use transform="matrix(0.05,0,0,0.05,0,0)" xlink:href="#aL" id="U"/><g id="V"><use transform="matrix(0.05,0,0,0.05,0,0)" xlink:href="#aY"/><use transform="matrix(0.05,0,0,0.05,9,0)" xlink:href="#bd"/><use transform="matrix(0.05,0,0,0.05,19,0)" xlink:href="#aU"/><use transform="matrix(0.05,0,0,0.05,24.95,0)" xlink:href="#aU"/><use transform="matrix(0.05,0,0,0.05,30.899999999999995,0)" xlink:href="#aS"/><use transform="matrix(0.05,0,0,0.05,40.9,0)" xlink:href="#bd"/><use transform="matrix(0.05,0,0,0.05,50.9,0)" xlink:href="#aO"/></g><g id="W"><use transform="matrix(0.05,0,0,0.05,0,0)" xlink:href="#aZ"/><use transform="matrix(0.05,0,0,0.05,9,0)" xlink:href="#bd"/><use transform="matrix(0.05,0,0,0.05,19,0)" xlink:href="#aW"/><use transform="matrix(0.05,0,0,0.05,22.95,0)" xlink:href="#aM"/><use transform="matrix(0.05,0,0,0.05,26.899999999999995,0)" xlink:href="#aY"/><use transform="matrix(0.05,0,0,0.05,35.9,0)" xlink:href="#aM"/><use transform="matrix(0.05,0,0,0.05,39.85,0)" xlink:href="#aR"/><use transform="matrix(0.05,0,0,0.05,44.85,0)" xlink:href="#aX"/><use transform="matrix(0.05,0,0,0.05,54.85,0)" xlink:href="#aU"/><use transform="matrix(0.05,0,0,0.05,60.800000000000004,0)" xlink:href="#aP"/><use transform="matrix(0.05,0,0,0.05,65.80000000000001,0)" xlink:href="#aQ"/><use transform="matrix(0.05,0,0,0.05,75.80000000000001,0)" xlink:href="#aT"/><use transform="matrix(0.05,0,0,0.05,85.80000000000001,0)" xlink:href="#aU"/><use transform="matrix(0.05,0,0,0.05,91.75000000000001,0)" xlink:href="#aS"/><use transform="matrix(0.05,0,0,0.05,101.75000000000001,0)" xlink:href="#aZ"/><use transform="matrix(0.05,0,0,0.05,110.75,0)" xlink:href="#bd"/><use transform="matrix(0.05,0,0,0.05,120.75,0)" xlink:href="#bh"/><use transform="matrix(0.05,0,0,0.05,126.7,0)" xlink:href="#bi"/></g><g id="X"><use transform="matrix(0.05,0,0,0.05,0,0)" xlink:href="#aZ"/><use transform="matrix(0.05,0,0,0.05,9,0)" xlink:href="#bd"/><use transform="matrix(0.05,0,0,0.05,19,0)" xlink:href="#aW"/><use transform="matrix(0.05,0,0,0.05,22.95,0)" xlink:href="#aM"/><use transform="matrix(0.05,0,0,0.05,26.899999999999995,0)" xlink:href="#aY"/><use transform="matrix(0.05,0,0,0.05,35.9,0)" xlink:href="#aM"/><use transform="matrix(0.05,0,0,0.05,39.85,0)" xlink:href="#aR"/><use transform="matrix(0.05,0,0,0.05,44.85,0)" xlink:href="#aX"/><use transform="matrix(0.05,0,0,0.05,54.85,0)" xlink:href="#aU"/><use transform="matrix(0.05,0,0,0.05,60.800000000000004,0)" xlink:href="#ba"/><use transform="matrix(0.05,0,0,0.05,72.80000000000001,0)" xlink:href="#aX"/><use transform="matrix(0.05,0,0,0.05,82.80000000000001,0)" xlink:href="#aW"/><use transform="matrix(0.05,0,0,0.05,86.75000000000001,0)" xlink:href="#aM"/><use transform="matrix(0.05,0,0,0.05,90.70000000000002,0)" xlink:href="#aN"/><use transform="matrix(0.05,0,0,0.05,100.70000000000002,0)" xlink:href="#aX"/><use transform="matrix(0.05,0,0,0.05,110.7,0)" xlink:href="#bh"/><use transform="matrix(0.05,0,0,0.05,116.65000000000003,0)" xlink:href="#bi"/></g><path fill="#333" d="M24 0v-248h195v40H76v63h132v40H76v65h150V0H24" id="bX"/><path fill="#333" d="M88-194c31-1 46 15 58 34l-1-101h50l1 261h-48c-2-10 0-23-3-31C134-8 116 4 84 4 32 4 16-41 15-95c0-56 19-97 73-99zm17 164c33 0 40-30 41-66 1-37-9-64-41-64s-38 30-39 65c0 43 13 65 39 65" id="bY"/><g id="Y"><use transform="matrix(0.05,0,0,0.05,0,0)" xlink:href="#bX"/><use transform="matrix(0.05,0,0,0.05,12,0)" xlink:href="#bF"/><use transform="matrix(0.05,0,0,0.05,28,0)" xlink:href="#bm"/><use transform="matrix(0.05,0,0,0.05,38.95,0)" xlink:href="#aJ"/><use transform="matrix(0.05,0,0,0.05,43.95,0)" xlink:href="#aE"/><use transform="matrix(0.05,0,0,0.05,53.95,0)" xlink:href="#bI"/><use transform="matrix(0.05,0,0,0.05,63.95,0)" xlink:href="#bY"/><use transform="matrix(0.05,0,0,0.05,74.9,0)" xlink:href="#aK"/></g><g id="Z"><use transform="matrix(0.05,0,0,0.05,0,0)" xlink:href="#aX"/><use transform="matrix(0.05,0,0,0.05,10,0)" xlink:href="#aU"/><use transform="matrix(0.05,0,0,0.05,15.949999999999998,0)" xlink:href="#aW"/><use transform="matrix(0.05,0,0,0.05,19.9,0)" xlink:href="#aO"/></g><g id="aa"><use transform="matrix(0.05,0,0,0.05,0,0)" xlink:href="#aS"/><use transform="matrix(0.05,0,0,0.05,10,0)" xlink:href="#aV"/><use transform="matrix(0.05,0,0,0.05,20,0)" xlink:href="#aZ"/><use transform="matrix(0.05,0,0,0.05,29,0)" xlink:href="#aO"/></g><g id="ab"><use transform="matrix(0.05,0,0,0.05,0,0)" xlink:href="#aZ"/><use transform="matrix(0.05,0,0,0.05,9,0)" xlink:href="#aX"/><use transform="matrix(0.05,0,0,0.05,19,0)" xlink:href="#aW"/><use transform="matrix(0.05,0,0,0.05,22.95,0)" xlink:href="#aX"/><use transform="matrix(0.05,0,0,0.05,32.95,0)" xlink:href="#aU"/><use transform="matrix(0.05,0,0,0.05,38.900000000000006,0)" xlink:href="#aM"/><use transform="matrix(0.05,0,0,0.05,42.85000000000001,0)" xlink:href="#bd"/><use transform="matrix(0.05,0,0,0.05,52.85,0)" xlink:href="#aO"/></g><g id="ac"><use transform="matrix(0.05,0,0,0.05,0,0)" xlink:href="#bR"/><use transform="matrix(0.05,0,0,0.05,12.950000000000001,0)" xlink:href="#bd"/><use transform="matrix(0.05,0,0,0.05,22.950000000000003,0)" xlink:href="#bj"/><use transform="matrix(0.05,0,0,0.05,32.95,0)" xlink:href="#be"/><use transform="matrix(0.05,0,0,0.05,42.95,0)" xlink:href="#aW"/><use transform="matrix(0.05,0,0,0.05,46.900000000000006,0)" xlink:href="#aS"/></g><g id="ad"><use transform="matrix(0.05,0,0,0.05,0,0)" xlink:href="#bf"/><use transform="matrix(0.05,0,0,0.05,9,0)" xlink:href="#aX"/><use transform="matrix(0.05,0,0,0.05,19,0)" xlink:href="#aW"/><use transform="matrix(0.05,0,0,0.05,22.95,0)" xlink:href="#aM"/><use transform="matrix(0.05,0,0,0.05,26.899999999999995,0)" xlink:href="#aN"/><use transform="matrix(0.05,0,0,0.05,36.9,0)" xlink:href="#aX"/><use transform="matrix(0.05,0,0,0.05,46.9,0)" xlink:href="#aU"/><use transform="matrix(0.05,0,0,0.05,52.85,0)" xlink:href="#aP"/><use transform="matrix(0.05,0,0,0.05,57.85,0)" xlink:href="#aQ"/><use transform="matrix(0.05,0,0,0.05,67.85,0)" xlink:href="#aT"/><use transform="matrix(0.05,0,0,0.05,77.85,0)" xlink:href="#aU"/><use transform="matrix(0.05,0,0,0.05,83.8,0)" xlink:href="#aS"/><use transform="matrix(0.05,0,0,0.05,93.8,0)" xlink:href="#aZ"/><use transform="matrix(0.05,0,0,0.05,102.80000000000001,0)" xlink:href="#bd"/><use transform="matrix(0.05,0,0,0.05,112.80000000000001,0)" xlink:href="#bh"/><use transform="matrix(0.05,0,0,0.05,118.75,0)" xlink:href="#bi"/></g><g id="ae"><use transform="matrix(0.05,0,0,0.05,0,0)" xlink:href="#bf"/><use transform="matrix(0.05,0,0,0.05,9,0)" xlink:href="#aX"/><use transform="matrix(0.05,0,0,0.05,19,0)" xlink:href="#aW"/><use transform="matrix(0.05,0,0,0.05,22.95,0)" xlink:href="#aM"/><use transform="matrix(0.05,0,0,0.05,26.899999999999995,0)" xlink:href="#aN"/><use transform="matrix(0.05,0,0,0.05,36.9,0)" xlink:href="#aX"/><use transform="matrix(0.05,0,0,0.05,46.9,0)" xlink:href="#aU"/><use transform="matrix(0.05,0,0,0.05,52.85,0)" xlink:href="#ba"/><use transform="matrix(0.05,0,0,0.05,64.85,0)" xlink:href="#aX"/><use transform="matrix(0.05,0,0,0.05,74.85,0)" xlink:href="#aW"/><use transform="matrix(0.05,0,0,0.05,78.8,0)" xlink:href="#aM"/><use transform="matrix(0.05,0,0,0.05,82.75,0)" xlink:href="#aN"/><use transform="matrix(0.05,0,0,0.05,92.75,0)" xlink:href="#aX"/><use transform="matrix(0.05,0,0,0.05,102.75,0)" xlink:href="#bh"/><use transform="matrix(0.05,0,0,0.05,108.7,0)" xlink:href="#bi"/></g><path d="M27 0v-27h64v-190l-56 39v-29l58-41h29v221h61V0H27" id="bZ"/><use transform="matrix(0.05,0,0,0.05,0,0)" xlink:href="#bZ" id="af"/><path d="M80-196l47-18 7 23-49 13 32 44-20 13-27-46-27 45-21-12 33-44-49-13 8-23 47 19-2-53h23" id="ca"/><use transform="matrix(0.05,0,0,0.05,0,0)" xlink:href="#ca" id="ag"/><use transform="matrix(0.05,0,0,0.05,0,0)" xlink:href="#bZ" id="ah"/><use transform="matrix(0.05,0,0,0.05,0,0)" xlink:href="#ca" id="ai"/><path fill="#333" d="M230 0l2-204L168 0h-37L68-204 70 0H24v-248h70l56 185 57-185h69V0h-46" id="cb"/><path fill="#333" d="M195-6C206 82 75 100 31 46c-4-6-6-13-8-21l49-6c3 16 16 24 34 25 40 0 42-37 40-79-11 22-30 35-61 35-53 0-70-43-70-97 0-56 18-96 73-97 30 0 46 14 59 34l2-30h47zm-90-29c32 0 41-27 41-63 0-35-9-62-40-62-32 0-39 29-40 63 0 36 9 62 39 62" id="cc"/><g id="aj"><use transform="matrix(0.05,0,0,0.05,0,0)" xlink:href="#cb"/><use transform="matrix(0.05,0,0,0.05,14.950000000000001,0)" xlink:href="#aE"/><use transform="matrix(0.05,0,0,0.05,24.950000000000003,0)" xlink:href="#bK"/><use transform="matrix(0.05,0,0,0.05,30.900000000000002,0)" xlink:href="#aK"/><use transform="matrix(0.05,0,0,0.05,41.85,0)" xlink:href="#bY"/><use transform="matrix(0.05,0,0,0.05,52.800000000000004,0)" xlink:href="#aK"/><use transform="matrix(0.05,0,0,0.05,63.75,0)" xlink:href="#bV"/><use transform="matrix(0.05,0,0,0.05,75.75,0)" xlink:href="#bI"/><use transform="matrix(0.05,0,0,0.05,85.75,0)" xlink:href="#cc"/><use transform="matrix(0.05,0,0,0.05,96.7,0)" xlink:href="#aK"/></g><use transform="matrix(0.05,0,0,0.05,0,0)" xlink:href="#aL" id="ak"/><g id="al"><use transform="matrix(0.05,0,0,0.05,0,0)" xlink:href="#aM"/><use transform="matrix(0.05,0,0,0.05,3.95,0)" xlink:href="#aN"/><use transform="matrix(0.05,0,0,0.05,13.949999999999998,0)" xlink:href="#aO"/></g><g id="am"><use transform="matrix(0.05,0,0,0.05,0,0)" xlink:href="#aP"/><use transform="matrix(0.05,0,0,0.05,5,0)" xlink:href="#aQ"/><use transform="matrix(0.05,0,0,0.05,15,0)" xlink:href="#aR"/><use transform="matrix(0.05,0,0,0.05,20,0)" xlink:href="#aS"/><use transform="matrix(0.05,0,0,0.05,30,0)" xlink:href="#aT"/><use transform="matrix(0.05,0,0,0.05,40,0)" xlink:href="#aS"/><use transform="matrix(0.05,0,0,0.05,50,0)" xlink:href="#aU"/></g><g id="an"><use transform="matrix(0.05,0,0,0.05,0,0)" xlink:href="#bb"/><use transform="matrix(0.05,0,0,0.05,14.950000000000001,0)" xlink:href="#aS"/><use transform="matrix(0.05,0,0,0.05,24.950000000000003,0)" xlink:href="#aR"/><use transform="matrix(0.05,0,0,0.05,29.950000000000003,0)" xlink:href="#bd"/><use transform="matrix(0.05,0,0,0.05,39.95,0)" xlink:href="#aN"/><use transform="matrix(0.05,0,0,0.05,49.95,0)" xlink:href="#bd"/><use transform="matrix(0.05,0,0,0.05,59.95,0)" xlink:href="#aO"/></g><g id="ao"><use transform="matrix(0.05,0,0,0.05,0,0)" xlink:href="#ba"/><use transform="matrix(0.05,0,0,0.05,12,0)" xlink:href="#aR"/><use transform="matrix(0.05,0,0,0.05,17,0)" xlink:href="#aU"/><use transform="matrix(0.05,0,0,0.05,22.95,0)" xlink:href="#aM"/><use transform="matrix(0.05,0,0,0.05,26.899999999999995,0)" xlink:href="#aQ"/><use transform="matrix(0.05,0,0,0.05,36.9,0)" xlink:href="#aT"/></g><g id="ap"><use transform="matrix(0.04320987654320988,0,0,0.04320987654320988,0,0)" xlink:href="#bn"/><use transform="matrix(0.04320987654320988,0,0,0.04320987654320988,8.641975308641976,0)" xlink:href="#bj"/><use transform="matrix(0.04320987654320988,0,0,0.04320987654320988,17.283950617283953,0)" xlink:href="#aZ"/><use transform="matrix(0.04320987654320988,0,0,0.04320987654320988,25.06172839506173,0)" xlink:href="#aS"/><use transform="matrix(0.04320987654320988,0,0,0.04320987654320988,33.70370370370371,0)" xlink:href="#bo"/></g><path fill="#333" d="M121-226c-27-7-43 5-38 36h38v33H83V0H34v-157H6v-33h28c-9-59 32-81 87-68v32" id="cd"/><path fill="#333" d="M137-138c1-29-70-34-71-4 15 46 118 7 119 86 1 83-164 76-172 9l43-7c4 19 20 25 44 25 33 8 57-30 24-41C81-84 22-81 20-136c-2-80 154-74 161-7" id="ce"/><g id="aq"><use transform="matrix(0.05,0,0,0.05,0,0)" xlink:href="#bl"/><use transform="matrix(0.05,0,0,0.05,9.600000000000001,0)" xlink:href="#bI"/><use transform="matrix(0.05,0,0,0.05,19.6,0)" xlink:href="#bG"/><use transform="matrix(0.05,0,0,0.05,26.6,0)" xlink:href="#aG"/><use transform="matrix(0.05,0,0,0.05,31.6,0)" xlink:href="#cd"/><use transform="matrix(0.05,0,0,0.05,37.550000000000004,0)" xlink:href="#bI"/><use transform="matrix(0.05,0,0,0.05,47.550000000000004,0)" xlink:href="#ce"/></g><g id="ar"><use transform="matrix(0.05,0,0,0.05,0,0)" xlink:href="#aM"/><use transform="matrix(0.05,0,0,0.05,3.95,0)" xlink:href="#aN"/><use transform="matrix(0.05,0,0,0.05,13.949999999999998,0)" xlink:href="#aO"/></g><g id="as"><use transform="matrix(0.05,0,0,0.05,0,0)" xlink:href="#aR"/><use transform="matrix(0.05,0,0,0.05,5,0)" xlink:href="#aX"/><use transform="matrix(0.05,0,0,0.05,15,0)" xlink:href="#aU"/><use transform="matrix(0.05,0,0,0.05,20.95,0)" xlink:href="#aM"/><use transform="matrix(0.05,0,0,0.05,24.9,0)" xlink:href="#bQ"/><use transform="matrix(0.05,0,0,0.05,29.899999999999995,0)" xlink:href="#aX"/><use transform="matrix(0.05,0,0,0.05,39.9,0)" xlink:href="#aO"/></g><g id="at"><use transform="matrix(0.05,0,0,0.05,0,0)" xlink:href="#bR"/><use transform="matrix(0.05,0,0,0.05,12.950000000000001,0)" xlink:href="#bd"/><use transform="matrix(0.05,0,0,0.05,22.950000000000003,0)" xlink:href="#bj"/><use transform="matrix(0.05,0,0,0.05,32.95,0)" xlink:href="#be"/><use transform="matrix(0.05,0,0,0.05,42.95,0)" xlink:href="#aW"/><use transform="matrix(0.05,0,0,0.05,46.900000000000006,0)" xlink:href="#aS"/></g><g id="au"><use transform="matrix(0.05,0,0,0.05,0,0)" xlink:href="#aR"/><use transform="matrix(0.05,0,0,0.05,5,0)" xlink:href="#aM"/><use transform="matrix(0.05,0,0,0.05,8.95,0)" xlink:href="#aS"/><use transform="matrix(0.05,0,0,0.05,18.95,0)" xlink:href="#bb"/><use transform="matrix(0.05,0,0,0.05,33.9,0)" xlink:href="#aV"/><use transform="matrix(0.05,0,0,0.05,43.9,0)" xlink:href="#bd"/><use transform="matrix(0.05,0,0,0.05,53.900000000000006,0)" xlink:href="#aO"/></g><g id="av"><use transform="matrix(0.05,0,0,0.05,0,0)" xlink:href="#aP"/><use transform="matrix(0.05,0,0,0.05,5,0)" xlink:href="#aQ"/><use transform="matrix(0.05,0,0,0.05,15,0)" xlink:href="#aR"/><use transform="matrix(0.05,0,0,0.05,20,0)" xlink:href="#aS"/><use transform="matrix(0.05,0,0,0.05,30,0)" xlink:href="#aT"/><use transform="matrix(0.05,0,0,0.05,40,0)" xlink:href="#aS"/><use transform="matrix(0.05,0,0,0.05,50,0)" xlink:href="#aU"/></g><g id="aw"><use transform="matrix(0.05,0,0,0.05,0,0)" xlink:href="#bb"/><use transform="matrix(0.05,0,0,0.05,14.950000000000001,0)" xlink:href="#bd"/><use transform="matrix(0.05,0,0,0.05,24.950000000000003,0)" xlink:href="#aN"/><use transform="matrix(0.05,0,0,0.05,34.95,0)" xlink:href="#aM"/><use transform="matrix(0.05,0,0,0.05,38.900000000000006,0)" xlink:href="#bQ"/><use transform="matrix(0.05,0,0,0.05,43.900000000000006,0)" xlink:href="#aM"/><use transform="matrix(0.05,0,0,0.05,47.85000000000001,0)" xlink:href="#aY"/><use transform="matrix(0.05,0,0,0.05,56.85,0)" xlink:href="#aX"/><use transform="matrix(0.05,0,0,0.05,66.85000000000001,0)" xlink:href="#aU"/><use transform="matrix(0.05,0,0,0.05,72.80000000000001,0)" xlink:href="#bc"/><use transform="matrix(0.05,0,0,0.05,81.75000000000001,0)" xlink:href="#aX"/><use transform="matrix(0.05,0,0,0.05,91.75000000000001,0)" xlink:href="#aU"/><use transform="matrix(0.05,0,0,0.05,97.70000000000002,0)" xlink:href="#aM"/><use transform="matrix(0.05,0,0,0.05,101.65000000000002,0)" xlink:href="#bQ"/><use transform="matrix(0.05,0,0,0.05,106.65000000000003,0)" xlink:href="#aX"/><use transform="matrix(0.05,0,0,0.05,116.65000000000003,0)" xlink:href="#bh"/><use transform="matrix(0.05,0,0,0.05,122.60000000000002,0)" xlink:href="#bi"/></g><g id="ax"><use transform="matrix(0.05,0,0,0.05,0,0)" xlink:href="#bV"/><use transform="matrix(0.05,0,0,0.05,12,0)" xlink:href="#aE"/><use transform="matrix(0.05,0,0,0.05,22,0)" xlink:href="#bG"/><use transform="matrix(0.05,0,0,0.05,29,0)" xlink:href="#ce"/><use transform="matrix(0.05,0,0,0.05,39,0)" xlink:href="#aK"/><use transform="matrix(0.05,0,0,0.05,49.95,0)" xlink:href="#bJ"/><use transform="matrix(0.05,0,0,0.05,60.900000000000006,0)" xlink:href="#bI"/></g><g id="ay"><use transform="matrix(0.05,0,0,0.05,0,0)" xlink:href="#aN"/><use transform="matrix(0.05,0,0,0.05,10,0)" xlink:href="#bd"/><use transform="matrix(0.05,0,0,0.05,20,0)" xlink:href="#aY"/><use transform="matrix(0.05,0,0,0.05,29,0)" xlink:href="#bj"/><use transform="matrix(0.05,0,0,0.05,39,0)" xlink:href="#bb"/><use transform="matrix(0.05,0,0,0.05,53.95,0)" xlink:href="#aS"/><use transform="matrix(0.05,0,0,0.05,63.95,0)" xlink:href="#aQ"/><use transform="matrix(0.05,0,0,0.05,73.95,0)" xlink:href="#aR"/><use transform="matrix(0.05,0,0,0.05,78.95,0)" xlink:href="#bd"/><use transform="matrix(0.05,0,0,0.05,88.95,0)" xlink:href="#aO"/></g><g id="az"><use transform="matrix(0.05,0,0,0.05,0,0)" xlink:href="#ba"/><use transform="matrix(0.05,0,0,0.05,12,0)" xlink:href="#aR"/><use transform="matrix(0.05,0,0,0.05,17,0)" xlink:href="#aU"/><use transform="matrix(0.05,0,0,0.05,22.95,0)" xlink:href="#aM"/><use transform="matrix(0.05,0,0,0.05,26.899999999999995,0)" xlink:href="#aQ"/><use transform="matrix(0.05,0,0,0.05,36.9,0)" xlink:href="#aT"/></g><g id="aA"><use transform="matrix(0.05,0,0,0.05,0,0)" xlink:href="#aQ"/><use transform="matrix(0.05,0,0,0.05,10,0)" xlink:href="#bd"/><use transform="matrix(0.05,0,0,0.05,20,0)" xlink:href="#bb"/><use transform="matrix(0.05,0,0,0.05,34.95,0)" xlink:href="#be"/><use transform="matrix(0.05,0,0,0.05,44.95,0)" xlink:href="#aU"/><use transform="matrix(0.05,0,0,0.05,50.900000000000006,0)" xlink:href="#aS"/><use transform="matrix(0.05,0,0,0.05,60.900000000000006,0)" xlink:href="#aO"/></g><g id="aB"><use transform="matrix(0.05,0,0,0.05,0,0)" xlink:href="#aX"/><use transform="matrix(0.05,0,0,0.05,10,0)" xlink:href="#aV"/><use transform="matrix(0.05,0,0,0.05,20,0)" xlink:href="#aS"/><use transform="matrix(0.05,0,0,0.05,30,0)" xlink:href="#aW"/><use transform="matrix(0.05,0,0,0.05,33.95,0)" xlink:href="#aW"/><use transform="matrix(0.05,0,0,0.05,37.900000000000006,0)" xlink:href="#aM"/><use transform="matrix(0.05,0,0,0.05,41.85000000000001,0)" xlink:href="#aN"/><use transform="matrix(0.05,0,0,0.05,51.85,0)" xlink:href="#bd"/><use transform="matrix(0.05,0,0,0.05,61.85,0)" xlink:href="#aO"/></g><g id="aC"><use transform="matrix(0.05,0,0,0.05,0,0)" xlink:href="#aR"/><use transform="matrix(0.05,0,0,0.05,5,0)" xlink:href="#aS"/><use transform="matrix(0.05,0,0,0.05,15,0)" xlink:href="#aW"/><use transform="matrix(0.05,0,0,0.05,18.95,0)" xlink:href="#aS"/><use transform="matrix(0.05,0,0,0.05,28.950000000000003,0)" xlink:href="#bQ"/><use transform="matrix(0.05,0,0,0.05,33.95,0)" xlink:href="#bd"/><use transform="matrix(0.05,0,0,0.05,43.95,0)" xlink:href="#aQ"/><use transform="matrix(0.05,0,0,0.05,53.95,0)" xlink:href="#bd"/><use transform="matrix(0.05,0,0,0.05,63.95,0)" xlink:href="#aO"/></g></defs></g></svg>