<svg xmlns="http://www.w3.org/2000/svg" xmlns:xlink="http://www.w3.org/1999/xlink" xmlns:lucid="lucid" width="2399.27" height="1942"><g transform="translate(0 0)" lucid:page-tab-id="HWEp-vi-RSFO"><path d="M0 0h2399.27v1942H0z" fill="#fff"/><path d="M746.9 75a8 8 0 0 1 8-8h836.76a8 8 0 0 1 8 8v25.16a8 8 0 0 1-8 8H754.9a8 8 0 0 1-8-8z" stroke="#000" stroke-opacity="0" stroke-width="2" fill="#fff" fill-opacity="0"/><use xlink:href="#a" transform="matrix(1,0,0,1,750.9071690257708,70.99999999994924) translate(237.41061728395061 23.657777777777778)"/><use xlink:href="#b" transform="matrix(1,0,0,1,750.9071690257708,70.99999999994924) translate(364.0056790123457 23.657777777777778)"/><use xlink:href="#c" transform="matrix(1,0,0,1,750.9071690257708,70.99999999994924) translate(401.80938271604936 23.657777777777778)"/><use xlink:href="#d" transform="matrix(1,0,0,1,750.9071690257708,70.99999999994924) translate(489.21679012345675 23.657777777777778)"/><use xlink:href="#e" transform="matrix(1,0,0,1,750.9071690257708,70.99999999994924) translate(505.1686419753086 23.657777777777778)"/><path d="M1023.4 106.8h309.35M1023.4 106.8h-1M1332.73 106.8h1.02" stroke="#a9afb8" stroke-width="2" fill="none"/><path d="M746.9 116.16a8 8 0 0 1 8-8h837.7a8 8 0 0 1 8 8V119a8 8 0 0 1-8 8H754.9a8 8 0 0 1-8-8z" stroke="#000" stroke-opacity="0" stroke-width="2" fill="#fff" fill-opacity="0"/><path d="M799.64 277.6h300v348h-300z" stroke="#333" stroke-width="2" fill="#fff"/><path d="M799.64 315.2h300m-300 209.3h300" stroke="#333" stroke-width="2" fill="none"/><use xlink:href="#f" transform="matrix(1,0,0,1,807.6356162404276,285.59912636006743) translate(106.55 14.6)"/><use xlink:href="#g" transform="matrix(1,0,0,1,811.6356162404276,323.19912636006745) translate(0 25.000000000000007)"/><use xlink:href="#h" transform="matrix(1,0,0,1,811.6356162404276,323.19912636006745) translate(10.95 25.000000000000007)"/><use xlink:href="#i" transform="matrix(1,0,0,1,811.6356162404276,323.19912636006745) translate(34.9 25.000000000000007)"/><use xlink:href="#g" transform="matrix(1,0,0,1,811.6356162404276,323.19912636006745) translate(0 46.60000000000001)"/><use xlink:href="#j" transform="matrix(1,0,0,1,811.6356162404276,323.19912636006745) translate(10.95 46.60000000000001)"/><use xlink:href="#k" transform="matrix(1,0,0,1,811.6356162404276,323.19912636006745) translate(109.9 46.60000000000001)"/><use xlink:href="#g" transform="matrix(1,0,0,1,811.6356162404276,323.19912636006745) translate(0 68.20000000000002)"/><use xlink:href="#l" transform="matrix(1,0,0,1,811.6356162404276,323.19912636006745) translate(10.95 68.20000000000002)"/><use xlink:href="#k" transform="matrix(1,0,0,1,811.6356162404276,323.19912636006745) translate(81.85000000000001 68.20000000000002)"/><use xlink:href="#g" transform="matrix(1,0,0,1,811.6356162404276,323.19912636006745) translate(0 89.80000000000003)"/><use xlink:href="#m" transform="matrix(1,0,0,1,811.6356162404276,323.19912636006745) translate(10.95 89.80000000000003)"/><use xlink:href="#k" transform="matrix(1,0,0,1,811.6356162404276,323.19912636006745) translate(82.80000000000001 89.80000000000003)"/><use xlink:href="#g" transform="matrix(1,0,0,1,811.6356162404276,323.19912636006745) translate(0 111.40000000000002)"/><use xlink:href="#n" transform="matrix(1,0,0,1,811.6356162404276,323.19912636006745) translate(10.95 111.40000000000002)"/><use xlink:href="#k" transform="matrix(1,0,0,1,811.6356162404276,323.19912636006745) translate(84.9 111.40000000000002)"/><use xlink:href="#g" transform="matrix(1,0,0,1,811.6356162404276,323.19912636006745) translate(0 133)"/><use xlink:href="#o" transform="matrix(1,0,0,1,811.6356162404276,323.19912636006745) translate(10.95 133)"/><use xlink:href="#k" transform="matrix(1,0,0,1,811.6356162404276,323.19912636006745) translate(143.7 133)"/><use xlink:href="#g" transform="matrix(1,0,0,1,811.6356162404276,323.19912636006745) translate(0 154.6)"/><use xlink:href="#p" transform="matrix(1,0,0,1,811.6356162404276,323.19912636006745) translate(10.95 154.6)"/><use xlink:href="#k" transform="matrix(1,0,0,1,811.6356162404276,323.19912636006745) translate(97.85000000000001 154.6)"/><use xlink:href="#g" transform="matrix(1,0,0,1,811.6356162404276,323.19912636006745) translate(0 176.20000000000002)"/><use xlink:href="#q" transform="matrix(1,0,0,1,811.6356162404276,323.19912636006745) translate(10.95 176.20000000000002)"/><use xlink:href="#r" transform="matrix(1,0,0,1,811.6356162404276,323.19912636006745) translate(71.85 176.20000000000002)"/><use xlink:href="#s" transform="matrix(1,0,0,1,811.6356162404276,532.4991263600674) translate(0 25)"/><use xlink:href="#t" transform="matrix(1,0,0,1,811.6356162404276,532.4991263600674) translate(15.5 25)"/><use xlink:href="#s" transform="matrix(1,0,0,1,811.6356162404276,532.4991263600674) translate(0 46.6)"/><use xlink:href="#u" transform="matrix(1,0,0,1,811.6356162404276,532.4991263600674) translate(15.5 46.6)"/><use xlink:href="#s" transform="matrix(1,0,0,1,811.6356162404276,532.4991263600674) translate(0 68.2)"/><use xlink:href="#v" transform="matrix(1,0,0,1,811.6356162404276,532.4991263600674) translate(15.5 68.2)"/><path d="M1279.64 755.87h300v219h-300z" stroke="#333" stroke-width="2" fill="#fff"/><path d="M1279.64 793.47h300m-300 79.7h300" stroke="#333" stroke-width="2" fill="none"/><use xlink:href="#w" transform="matrix(1,0,0,1,1287.6356162404277,763.8716688864358) translate(108.57499999999999 14.6)"/><use xlink:href="#g" transform="matrix(1,0,0,1,1291.6356162404277,801.4716688864359) translate(0 24.799999999999997)"/><use xlink:href="#x" transform="matrix(1,0,0,1,1291.6356162404277,801.4716688864359) translate(10.95 24.799999999999997)"/><use xlink:href="#y" transform="matrix(1,0,0,1,1291.6356162404277,801.4716688864359) translate(154.75 24.799999999999997)"/><use xlink:href="#g" transform="matrix(1,0,0,1,1291.6356162404277,801.4716688864359) translate(0 46.4)"/><use xlink:href="#z" transform="matrix(1,0,0,1,1291.6356162404277,801.4716688864359) translate(10.95 46.4)"/><use xlink:href="#r" transform="matrix(1,0,0,1,1291.6356162404277,801.4716688864359) translate(58.95 46.4)"/><use xlink:href="#s" transform="matrix(1,0,0,1,1291.6356162404277,881.1716688864359) translate(0 25)"/><use xlink:href="#A" transform="matrix(1,0,0,1,1291.6356162404277,881.1716688864359) translate(15.5 25)"/><use xlink:href="#s" transform="matrix(1,0,0,1,1291.6356162404277,881.1716688864359) translate(0 46.6)"/><use xlink:href="#B" transform="matrix(1,0,0,1,1291.6356162404277,881.1716688864359) translate(15.5 46.6)"/><use xlink:href="#s" transform="matrix(1,0,0,1,1291.6356162404277,881.1716688864359) translate(0 68.2)"/><use xlink:href="#C" transform="matrix(1,0,0,1,1291.6356162404277,881.1716688864359) translate(15.5 68.2)"/><path d="M299.64 776.87h300v240h-300z" stroke="#333" stroke-width="2" fill="#fff"/><path d="M299.64 814.47h300m-300 101.3h300" stroke="#333" stroke-width="2" fill="none"/><use xlink:href="#D" transform="matrix(1,0,0,1,307.63561624042757,784.865358019845) translate(94.125 14.6)"/><use xlink:href="#g" transform="matrix(1,0,0,1,311.63561624042757,822.465358019845) translate(0 25)"/><use xlink:href="#E" transform="matrix(1,0,0,1,311.63561624042757,822.465358019845) translate(10.95 25)"/><use xlink:href="#k" transform="matrix(1,0,0,1,311.63561624042757,822.465358019845) translate(40.849999999999994 25)"/><use xlink:href="#g" transform="matrix(1,0,0,1,311.63561624042757,822.465358019845) translate(0 46.6)"/><use xlink:href="#F" transform="matrix(1,0,0,1,311.63561624042757,822.465358019845) translate(10.95 46.6)"/><use xlink:href="#k" transform="matrix(1,0,0,1,311.63561624042757,822.465358019845) translate(49.95 46.6)"/><use xlink:href="#g" transform="matrix(1,0,0,1,311.63561624042757,822.465358019845) translate(0 68.2)"/><use xlink:href="#G" transform="matrix(1,0,0,1,311.63561624042757,822.465358019845) translate(10.95 68.2)"/><use xlink:href="#H" transform="matrix(1,0,0,1,311.63561624042757,822.465358019845) translate(73.80000000000001 68.2)"/><use xlink:href="#s" transform="matrix(1,0,0,1,311.63561624042757,923.7653580198449) translate(0 25)"/><use xlink:href="#I" transform="matrix(1,0,0,1,311.63561624042757,923.7653580198449) translate(15.5 25)"/><use xlink:href="#s" transform="matrix(1,0,0,1,311.63561624042757,923.7653580198449) translate(0 46.6)"/><use xlink:href="#J" transform="matrix(1,0,0,1,311.63561624042757,923.7653580198449) translate(15.5 46.6)"/><use xlink:href="#s" transform="matrix(1,0,0,1,311.63561624042757,923.7653580198449) translate(0 68.2)"/><use xlink:href="#K" transform="matrix(1,0,0,1,311.63561624042757,923.7653580198449) translate(15.5 68.2)"/><path d="M799.64 776.87h300v175h-300z" stroke="#333" stroke-width="2" fill="#fff"/><path d="M799.64 814.47h300m-300 58.1h300" stroke="#333" stroke-width="2" fill="none"/><use xlink:href="#L" transform="matrix(1,0,0,1,807.6356162404276,784.865358019845) translate(80.64999999999999 14.6)"/><use xlink:href="#s" transform="matrix(1,0,0,1,811.6356162404276,880.565358019845) translate(0 24.799999999999997)"/><use xlink:href="#M" transform="matrix(1,0,0,1,811.6356162404276,880.565358019845) translate(15.5 24.799999999999997)"/><use xlink:href="#s" transform="matrix(1,0,0,1,811.6356162404276,880.565358019845) translate(0 46.4)"/><use xlink:href="#N" transform="matrix(1,0,0,1,811.6356162404276,880.565358019845) translate(15.5 46.4)"/><path d="M949.64 651.08v123.8" stroke="#333" stroke-width="2" fill="none"/><path d="M949.64 628.56l12.72 21.52H936.9z" stroke="#333" stroke-width="2" fill="#fff"/><path d="M950.64 775.87h-2v-1.03h2z" stroke="#333" stroke-width=".05" fill="#333"/><path d="M1119.18 597.75l181.5 156.47" stroke="#333" stroke-width="2" fill="none"/><path d="M1102.12 583.05l24.6 4.4-16.6 19.3z" stroke="#333" stroke-width="2" fill="#fff"/><path d="M1302.98 754.87h-2.88l1.23-1.43z" stroke="#333" stroke-width=".05" fill="#333"/><path d="M780.35 602.35L586.25 775.2" stroke="#333" stroke-width="2" fill="none"/><path d="M797.17 587.38l-7.6 23.8-16.93-19z" stroke="#333" stroke-width="2" fill="#fff"/><path d="M586.88 775.87H584l1.6-1.43z" stroke="#333" stroke-width=".05" fill="#333"/><path d="M1101.64 864.37h87.95a.04.04 0 0 1 .04.04.04.04 0 0 0 .04.05h87.96" stroke="#333" stroke-width="2" fill="none"/><path d="M1101.66 865.37h-1.02v-2h1.02zM1278.64 865.45h-1.03v-2h1.04z" stroke="#333" stroke-width=".05" fill="#333"/><path d="M1799.64 577.6h300v126h-300z" stroke="#333" stroke-width="2" fill="#fff"/><path d="M1799.64 615.2h300" stroke="#333" stroke-width="2" fill="none"/><use xlink:href="#O" transform="matrix(1,0,0,1,1807.6356162404277,585.5991263600674) translate(112.07499999999999 14.6)"/><use xlink:href="#g" transform="matrix(1,0,0,1,1811.6356162404277,623.1991263600675) translate(0 29.299999999999997)"/><use xlink:href="#h" transform="matrix(1,0,0,1,1811.6356162404277,623.1991263600675) translate(10.95 29.299999999999997)"/><use xlink:href="#i" transform="matrix(1,0,0,1,1811.6356162404277,623.1991263600675) translate(34.9 29.299999999999997)"/><use xlink:href="#g" transform="matrix(1,0,0,1,1811.6356162404277,623.1991263600675) translate(0 50.9)"/><use xlink:href="#l" transform="matrix(1,0,0,1,1811.6356162404277,623.1991263600675) translate(10.95 50.9)"/><use xlink:href="#r" transform="matrix(1,0,0,1,1811.6356162404277,623.1991263600675) translate(81.85000000000001 50.9)"/><path d="M1799.64 1077.6h300v147h-300z" stroke="#333" stroke-width="2" fill="#fff"/><path d="M1799.64 1115.2h300" stroke="#333" stroke-width="2" fill="none"/><g><use xlink:href="#P" transform="matrix(1,0,0,1,1807.6356162404277,1085.5991263600674) translate(95.05 14.6)"/></g><g><use xlink:href="#g" transform="matrix(1,0,0,1,1811.6356162404277,1123.1991263600673) translate(0 29)"/><use xlink:href="#h" transform="matrix(1,0,0,1,1811.6356162404277,1123.1991263600673) translate(10.95 29)"/><use xlink:href="#i" transform="matrix(1,0,0,1,1811.6356162404277,1123.1991263600673) translate(34.9 29)"/><use xlink:href="#g" transform="matrix(1,0,0,1,1811.6356162404277,1123.1991263600673) translate(0 50.6)"/><use xlink:href="#l" transform="matrix(1,0,0,1,1811.6356162404277,1123.1991263600673) translate(10.95 50.6)"/><use xlink:href="#k" transform="matrix(1,0,0,1,1811.6356162404277,1123.1991263600673) translate(81.85000000000001 50.6)"/><use xlink:href="#g" transform="matrix(1,0,0,1,1811.6356162404277,1123.1991263600673) translate(0 72.2)"/><use xlink:href="#Q" transform="matrix(1,0,0,1,1811.6356162404277,1123.1991263600673) translate(10.95 72.2)"/><use xlink:href="#H" transform="matrix(1,0,0,1,1811.6356162404277,1123.1991263600673) translate(59.85000000000001 72.2)"/></g><path d="M1590.93 796.68l-8.98 3.94-.8-1.84 8.98-3.93zm26.93-11.8l-17.96 7.87-.8-1.83 17.95-7.86zm26.92-11.8l-17.95 7.88-.8-1.84 17.95-7.86zm8.98-3.92l-.8-1.83 12.88-5.65h4.98zm71.8-31.46l-12.13 5.32h-4.98l16.3-7.15zm26.93-11.8l-17.96 7.87-.8-1.83 17.95-7.87zm26.92-11.8l-17.95 7.87-.8-1.83 17.95-7.86zm17.95-7.86l-8.97 3.94-.8-1.84 8.97-3.93z" stroke="#333" stroke-width=".05" fill="#333"/><path d="M1581.98 800.6l-1.34.6V799l.53-.23z" fill="#333"/><path d="M1582 800.62l-1.4.6V799l.6-.26zm-1.34-1.6v2.13l1.28-.56-.78-1.8zM1798.64 704.6l-12.67 17.6-1.63-1.16 10.7-14.86-18.18-2.22.24-1.98z" stroke="#333" stroke-width=".05" fill="#333"/><g><use xlink:href="#R" transform="matrix(1,0,0,1,1664.1633940182055,743.0168201346474) translate(0 12.444444444444446)"/></g><path d="M1797.9 1074.82l-1 1.72-9-5.28 1.02-1.73zm-17.98-10.57l-1 1.72-18-10.57 1-1.72zm-27-15.86l-1 1.72-18-10.57 1.02-1.73zm-26.98-15.86l-1 1.72-18-10.57 1-1.73zm-53.97-31.7l-1.02 1.72-18-10.57 1.02-1.74zm-27-15.86l-1 1.72-18-10.57 1.02-1.72zM1618 969.12l-1.02 1.73-18-10.57 1.02-1.72zm-27-15.85l-1 1.73-9-5.3 1-1.7z" stroke="#333" stroke-width=".05" fill="#333"/><path d="M1582.03 948l-1.02 1.72-.36-.22v-2.32z" fill="#333"/><path d="M1582.06 948l-1.04 1.76-.4-.24v-2.38zm-1.4 1.5l.34.2 1-1.7-1.34-.77zM1798.97 1076.6l-21.7.06v-2l18.3-.05-8.85-16 1.75-.98z" stroke="#333" stroke-width=".05" fill="#333"/><g><use xlink:href="#S" transform="matrix(1,0,0,1,1650.9584640137962,1003.1374932115706) translate(0 12.444444444444446)"/></g><path d="M799.64 1017.6h300v262h-300z" stroke="#333" stroke-width="2" fill="#fff"/><path d="M799.64 1055.2h300m-300 166.1h300" stroke="#333" stroke-width="2" fill="none"/><g><use xlink:href="#T" transform="matrix(1,0,0,1,807.6356162404276,1025.5991263600674) translate(118.025 14.6)"/></g><g><use xlink:href="#g" transform="matrix(1,0,0,1,811.6356162404276,1063.1991263600673) translate(0 25.1)"/><use xlink:href="#h" transform="matrix(1,0,0,1,811.6356162404276,1063.1991263600673) translate(10.95 25.1)"/><use xlink:href="#i" transform="matrix(1,0,0,1,811.6356162404276,1063.1991263600673) translate(34.9 25.1)"/><use xlink:href="#g" transform="matrix(1,0,0,1,811.6356162404276,1063.1991263600673) translate(0 46.7)"/><use xlink:href="#U" transform="matrix(1,0,0,1,811.6356162404276,1063.1991263600673) translate(10.95 46.7)"/><use xlink:href="#i" transform="matrix(1,0,0,1,811.6356162404276,1063.1991263600673) translate(96.75 46.7)"/><use xlink:href="#g" transform="matrix(1,0,0,1,811.6356162404276,1063.1991263600673) translate(0 68.30000000000001)"/><use xlink:href="#V" transform="matrix(1,0,0,1,811.6356162404276,1063.1991263600673) translate(10.95 68.30000000000001)"/><use xlink:href="#i" transform="matrix(1,0,0,1,811.6356162404276,1063.1991263600673) translate(123.80000000000001 68.30000000000001)"/><use xlink:href="#g" transform="matrix(1,0,0,1,811.6356162404276,1063.1991263600673) translate(0 89.90000000000002)"/><use xlink:href="#W" transform="matrix(1,0,0,1,811.6356162404276,1063.1991263600673) translate(10.95 89.90000000000002)"/><use xlink:href="#i" transform="matrix(1,0,0,1,811.6356162404276,1063.1991263600673) translate(86.8 89.90000000000002)"/><use xlink:href="#g" transform="matrix(1,0,0,1,811.6356162404276,1063.1991263600673) translate(0 111.50000000000001)"/><use xlink:href="#X" transform="matrix(1,0,0,1,811.6356162404276,1063.1991263600673) translate(10.95 111.50000000000001)"/><use xlink:href="#y" transform="matrix(1,0,0,1,811.6356162404276,1063.1991263600673) translate(64.95 111.50000000000001)"/><use xlink:href="#g" transform="matrix(1,0,0,1,811.6356162404276,1063.1991263600673) translate(0 133.1)"/><use xlink:href="#Y" transform="matrix(1,0,0,1,811.6356162404276,1063.1991263600673) translate(10.95 133.1)"/><use xlink:href="#Z" transform="matrix(1,0,0,1,811.6356162404276,1063.1991263600673) translate(68.95 133.1)"/></g><path d="M299.64 1415.6h300v219h-300z" stroke="#333" stroke-width="2" fill="#fff"/><path d="M299.64 1453.2h300m-300 122.9h300" stroke="#333" stroke-width="2" fill="none"/><g><use xlink:href="#aa" transform="matrix(1,0,0,1,307.63561624042757,1423.5991263600674) translate(104.525 14.6)"/></g><g><use xlink:href="#g" transform="matrix(1,0,0,1,311.63561624042757,1461.1991263600673) translate(0 24.69999999999999)"/><use xlink:href="#h" transform="matrix(1,0,0,1,311.63561624042757,1461.1991263600673) translate(10.95 24.69999999999999)"/><use xlink:href="#i" transform="matrix(1,0,0,1,311.63561624042757,1461.1991263600673) translate(34.9 24.69999999999999)"/><use xlink:href="#g" transform="matrix(1,0,0,1,311.63561624042757,1461.1991263600673) translate(0 46.29999999999999)"/><use xlink:href="#l" transform="matrix(1,0,0,1,311.63561624042757,1461.1991263600673) translate(10.95 46.29999999999999)"/><use xlink:href="#k" transform="matrix(1,0,0,1,311.63561624042757,1461.1991263600673) translate(81.85000000000001 46.29999999999999)"/><use xlink:href="#g" transform="matrix(1,0,0,1,311.63561624042757,1461.1991263600673) translate(0 67.89999999999999)"/><use xlink:href="#ab" transform="matrix(1,0,0,1,311.63561624042757,1461.1991263600673) translate(10.95 67.89999999999999)"/><use xlink:href="#i" transform="matrix(1,0,0,1,311.63561624042757,1461.1991263600673) translate(89.85000000000001 67.89999999999999)"/><use xlink:href="#g" transform="matrix(1,0,0,1,311.63561624042757,1461.1991263600673) translate(0 89.5)"/><use xlink:href="#ac" transform="matrix(1,0,0,1,311.63561624042757,1461.1991263600673) translate(10.95 89.5)"/><use xlink:href="#Z" transform="matrix(1,0,0,1,311.63561624042757,1461.1991263600673) translate(59.849999999999994 89.5)"/></g><path d="M799.64 1413.6h300v223h-300z" stroke="#333" stroke-width="2" fill="#fff"/><path d="M799.64 1455.2h300m-300 122.9h300" stroke="#333" stroke-width="2" fill="none"/><g><use xlink:href="#ad" transform="matrix(1,0,0,1,807.6356162404276,1421.5991263600674) translate(114.1 17.266666666666666)"/></g><g><use xlink:href="#g" transform="matrix(1,0,0,1,811.6356162404276,1463.1991263600673) translate(0 24.69999999999999)"/><use xlink:href="#h" transform="matrix(1,0,0,1,811.6356162404276,1463.1991263600673) translate(10.95 24.69999999999999)"/><use xlink:href="#i" transform="matrix(1,0,0,1,811.6356162404276,1463.1991263600673) translate(34.9 24.69999999999999)"/><use xlink:href="#g" transform="matrix(1,0,0,1,811.6356162404276,1463.1991263600673) translate(0 46.29999999999999)"/><use xlink:href="#ae" transform="matrix(1,0,0,1,811.6356162404276,1463.1991263600673) translate(10.95 46.29999999999999)"/><use xlink:href="#i" transform="matrix(1,0,0,1,811.6356162404276,1463.1991263600673) translate(102.70000000000002 46.29999999999999)"/><use xlink:href="#g" transform="matrix(1,0,0,1,811.6356162404276,1463.1991263600673) translate(0 67.89999999999999)"/><use xlink:href="#l" transform="matrix(1,0,0,1,811.6356162404276,1463.1991263600673) translate(10.95 67.89999999999999)"/><use xlink:href="#k" transform="matrix(1,0,0,1,811.6356162404276,1463.1991263600673) translate(81.85000000000001 67.89999999999999)"/><use xlink:href="#g" transform="matrix(1,0,0,1,811.6356162404276,1463.1991263600673) translate(0 89.5)"/><use xlink:href="#af" transform="matrix(1,0,0,1,811.6356162404276,1463.1991263600673) translate(10.95 89.5)"/><use xlink:href="#Z" transform="matrix(1,0,0,1,811.6356162404276,1463.1991263600673) translate(74.85 89.5)"/></g><path d="M1799.64 780.87h300v169h-300z" stroke="#333" stroke-width="2" fill="#fff"/><path d="M1799.64 818.47h300" stroke="#333" stroke-width="2" fill="none"/><g><use xlink:href="#ag" transform="matrix(1,0,0,1,1807.6356162404277,788.8716688864358) translate(103.15 14.6)"/></g><g><use xlink:href="#g" transform="matrix(1,0,0,1,1811.6356162404277,826.4716688864359) translate(0 29.19999999999999)"/><use xlink:href="#h" transform="matrix(1,0,0,1,1811.6356162404277,826.4716688864359) translate(10.95 29.19999999999999)"/><use xlink:href="#i" transform="matrix(1,0,0,1,1811.6356162404277,826.4716688864359) translate(34.9 29.19999999999999)"/><use xlink:href="#g" transform="matrix(1,0,0,1,1811.6356162404277,826.4716688864359) translate(0 50.79999999999999)"/><use xlink:href="#l" transform="matrix(1,0,0,1,1811.6356162404277,826.4716688864359) translate(10.95 50.79999999999999)"/><use xlink:href="#k" transform="matrix(1,0,0,1,1811.6356162404277,826.4716688864359) translate(81.85000000000001 50.79999999999999)"/><use xlink:href="#g" transform="matrix(1,0,0,1,1811.6356162404277,826.4716688864359) translate(0 72.39999999999999)"/><use xlink:href="#m" transform="matrix(1,0,0,1,1811.6356162404277,826.4716688864359) translate(10.95 72.39999999999999)"/><use xlink:href="#k" transform="matrix(1,0,0,1,1811.6356162404277,826.4716688864359) translate(82.80000000000001 72.39999999999999)"/><use xlink:href="#g" transform="matrix(1,0,0,1,1811.6356162404277,826.4716688864359) translate(0 94)"/><use xlink:href="#n" transform="matrix(1,0,0,1,1811.6356162404277,826.4716688864359) translate(10.95 94)"/><use xlink:href="#r" transform="matrix(1,0,0,1,1811.6356162404277,826.4716688864359) translate(84.9 94)"/></g><path d="M1131.4 1148.6h298.24V976.87" stroke="#333" stroke-width="2" fill="none"/><path d="M1102.05 1148.6l14.85-14.85 15.15 14.85-15.15 14.85z" stroke="#333" stroke-width="2" fill="#333"/><path d="M1430.64 976.9h-2v-1.03h2z" stroke="#333" stroke-width=".05" fill="#333"/><g><use xlink:href="#ah" transform="matrix(1,0,0,1,1125.3689421620124,1168.5991263600674) translate(0 14.4)"/></g><g><use xlink:href="#ai" transform="matrix(1,0,0,1,1414.6356162404277,991.5660782812513) translate(0 14.4)"/></g><path d="M767.9 1525.1H601.63" stroke="#333" stroke-width="2" fill="none"/><path d="M797.22 1525.1l-14.85 14.85-15.15-14.85 15.15-14.85z" stroke="#333" stroke-width="2" fill="#333"/><path d="M601.66 1526.1h-1.02v-2h1.02z" stroke="#333" stroke-width=".05" fill="#333"/><g><use xlink:href="#ah" transform="matrix(1,0,0,1,781.6356162404276,1483.4991263600673) translate(0 14.4)"/></g><g><use xlink:href="#ai" transform="matrix(1,0,0,1,609.1356162404275,1529.0991263600674) translate(0 14.4)"/></g><path d="M949.64 1311.35v100.25" stroke="#333" stroke-width="2" fill="none"/><path d="M949.64 1282l14.84 14.86-14.84 15.15-14.85-15.14z" stroke="#333" stroke-width="2" fill="#fff"/><path d="M950.64 1412.6h-2v-1.03h2z" stroke="#333" stroke-width=".05" fill="#333"/><g><use xlink:href="#ai" transform="matrix(1,0,0,1,918.6356162404277,1301.60635527573) translate(0 14.4)"/></g><g><use xlink:href="#ah" transform="matrix(1,0,0,1,957.6356162404275,1391.7991263600675) translate(0 14.4)"/></g><path d="M1581.64 865.37h216" stroke="#333" stroke-width="2" fill="none"/><path d="M1581.66 866.37h-1.02v-2h1.02zM1798.64 866.37h-1.03v-2h1.04z" stroke="#333" stroke-width=".05" fill="#333"/><path d="M600.47 1018.4l172.47 113.32" stroke="#333" stroke-width="2" fill="none"/><path d="M601.04 1017.6l-1.1 1.66-2.13-1.4h2.84v-.53z" stroke="#333" stroke-width=".05" fill="#333"/><path d="M797.45 1147.82l-20.56 4.26-4.52-20.73 20.82-4.1z" stroke="#333" stroke-width="2" fill="#333"/><g><use xlink:href="#ah" transform="matrix(1,0,0,1,592.2774083255437,1022.6034996793844) translate(0 14.4)"/></g><g><use xlink:href="#ah" transform="matrix(1,0,0,1,789.4248035472889,1098.8167226356732) translate(0 14.4)"/></g><path d="M1363.64 1277.6h300v262h-300z" stroke="#333" stroke-width="2" fill="#fff"/><path d="M1363.64 1315.2h300m-300 166.1h300" stroke="#333" stroke-width="2" fill="none"/><g><use xlink:href="#aj" transform="matrix(1,0,0,1,1371.6356162404277,1285.5991263600674) translate(125.55 14.6)"/></g><g><use xlink:href="#g" transform="matrix(1,0,0,1,1375.6356162404277,1323.1991263600673) translate(0 25.1)"/><use xlink:href="#h" transform="matrix(1,0,0,1,1375.6356162404277,1323.1991263600673) translate(10.95 25.1)"/><use xlink:href="#i" transform="matrix(1,0,0,1,1375.6356162404277,1323.1991263600673) translate(34.9 25.1)"/><use xlink:href="#g" transform="matrix(1,0,0,1,1375.6356162404277,1323.1991263600673) translate(0 46.7)"/><use xlink:href="#U" transform="matrix(1,0,0,1,1375.6356162404277,1323.1991263600673) translate(10.95 46.7)"/><use xlink:href="#i" transform="matrix(1,0,0,1,1375.6356162404277,1323.1991263600673) translate(96.75 46.7)"/><use xlink:href="#g" transform="matrix(1,0,0,1,1375.6356162404277,1323.1991263600673) translate(0 68.30000000000001)"/><use xlink:href="#ak" transform="matrix(1,0,0,1,1375.6356162404277,1323.1991263600673) translate(10.95 68.30000000000001)"/><use xlink:href="#al" transform="matrix(1,0,0,1,1375.6356162404277,1323.1991263600673) translate(59.95 68.30000000000001)"/><use xlink:href="#g" transform="matrix(1,0,0,1,1375.6356162404277,1323.1991263600673) translate(0 89.90000000000002)"/><use xlink:href="#am" transform="matrix(1,0,0,1,1375.6356162404277,1323.1991263600673) translate(10.95 89.90000000000002)"/><use xlink:href="#al" transform="matrix(1,0,0,1,1375.6356162404277,1323.1991263600673) translate(65.85 89.90000000000002)"/><use xlink:href="#g" transform="matrix(1,0,0,1,1375.6356162404277,1323.1991263600673) translate(0 111.50000000000001)"/><use xlink:href="#an" transform="matrix(1,0,0,1,1375.6356162404277,1323.1991263600673) translate(10.95 111.50000000000001)"/><use xlink:href="#al" transform="matrix(1,0,0,1,1375.6356162404277,1323.1991263600673) translate(53.85000000000001 111.50000000000001)"/><use xlink:href="#g" transform="matrix(1,0,0,1,1375.6356162404277,1323.1991263600673) translate(0 133.1)"/><use xlink:href="#ao" transform="matrix(1,0,0,1,1375.6356162404277,1323.1991263600673) translate(10.95 133.1)"/><use xlink:href="#ap" transform="matrix(1,0,0,1,1375.6356162404277,1323.1991263600673) translate(130.75 133.1)"/></g><path d="M1513.64 976.87v268.98" stroke="#333" stroke-width="2" fill="none"/><path d="M1514.64 976.9h-2v-1.03h2z" stroke="#333" stroke-width=".05" fill="#333"/><path d="M1513.64 1275.18l-14.85-14.84 14.84-15.16 14.84 15.16z" stroke="#333" stroke-width="2" fill="#333"/><g><use xlink:href="#ah" transform="matrix(1,0,0,1,1495.6356162404277,989.4657930267342) translate(0 14.4)"/></g><g><use xlink:href="#ai" transform="matrix(1,0,0,1,1537.6356162404277,1240.1324596934007) translate(0 14.4)"/></g><defs><path d="M24-248c120-7 223 5 221 122C244-46 201 0 124 0H24v-248zM76-40c74 7 117-18 117-86 0-67-45-88-117-82v168" id="aq"/><path d="M25-224v-37h50v37H25zM25 0v-190h50V0H25" id="ar"/><path d="M133-34C117-15 103 5 69 4 32 3 11-16 11-54c-1-60 55-63 116-61 1-26-3-47-28-47-18 1-26 9-28 27l-52-2c7-38 36-58 82-57s74 22 75 68l1 82c-1 14 12 18 25 15v27c-30 8-71 5-69-32zm-48 3c29 0 43-24 42-57-32 0-66-3-65 30 0 17 8 27 23 27" id="as"/><path d="M195-6C206 82 75 100 31 46c-4-6-6-13-8-21l49-6c3 16 16 24 34 25 40 0 42-37 40-79-11 22-30 35-61 35-53 0-70-43-70-97 0-56 18-96 73-97 30 0 46 14 59 34l2-30h47zm-90-29c32 0 41-27 41-63 0-35-9-62-40-62-32 0-39 29-40 63 0 36 9 62 39 62" id="at"/><path d="M135-150c-39-12-60 13-60 57V0H25l-1-190h47c2 13-1 29 3 40 6-28 27-53 61-41v41" id="au"/><path d="M220-157c-53 9-28 100-34 157h-49v-107c1-27-5-49-29-50C55-147 81-57 75 0H25l-1-190h47c2 12-1 28 3 38 10-53 101-56 108 0 13-22 24-43 59-42 82 1 51 116 57 194h-49v-107c-1-25-5-48-29-50" id="av"/><g id="a"><use transform="matrix(0.0728395061728395,0,0,0.0728395061728395,0,0)" xlink:href="#aq"/><use transform="matrix(0.0728395061728395,0,0,0.0728395061728395,18.86543209876543,0)" xlink:href="#ar"/><use transform="matrix(0.0728395061728395,0,0,0.0728395061728395,26.14938271604938,0)" xlink:href="#as"/><use transform="matrix(0.0728395061728395,0,0,0.0728395061728395,40.717283950617286,0)" xlink:href="#at"/><use transform="matrix(0.0728395061728395,0,0,0.0728395061728395,56.66913580246913,0)" xlink:href="#au"/><use transform="matrix(0.0728395061728395,0,0,0.0728395061728395,66.86666666666666,0)" xlink:href="#as"/><use transform="matrix(0.0728395061728395,0,0,0.0728395061728395,81.43456790123457,0)" xlink:href="#av"/><use transform="matrix(0.0728395061728395,0,0,0.0728395061728395,104.7432098765432,0)" xlink:href="#as"/></g><path d="M88-194c31-1 46 15 58 34l-1-101h50l1 261h-48c-2-10 0-23-3-31C134-8 116 4 84 4 32 4 16-41 15-95c0-56 19-97 73-99zm17 164c33 0 40-30 41-66 1-37-9-64-41-64s-38 30-39 65c0 43 13 65 39 65" id="aw"/><path d="M185-48c-13 30-37 53-82 52C43 2 14-33 14-96s30-98 90-98c62 0 83 45 84 108H66c0 31 8 55 39 56 18 0 30-7 34-22zm-45-69c5-46-57-63-70-21-2 6-4 13-4 21h74" id="ax"/><g id="b"><use transform="matrix(0.0728395061728395,0,0,0.0728395061728395,0,0)" xlink:href="#aw"/><use transform="matrix(0.0728395061728395,0,0,0.0728395061728395,15.95185185185185,0)" xlink:href="#ax"/></g><path d="M190-63c-7 42-38 67-86 67-59 0-84-38-90-98-12-110 154-137 174-36l-49 2c-2-19-15-32-35-32-30 0-35 28-38 64-6 74 65 87 74 30" id="ay"/><path d="M25 0v-261h50V0H25" id="az"/><path d="M137-138c1-29-70-34-71-4 15 46 118 7 119 86 1 83-164 76-172 9l43-7c4 19 20 25 44 25 33 8 57-30 24-41C81-84 22-81 20-136c-2-80 154-74 161-7" id="aA"/><g id="c"><use transform="matrix(0.0728395061728395,0,0,0.0728395061728395,0,0)" xlink:href="#ay"/><use transform="matrix(0.0728395061728395,0,0,0.0728395061728395,14.5679012345679,0)" xlink:href="#az"/><use transform="matrix(0.0728395061728395,0,0,0.0728395061728395,21.85185185185185,0)" xlink:href="#as"/><use transform="matrix(0.0728395061728395,0,0,0.0728395061728395,36.41975308641975,0)" xlink:href="#aA"/><use transform="matrix(0.0728395061728395,0,0,0.0728395061728395,50.98765432098765,0)" xlink:href="#ax"/><use transform="matrix(0.0728395061728395,0,0,0.0728395061728395,65.55555555555556,0)" xlink:href="#aA"/></g><path d="M14-72v-43h91v43H14" id="aB"/><use transform="matrix(0.0728395061728395,0,0,0.0728395061728395,0,0)" xlink:href="#aB" id="d"/><path d="M67-125c0 54 23 88 75 88 28 0 53-7 68-21v-34h-60v-39h108v91C232-14 192 4 140 4 58 4 20-42 15-125 8-236 126-280 215-234c19 10 29 26 37 47l-47 15c-11-23-29-39-63-39-53 1-75 33-75 86" id="aC"/><path d="M123 10C108 53 80 86 19 72V37c35 8 53-11 59-39L3-190h52l48 148c12-52 28-100 44-148h51" id="aD"/><path d="M199 0l-22-63H83L61 0H9l90-248h61L250 0h-51zm-33-102l-36-108c-10 38-24 72-36 108h72" id="aE"/><path d="M135-194c53 0 70 44 70 98 0 56-19 98-73 100-31 1-45-17-59-34 3 33 2 69 2 105H25l-1-265h48c2 10 0 23 3 31 11-24 29-35 60-35zM114-30c33 0 39-31 40-66 0-38-9-64-40-64-56 0-55 130 0 130" id="aF"/><g id="e"><use transform="matrix(0.0728395061728395,0,0,0.0728395061728395,0,0)" xlink:href="#aC"/><use transform="matrix(0.0728395061728395,0,0,0.0728395061728395,20.39506172839506,0)" xlink:href="#aD"/><use transform="matrix(0.0728395061728395,0,0,0.0728395061728395,34.96296296296296,0)" xlink:href="#av"/><use transform="matrix(0.0728395061728395,0,0,0.0728395061728395,58.2716049382716,0)" xlink:href="#aE"/><use transform="matrix(0.0728395061728395,0,0,0.0728395061728395,77.13703703703703,0)" xlink:href="#aF"/><use transform="matrix(0.0728395061728395,0,0,0.0728395061728395,93.08888888888889,0)" xlink:href="#aF"/></g><path fill="#333" d="M24-248c93 1 206-16 204 79-1 75-69 88-152 82V0H24v-248zm52 121c47 0 100 7 100-41 0-47-54-39-100-39v80" id="aG"/><path fill="#333" d="M185-48c-13 30-37 53-82 52C43 2 14-33 14-96s30-98 90-98c62 0 83 45 84 108H66c0 31 8 55 39 56 18 0 30-7 34-22zm-45-69c5-46-57-63-70-21-2 6-4 13-4 21h74" id="aH"/><path fill="#333" d="M135-150c-39-12-60 13-60 57V0H25l-1-190h47c2 13-1 29 3 40 6-28 27-53 61-41v41" id="aI"/><path fill="#333" d="M137-138c1-29-70-34-71-4 15 46 118 7 119 86 1 83-164 76-172 9l43-7c4 19 20 25 44 25 33 8 57-30 24-41C81-84 22-81 20-136c-2-80 154-74 161-7" id="aJ"/><path fill="#333" d="M110-194c64 0 96 36 96 99 0 64-35 99-97 99-61 0-95-36-95-99 0-62 34-99 96-99zm-1 164c35 0 45-28 45-65 0-40-10-65-43-65-34 0-45 26-45 65 0 36 10 65 43 65" id="aK"/><path fill="#333" d="M135-194c87-1 58 113 63 194h-50c-7-57 23-157-34-157-59 0-34 97-39 157H25l-1-190h47c2 12-1 28 3 38 12-26 28-41 61-42" id="aL"/><path fill="#333" d="M133-34C117-15 103 5 69 4 32 3 11-16 11-54c-1-60 55-63 116-61 1-26-3-47-28-47-18 1-26 9-28 27l-52-2c7-38 36-58 82-57s74 22 75 68l1 82c-1 14 12 18 25 15v27c-30 8-71 5-69-32zm-48 3c29 0 43-24 42-57-32 0-66-3-65 30 0 17 8 27 23 27" id="aM"/><g id="f"><use transform="matrix(0.05,0,0,0.05,0,0)" xlink:href="#aG"/><use transform="matrix(0.05,0,0,0.05,12,0)" xlink:href="#aH"/><use transform="matrix(0.05,0,0,0.05,22,0)" xlink:href="#aI"/><use transform="matrix(0.05,0,0,0.05,29,0)" xlink:href="#aJ"/><use transform="matrix(0.05,0,0,0.05,39,0)" xlink:href="#aK"/><use transform="matrix(0.05,0,0,0.05,49.95,0)" xlink:href="#aL"/><use transform="matrix(0.05,0,0,0.05,60.900000000000006,0)" xlink:href="#aM"/></g><path fill="#333" d="M16-82v-28h88v28H16" id="aN"/><use transform="matrix(0.05,0,0,0.05,0,0)" xlink:href="#aN" id="g"/><path fill="#333" d="M24-231v-30h32v30H24zM24 0v-190h32V0H24" id="aO"/><path fill="#333" d="M85-194c31 0 48 13 60 33l-1-100h32l1 261h-30c-2-10 0-23-3-31C134-8 116 4 85 4 32 4 16-35 15-94c0-66 23-100 70-100zm9 24c-40 0-46 34-46 75 0 40 6 74 45 74 42 0 51-32 51-76 0-42-9-74-50-73" id="aP"/><path fill="#333" d="M33-154v-36h34v36H33zM33 0v-36h34V0H33" id="aQ"/><g id="h"><use transform="matrix(0.05,0,0,0.05,0,0)" xlink:href="#aO"/><use transform="matrix(0.05,0,0,0.05,3.95,0)" xlink:href="#aP"/><use transform="matrix(0.05,0,0,0.05,13.949999999999998,0)" xlink:href="#aQ"/></g><path fill="#333" d="M33 0v-248h34V0H33" id="aR"/><path fill="#333" d="M117-194c89-4 53 116 60 194h-32v-121c0-31-8-49-39-48C34-167 62-67 57 0H25l-1-190h30c1 10-1 24 2 32 11-22 29-35 61-36" id="aS"/><path fill="#333" d="M59-47c-2 24 18 29 38 22v24C64 9 27 4 27-40v-127H5v-23h24l9-43h21v43h35v23H59v120" id="aT"/><path fill="#333" d="M100-194c63 0 86 42 84 106H49c0 40 14 67 53 68 26 1 43-12 49-29l28 8c-11 28-37 45-77 45C44 4 14-33 15-96c1-61 26-98 85-98zm52 81c6-60-76-77-97-28-3 7-6 17-6 28h103" id="aU"/><path fill="#333" d="M177-190C167-65 218 103 67 71c-23-6-38-20-44-43l32-5c15 47 100 32 89-28v-30C133-14 115 1 83 1 29 1 15-40 15-95c0-56 16-97 71-98 29-1 48 16 59 35 1-10 0-23 2-32h30zM94-22c36 0 50-32 50-73 0-42-14-75-50-75-39 0-46 34-46 75s6 73 46 73" id="aV"/><path fill="#333" d="M114-163C36-179 61-72 57 0H25l-1-190h30c1 12-1 29 2 39 6-27 23-49 58-41v29" id="aW"/><g id="i"><use transform="matrix(0.05,0,0,0.05,0,0)" xlink:href="#aR"/><use transform="matrix(0.05,0,0,0.05,5,0)" xlink:href="#aS"/><use transform="matrix(0.05,0,0,0.05,15,0)" xlink:href="#aT"/><use transform="matrix(0.05,0,0,0.05,20,0)" xlink:href="#aU"/><use transform="matrix(0.05,0,0,0.05,30,0)" xlink:href="#aV"/><use transform="matrix(0.05,0,0,0.05,40,0)" xlink:href="#aU"/><use transform="matrix(0.05,0,0,0.05,50,0)" xlink:href="#aW"/></g><path fill="#333" d="M100-194c62-1 85 37 85 99 1 63-27 99-86 99S16-35 15-95c0-66 28-99 85-99zM99-20c44 1 53-31 53-75 0-43-8-75-51-75s-53 32-53 75 10 74 51 75" id="aX"/><path fill="#333" d="M96-169c-40 0-48 33-48 73s9 75 48 75c24 0 41-14 43-38l32 2c-6 37-31 61-74 61-59 0-76-41-82-99-10-93 101-131 147-64 4 7 5 14 7 22l-32 3c-4-21-16-35-41-35" id="aY"/><path fill="#333" d="M84 4C-5 8 30-112 23-190h32v120c0 31 7 50 39 49 72-2 45-101 50-169h31l1 190h-30c-1-10 1-25-2-33-11 22-28 36-60 37" id="aZ"/><path fill="#333" d="M210-169c-67 3-38 105-44 169h-31v-121c0-29-5-50-35-48C34-165 62-65 56 0H25l-1-190h30c1 10-1 24 2 32 10-44 99-50 107 0 11-21 27-35 58-36 85-2 47 119 55 194h-31v-121c0-29-5-49-35-48" id="ba"/><g id="j"><use transform="matrix(0.05,0,0,0.05,0,0)" xlink:href="#aP"/><use transform="matrix(0.05,0,0,0.05,10,0)" xlink:href="#aX"/><use transform="matrix(0.05,0,0,0.05,20,0)" xlink:href="#aY"/><use transform="matrix(0.05,0,0,0.05,29,0)" xlink:href="#aZ"/><use transform="matrix(0.05,0,0,0.05,39,0)" xlink:href="#ba"/><use transform="matrix(0.05,0,0,0.05,53.95,0)" xlink:href="#aU"/><use transform="matrix(0.05,0,0,0.05,63.95,0)" xlink:href="#aS"/><use transform="matrix(0.05,0,0,0.05,73.95,0)" xlink:href="#aT"/><use transform="matrix(0.05,0,0,0.05,78.95,0)" xlink:href="#aX"/><use transform="matrix(0.05,0,0,0.05,88.95,0)" xlink:href="#aQ"/></g><path fill="#333" d="M185-189c-5-48-123-54-124 2 14 75 158 14 163 119 3 78-121 87-175 55-17-10-28-26-33-46l33-7c5 56 141 63 141-1 0-78-155-14-162-118-5-82 145-84 179-34 5 7 8 16 11 25" id="bb"/><g id="k"><use transform="matrix(0.05,0,0,0.05,0,0)" xlink:href="#bb"/><use transform="matrix(0.05,0,0,0.05,12,0)" xlink:href="#aT"/><use transform="matrix(0.05,0,0,0.05,17,0)" xlink:href="#aW"/><use transform="matrix(0.05,0,0,0.05,22.95,0)" xlink:href="#aO"/><use transform="matrix(0.05,0,0,0.05,26.899999999999995,0)" xlink:href="#aS"/><use transform="matrix(0.05,0,0,0.05,36.9,0)" xlink:href="#aV"/></g><path fill="#333" d="M115-194c53 0 69 39 70 98 0 66-23 100-70 100C84 3 66-7 56-30L54 0H23l1-261h32v101c10-23 28-34 59-34zm-8 174c40 0 45-34 45-75 0-40-5-75-45-74-42 0-51 32-51 76 0 43 10 73 51 73" id="bc"/><g id="l"><use transform="matrix(0.05,0,0,0.05,0,0)" xlink:href="#aS"/><use transform="matrix(0.05,0,0,0.05,10,0)" xlink:href="#aX"/><use transform="matrix(0.05,0,0,0.05,20,0)" xlink:href="#ba"/><use transform="matrix(0.05,0,0,0.05,34.95,0)" xlink:href="#bc"/><use transform="matrix(0.05,0,0,0.05,44.95,0)" xlink:href="#aW"/><use transform="matrix(0.05,0,0,0.05,50.900000000000006,0)" xlink:href="#aU"/><use transform="matrix(0.05,0,0,0.05,60.900000000000006,0)" xlink:href="#aQ"/></g><path fill="#333" d="M141-36C126-15 110 5 73 4 37 3 15-17 15-53c-1-64 63-63 125-63 3-35-9-54-41-54-24 1-41 7-42 31l-33-3c5-37 33-52 76-52 45 0 72 20 72 64v82c-1 20 7 32 28 27v20c-31 9-61-2-59-35zM48-53c0 20 12 33 32 33 41-3 63-29 60-74-43 2-92-5-92 41" id="bd"/><path fill="#333" d="M115-194c55 1 70 41 70 98S169 2 115 4C84 4 66-9 55-30l1 105H24l-1-265h31l2 30c10-21 28-34 59-34zm-8 174c40 0 45-34 45-75s-6-73-45-74c-42 0-51 32-51 76 0 43 10 73 51 73" id="be"/><path fill="#333" d="M24 0v-261h32V0H24" id="bf"/><g id="m"><use transform="matrix(0.05,0,0,0.05,0,0)" xlink:href="#bd"/><use transform="matrix(0.05,0,0,0.05,10,0)" xlink:href="#be"/><use transform="matrix(0.05,0,0,0.05,20,0)" xlink:href="#aU"/><use transform="matrix(0.05,0,0,0.05,30,0)" xlink:href="#bf"/><use transform="matrix(0.05,0,0,0.05,33.95,0)" xlink:href="#bf"/><use transform="matrix(0.05,0,0,0.05,37.900000000000006,0)" xlink:href="#aO"/><use transform="matrix(0.05,0,0,0.05,41.85000000000001,0)" xlink:href="#aP"/><use transform="matrix(0.05,0,0,0.05,51.85,0)" xlink:href="#aX"/><use transform="matrix(0.05,0,0,0.05,61.85,0)" xlink:href="#aQ"/></g><path fill="#333" d="M101-234c-31-9-42 10-38 44h38v23H63V0H32v-167H5v-23h27c-7-52 17-82 69-68v24" id="bg"/><g id="n"><use transform="matrix(0.05,0,0,0.05,0,0)" xlink:href="#aT"/><use transform="matrix(0.05,0,0,0.05,5,0)" xlink:href="#aU"/><use transform="matrix(0.05,0,0,0.05,15,0)" xlink:href="#bf"/><use transform="matrix(0.05,0,0,0.05,18.95,0)" xlink:href="#aU"/><use transform="matrix(0.05,0,0,0.05,28.950000000000003,0)" xlink:href="#bg"/><use transform="matrix(0.05,0,0,0.05,33.95,0)" xlink:href="#aX"/><use transform="matrix(0.05,0,0,0.05,43.95,0)" xlink:href="#aS"/><use transform="matrix(0.05,0,0,0.05,53.95,0)" xlink:href="#aX"/><use transform="matrix(0.05,0,0,0.05,63.95,0)" xlink:href="#aQ"/></g><path fill="#333" d="M232-93c-1 65-40 97-104 97C67 4 28-28 28-90v-158h33c8 89-33 224 67 224 102 0 64-133 71-224h33v155" id="bh"/><path fill="#333" d="M135-143c-3-34-86-38-87 0 15 53 115 12 119 90S17 21 10-45l28-5c4 36 97 45 98 0-10-56-113-15-118-90-4-57 82-63 122-42 12 7 21 19 24 35" id="bi"/><g id="o"><use transform="matrix(0.05,0,0,0.05,0,0)" xlink:href="#aS"/><use transform="matrix(0.05,0,0,0.05,10,0)" xlink:href="#aX"/><use transform="matrix(0.05,0,0,0.05,20,0)" xlink:href="#ba"/><use transform="matrix(0.05,0,0,0.05,34.95,0)" xlink:href="#bc"/><use transform="matrix(0.05,0,0,0.05,44.95,0)" xlink:href="#aW"/><use transform="matrix(0.05,0,0,0.05,50.900000000000006,0)" xlink:href="#aU"/><use transform="matrix(0.05,0,0,0.05,60.900000000000006,0)" xlink:href="#bh"/><use transform="matrix(0.05,0,0,0.05,73.85000000000001,0)" xlink:href="#bi"/><use transform="matrix(0.05,0,0,0.05,82.85000000000001,0)" xlink:href="#aZ"/><use transform="matrix(0.05,0,0,0.05,92.85000000000001,0)" xlink:href="#bd"/><use transform="matrix(0.05,0,0,0.05,102.85000000000001,0)" xlink:href="#aW"/><use transform="matrix(0.05,0,0,0.05,108.80000000000001,0)" xlink:href="#aO"/><use transform="matrix(0.05,0,0,0.05,112.75,0)" xlink:href="#aX"/><use transform="matrix(0.05,0,0,0.05,122.75,0)" xlink:href="#aQ"/></g><path fill="#333" d="M206 0h-36l-40-164L89 0H53L-1-190h32L70-26l43-164h34l41 164 42-164h31" id="bj"/><g id="p"><use transform="matrix(0.05,0,0,0.05,0,0)" xlink:href="#be"/><use transform="matrix(0.05,0,0,0.05,10,0)" xlink:href="#bd"/><use transform="matrix(0.05,0,0,0.05,20,0)" xlink:href="#bi"/><use transform="matrix(0.05,0,0,0.05,29,0)" xlink:href="#bi"/><use transform="matrix(0.05,0,0,0.05,38,0)" xlink:href="#bj"/><use transform="matrix(0.05,0,0,0.05,50.95,0)" xlink:href="#aX"/><use transform="matrix(0.05,0,0,0.05,60.95,0)" xlink:href="#aW"/><use transform="matrix(0.05,0,0,0.05,66.9,0)" xlink:href="#aP"/><use transform="matrix(0.05,0,0,0.05,76.9,0)" xlink:href="#aQ"/></g><g id="q"><use transform="matrix(0.05,0,0,0.05,0,0)" xlink:href="#aY"/><use transform="matrix(0.05,0,0,0.05,9,0)" xlink:href="#aX"/><use transform="matrix(0.05,0,0,0.05,19,0)" xlink:href="#aW"/><use transform="matrix(0.05,0,0,0.05,24.95,0)" xlink:href="#aW"/><use transform="matrix(0.05,0,0,0.05,30.899999999999995,0)" xlink:href="#aU"/><use transform="matrix(0.05,0,0,0.05,40.9,0)" xlink:href="#aX"/><use transform="matrix(0.05,0,0,0.05,50.9,0)" xlink:href="#aQ"/></g><g id="r"><use transform="matrix(0.05,0,0,0.05,0,0)" xlink:href="#bb"/><use transform="matrix(0.05,0,0,0.05,12,0)" xlink:href="#aT"/><use transform="matrix(0.05,0,0,0.05,17,0)" xlink:href="#aW"/><use transform="matrix(0.05,0,0,0.05,22.95,0)" xlink:href="#aO"/><use transform="matrix(0.05,0,0,0.05,26.899999999999995,0)" xlink:href="#aS"/><use transform="matrix(0.05,0,0,0.05,36.9,0)" xlink:href="#aV"/></g><path fill="#333" d="M118-107v75H92v-75H18v-26h74v-75h26v75h74v26h-74" id="bk"/><use transform="matrix(0.05,0,0,0.05,0,0)" xlink:href="#bk" id="s"/><path fill="#333" d="M87 75C49 33 22-17 22-94c0-76 28-126 65-167h31c-38 41-64 92-64 168S80 34 118 75H87" id="bl"/><path fill="#333" d="M33-261c38 41 65 92 65 168S71 34 33 75H2C39 34 66-17 66-93S39-220 2-261h31" id="bm"/><g id="t"><use transform="matrix(0.05,0,0,0.05,0,0)" xlink:href="#bd"/><use transform="matrix(0.05,0,0,0.05,10,0)" xlink:href="#aV"/><use transform="matrix(0.05,0,0,0.05,20,0)" xlink:href="#aW"/><use transform="matrix(0.05,0,0,0.05,25.950000000000003,0)" xlink:href="#aU"/><use transform="matrix(0.05,0,0,0.05,35.95,0)" xlink:href="#aV"/><use transform="matrix(0.05,0,0,0.05,45.95,0)" xlink:href="#bd"/><use transform="matrix(0.05,0,0,0.05,55.95,0)" xlink:href="#aW"/><use transform="matrix(0.05,0,0,0.05,61.900000000000006,0)" xlink:href="#bl"/><use transform="matrix(0.05,0,0,0.05,67.85000000000001,0)" xlink:href="#bm"/></g><path fill="#333" d="M9 0v-24l116-142H16v-24h144v24L44-24h123V0H9" id="bn"/><g id="u"><use transform="matrix(0.05,0,0,0.05,0,0)" xlink:href="#bd"/><use transform="matrix(0.05,0,0,0.05,10,0)" xlink:href="#aY"/><use transform="matrix(0.05,0,0,0.05,19,0)" xlink:href="#aT"/><use transform="matrix(0.05,0,0,0.05,24,0)" xlink:href="#aZ"/><use transform="matrix(0.05,0,0,0.05,34,0)" xlink:href="#bd"/><use transform="matrix(0.05,0,0,0.05,44,0)" xlink:href="#bf"/><use transform="matrix(0.05,0,0,0.05,47.95,0)" xlink:href="#aO"/><use transform="matrix(0.05,0,0,0.05,51.900000000000006,0)" xlink:href="#bn"/><use transform="matrix(0.05,0,0,0.05,60.900000000000006,0)" xlink:href="#bd"/><use transform="matrix(0.05,0,0,0.05,70.9,0)" xlink:href="#aW"/><use transform="matrix(0.05,0,0,0.05,76.85000000000001,0)" xlink:href="#bl"/><use transform="matrix(0.05,0,0,0.05,82.80000000000001,0)" xlink:href="#bm"/></g><g id="v"><use transform="matrix(0.05,0,0,0.05,0,0)" xlink:href="#aU"/><use transform="matrix(0.05,0,0,0.05,10,0)" xlink:href="#bf"/><use transform="matrix(0.05,0,0,0.05,13.949999999999998,0)" xlink:href="#aO"/><use transform="matrix(0.05,0,0,0.05,17.9,0)" xlink:href="#ba"/><use transform="matrix(0.05,0,0,0.05,32.85,0)" xlink:href="#aO"/><use transform="matrix(0.05,0,0,0.05,36.800000000000004,0)" xlink:href="#aS"/><use transform="matrix(0.05,0,0,0.05,46.800000000000004,0)" xlink:href="#bd"/><use transform="matrix(0.05,0,0,0.05,56.800000000000004,0)" xlink:href="#aW"/><use transform="matrix(0.05,0,0,0.05,62.75,0)" xlink:href="#bl"/><use transform="matrix(0.05,0,0,0.05,68.7,0)" xlink:href="#bm"/></g><path fill="#333" d="M238-95c0 69-44 99-111 99C63 4 22-25 22-93v-155h51v151c-1 38 19 59 55 60 90 1 49-130 58-211h52v153" id="bo"/><path fill="#333" d="M85 4C-2 5 27-109 22-190h50c7 57-23 150 33 157 60-5 35-97 40-157h50l1 190h-47c-2-12 1-28-3-38-12 25-28 42-61 42" id="bp"/><path fill="#333" d="M25-224v-37h50v37H25zM25 0v-190h50V0H25" id="bq"/><g id="w"><use transform="matrix(0.05,0,0,0.05,0,0)" xlink:href="#bo"/><use transform="matrix(0.05,0,0,0.05,12.950000000000001,0)" xlink:href="#aJ"/><use transform="matrix(0.05,0,0,0.05,22.950000000000003,0)" xlink:href="#bp"/><use transform="matrix(0.05,0,0,0.05,33.900000000000006,0)" xlink:href="#aM"/><use transform="matrix(0.05,0,0,0.05,43.900000000000006,0)" xlink:href="#aI"/><use transform="matrix(0.05,0,0,0.05,50.900000000000006,0)" xlink:href="#bq"/><use transform="matrix(0.05,0,0,0.05,55.900000000000006,0)" xlink:href="#aK"/></g><path fill="#333" d="M106-169C34-169 62-67 57 0H25v-261h32l-1 103c12-21 28-36 61-36 89 0 53 116 60 194h-32v-121c2-32-8-49-39-48" id="br"/><path fill="#333" d="M190 0L58-211 59 0H30v-248h39L202-35l-2-213h31V0h-41" id="bs"/><g id="x"><use transform="matrix(0.05,0,0,0.05,0,0)" xlink:href="#bg"/><use transform="matrix(0.05,0,0,0.05,5,0)" xlink:href="#aU"/><use transform="matrix(0.05,0,0,0.05,15,0)" xlink:href="#aY"/><use transform="matrix(0.05,0,0,0.05,24,0)" xlink:href="#br"/><use transform="matrix(0.05,0,0,0.05,34,0)" xlink:href="#bd"/><use transform="matrix(0.05,0,0,0.05,44,0)" xlink:href="#bs"/><use transform="matrix(0.05,0,0,0.05,56.95,0)" xlink:href="#bd"/><use transform="matrix(0.05,0,0,0.05,66.95,0)" xlink:href="#aY"/><use transform="matrix(0.05,0,0,0.05,75.95,0)" xlink:href="#aO"/><use transform="matrix(0.05,0,0,0.05,79.9,0)" xlink:href="#ba"/><use transform="matrix(0.05,0,0,0.05,94.85000000000001,0)" xlink:href="#aO"/><use transform="matrix(0.05,0,0,0.05,98.80000000000001,0)" xlink:href="#aU"/><use transform="matrix(0.05,0,0,0.05,108.80000000000001,0)" xlink:href="#aS"/><use transform="matrix(0.05,0,0,0.05,118.80000000000001,0)" xlink:href="#aT"/><use transform="matrix(0.05,0,0,0.05,123.80000000000001,0)" xlink:href="#aX"/><use transform="matrix(0.05,0,0,0.05,133.8,0)" xlink:href="#aQ"/></g><path fill="#333" d="M30-248c118-7 216 8 213 122C240-48 200 0 122 0H30v-248zM63-27c89 8 146-16 146-99s-60-101-146-95v194" id="bt"/><g id="y"><use transform="matrix(0.05,0,0,0.05,0,0)" xlink:href="#bt"/><use transform="matrix(0.05,0,0,0.05,12.950000000000001,0)" xlink:href="#bd"/><use transform="matrix(0.05,0,0,0.05,22.950000000000003,0)" xlink:href="#aT"/><use transform="matrix(0.05,0,0,0.05,27.950000000000003,0)" xlink:href="#aU"/></g><path fill="#333" d="M141 0L90-78 38 0H4l68-98-65-92h35l48 74 47-74h35l-64 92 68 98h-35" id="bu"/><g id="z"><use transform="matrix(0.05,0,0,0.05,0,0)" xlink:href="#bi"/><use transform="matrix(0.05,0,0,0.05,9,0)" xlink:href="#aU"/><use transform="matrix(0.05,0,0,0.05,19,0)" xlink:href="#bu"/><use transform="matrix(0.05,0,0,0.05,28,0)" xlink:href="#aX"/><use transform="matrix(0.05,0,0,0.05,38,0)" xlink:href="#aQ"/></g><path fill="#333" d="M212-179c-10-28-35-45-73-45-59 0-87 40-87 99 0 60 29 101 89 101 43 0 62-24 78-52l27 14C228-24 195 4 139 4 59 4 22-46 18-125c-6-104 99-153 187-111 19 9 31 26 39 46" id="bv"/><g id="A"><use transform="matrix(0.05,0,0,0.05,0,0)" xlink:href="#bd"/><use transform="matrix(0.05,0,0,0.05,10,0)" xlink:href="#aV"/><use transform="matrix(0.05,0,0,0.05,20,0)" xlink:href="#aW"/><use transform="matrix(0.05,0,0,0.05,25.950000000000003,0)" xlink:href="#aU"/><use transform="matrix(0.05,0,0,0.05,35.95,0)" xlink:href="#aV"/><use transform="matrix(0.05,0,0,0.05,45.95,0)" xlink:href="#bd"/><use transform="matrix(0.05,0,0,0.05,55.95,0)" xlink:href="#aW"/><use transform="matrix(0.05,0,0,0.05,61.900000000000006,0)" xlink:href="#bv"/><use transform="matrix(0.05,0,0,0.05,74.85000000000001,0)" xlink:href="#aX"/><use transform="matrix(0.05,0,0,0.05,84.85000000000001,0)" xlink:href="#aS"/><use transform="matrix(0.05,0,0,0.05,94.85000000000001,0)" xlink:href="#aT"/><use transform="matrix(0.05,0,0,0.05,99.85000000000001,0)" xlink:href="#bd"/><use transform="matrix(0.05,0,0,0.05,109.85000000000001,0)" xlink:href="#aY"/><use transform="matrix(0.05,0,0,0.05,118.85000000000001,0)" xlink:href="#aT"/><use transform="matrix(0.05,0,0,0.05,123.85000000000001,0)" xlink:href="#aX"/><use transform="matrix(0.05,0,0,0.05,133.85000000000002,0)" xlink:href="#bl"/><use transform="matrix(0.05,0,0,0.05,139.8,0)" xlink:href="#bm"/></g><g id="B"><use transform="matrix(0.05,0,0,0.05,0,0)" xlink:href="#bd"/><use transform="matrix(0.05,0,0,0.05,10,0)" xlink:href="#aV"/><use transform="matrix(0.05,0,0,0.05,20,0)" xlink:href="#aU"/><use transform="matrix(0.05,0,0,0.05,30,0)" xlink:href="#aS"/><use transform="matrix(0.05,0,0,0.05,40,0)" xlink:href="#aP"/><use transform="matrix(0.05,0,0,0.05,50,0)" xlink:href="#bd"/><use transform="matrix(0.05,0,0,0.05,60,0)" xlink:href="#aW"/><use transform="matrix(0.05,0,0,0.05,65.95,0)" xlink:href="#bv"/><use transform="matrix(0.05,0,0,0.05,78.9,0)" xlink:href="#bf"/><use transform="matrix(0.05,0,0,0.05,82.85000000000001,0)" xlink:href="#bd"/><use transform="matrix(0.05,0,0,0.05,92.85000000000001,0)" xlink:href="#bi"/><use transform="matrix(0.05,0,0,0.05,101.85000000000001,0)" xlink:href="#aU"/><use transform="matrix(0.05,0,0,0.05,111.85000000000001,0)" xlink:href="#bl"/><use transform="matrix(0.05,0,0,0.05,117.80000000000001,0)" xlink:href="#bm"/></g><path fill="#333" d="M240 0l2-218c-23 76-54 145-80 218h-23L58-218 59 0H30v-248h44l77 211c21-75 51-140 76-211h43V0h-30" id="bw"/><g id="C"><use transform="matrix(0.05,0,0,0.05,0,0)" xlink:href="#aY"/><use transform="matrix(0.05,0,0,0.05,9,0)" xlink:href="#bd"/><use transform="matrix(0.05,0,0,0.05,19,0)" xlink:href="#bf"/><use transform="matrix(0.05,0,0,0.05,22.95,0)" xlink:href="#aY"/><use transform="matrix(0.05,0,0,0.05,31.950000000000003,0)" xlink:href="#aZ"/><use transform="matrix(0.05,0,0,0.05,41.95,0)" xlink:href="#bf"/><use transform="matrix(0.05,0,0,0.05,45.900000000000006,0)" xlink:href="#bd"/><use transform="matrix(0.05,0,0,0.05,55.900000000000006,0)" xlink:href="#aW"/><use transform="matrix(0.05,0,0,0.05,61.85,0)" xlink:href="#aR"/><use transform="matrix(0.05,0,0,0.05,66.85000000000001,0)" xlink:href="#bw"/><use transform="matrix(0.05,0,0,0.05,81.80000000000001,0)" xlink:href="#bv"/><use transform="matrix(0.05,0,0,0.05,94.75000000000001,0)" xlink:href="#bl"/><use transform="matrix(0.05,0,0,0.05,100.70000000000002,0)" xlink:href="#bm"/></g><path fill="#333" d="M24 0v-248h195v40H76v63h132v40H76v65h150V0H24" id="bx"/><path fill="#333" d="M115-3C79 11 28 4 28-45v-112H4v-33h27l15-45h31v45h36v33H77v99c-1 23 16 31 38 25v30" id="by"/><path fill="#333" d="M88-194c31-1 46 15 58 34l-1-101h50l1 261h-48c-2-10 0-23-3-31C134-8 116 4 84 4 32 4 16-41 15-95c0-56 19-97 73-99zm17 164c33 0 40-30 41-66 1-37-9-64-41-64s-38 30-39 65c0 43 13 65 39 65" id="bz"/><g id="D"><use transform="matrix(0.05,0,0,0.05,0,0)" xlink:href="#bx"/><use transform="matrix(0.05,0,0,0.05,12,0)" xlink:href="#aL"/><use transform="matrix(0.05,0,0,0.05,22.950000000000003,0)" xlink:href="#by"/><use transform="matrix(0.05,0,0,0.05,28.900000000000002,0)" xlink:href="#aI"/><use transform="matrix(0.05,0,0,0.05,35.900000000000006,0)" xlink:href="#aH"/><use transform="matrix(0.05,0,0,0.05,45.900000000000006,0)" xlink:href="#aL"/><use transform="matrix(0.05,0,0,0.05,56.85,0)" xlink:href="#aM"/><use transform="matrix(0.05,0,0,0.05,66.85000000000001,0)" xlink:href="#bz"/><use transform="matrix(0.05,0,0,0.05,77.80000000000001,0)" xlink:href="#aK"/><use transform="matrix(0.05,0,0,0.05,88.75000000000001,0)" xlink:href="#aI"/></g><g id="E"><use transform="matrix(0.05,0,0,0.05,0,0)" xlink:href="#bd"/><use transform="matrix(0.05,0,0,0.05,10,0)" xlink:href="#aW"/><use transform="matrix(0.05,0,0,0.05,15.949999999999998,0)" xlink:href="#bf"/><use transform="matrix(0.05,0,0,0.05,19.9,0)" xlink:href="#aQ"/></g><g id="F"><use transform="matrix(0.05,0,0,0.05,0,0)" xlink:href="#aU"/><use transform="matrix(0.05,0,0,0.05,10,0)" xlink:href="#be"/><use transform="matrix(0.05,0,0,0.05,20,0)" xlink:href="#bi"/><use transform="matrix(0.05,0,0,0.05,29,0)" xlink:href="#aQ"/></g><g id="G"><use transform="matrix(0.05,0,0,0.05,0,0)" xlink:href="#bi"/><use transform="matrix(0.05,0,0,0.05,9,0)" xlink:href="#bd"/><use transform="matrix(0.05,0,0,0.05,19,0)" xlink:href="#bf"/><use transform="matrix(0.05,0,0,0.05,22.95,0)" xlink:href="#bd"/><use transform="matrix(0.05,0,0,0.05,32.95,0)" xlink:href="#aW"/><use transform="matrix(0.05,0,0,0.05,38.900000000000006,0)" xlink:href="#aO"/><use transform="matrix(0.05,0,0,0.05,42.85000000000001,0)" xlink:href="#aX"/><use transform="matrix(0.05,0,0,0.05,52.85,0)" xlink:href="#aQ"/></g><g id="H"><use transform="matrix(0.05,0,0,0.05,0,0)" xlink:href="#bt"/><use transform="matrix(0.05,0,0,0.05,12.950000000000001,0)" xlink:href="#aX"/><use transform="matrix(0.05,0,0,0.05,22.950000000000003,0)" xlink:href="#aZ"/><use transform="matrix(0.05,0,0,0.05,32.95,0)" xlink:href="#bc"/><use transform="matrix(0.05,0,0,0.05,42.95,0)" xlink:href="#bf"/><use transform="matrix(0.05,0,0,0.05,46.900000000000006,0)" xlink:href="#aU"/></g><g id="I"><use transform="matrix(0.05,0,0,0.05,0,0)" xlink:href="#aY"/><use transform="matrix(0.05,0,0,0.05,9,0)" xlink:href="#aW"/><use transform="matrix(0.05,0,0,0.05,14.949999999999998,0)" xlink:href="#aU"/><use transform="matrix(0.05,0,0,0.05,24.95,0)" xlink:href="#bd"/><use transform="matrix(0.05,0,0,0.05,34.95,0)" xlink:href="#aW"/><use transform="matrix(0.05,0,0,0.05,40.900000000000006,0)" xlink:href="#bv"/><use transform="matrix(0.05,0,0,0.05,53.85,0)" xlink:href="#bf"/><use transform="matrix(0.05,0,0,0.05,57.80000000000001,0)" xlink:href="#bd"/><use transform="matrix(0.05,0,0,0.05,67.80000000000001,0)" xlink:href="#bi"/><use transform="matrix(0.05,0,0,0.05,76.80000000000001,0)" xlink:href="#aU"/><use transform="matrix(0.05,0,0,0.05,86.80000000000001,0)" xlink:href="#bl"/><use transform="matrix(0.05,0,0,0.05,92.75000000000001,0)" xlink:href="#bm"/></g><path fill="#333" d="M108 0H70L1-190h34L89-25l56-165h34" id="bA"/><g id="J"><use transform="matrix(0.05,0,0,0.05,0,0)" xlink:href="#bA"/><use transform="matrix(0.05,0,0,0.05,9,0)" xlink:href="#aU"/><use transform="matrix(0.05,0,0,0.05,19,0)" xlink:href="#aW"/><use transform="matrix(0.05,0,0,0.05,24.95,0)" xlink:href="#bv"/><use transform="matrix(0.05,0,0,0.05,37.9,0)" xlink:href="#bf"/><use transform="matrix(0.05,0,0,0.05,41.85,0)" xlink:href="#bd"/><use transform="matrix(0.05,0,0,0.05,51.85,0)" xlink:href="#bi"/><use transform="matrix(0.05,0,0,0.05,60.85,0)" xlink:href="#aU"/><use transform="matrix(0.05,0,0,0.05,70.85,0)" xlink:href="#bl"/><use transform="matrix(0.05,0,0,0.05,76.8,0)" xlink:href="#bm"/></g><g id="K"><use transform="matrix(0.05,0,0,0.05,0,0)" xlink:href="#ba"/><use transform="matrix(0.05,0,0,0.05,14.950000000000001,0)" xlink:href="#aX"/><use transform="matrix(0.05,0,0,0.05,24.950000000000003,0)" xlink:href="#aP"/><use transform="matrix(0.05,0,0,0.05,34.95,0)" xlink:href="#aO"/><use transform="matrix(0.05,0,0,0.05,38.900000000000006,0)" xlink:href="#bg"/><use transform="matrix(0.05,0,0,0.05,43.900000000000006,0)" xlink:href="#aO"/><use transform="matrix(0.05,0,0,0.05,47.85000000000001,0)" xlink:href="#aY"/><use transform="matrix(0.05,0,0,0.05,56.85,0)" xlink:href="#bd"/><use transform="matrix(0.05,0,0,0.05,66.85000000000001,0)" xlink:href="#aW"/><use transform="matrix(0.05,0,0,0.05,72.80000000000001,0)" xlink:href="#bv"/><use transform="matrix(0.05,0,0,0.05,85.75000000000001,0)" xlink:href="#bf"/><use transform="matrix(0.05,0,0,0.05,89.70000000000002,0)" xlink:href="#bd"/><use transform="matrix(0.05,0,0,0.05,99.70000000000002,0)" xlink:href="#bi"/><use transform="matrix(0.05,0,0,0.05,108.7,0)" xlink:href="#aU"/><use transform="matrix(0.05,0,0,0.05,118.7,0)" xlink:href="#bl"/><use transform="matrix(0.05,0,0,0.05,124.65000000000003,0)" xlink:href="#bm"/></g><path fill="#333" d="M199 0l-22-63H83L61 0H9l90-248h61L250 0h-51zm-33-102l-36-108c-10 38-24 72-36 108h72" id="bB"/><path fill="#333" d="M220-157c-53 9-28 100-34 157h-49v-107c1-27-5-49-29-50C55-147 81-57 75 0H25l-1-190h47c2 12-1 28 3 38 10-53 101-56 108 0 13-22 24-43 59-42 82 1 51 116 57 194h-49v-107c-1-25-5-48-29-50" id="bC"/><g id="L"><use transform="matrix(0.05,0,0,0.05,0,0)" xlink:href="#bB"/><use transform="matrix(0.05,0,0,0.05,12.950000000000001,0)" xlink:href="#bz"/><use transform="matrix(0.05,0,0,0.05,23.900000000000002,0)" xlink:href="#bC"/><use transform="matrix(0.05,0,0,0.05,39.900000000000006,0)" xlink:href="#bq"/><use transform="matrix(0.05,0,0,0.05,44.900000000000006,0)" xlink:href="#aL"/><use transform="matrix(0.05,0,0,0.05,55.85,0)" xlink:href="#bq"/><use transform="matrix(0.05,0,0,0.05,60.85,0)" xlink:href="#aJ"/><use transform="matrix(0.05,0,0,0.05,70.85000000000001,0)" xlink:href="#by"/><use transform="matrix(0.05,0,0,0.05,76.80000000000001,0)" xlink:href="#aI"/><use transform="matrix(0.05,0,0,0.05,83.80000000000001,0)" xlink:href="#aM"/><use transform="matrix(0.05,0,0,0.05,93.80000000000001,0)" xlink:href="#bz"/><use transform="matrix(0.05,0,0,0.05,104.75,0)" xlink:href="#aK"/><use transform="matrix(0.05,0,0,0.05,115.7,0)" xlink:href="#aI"/></g><g id="M"><use transform="matrix(0.05,0,0,0.05,0,0)" xlink:href="#bA"/><use transform="matrix(0.05,0,0,0.05,9,0)" xlink:href="#aU"/><use transform="matrix(0.05,0,0,0.05,19,0)" xlink:href="#aW"/><use transform="matrix(0.05,0,0,0.05,24.95,0)" xlink:href="#bw"/><use transform="matrix(0.05,0,0,0.05,39.9,0)" xlink:href="#aU"/><use transform="matrix(0.05,0,0,0.05,49.9,0)" xlink:href="#ba"/><use transform="matrix(0.05,0,0,0.05,64.85,0)" xlink:href="#bc"/><use transform="matrix(0.05,0,0,0.05,74.85,0)" xlink:href="#aW"/><use transform="matrix(0.05,0,0,0.05,80.8,0)" xlink:href="#aU"/><use transform="matrix(0.05,0,0,0.05,90.8,0)" xlink:href="#bi"/><use transform="matrix(0.05,0,0,0.05,99.8,0)" xlink:href="#aO"/><use transform="matrix(0.05,0,0,0.05,103.75,0)" xlink:href="#bd"/><use transform="matrix(0.05,0,0,0.05,113.75,0)" xlink:href="#bl"/><use transform="matrix(0.05,0,0,0.05,119.7,0)" xlink:href="#bm"/></g><g id="N"><use transform="matrix(0.05,0,0,0.05,0,0)" xlink:href="#bA"/><use transform="matrix(0.05,0,0,0.05,9,0)" xlink:href="#aU"/><use transform="matrix(0.05,0,0,0.05,19,0)" xlink:href="#aW"/><use transform="matrix(0.05,0,0,0.05,24.95,0)" xlink:href="#bh"/><use transform="matrix(0.05,0,0,0.05,37.9,0)" xlink:href="#bi"/><use transform="matrix(0.05,0,0,0.05,46.9,0)" xlink:href="#aZ"/><use transform="matrix(0.05,0,0,0.05,56.900000000000006,0)" xlink:href="#bd"/><use transform="matrix(0.05,0,0,0.05,66.9,0)" xlink:href="#aW"/><use transform="matrix(0.05,0,0,0.05,72.85000000000001,0)" xlink:href="#aO"/><use transform="matrix(0.05,0,0,0.05,76.80000000000001,0)" xlink:href="#aX"/><use transform="matrix(0.05,0,0,0.05,86.80000000000001,0)" xlink:href="#bi"/><use transform="matrix(0.05,0,0,0.05,95.80000000000001,0)" xlink:href="#bl"/><use transform="matrix(0.05,0,0,0.05,101.75000000000001,0)" xlink:href="#bm"/></g><g id="O"><use transform="matrix(0.05,0,0,0.05,0,0)" xlink:href="#bx"/><use transform="matrix(0.05,0,0,0.05,12,0)" xlink:href="#aJ"/><use transform="matrix(0.05,0,0,0.05,22,0)" xlink:href="#by"/><use transform="matrix(0.05,0,0,0.05,27.950000000000003,0)" xlink:href="#aM"/><use transform="matrix(0.05,0,0,0.05,37.95,0)" xlink:href="#bz"/><use transform="matrix(0.05,0,0,0.05,48.900000000000006,0)" xlink:href="#aK"/></g><path fill="#333" d="M230 0l2-204L168 0h-37L68-204 70 0H24v-248h70l56 185 57-185h69V0h-46" id="bD"/><path fill="#333" d="M135-194c52 0 70 43 70 98 0 56-19 99-73 100-30 1-46-15-58-35L72 0H24l1-261h50v104c11-23 29-37 60-37zM114-30c31 0 40-27 40-66 0-37-7-63-39-63s-41 28-41 65c0 36 8 64 40 64" id="bE"/><g id="P"><use transform="matrix(0.05,0,0,0.05,0,0)" xlink:href="#bD"/><use transform="matrix(0.05,0,0,0.05,14.950000000000001,0)" xlink:href="#aH"/><use transform="matrix(0.05,0,0,0.05,24.950000000000003,0)" xlink:href="#bC"/><use transform="matrix(0.05,0,0,0.05,40.95,0)" xlink:href="#bE"/><use transform="matrix(0.05,0,0,0.05,51.900000000000006,0)" xlink:href="#aI"/><use transform="matrix(0.05,0,0,0.05,58.900000000000006,0)" xlink:href="#aH"/><use transform="matrix(0.05,0,0,0.05,68.9,0)" xlink:href="#aJ"/><use transform="matrix(0.05,0,0,0.05,78.9,0)" xlink:href="#bq"/><use transform="matrix(0.05,0,0,0.05,83.9,0)" xlink:href="#aM"/></g><g id="Q"><use transform="matrix(0.05,0,0,0.05,0,0)" xlink:href="#bA"/><use transform="matrix(0.05,0,0,0.05,9,0)" xlink:href="#bd"/><use transform="matrix(0.05,0,0,0.05,19,0)" xlink:href="#bf"/><use transform="matrix(0.05,0,0,0.05,22.95,0)" xlink:href="#aX"/><use transform="matrix(0.05,0,0,0.05,32.95,0)" xlink:href="#aW"/><use transform="matrix(0.05,0,0,0.05,38.900000000000006,0)" xlink:href="#aQ"/></g><path fill="#333" d="M156-25L96-89v-11l60-65h29v5l-59 66 60 64v5h-30zm-82 0L15-89v-11l59-65h29v5L44-94l59 64v5H74" id="bF"/><path fill="#333" d="M126-25H97v-5l59-64-59-66v-5h29l60 65v11zm-82 0H15v-5l59-64-59-66v-5h29l59 65v11" id="bG"/><g id="R"><use transform="matrix(0.04320987654320988,0,0,0.04320987654320988,0,0)" xlink:href="#bF"/><use transform="matrix(0.04320987654320988,0,0,0.04320987654320988,8.641975308641976,0)" xlink:href="#aT"/><use transform="matrix(0.04320987654320988,0,0,0.04320987654320988,12.962962962962964,0)" xlink:href="#aO"/><use transform="matrix(0.04320987654320988,0,0,0.04320987654320988,16.376543209876544,0)" xlink:href="#aU"/><use transform="matrix(0.04320987654320988,0,0,0.04320987654320988,25.018518518518523,0)" xlink:href="#aS"/><use transform="matrix(0.04320987654320988,0,0,0.04320987654320988,33.660493827160494,0)" xlink:href="#aU"/><use transform="matrix(0.04320987654320988,0,0,0.04320987654320988,42.30246913580247,0)" xlink:href="#bG"/></g><path fill="#333" d="M145-31C134-9 116 4 85 4 32 4 16-35 15-94c0-59 17-99 70-100 32-1 48 14 60 33 0-11-1-24 2-32h30l-1 268h-32zM93-21c41 0 51-33 51-76s-8-73-50-73c-40 0-46 35-46 75s5 74 45 74" id="bH"/><g id="S"><use transform="matrix(0.04320987654320988,0,0,0.04320987654320988,0,0)" xlink:href="#bF"/><use transform="matrix(0.04320987654320988,0,0,0.04320987654320988,8.641975308641976,0)" xlink:href="#bd"/><use transform="matrix(0.04320987654320988,0,0,0.04320987654320988,17.283950617283953,0)" xlink:href="#aP"/><use transform="matrix(0.04320987654320988,0,0,0.04320987654320988,25.925925925925927,0)" xlink:href="#bH"/><use transform="matrix(0.04320987654320988,0,0,0.04320987654320988,34.567901234567906,0)" xlink:href="#aZ"/><use transform="matrix(0.04320987654320988,0,0,0.04320987654320988,43.20987654320988,0)" xlink:href="#aO"/><use transform="matrix(0.04320987654320988,0,0,0.04320987654320988,46.62345679012346,0)" xlink:href="#aU"/><use transform="matrix(0.04320987654320988,0,0,0.04320987654320988,55.26543209876544,0)" xlink:href="#aW"/><use transform="matrix(0.04320987654320988,0,0,0.04320987654320988,60.40740740740741,0)" xlink:href="#aU"/><use transform="matrix(0.04320987654320988,0,0,0.04320987654320988,69.0493827160494,0)" xlink:href="#bG"/></g><path fill="#333" d="M67-125c0 53 21 87 73 88 37 1 54-22 65-47l45 17C233-25 199 4 140 4 58 4 20-42 15-125 8-235 124-281 211-232c18 10 29 29 36 50l-46 12c-8-25-30-41-62-41-52 0-71 34-72 86" id="bI"/><path fill="#333" d="M25 0v-261h50V0H25" id="bJ"/><g id="T"><use transform="matrix(0.05,0,0,0.05,0,0)" xlink:href="#bI"/><use transform="matrix(0.05,0,0,0.05,12.950000000000001,0)" xlink:href="#bJ"/><use transform="matrix(0.05,0,0,0.05,17.950000000000003,0)" xlink:href="#aM"/><use transform="matrix(0.05,0,0,0.05,27.950000000000003,0)" xlink:href="#aJ"/><use transform="matrix(0.05,0,0,0.05,37.95,0)" xlink:href="#aH"/></g><g id="U"><use transform="matrix(0.05,0,0,0.05,0,0)" xlink:href="#aO"/><use transform="matrix(0.05,0,0,0.05,3.95,0)" xlink:href="#aP"/><use transform="matrix(0.05,0,0,0.05,13.949999999999998,0)" xlink:href="#bh"/><use transform="matrix(0.05,0,0,0.05,26.899999999999995,0)" xlink:href="#bi"/><use transform="matrix(0.05,0,0,0.05,35.9,0)" xlink:href="#aZ"/><use transform="matrix(0.05,0,0,0.05,45.9,0)" xlink:href="#bd"/><use transform="matrix(0.05,0,0,0.05,55.900000000000006,0)" xlink:href="#aW"/><use transform="matrix(0.05,0,0,0.05,61.85,0)" xlink:href="#aO"/><use transform="matrix(0.05,0,0,0.05,65.8,0)" xlink:href="#aX"/><use transform="matrix(0.05,0,0,0.05,75.8,0)" xlink:href="#aQ"/></g><path fill="#333" d="M30 0v-248h187v28H63v79h144v27H63v87h162V0H30" id="bK"/><g id="V"><use transform="matrix(0.05,0,0,0.05,0,0)" xlink:href="#aO"/><use transform="matrix(0.05,0,0,0.05,3.95,0)" xlink:href="#aP"/><use transform="matrix(0.05,0,0,0.05,13.949999999999998,0)" xlink:href="#bK"/><use transform="matrix(0.05,0,0,0.05,25.950000000000003,0)" xlink:href="#aS"/><use transform="matrix(0.05,0,0,0.05,35.95,0)" xlink:href="#aT"/><use transform="matrix(0.05,0,0,0.05,40.95,0)" xlink:href="#aW"/><use transform="matrix(0.05,0,0,0.05,46.900000000000006,0)" xlink:href="#aU"/><use transform="matrix(0.05,0,0,0.05,56.900000000000006,0)" xlink:href="#aS"/><use transform="matrix(0.05,0,0,0.05,66.9,0)" xlink:href="#bd"/><use transform="matrix(0.05,0,0,0.05,76.9,0)" xlink:href="#aP"/><use transform="matrix(0.05,0,0,0.05,86.9,0)" xlink:href="#aX"/><use transform="matrix(0.05,0,0,0.05,96.9,0)" xlink:href="#aW"/><use transform="matrix(0.05,0,0,0.05,102.85000000000001,0)" xlink:href="#aQ"/></g><path fill="#333" d="M233-177c-1 41-23 64-60 70L243 0h-38l-65-103H63V0H30v-248c88 3 205-21 203 71zM63-129c60-2 137 13 137-47 0-61-80-42-137-45v92" id="bL"/><g id="W"><use transform="matrix(0.05,0,0,0.05,0,0)" xlink:href="#aO"/><use transform="matrix(0.05,0,0,0.05,3.95,0)" xlink:href="#aP"/><use transform="matrix(0.05,0,0,0.05,13.949999999999998,0)" xlink:href="#bL"/><use transform="matrix(0.05,0,0,0.05,26.899999999999995,0)" xlink:href="#aZ"/><use transform="matrix(0.05,0,0,0.05,36.9,0)" xlink:href="#aT"/><use transform="matrix(0.05,0,0,0.05,41.9,0)" xlink:href="#aO"/><use transform="matrix(0.05,0,0,0.05,45.85,0)" xlink:href="#aS"/><use transform="matrix(0.05,0,0,0.05,55.85,0)" xlink:href="#bd"/><use transform="matrix(0.05,0,0,0.05,65.85,0)" xlink:href="#aQ"/></g><g id="X"><use transform="matrix(0.05,0,0,0.05,0,0)" xlink:href="#bg"/><use transform="matrix(0.05,0,0,0.05,5,0)" xlink:href="#aU"/><use transform="matrix(0.05,0,0,0.05,15,0)" xlink:href="#aY"/><use transform="matrix(0.05,0,0,0.05,24,0)" xlink:href="#br"/><use transform="matrix(0.05,0,0,0.05,34,0)" xlink:href="#bd"/><use transform="matrix(0.05,0,0,0.05,44,0)" xlink:href="#aQ"/></g><g id="Y"><use transform="matrix(0.05,0,0,0.05,0,0)" xlink:href="#aY"/><use transform="matrix(0.05,0,0,0.05,9,0)" xlink:href="#aZ"/><use transform="matrix(0.05,0,0,0.05,19,0)" xlink:href="#be"/><use transform="matrix(0.05,0,0,0.05,29,0)" xlink:href="#aX"/><use transform="matrix(0.05,0,0,0.05,39,0)" xlink:href="#bi"/><use transform="matrix(0.05,0,0,0.05,48,0)" xlink:href="#aQ"/></g><g id="Z"><use transform="matrix(0.05,0,0,0.05,0,0)" xlink:href="#aR"/><use transform="matrix(0.05,0,0,0.05,5,0)" xlink:href="#aS"/><use transform="matrix(0.05,0,0,0.05,15,0)" xlink:href="#aT"/><use transform="matrix(0.05,0,0,0.05,20,0)" xlink:href="#aU"/><use transform="matrix(0.05,0,0,0.05,30,0)" xlink:href="#aV"/><use transform="matrix(0.05,0,0,0.05,40,0)" xlink:href="#aU"/><use transform="matrix(0.05,0,0,0.05,50,0)" xlink:href="#aW"/></g><path fill="#333" d="M25-224v-37h50v37H25zM75 22c2 45-34 59-81 51V38c22 5 31-5 31-27v-201h50V22" id="bM"/><path fill="#333" d="M190-63c-7 42-38 67-86 67-59 0-84-38-90-98-12-110 154-137 174-36l-49 2c-2-19-15-32-35-32-30 0-35 28-38 64-6 74 65 87 74 30" id="bN"/><g id="aa"><use transform="matrix(0.05,0,0,0.05,0,0)" xlink:href="#bx"/><use transform="matrix(0.05,0,0,0.05,12,0)" xlink:href="#bM"/><use transform="matrix(0.05,0,0,0.05,17,0)" xlink:href="#aH"/><use transform="matrix(0.05,0,0,0.05,27,0)" xlink:href="#aI"/><use transform="matrix(0.05,0,0,0.05,34,0)" xlink:href="#bN"/><use transform="matrix(0.05,0,0,0.05,44,0)" xlink:href="#bq"/><use transform="matrix(0.05,0,0,0.05,49,0)" xlink:href="#bN"/><use transform="matrix(0.05,0,0,0.05,59,0)" xlink:href="#bq"/><use transform="matrix(0.05,0,0,0.05,64,0)" xlink:href="#aK"/></g><g id="ab"><use transform="matrix(0.05,0,0,0.05,0,0)" xlink:href="#aP"/><use transform="matrix(0.05,0,0,0.05,10,0)" xlink:href="#aZ"/><use transform="matrix(0.05,0,0,0.05,20,0)" xlink:href="#aW"/><use transform="matrix(0.05,0,0,0.05,25.950000000000003,0)" xlink:href="#bd"/><use transform="matrix(0.05,0,0,0.05,35.95,0)" xlink:href="#aY"/><use transform="matrix(0.05,0,0,0.05,44.95,0)" xlink:href="#aO"/><use transform="matrix(0.05,0,0,0.05,48.900000000000006,0)" xlink:href="#aX"/><use transform="matrix(0.05,0,0,0.05,58.900000000000006,0)" xlink:href="#aS"/><use transform="matrix(0.05,0,0,0.05,68.9,0)" xlink:href="#aQ"/></g><g id="ac"><use transform="matrix(0.05,0,0,0.05,0,0)" xlink:href="#bi"/><use transform="matrix(0.05,0,0,0.05,9,0)" xlink:href="#aU"/><use transform="matrix(0.05,0,0,0.05,19,0)" xlink:href="#aW"/><use transform="matrix(0.05,0,0,0.05,24.95,0)" xlink:href="#aO"/><use transform="matrix(0.05,0,0,0.05,28.899999999999995,0)" xlink:href="#aU"/><use transform="matrix(0.05,0,0,0.05,38.9,0)" xlink:href="#aQ"/></g><path fill="#333" d="M240-174c0 40-23 61-54 70L253 0h-59l-57-94H76V0H24v-248c93 4 217-23 216 74zM76-134c48-2 112 12 112-38 0-48-66-32-112-35v73" id="bO"/><g id="ad"><use transform="matrix(0.05,0,0,0.05,0,0)" xlink:href="#bO"/><use transform="matrix(0.05,0,0,0.05,12.950000000000001,0)" xlink:href="#bp"/><use transform="matrix(0.05,0,0,0.05,23.900000000000002,0)" xlink:href="#by"/><use transform="matrix(0.05,0,0,0.05,29.85,0)" xlink:href="#bq"/><use transform="matrix(0.05,0,0,0.05,34.85,0)" xlink:href="#aL"/><use transform="matrix(0.05,0,0,0.05,45.800000000000004,0)" xlink:href="#aM"/></g><path fill="#333" d="M24-231v-30h32v30H24zM-9 49c24 4 33-6 33-30v-209h32V24c2 40-23 58-65 49V49" id="bP"/><g id="ae"><use transform="matrix(0.05,0,0,0.05,0,0)" xlink:href="#aO"/><use transform="matrix(0.05,0,0,0.05,3.95,0)" xlink:href="#aP"/><use transform="matrix(0.05,0,0,0.05,13.949999999999998,0)" xlink:href="#bK"/><use transform="matrix(0.05,0,0,0.05,25.950000000000003,0)" xlink:href="#bP"/><use transform="matrix(0.05,0,0,0.05,29.899999999999995,0)" xlink:href="#aU"/><use transform="matrix(0.05,0,0,0.05,39.9,0)" xlink:href="#aW"/><use transform="matrix(0.05,0,0,0.05,45.85,0)" xlink:href="#aY"/><use transform="matrix(0.05,0,0,0.05,54.85,0)" xlink:href="#aO"/><use transform="matrix(0.05,0,0,0.05,58.800000000000004,0)" xlink:href="#aY"/><use transform="matrix(0.05,0,0,0.05,67.80000000000001,0)" xlink:href="#aO"/><use transform="matrix(0.05,0,0,0.05,71.75000000000001,0)" xlink:href="#aX"/><use transform="matrix(0.05,0,0,0.05,81.75000000000001,0)" xlink:href="#aQ"/></g><g id="af"><use transform="matrix(0.05,0,0,0.05,0,0)" xlink:href="#aT"/><use transform="matrix(0.05,0,0,0.05,5,0)" xlink:href="#aO"/><use transform="matrix(0.05,0,0,0.05,8.95,0)" xlink:href="#aU"/><use transform="matrix(0.05,0,0,0.05,18.95,0)" xlink:href="#ba"/><use transform="matrix(0.05,0,0,0.05,33.9,0)" xlink:href="#be"/><use transform="matrix(0.05,0,0,0.05,43.9,0)" xlink:href="#aX"/><use transform="matrix(0.05,0,0,0.05,53.900000000000006,0)" xlink:href="#aQ"/></g><g id="ag"><use transform="matrix(0.05,0,0,0.05,0,0)" xlink:href="#bI"/><use transform="matrix(0.05,0,0,0.05,12.950000000000001,0)" xlink:href="#aK"/><use transform="matrix(0.05,0,0,0.05,23.900000000000002,0)" xlink:href="#aL"/><use transform="matrix(0.05,0,0,0.05,34.85,0)" xlink:href="#by"/><use transform="matrix(0.05,0,0,0.05,40.800000000000004,0)" xlink:href="#aM"/><use transform="matrix(0.05,0,0,0.05,50.800000000000004,0)" xlink:href="#bN"/><use transform="matrix(0.05,0,0,0.05,60.800000000000004,0)" xlink:href="#by"/><use transform="matrix(0.05,0,0,0.05,66.75,0)" xlink:href="#aK"/></g><path d="M27 0v-27h64v-190l-56 39v-29l58-41h29v221h61V0H27" id="bQ"/><use transform="matrix(0.05,0,0,0.05,0,0)" xlink:href="#bQ" id="ah"/><path d="M80-196l47-18 7 23-49 13 32 44-20 13-27-46-27 45-21-12 33-44-49-13 8-23 47 19-2-53h23" id="bR"/><use transform="matrix(0.05,0,0,0.05,0,0)" xlink:href="#bR" id="ai"/><path fill="#333" d="M24 0v-248h52V0H24" id="bS"/><g id="aj"><use transform="matrix(0.05,0,0,0.05,0,0)" xlink:href="#bS"/><use transform="matrix(0.05,0,0,0.05,5,0)" xlink:href="#bD"/><use transform="matrix(0.05,0,0,0.05,19.950000000000003,0)" xlink:href="#bI"/></g><g id="ak"><use transform="matrix(0.05,0,0,0.05,0,0)" xlink:href="#be"/><use transform="matrix(0.05,0,0,0.05,10,0)" xlink:href="#aU"/><use transform="matrix(0.05,0,0,0.05,20,0)" xlink:href="#bi"/><use transform="matrix(0.05,0,0,0.05,29,0)" xlink:href="#aX"/><use transform="matrix(0.05,0,0,0.05,39,0)" xlink:href="#aQ"/></g><path fill="#333" d="M63-220v92h138v28H63V0H30v-248h175v28H63" id="bT"/><g id="al"><use transform="matrix(0.05,0,0,0.05,0,0)" xlink:href="#bT"/><use transform="matrix(0.05,0,0,0.05,10.950000000000001,0)" xlink:href="#bf"/><use transform="matrix(0.05,0,0,0.05,14.9,0)" xlink:href="#aX"/><use transform="matrix(0.05,0,0,0.05,24.900000000000002,0)" xlink:href="#bd"/><use transform="matrix(0.05,0,0,0.05,34.900000000000006,0)" xlink:href="#aT"/></g><g id="am"><use transform="matrix(0.05,0,0,0.05,0,0)" xlink:href="#bd"/><use transform="matrix(0.05,0,0,0.05,10,0)" xlink:href="#bf"/><use transform="matrix(0.05,0,0,0.05,13.949999999999998,0)" xlink:href="#aT"/><use transform="matrix(0.05,0,0,0.05,18.95,0)" xlink:href="#aZ"/><use transform="matrix(0.05,0,0,0.05,28.950000000000003,0)" xlink:href="#aW"/><use transform="matrix(0.05,0,0,0.05,34.9,0)" xlink:href="#bd"/><use transform="matrix(0.05,0,0,0.05,44.9,0)" xlink:href="#aQ"/></g><g id="an"><use transform="matrix(0.05,0,0,0.05,0,0)" xlink:href="#aR"/><use transform="matrix(0.05,0,0,0.05,5,0)" xlink:href="#bw"/><use transform="matrix(0.05,0,0,0.05,19.950000000000003,0)" xlink:href="#bv"/><use transform="matrix(0.05,0,0,0.05,32.900000000000006,0)" xlink:href="#aQ"/></g><g id="ao"><use transform="matrix(0.05,0,0,0.05,0,0)" xlink:href="#bT"/><use transform="matrix(0.05,0,0,0.05,10.950000000000001,0)" xlink:href="#aU"/><use transform="matrix(0.05,0,0,0.05,20.950000000000003,0)" xlink:href="#aY"/><use transform="matrix(0.05,0,0,0.05,29.950000000000003,0)" xlink:href="#br"/><use transform="matrix(0.05,0,0,0.05,39.95,0)" xlink:href="#bd"/><use transform="matrix(0.05,0,0,0.05,49.95,0)" xlink:href="#bv"/><use transform="matrix(0.05,0,0,0.05,62.900000000000006,0)" xlink:href="#bd"/><use transform="matrix(0.05,0,0,0.05,72.9,0)" xlink:href="#bf"/><use transform="matrix(0.05,0,0,0.05,76.85000000000001,0)" xlink:href="#aY"/><use transform="matrix(0.05,0,0,0.05,85.85000000000001,0)" xlink:href="#aZ"/><use transform="matrix(0.05,0,0,0.05,95.85000000000001,0)" xlink:href="#bf"/><use transform="matrix(0.05,0,0,0.05,99.80000000000001,0)" xlink:href="#aX"/><use transform="matrix(0.05,0,0,0.05,109.80000000000001,0)" xlink:href="#aQ"/></g><g id="ap"><use transform="matrix(0.05,0,0,0.05,0,0)" xlink:href="#bt"/><use transform="matrix(0.05,0,0,0.05,12.950000000000001,0)" xlink:href="#bd"/><use transform="matrix(0.05,0,0,0.05,22.950000000000003,0)" xlink:href="#aT"/><use transform="matrix(0.05,0,0,0.05,27.950000000000003,0)" xlink:href="#aU"/></g></defs></g></svg>