<svg xmlns="http://www.w3.org/2000/svg" xmlns:xlink="http://www.w3.org/1999/xlink" xmlns:lucid="lucid" width="1472.5" height="2296.73"><g transform="translate(0 0)" lucid:page-tab-id="0_0"><path d="M0 0h1472.5v2296.73H0z" fill="#fff"/><path d="M1110 381v20.2m0 20.2v40.4m0 20.2v40.4m0 20.2V583m0 20.2v40.4m0 20.2v40.4m0 20.2v40.4m0 20.2v40.4m0 20.2V886m0 20.2v40.4m0 20.2v40.4m0 20.2v40.4m0 20.2v40.4m0 20.2v40.4m0 20.2v40.4m0 20.2v40.4m0 20.2v40.4m0 20.2v40.4m0 20.2v40.4m0 20.2v40.4m0 20.2v40.4m0 20.2v40.4m0 20.2v40.4m0 20.2v40.4m0 20.2v40.4m0 20.2v40.4m0 20.2v40.4m0 20.2v40.4m0 20.2v40.4m0 20.2v40.4m0 20.2v20.2" stroke="#333" stroke-width="2" fill="none"/><path d="M1111 381.03h-2V377h2z" stroke="#333" stroke-width=".05" fill="#333"/><path d="M1110 2198.97v1.03M810 381v20.2m0 20.2v40.4m0 20.2v40.4m0 20.2V583m0 20.2v40.4m0 20.2v40.4m0 20.2v40.4m0 20.2v40.4m0 20.2V886m0 20.2v40.4m0 20.2v40.4m0 20.2v40.4m0 20.2v40.4m0 20.2v40.4m0 20.2v40.4m0 20.2v40.4m0 20.2v40.4m0 20.2v40.4m0 20.2v40.4m0 20.2v40.4m0 20.2v40.4m0 20.2v40.4m0 20.2v40.4m0 20.2v40.4m0 20.2v40.4m0 20.2v40.4m0 20.2v40.4m0 20.2v40.4m0 20.2v40.4m0 20.2v40.4m0 20.2v20.2" stroke="#333" stroke-width="2" fill="none"/><path d="M811 381.03h-2V377h2z" stroke="#333" stroke-width=".05" fill="#333"/><path d="M810 2198.97v1.03M500 381v20.2m0 20.2v40.4m0 20.2v40.4m0 20.2V583m0 20.2v40.4m0 20.2v40.4m0 20.2v40.4m0 20.2v40.4m0 20.2V886m0 20.2v40.4m0 20.2v40.4m0 20.2v40.4m0 20.2v40.4m0 20.2v40.4m0 20.2v40.4m0 20.2v40.4m0 20.2v40.4m0 20.2v40.4m0 20.2v40.4m0 20.2v40.4m0 20.2v40.4m0 20.2v40.4m0 20.2v40.4m0 20.2v40.4m0 20.2v40.4m0 20.2v40.4m0 20.2v40.4m0 20.2v40.4m0 20.2v40.4m0 20.2v40.4m0 20.2v20.2" stroke="#333" stroke-width="2" fill="none"/><path d="M501 381.03h-2V377h2z" stroke="#333" stroke-width=".05" fill="#333"/><path d="M500 2198.97v1.03M200 297.67v19.8m0 19.8v39.62m0 19.8v39.6m0 19.8v39.62m0 19.8v39.62m0 19.8v39.62m0 19.8v39.6m0 19.82v39.6m0 19.82v39.6m0 19.8v39.62m0 19.8v39.62m0 19.8v39.62m0 19.8v39.6m0 19.82v39.6m0 19.82v39.6m0 19.8v39.62m0 19.8v39.62m0 19.8v39.62m0 19.8v39.6m0 19.82v39.6m0 19.8v39.63m0 19.8v39.62m0 19.8v39.62m0 19.8v39.62m0 19.8v39.6m0 19.82v39.6m0 19.8v39.63m0 19.8v39.62m0 19.8v39.62m0 19.8v39.6m0 19.82v39.6m0 19.82v39.6m0 19.8V2199M200 2198.97v1.03" stroke="#333" stroke-width="2" fill="none"/><path d="M520.93 796.67h252.2" stroke="#333" fill="none"/><path d="M520.95 797.17h-.52v-1h.52z" stroke="#333" stroke-width=".05" fill="#333"/><path d="M787.9 796.68l-14.26 4.64v-9.27z" stroke="#333" fill="#333"/><use xlink:href="#a" transform="matrix(1,0,0,1,603.2260353729442,800.6847727612649) translate(0.005000000000002558 14.222222222222223)"/><use xlink:href="#b" transform="matrix(1,0,0,1,603.2260353729442,800.6847727612649) translate(52.20253086419754 14.222222222222223)"/><path d="M309.4 76a8 8 0 0 1 8-8h836.75a8 8 0 0 1 8 8v25.16a8 8 0 0 1-8 8H317.4a8 8 0 0 1-8-8z" stroke="#000" stroke-opacity="0" stroke-width="2" fill="#fff" fill-opacity="0"/><use xlink:href="#c" transform="matrix(1,0,0,1,313.39655278534315,72) translate(214.17481481481485 25.782777777777778)"/><use xlink:href="#d" transform="matrix(1,0,0,1,313.39655278534315,72) translate(340.7698765432099 25.782777777777778)"/><use xlink:href="#e" transform="matrix(1,0,0,1,313.39655278534315,72) translate(378.5735802469136 25.782777777777778)"/><use xlink:href="#f" transform="matrix(1,0,0,1,313.39655278534315,72) translate(512.4525925925925 25.782777777777778)"/><use xlink:href="#g" transform="matrix(1,0,0,1,313.39655278534315,72) translate(528.4044444444444 25.782777777777778)"/><path d="M581.27 107.8h318.26M581.3 107.8h-1.03M899.5 107.8h1.03" stroke="#a9afb8" stroke-width="2" fill="none"/><path d="M309.4 117.16a8 8 0 0 1 8-8h837.7a8 8 0 0 1 8 8V120a8 8 0 0 1-8 8H317.4a8 8 0 0 1-8-8z" stroke="#000" stroke-opacity="0" stroke-width="2" fill="#fff" fill-opacity="0"/><path d="M560 310c0 27.6-22.4 50-50 50s-50-22.4-50-50 22.4-50 50-50 50 22.4 50 50z" stroke="#3a414a" stroke-width="2" fill="#fff"/><path d="M440 260v100m0-50h20" stroke="#3a414a" stroke-width="2" fill="none"/><use xlink:href="#h" transform="matrix(1,0,0,1,420,360) translate(58.074999999999996 14.4)"/><path d="M219.75 219.75c0 10.9-8.84 19.75-19.75 19.75-10.9 0-19.75-8.84-19.75-19.75 0-10.9 8.84-19.75 19.75-19.75 10.9 0 19.75 8.84 19.75 19.75z" stroke="#54c45e" stroke-width="2" fill="#fff"/><path d="M200 239.5v47.3a27.6 27.6 0 0 0 4.28 14.76L240 358m-40-63.2L160 358m0-98.75h80" stroke="#54c45e" stroke-width="2" fill="none"/><path d="M160 208a8 8 0 0 1 8-8h64a8 8 0 0 1 8 8v164a8 8 0 0 1-8 8h-64a8 8 0 0 1-8-8z" fill="none"/><use xlink:href="#i" transform="matrix(1,0,0,1,80,358) translate(86.98765432098764 14.555555555555555)"/><path d="M860 310c0 27.6-22.4 50-50 50s-50-22.4-50-50 22.4-50 50-50 50 22.4 50 50z" stroke="#3a414a" stroke-width="2" fill="#fff"/><path d="M820 254l-10 6 10 7.2" stroke="#3a414a" stroke-width="2" fill="none"/><use xlink:href="#j" transform="matrix(1,0,0,1,720,360) translate(55.525 14.4)"/><path d="M1110 360c-27.6 0-50-22.4-50-50s22.4-50 50-50 50 22.4 50 50-22.4 50-50 50z" stroke="#3a414a" stroke-width="2" fill="#fff"/><path d="M1060 360h100" stroke="#3a414a" stroke-width="2" fill="none"/><use xlink:href="#k" transform="matrix(1,0,0,1,1020,360) translate(29.125 14.4)"/><use xlink:href="#l" transform="matrix(1,0,0,1,1020,360) translate(77.075 14.4)"/><use xlink:href="#m" transform="matrix(1,0,0,1,1020,360) translate(103.025 14.4)"/><path d="M180 724.5a8 8 0 0 1 8-8h24a8 8 0 0 1 8 8v204a8 8 0 0 1-8 8h-24a8 8 0 0 1-8-8z" stroke="#3a414a" fill="#fff"/><path d="M220.9 735.3H350a.06.06 0 0 0 .06-.07.06.06 0 0 1 .06-.06h113.22" stroke="#333" fill="none"/><path d="M220.92 735.8h-.5v-1h.5z" stroke="#333" stroke-width=".05" fill="#333"/><path d="M478.1 735.17l-14.26 4.64v-9.26z" stroke="#333" fill="#333"/><use xlink:href="#n" transform="matrix(1,0,0,1,285.96819201360785,739.2878823894496) translate(0.0049999999999954525 14.222222222222223)"/><use xlink:href="#o" transform="matrix(1,0,0,1,285.96819201360785,739.2878823894496) translate(70.0296913580247 14.222222222222223)"/><path d="M220.93 774.73H349.8a.18.18 0 0 0 .17-.18.18.18 0 0 1 .18-.18h113" stroke="#333" fill="none"/><path d="M220.94 775.23h-.5v-1h.5z" stroke="#333" stroke-width=".05" fill="#333"/><path d="M477.9 774.37L463.64 779v-9.26z" stroke="#333" fill="#333"/><use xlink:href="#n" transform="matrix(1,0,0,1,271.04056421547335,778.7275484808712) translate(0.0049999999999954525 14.222222222222223)"/><use xlink:href="#p" transform="matrix(1,0,0,1,271.04056421547335,778.7275484808712) translate(70.0296913580247 14.222222222222223)"/><path d="M480 737a8 8 0 0 1 8-8h24a8 8 0 0 1 8 8v191.5a8 8 0 0 1-8 8h-24a8 8 0 0 1-8-8z" stroke="#3a414a" fill="#fff"/><path d="M830.98 817.84H1076.06" stroke="#333" fill="none"/><path d="M831 818.34h-.52v-1h.5z" stroke="#333" stroke-width=".05" fill="#333"/><path d="M1090.84 817.84l-14.27 4.63v-9.27z" stroke="#333" fill="#333"/><use xlink:href="#q" transform="matrix(1,0,0,1,858.8504315995666,821.842456385532) translate(0.0049999999999954525 14.222222222222223)"/><use xlink:href="#r" transform="matrix(1,0,0,1,858.8504315995666,821.842456385532) translate(80.84450617283952 14.222222222222223)"/><use xlink:href="#s" transform="matrix(1,0,0,1,858.8504315995666,821.842456385532) translate(129.23956790123458 14.222222222222223)"/><use xlink:href="#t" transform="matrix(1,0,0,1,858.8504315995666,821.842456385532) translate(153.93092592592595 14.222222222222223)"/><path d="M790 784.5a8 8 0 0 1 8-8h24a8 8 0 0 1 8 8v44a8 8 0 0 1-8 8h-24a8 8 0 0 1-8-8zM1092.94 804.5a8 8 0 0 1 8-8h24a8 8 0 0 1 8 8v84a8 8 0 0 1-8 8h-24a8 8 0 0 1-8-8z" stroke="#3a414a" fill="#fff"/><path d="M1092.02 875.1h-10.87m-10.87 0h-21.75m-10.88 0h-21.75m-10.87 0h-21.75m-10.87 0h-10.87v.02h-.02v.06h-9.58m-9.55 0h-19.1m-9.55 0h-19.1m-9.56 0h-19.1m-9.55 0h-9.54" stroke="#333" fill="none"/><path d="M1092.53 875.6h-.52v-1h.52z" stroke="#333" stroke-width=".05" fill="#333"/><path d="M832.1 875.18l14.26-4.63v9.27z" stroke="#333" fill="#333"/><use xlink:href="#u" transform="matrix(1,0,0,1,867.125,879.1148676907022) translate(0.0049999999999954525 14.4)"/><use xlink:href="#v" transform="matrix(1,0,0,1,867.125,879.1148676907022) translate(90.955 14.4)"/><use xlink:href="#w" transform="matrix(1,0,0,1,867.125,879.1148676907022) translate(115.955 14.4)"/><path d="M1133.86 817.3h27.57a12 12 0 0 1 12 12v34.45a12 12 0 0 1-12 12h-11.62" stroke="#3a414a" fill="none"/><path d="M1133.87 817.8h-.5v-1h.5z" stroke="#3a414a" stroke-width=".05" fill="#3a414a"/><path d="M1135.05 875.75l14.26-4.64v9.28z" stroke="#3a414a" fill="#3a414a"/><use xlink:href="#x" transform="matrix(1,0,0,1,1181.4282786662188,835.6848583253086) translate(0.005000000000002558 14.4)"/><path d="M789.1 896.5H777.9m-11.17 0H744.4m-11.16 0H710.9m-11.17 0H677.4m-11.17 0h-11.19v.04h-9.87m-9.84 0h-19.7m-9.84 0h-19.7m-9.85 0h-19.7m-9.84 0h-9.83M789.08 896.5h.5" stroke="#333" fill="none"/><path d="M522.1 896.54l14.27-4.64v9.28z" stroke="#333" fill="#333"/><use xlink:href="#y" transform="matrix(1,0,0,1,599.7654764169113,900.4961036727146) translate(0.0049999999999954525 14.4)"/><use xlink:href="#z" transform="matrix(1,0,0,1,599.7654764169113,900.4961036727146) translate(55.905 14.4)"/><path d="M479.1 917.76h-10.76m-10.74 0h-21.5m-10.75 0h-21.5m-10.75 0h-21.5m-10.74 0H350.1l-.02.02v.02l-.02.02v.04l-.02.02H340.55m-9.42 0h-18.86m-9.42 0l-18.85.02m-9.42 0h-18.85m-9.43 0h-9.42" stroke="#333" fill="none"/><path d="M479.6 918.26h-.52v-1h.5z" stroke="#333" stroke-width=".05" fill="#333"/><path d="M222.1 917.9l14.28-4.64v9.27z" stroke="#333" fill="#333"/><use xlink:href="#A" transform="matrix(1,0,0,1,256.29698428513524,921.7612876749394) translate(0.0049999999999954525 14.4)"/><use xlink:href="#B" transform="matrix(1,0,0,1,256.29698428513524,921.7612876749394) translate(65.855 14.4)"/><use xlink:href="#C" transform="matrix(1,0,0,1,256.29698428513524,921.7612876749394) translate(130.805 14.4)"/><use xlink:href="#D" transform="matrix(1,0,0,1,256.29698428513524,921.7612876749394) translate(155.805 14.4)"/><path d="M790 864.5a8 8 0 0 1 8-8h24a8 8 0 0 1 8 8v44a8 8 0 0 1-8 8h-24a8 8 0 0 1-8-8z" stroke="#3a414a" fill="#fff"/><path d="M1110 361.5v39.45" stroke="#3a414a" fill="none"/><path d="M1109.98 361h.52v.5h-1v-.5z" stroke="#3a414a" stroke-width=".05" fill="#3a414a"/><path d="M1110 415.72l-4.64-14.27h9.28z" stroke="#3a414a" fill="#3a414a"/><path d="M180 508a8 8 0 0 1 8-8h24a8 8 0 0 1 8 8v141.5a8 8 0 0 1-8 8h-24a8 8 0 0 1-8-8zM480 529.5a8 8 0 0 1 8-8h24a8 8 0 0 1 8 8V652a8 8 0 0 1-8 8h-24a8 8 0 0 1-8-8zM790 539.1a8 8 0 0 1 8-8h24a8 8 0 0 1 8 8v44a8 8 0 0 1-8 8h-24a8 8 0 0 1-8-8zM1090 548a8 8 0 0 1 8-8h24a8 8 0 0 1 8 8v93.6a8 8 0 0 1-8 8h-24a8 8 0 0 1-8-8z" stroke="#3a414a" fill="#fff"/><path d="M220.92 537.9h129.04v-.02h113.16" stroke="#333" fill="none"/><path d="M220.94 538.4h-.52v-1h.52z" stroke="#333" stroke-width=".05" fill="#333"/><path d="M477.9 537.88l-14.28 4.63v-9.26z" stroke="#333" fill="#333"/><use xlink:href="#E" transform="matrix(1,0,0,1,282.45879171457995,541.8859562948965) translate(0.0049999999999954525 14.222222222222223)"/><use xlink:href="#o" transform="matrix(1,0,0,1,282.45879171457995,541.8859562948965) translate(76.84450617283952 14.222222222222223)"/><path d="M520.92 549.62h252.22" stroke="#333" fill="none"/><path d="M520.93 550.12h-.5v-1h.5z" stroke="#333" stroke-width=".05" fill="#333"/><path d="M787.9 549.6l-14.26 4.64v-9.27z" stroke="#333" fill="#333"/><use xlink:href="#F" transform="matrix(1,0,0,1,605.6377565644608,553.621938952699) translate(0.005000000000002558 14.222222222222223)"/><use xlink:href="#G" transform="matrix(1,0,0,1,605.6377565644608,553.621938952699) translate(55.21487654320989 14.222222222222223)"/><path d="M830.95 560h129.02l.02.02h113.13" stroke="#333" fill="none"/><path d="M830.96 560.5h-.5v-1h.5z" stroke="#333" stroke-width=".05" fill="#333"/><path d="M1087.9 560.02l-14.27 4.63v-9.27z" stroke="#333" fill="#333"/><use xlink:href="#H" transform="matrix(1,0,0,1,903.2399518171763,564.0164665562745) translate(0.005000000000002558 14.222222222222223)"/><use xlink:href="#G" transform="matrix(1,0,0,1,903.2399518171763,564.0164665562745) translate(70.0296913580247 14.222222222222223)"/><path d="M790 616.1a8 8 0 0 1 8-8h24a8 8 0 0 1 8 8v44a8 8 0 0 1-8 8h-24a8 8 0 0 1-8-8z" stroke="#3a414a" fill="#fff"/><path d="M1089.07 620.06h-10.75m-10.76 0h-21.5m-10.77 0h-21.52m-10.76 0h-21.5m-10.77 0H950.56m-9.43 0h-18.87m-9.43 0h-18.87m-9.43 0h-18.87m-9.43 0h-9.43" stroke="#333" fill="none"/><path d="M1089.58 620.56h-.52v-1h.5z" stroke="#333" stroke-width=".05" fill="#333"/><path d="M832.03 620.07l14.27-4.64v9.27z" stroke="#333" fill="#333"/><use xlink:href="#u" transform="matrix(1,0,0,1,865.4605010965068,624.064803475392) translate(0.0049999999999954525 14.4)"/><use xlink:href="#v" transform="matrix(1,0,0,1,865.4605010965068,624.064803475392) translate(90.955 14.4)"/><use xlink:href="#w" transform="matrix(1,0,0,1,865.4605010965068,624.064803475392) translate(115.955 14.4)"/><path d="M789.05 640.04h-10.5m-10.5 0H747m-10.5 0H715.5m-10.5 0h-21.02m-10.5 0h-21.02m-10.5 0h-21.03m-10.5 0H589.4m-10.5 0h-21m-10.52 0h-10.5" stroke="#333" fill="none"/><path d="M789.55 640.54h-.5v-1h.5z" stroke="#333" stroke-width=".05" fill="#333"/><path d="M522.1 640.04l14.27-4.63v9.28z" stroke="#333" fill="#333"/><use xlink:href="#I" transform="matrix(1,0,0,1,569.2994170601719,644.0440725374316) translate(0.0049999999999954525 14.4)"/><use xlink:href="#v" transform="matrix(1,0,0,1,569.2994170601719,644.0440725374316) translate(72.905 14.4)"/><use xlink:href="#w" transform="matrix(1,0,0,1,569.2994170601719,644.0440725374316) translate(97.905 14.4)"/><path d="M479.1 640H469m-10.1 0h-20.18m-10.1 0h-20.18m-10.1 0h-20.17m-10.1 0H347.9m-10.1 0h-20.2m-10.08 0h-20.18m-10.1 0h-20.18m-10.1 0H236.9" stroke="#333" fill="none"/><path d="M479.6 640.5h-.52v-1h.5z" stroke="#333" stroke-width=".05" fill="#333"/><path d="M222.1 640l14.28-4.64v9.28z" stroke="#333" fill="#333"/><use xlink:href="#I" transform="matrix(1,0,0,1,263.79547660040316,644.0000000000001) translate(0.0049999999999954525 14.4)"/><use xlink:href="#v" transform="matrix(1,0,0,1,263.79547660040316,644.0000000000001) translate(72.905 14.4)"/><use xlink:href="#w" transform="matrix(1,0,0,1,263.79547660040316,644.0000000000001) translate(97.905 14.4)"/><path d="M180 1024.5a8 8 0 0 1 8-8h24a8 8 0 0 1 8 8V1166a8 8 0 0 1-8 8h-24a8 8 0 0 1-8-8zM480 1046a8 8 0 0 1 8-8h24a8 8 0 0 1 8 8v122.5a8 8 0 0 1-8 8h-24a8 8 0 0 1-8-8zM790 1055.6a8 8 0 0 1 8-8h24a8 8 0 0 1 8 8v44a8 8 0 0 1-8 8h-24a8 8 0 0 1-8-8zM1090 1064.5a8 8 0 0 1 8-8h24a8 8 0 0 1 8 8v93.6a8 8 0 0 1-8 8h-24a8 8 0 0 1-8-8z" stroke="#3a414a" fill="#fff"/><path d="M220.92 1054.38h242.2" stroke="#333" fill="none"/><path d="M220.94 1054.88h-.52v-1h.52z" stroke="#333" stroke-width=".05" fill="#333"/><path d="M477.9 1054.37L463.6 1059v-9.26z" stroke="#333" fill="#333"/><use xlink:href="#E" transform="matrix(1,0,0,1,277.964955361036,1058.3820614119968) translate(0.0049999999999954525 14.222222222222223)"/><use xlink:href="#J" transform="matrix(1,0,0,1,277.964955361036,1058.3820614119968) translate(76.84450617283952 14.222222222222223)"/><path d="M520.92 1066.12h134.04l.02-.02h118.16" stroke="#333" fill="none"/><path d="M520.93 1066.62h-.5v-1h.5z" stroke="#333" stroke-width=".05" fill="#333"/><path d="M787.9 1066.1l-14.26 4.64v-9.27z" stroke="#333" fill="#333"/><use xlink:href="#F" transform="matrix(1,0,0,1,605.6377565644608,1070.1180426254134) translate(0.005000000000002558 14.222222222222223)"/><use xlink:href="#G" transform="matrix(1,0,0,1,605.6377565644608,1070.1180426254134) translate(55.21487654320989 14.222222222222223)"/><path d="M830.95 1076.5H1073.12" stroke="#333" fill="none"/><path d="M830.96 1077h-.5v-1h.5z" stroke="#333" stroke-width=".05" fill="#333"/><path d="M1087.9 1076.5l-14.27 4.65v-9.27z" stroke="#333" fill="#333"/><use xlink:href="#H" transform="matrix(1,0,0,1,903.2399518171763,1080.5125702289893) translate(0.005000000000002558 14.222222222222223)"/><use xlink:href="#G" transform="matrix(1,0,0,1,903.2399518171763,1080.5125702289893) translate(70.0296913580247 14.222222222222223)"/><path d="M790 1132.6a8 8 0 0 1 8-8h24a8 8 0 0 1 8 8v44a8 8 0 0 1-8 8h-24a8 8 0 0 1-8-8z" stroke="#3a414a" fill="#fff"/><path d="M1089.07 1136.56h-10.75m-10.76 0h-21.5m-10.77 0h-21.52m-10.76 0h-21.5m-10.77 0H950.56m-9.43 0h-18.87m-9.43 0h-18.87m-9.43 0h-18.87m-9.43 0h-9.43" stroke="#333" fill="none"/><path d="M1089.58 1137.06h-.52v-1h.5z" stroke="#333" stroke-width=".05" fill="#333"/><path d="M832.03 1136.56l14.27-4.63v9.27z" stroke="#333" fill="#333"/><use xlink:href="#u" transform="matrix(1,0,0,1,865.4605010965068,1140.5609071481063) translate(0.0049999999999954525 14.4)"/><use xlink:href="#v" transform="matrix(1,0,0,1,865.4605010965068,1140.5609071481063) translate(90.955 14.4)"/><use xlink:href="#w" transform="matrix(1,0,0,1,865.4605010965068,1140.5609071481063) translate(115.955 14.4)"/><path d="M789.05 1156.54h-11.17m-11.17 0H744.4m-11.17 0h-22.33m-11.17 0h-22.34m-11.17 0h-21.02m-9.85 0h-19.7m-9.84 0h-19.7m-9.84 0h-19.7m-9.84 0h-9.84" stroke="#333" fill="none"/><path d="M789.55 1157.04h-.5v-1h.5z" stroke="#333" stroke-width=".05" fill="#333"/><path d="M522.1 1156.54l14.28-4.64v9.28z" stroke="#333" fill="#333"/><use xlink:href="#I" transform="matrix(1,0,0,1,569.2994170601719,1160.5401762101462) translate(0.0049999999999954525 14.4)"/><use xlink:href="#v" transform="matrix(1,0,0,1,569.2994170601719,1160.5401762101462) translate(72.905 14.4)"/><use xlink:href="#w" transform="matrix(1,0,0,1,569.2994170601719,1160.5401762101462) translate(97.905 14.4)"/><path d="M479.1 1156.5H469m-10.1 0h-20.18m-10.1 0h-20.18m-10.1 0h-20.17m-10.1 0H347.9m-10.1 0h-20.2m-10.08 0h-20.18m-10.1 0h-20.18m-10.1 0H236.9" stroke="#333" fill="none"/><path d="M479.6 1157h-.52v-1h.5z" stroke="#333" stroke-width=".05" fill="#333"/><path d="M222.1 1156.5l14.28-4.64v9.27z" stroke="#333" fill="#333"/><use xlink:href="#I" transform="matrix(1,0,0,1,263.79547660040316,1160.4961036727148) translate(0.0049999999999954525 14.4)"/><use xlink:href="#v" transform="matrix(1,0,0,1,263.79547660040316,1160.4961036727148) translate(72.905 14.4)"/><use xlink:href="#w" transform="matrix(1,0,0,1,263.79547660040316,1160.4961036727148) translate(97.905 14.4)"/><path d="M182.94 1244.5a8 8 0 0 1 8-8h24a8 8 0 0 1 8 8V1532a8 8 0 0 1-8 8h-24a8 8 0 0 1-8-8zM482.94 1266a8 8 0 0 1 8-8h24a8 8 0 0 1 8 8v246a8 8 0 0 1-8 8h-24a8 8 0 0 1-8-8zM792.94 1275.6a8 8 0 0 1 8-8h24a8 8 0 0 1 8 8V1392a8 8 0 0 1-8 8h-24a8 8 0 0 1-8-8zM1092.94 1348a8 8 0 0 1 8-8h24a8 8 0 0 1 8 8v164a8 8 0 0 1-8 8h-24a8 8 0 0 1-8-8z" stroke="#3a414a" fill="#fff"/><path d="M223.86 1274.43h129a.04.04 0 0 0 .04-.04.04.04 0 0 1 .04-.04h113.12" stroke="#333" fill="none"/><path d="M223.87 1274.93h-.5l-.02-1h.52z" stroke="#333" stroke-width=".05" fill="#333"/><path d="M480.83 1274.36l-14.27 4.63v-9.28z" stroke="#333" fill="#333"/><use xlink:href="#E" transform="matrix(1,0,0,1,295.2233354950804,1278.4291604899272) translate(0.005000000000002558 14.222222222222223)"/><use xlink:href="#K" transform="matrix(1,0,0,1,295.2233354950804,1278.4291604899272) translate(76.84450617283952 14.222222222222223)"/><path d="M523.85 1286.15h134.02a.04.04 0 0 0 .03-.03.04.04 0 0 1 .04-.04h118.13" stroke="#333" fill="none"/><path d="M523.87 1286.65h-.52v-1h.52z" stroke="#333" stroke-width=".05" fill="#333"/><path d="M790.83 1286.08l-14.26 4.64v-9.28z" stroke="#333" fill="#333"/><use xlink:href="#F" transform="matrix(1,0,0,1,608.5709627672677,1290.152202048707) translate(0.005000000000002558 14.222222222222223)"/><use xlink:href="#G" transform="matrix(1,0,0,1,608.5709627672677,1290.152202048707) translate(55.21487654320989 14.222222222222223)"/><path d="M833.93 1371.17H962.9a.05.05 0 0 0 .04-.04.05.05 0 0 1 .05-.05h113.07" stroke="#333" fill="none"/><path d="M833.94 1371.67h-.5v-1h.5z" stroke="#333" stroke-width=".05" fill="#333"/><path d="M1090.84 1371.08l-14.27 4.64v-9.28z" stroke="#333" fill="#333"/><use xlink:href="#H" transform="matrix(1,0,0,1,906.2026377649566,1375.174423297212) translate(0.005000000000002558 14.222222222222223)"/><use xlink:href="#G" transform="matrix(1,0,0,1,906.2026377649566,1375.174423297212) translate(70.0296913580247 14.222222222222223)"/><path d="M792.94 1431a8 8 0 0 1 8-8h24a8 8 0 0 1 8 8v44a8 8 0 0 1-8 8h-24a8 8 0 0 1-8-8z" stroke="#3a414a" fill="#fff"/><path d="M1092 1442.2h-10.76m-10.75 0h-21.52m-10.76 0h-21.5m-10.76 0h-21.5m-10.77 0h-20.2m-9.43 0H925.2m-9.42 0H896.9m-9.42 0h-18.86m-9.43 0h-9.44" stroke="#333" fill="none"/><path d="M1092.5 1442.7h-.5v-1h.5z" stroke="#333" stroke-width=".05" fill="#333"/><path d="M835 1442.2l14.26-4.63v9.27z" stroke="#333" fill="#333"/><use xlink:href="#u" transform="matrix(1,0,0,1,854.0603074998737,1446.2127469343006) translate(0.0049999999999954525 14.4)"/><use xlink:href="#v" transform="matrix(1,0,0,1,854.0603074998737,1446.2127469343006) translate(90.955 14.4)"/><use xlink:href="#w" transform="matrix(1,0,0,1,854.0603074998737,1446.2127469343006) translate(115.955 14.4)"/><path d="M792 1462.65h-10.5m-10.5 0h-21.02m-10.5 0h-21.03m-10.5 0h-21.02m-10.5 0H655.4m-10.5 0h-21.02m-10.5 0h-21.03m-10.5 0H560.8m-10.5 0h-10.5" stroke="#333" fill="none"/><path d="M792.5 1463.15h-.5v-1h.5z" stroke="#333" stroke-width=".05" fill="#333"/><path d="M525.04 1462.65l14.27-4.64v9.28z" stroke="#333" fill="#333"/><use xlink:href="#I" transform="matrix(1,0,0,1,558.1176520507746,1466.6481237971477) translate(0.0049999999999954525 14.4)"/><use xlink:href="#v" transform="matrix(1,0,0,1,558.1176520507746,1466.6481237971477) translate(72.905 14.4)"/><use xlink:href="#w" transform="matrix(1,0,0,1,558.1176520507746,1466.6481237971477) translate(97.905 14.4)"/><path d="M482.03 1476h-10.1m-10.1 0h-20.17m-10.1 0h-20.18m-10.1 0H381.1m-10.1 0h-20.18m-10.1 0h-20.17m-10.1 0h-20.18m-10.1 0H260m-10.1 0h-10.1" stroke="#333" fill="none"/><path d="M482.53 1476.5H482v-1h.53z" stroke="#333" stroke-width=".05" fill="#333"/><path d="M225.04 1476l14.27-4.64v9.27z" stroke="#333" fill="#333"/><use xlink:href="#I" transform="matrix(1,0,0,1,266.7305012647183,1479.9979207454821) translate(0.0049999999999954525 14.4)"/><use xlink:href="#v" transform="matrix(1,0,0,1,266.7305012647183,1479.9979207454821) translate(72.905 14.4)"/><use xlink:href="#w" transform="matrix(1,0,0,1,266.7305012647183,1479.9979207454821) translate(97.905 14.4)"/><path d="M223.87 1316.55h129a.05.05 0 0 0 .05-.05.05.05 0 0 1 .05-.06h113.1" stroke="#333" fill="none"/><path d="M223.88 1317.05h-.5v-1h.5z" stroke="#333" stroke-width=".05" fill="#333"/><path d="M480.85 1316.44l-14.27 4.64v-9.27z" stroke="#333" fill="#333"/><use xlink:href="#E" transform="matrix(1,0,0,1,292.32612160860356,1320.5543101022326) translate(0.005000000000002558 14.222222222222223)"/><use xlink:href="#L" transform="matrix(1,0,0,1,292.32612160860356,1320.5543101022326) translate(76.84450617283952 14.222222222222223)"/><path d="M791.98 1318.4H732a12 12 0 0 0-12 12v26.42a12 12 0 0 0 12 12h44.14" stroke="#3a414a" fill="none"/><path d="M792.48 1318.9h-.5v-1h.5z" stroke="#3a414a" stroke-width=".05" fill="#3a414a"/><path d="M790.9 1368.82l-14.26 4.64v-9.27z" stroke="#3a414a" fill="#3a414a"/><use xlink:href="#M" transform="matrix(1,0,0,1,608.3,1332.8291162039789) translate(0.005000000000002558 14.4)"/><use xlink:href="#N" transform="matrix(1,0,0,1,608.3,1332.8291162039789) translate(70.805 14.4)"/><path d="M180 1628a8 8 0 0 1 8-8h24a8 8 0 0 1 8 8v424a8 8 0 0 1-8 8h-24a8 8 0 0 1-8-8zM480 1649.5a8 8 0 0 1 8-8h24a8 8 0 0 1 8 8V1772a8 8 0 0 1-8 8h-24a8 8 0 0 1-8-8zM790 1659.1a8 8 0 0 1 8-8h24a8 8 0 0 1 8 8v44a8 8 0 0 1-8 8h-24a8 8 0 0 1-8-8zM1090 1668a8 8 0 0 1 8-8h24a8 8 0 0 1 8 8v93.6a8 8 0 0 1-8 8h-24a8 8 0 0 1-8-8z" stroke="#3a414a" fill="#fff"/><path d="M220.9 1658.03H349.9a.07.07 0 0 0 .08-.08.07.07 0 0 1 .07-.07h113.1" stroke="#333" fill="none"/><path d="M220.92 1658.53h-.5v-1h.5z" stroke="#333" stroke-width=".05" fill="#333"/><path d="M477.9 1657.88l-14.28 4.63v-9.26z" stroke="#333" fill="#333"/><use xlink:href="#O" transform="matrix(1,0,0,1,299.1466989599188,1662.0272229266172) translate(0.005000000000002558 14.222222222222223)"/><use xlink:href="#P" transform="matrix(1,0,0,1,299.1466989599188,1662.0272229266172) translate(60.20253086419754 14.222222222222223)"/><path d="M520.92 1669.62h252.22" stroke="#333" fill="none"/><path d="M520.93 1670.12h-.5v-1h.5z" stroke="#333" stroke-width=".05" fill="#333"/><path d="M787.9 1669.6l-14.26 4.64v-9.27z" stroke="#333" fill="#333"/><g><use xlink:href="#Q" transform="matrix(1,0,0,1,565.2672102095642,1673.6219686896284) translate(0.0049999999999954525 14.222222222222223)"/><use xlink:href="#R" transform="matrix(1,0,0,1,565.2672102095642,1673.6219686896284) translate(67.95561728395063 14.222222222222223)"/><use xlink:href="#s" transform="matrix(1,0,0,1,565.2672102095642,1673.6219686896284) translate(104.40006172839509 14.222222222222223)"/><use xlink:href="#S" transform="matrix(1,0,0,1,565.2672102095642,1673.6219686896284) translate(129.09141975308646 14.222222222222223)"/></g><path d="M830.95 1680h129.02l.02.02h113.13" stroke="#333" fill="none"/><path d="M830.96 1680.5h-.5v-1h.5z" stroke="#333" stroke-width=".05" fill="#333"/><path d="M1087.9 1680.02l-14.27 4.63v-9.27z" stroke="#333" fill="#333"/><g><use xlink:href="#T" transform="matrix(1,0,0,1,905.0917924987307,1684.016464414476) translate(0.005000000000002558 14.222222222222223)"/><use xlink:href="#U" transform="matrix(1,0,0,1,905.0917924987307,1684.016464414476) translate(59.4617901234568 14.222222222222223)"/></g><path d="M790 1736.1a8 8 0 0 1 8-8h24a8 8 0 0 1 8 8v44a8 8 0 0 1-8 8h-24a8 8 0 0 1-8-8z" stroke="#3a414a" fill="#fff"/><path d="M1089.07 1740.06h-10.75m-10.76 0h-21.5m-10.77 0h-21.52m-10.76 0h-21.5m-10.77 0H950.56m-9.43 0h-18.87m-9.43 0h-18.87m-9.43 0h-18.87m-9.43 0h-9.43" stroke="#333" fill="none"/><path d="M1089.58 1740.56h-.52v-1h.5z" stroke="#333" stroke-width=".05" fill="#333"/><path d="M832.03 1740.07l14.27-4.64v9.27z" stroke="#333" fill="#333"/><g><use xlink:href="#u" transform="matrix(1,0,0,1,881.0438942942267,1744.0680956114506) translate(0.0049999999999954525 14.4)"/><use xlink:href="#V" transform="matrix(1,0,0,1,881.0438942942267,1744.0680956114506) translate(90.955 14.4)"/></g><path d="M789.05 1760.04h-11.17m-11.17 0H744.4m-11.17 0h-22.33m-11.17 0h-22.34m-11.17 0h-21.02m-9.85 0h-19.7m-9.84 0h-19.7m-9.84 0h-19.7m-9.84 0h-9.84" stroke="#333" fill="none"/><path d="M789.55 1760.54h-.5v-1h.5z" stroke="#333" stroke-width=".05" fill="#333"/><path d="M522.1 1760.04l14.28-4.63v9.28z" stroke="#333" fill="#333"/><g><use xlink:href="#y" transform="matrix(1,0,0,1,585.6213119277974,1764.0440725374317) translate(0.0049999999999954525 14.4)"/><use xlink:href="#z" transform="matrix(1,0,0,1,585.6213119277974,1764.0440725374317) translate(55.905 14.4)"/></g><path d="M479.1 1760h-10.76m-10.74 0h-21.5m-10.73 0h-21.5m-10.73 0h-21.5m-10.74 0H350.1v.02h-.03l-.02.02v.02l-.02.02v.02l-.02.03V1760.22l-.02.02v.02h-.03l-.02.02h-.02l-.02.02h-9.42m-9.42 0H312.2m-9.43 0h-18.84m-9.42 0h-18.84m-9.42 0h-9.42" stroke="#333" fill="none"/><path d="M479.6 1760.5h-.52v-1h.5z" stroke="#333" stroke-width=".05" fill="#333"/><path d="M222.05 1760.3l14.27-4.63v9.27z" stroke="#333" fill="#333"/><g><use xlink:href="#W" transform="matrix(1,0,0,1,280.566121023614,1764.3000829807995) translate(0.0049999999999954525 14.4)"/><use xlink:href="#v" transform="matrix(1,0,0,1,280.566121023614,1764.3000829807995) translate(62.955 14.4)"/><use xlink:href="#X" transform="matrix(1,0,0,1,280.566121023614,1764.3000829807995) translate(87.955 14.4)"/></g><path d="M480 1848a8 8 0 0 1 8-8h24a8 8 0 0 1 8 8v84a8 8 0 0 1-8 8h-24a8 8 0 0 1-8-8z" stroke="#3a414a" fill="#fff"/><path d="M220.96 1860H463.13" stroke="#333" fill="none"/><path d="M220.97 1860.5h-.5v-1h.5z" stroke="#333" stroke-width=".05" fill="#333"/><path d="M477.9 1860l-14.27 4.64v-9.27z" stroke="#333" fill="#333"/><g><use xlink:href="#Y" transform="matrix(1,0,0,1,294.2315404666981,1864.0071478586726) translate(0.005000000000002558 14.222222222222223)"/><use xlink:href="#P" transform="matrix(1,0,0,1,294.2315404666981,1864.0071478586726) translate(70.07907407407407 14.222222222222223)"/></g><path d="M790 1868a8 8 0 0 1 8-8h24a8 8 0 0 1 8 8v44a8 8 0 0 1-8 8h-24a8 8 0 0 1-8-8zM1080 1888a8 8 0 0 1 8-8h24a8 8 0 0 1 8 8v93.6a8 8 0 0 1-8 8h-24a8 8 0 0 1-8-8z" stroke="#3a414a" fill="#fff"/><path d="M520.94 1879.98h252.2" stroke="#333" fill="none"/><path d="M520.95 1880.48h-.5v-1h.5z" stroke="#333" stroke-width=".05" fill="#333"/><path d="M787.9 1879.98l-14.26 4.64v-9.27z" stroke="#333" fill="#333"/><g><use xlink:href="#F" transform="matrix(1,0,0,1,597.8222917801927,1883.9836414876745) translate(0.005000000000002558 14.222222222222223)"/><use xlink:href="#Z" transform="matrix(1,0,0,1,597.8222917801927,1883.9836414876745) translate(55.21487654320989 14.222222222222223)"/></g><path d="M830.97 1900.02h232.16" stroke="#333" fill="none"/><path d="M831 1900.52h-.53v-1h.52z" stroke="#333" stroke-width=".05" fill="#333"/><path d="M1077.9 1900.02l-14.27 4.63v-9.27z" stroke="#333" fill="#333"/><g><use xlink:href="#H" transform="matrix(1,0,0,1,890.4252904398486,1904.016502646793) translate(0.0049999999999954525 14.222222222222223)"/><use xlink:href="#Z" transform="matrix(1,0,0,1,890.4252904398486,1904.016502646793) translate(70.0296913580247 14.222222222222223)"/></g><path d="M790 1968a8 8 0 0 1 8-8h24a8 8 0 0 1 8 8v44a8 8 0 0 1-8 8h-24a8 8 0 0 1-8-8z" stroke="#3a414a" fill="#fff"/><path d="M1079.1 1978.5h-9.68m-9.68 0h-19.36m-9.68 0h-19.36m-9.67 0H982.3m-9.67 0h-19.36m-9.67 0h-19.36m-9.68 0H895.2m-9.68 0h-19.35m-9.68 0h-9.7" stroke="#333" fill="none"/><path d="M1079.6 1979h-.52v-1h.5z" stroke="#333" stroke-width=".05" fill="#333"/><path d="M832.05 1978.5l14.26-4.63v9.27z" stroke="#333" fill="#333"/><g><use xlink:href="#u" transform="matrix(1,0,0,1,876.0605439410272,1982.5046677018213) translate(0.0049999999999954525 14.4)"/><use xlink:href="#V" transform="matrix(1,0,0,1,876.0605439410272,1982.5046677018213) translate(90.955 14.4)"/></g><path d="M789.05 1989.6h-10.5m-10.48 0H747.1m-10.5 0h-20.98m-10.5 0h-20.97m-10.5 0H652.7m-10.5 0h-20.97m-10.48 0h-20.98m-10.5 0h-20.97m-10.5 0H537.3" stroke="#333" fill="none"/><path d="M789.55 1990.1h-.52v-1h.52z" stroke="#333" stroke-width=".05" fill="#333"/><path d="M522.53 1989.6l14.27-4.63v9.27z" stroke="#333" fill="#333"/><g><use xlink:href="#I" transform="matrix(1,0,0,1,555.3792235356597,1993.6056434896698) translate(0.0049999999999954525 14.4)"/><use xlink:href="#v" transform="matrix(1,0,0,1,555.3792235356597,1993.6056434896698) translate(72.905 14.4)"/><use xlink:href="#w" transform="matrix(1,0,0,1,555.3792235356597,1993.6056434896698) translate(97.905 14.4)"/></g><path d="M480 1968a8 8 0 0 1 8-8h24a8 8 0 0 1 8 8v64a8 8 0 0 1-8 8h-24a8 8 0 0 1-8-8z" stroke="#3a414a" fill="#fff"/><path d="M479.08 2019.98h-10.3m-10.28 0h-20.58m-10.3 0h-20.58m-10.3 0h-20.57m-10.3 0H345.3m-10.3 0h-20.57m-10.3 0h-20.57m-10.3 0H262.97l-.02.02v.04l-.02.02h-8.7m-8.67 0h-8.67" stroke="#333" fill="none"/><path d="M479.58 2020.48h-.5v-1h.5z" stroke="#333" stroke-width=".05" fill="#333"/><path d="M222.1 2020.07l14.28-4.64v9.27z" stroke="#333" fill="#333"/><g><use xlink:href="#I" transform="matrix(1,0,0,1,250.18432885674497,2023.9819936410477) translate(0.0049999999999954525 14.4)"/><use xlink:href="#v" transform="matrix(1,0,0,1,250.18432885674497,2023.9819936410477) translate(72.905 14.4)"/><use xlink:href="#w" transform="matrix(1,0,0,1,250.18432885674497,2023.9819936410477) translate(97.905 14.4)"/></g><defs><path fill="#333" d="M14 0l48-248h34L48 0H14" id="aa"/><path fill="#333" d="M67-158c22-48 132-52 116 29L158 0h-32l25-140c3-38-53-32-70-12C52-117 51-52 38 0H6l36-190h30" id="ab"/><path fill="#333" d="M50-231l6-30h32l-6 30H50zM6 0l37-190h31L37 0H6" id="ac"/><path fill="#333" d="M44-68c0 29 11 47 38 47 30 0 42-19 51-41l28 9C148-21 126 4 82 4 31 4 10-29 12-85c3-77 74-140 146-93 12 8 15 23 18 40l-31 5c-1-22-13-36-36-36-52 0-65 49-65 101" id="ad"/><path fill="#333" d="M165-48c-4 18 1 34 23 27l-3 20c-29 8-62 0-52-35h-2C116-14 99 4 63 4 30 4 8-16 8-49c0-68 71-67 138-67 10-26 0-56-31-54-26 1-42 9-47 31l-32-5c8-67 160-71 144 15-5 28-9 54-15 81zM42-50c3 52 80 24 89-6 7-12 7-24 11-38-47 1-103-4-100 44" id="ae"/><path fill="#333" d="M66-151c12-25 30-51 66-40l-6 26C45-176 58-65 38 0H6l36-190h30" id="af"/><g id="a"><use transform="matrix(0.04938271604938272,0,0,0.04938271604938272,0,0)" xlink:href="#aa"/><use transform="matrix(0.04938271604938272,0,0,0.04938271604938272,4.938271604938272,0)" xlink:href="#ab"/><use transform="matrix(0.04938271604938272,0,0,0.04938271604938272,14.814814814814817,0)" xlink:href="#ac"/><use transform="matrix(0.04938271604938272,0,0,0.04938271604938272,18.71604938271605,0)" xlink:href="#ad"/><use transform="matrix(0.04938271604938272,0,0,0.04938271604938272,27.60493827160494,0)" xlink:href="#ac"/><use transform="matrix(0.04938271604938272,0,0,0.04938271604938272,31.506172839506174,0)" xlink:href="#ae"/><use transform="matrix(0.04938271604938272,0,0,0.04938271604938272,41.38271604938272,0)" xlink:href="#af"/></g><path fill="#333" d="M55-144c13 50 104 24 104 88C159 21 15 23 1-39l26-10c6 40 102 42 102-4-13-50-104-23-104-87 0-71 143-71 148-8l-29 4c-5-35-85-37-89 0" id="ag"/><path fill="#333" d="M111-194c62-3 86 47 72 106H45c-7 38 6 69 45 68 27-1 43-14 53-32l24 11C152-15 129 4 87 4 38 3 12-23 12-71c0-70 32-119 99-123zm44 81c14-66-71-72-95-28-4 8-8 17-11 28h106" id="ah"/><path fill="#333" d="M31-147c31-64 166-65 159 27C184-49 159 1 87 4 10 8 2-88 31-147zM89-20c53 0 68-48 68-100 0-31-11-51-44-50-52 1-68 46-68 97 0 32 13 53 44 53zm5-191c10-23 31-35 45-54h38l-1 5-66 49H94" id="ai"/><g id="b"><use transform="matrix(0.04938271604938272,0,0,0.04938271604938272,0,0)" xlink:href="#ag"/><use transform="matrix(0.04938271604938272,0,0,0.04938271604938272,8.88888888888889,0)" xlink:href="#ah"/><use transform="matrix(0.04938271604938272,0,0,0.04938271604938272,18.765432098765434,0)" xlink:href="#ag"/><use transform="matrix(0.04938271604938272,0,0,0.04938271604938272,27.654320987654323,0)" xlink:href="#ac"/><use transform="matrix(0.04938271604938272,0,0,0.04938271604938272,31.555555555555557,0)" xlink:href="#ai"/><use transform="matrix(0.04938271604938272,0,0,0.04938271604938272,41.4320987654321,0)" xlink:href="#ab"/></g><path d="M24-248c120-7 223 5 221 122C244-46 201 0 124 0H24v-248zM76-40c74 7 117-18 117-86 0-67-45-88-117-82v168" id="aj"/><path d="M25-224v-37h50v37H25zM25 0v-190h50V0H25" id="ak"/><path d="M133-34C117-15 103 5 69 4 32 3 11-16 11-54c-1-60 55-63 116-61 1-26-3-47-28-47-18 1-26 9-28 27l-52-2c7-38 36-58 82-57s74 22 75 68l1 82c-1 14 12 18 25 15v27c-30 8-71 5-69-32zm-48 3c29 0 43-24 42-57-32 0-66-3-65 30 0 17 8 27 23 27" id="al"/><path d="M195-6C206 82 75 100 31 46c-4-6-6-13-8-21l49-6c3 16 16 24 34 25 40 0 42-37 40-79-11 22-30 35-61 35-53 0-70-43-70-97 0-56 18-96 73-97 30 0 46 14 59 34l2-30h47zm-90-29c32 0 41-27 41-63 0-35-9-62-40-62-32 0-39 29-40 63 0 36 9 62 39 62" id="am"/><path d="M135-150c-39-12-60 13-60 57V0H25l-1-190h47c2 13-1 29 3 40 6-28 27-53 61-41v41" id="an"/><path d="M220-157c-53 9-28 100-34 157h-49v-107c1-27-5-49-29-50C55-147 81-57 75 0H25l-1-190h47c2 12-1 28 3 38 10-53 101-56 108 0 13-22 24-43 59-42 82 1 51 116 57 194h-49v-107c-1-25-5-48-29-50" id="ao"/><g id="c"><use transform="matrix(0.0728395061728395,0,0,0.0728395061728395,0,0)" xlink:href="#aj"/><use transform="matrix(0.0728395061728395,0,0,0.0728395061728395,18.86543209876543,0)" xlink:href="#ak"/><use transform="matrix(0.0728395061728395,0,0,0.0728395061728395,26.14938271604938,0)" xlink:href="#al"/><use transform="matrix(0.0728395061728395,0,0,0.0728395061728395,40.717283950617286,0)" xlink:href="#am"/><use transform="matrix(0.0728395061728395,0,0,0.0728395061728395,56.66913580246913,0)" xlink:href="#an"/><use transform="matrix(0.0728395061728395,0,0,0.0728395061728395,66.86666666666666,0)" xlink:href="#al"/><use transform="matrix(0.0728395061728395,0,0,0.0728395061728395,81.43456790123457,0)" xlink:href="#ao"/><use transform="matrix(0.0728395061728395,0,0,0.0728395061728395,104.7432098765432,0)" xlink:href="#al"/></g><path d="M88-194c31-1 46 15 58 34l-1-101h50l1 261h-48c-2-10 0-23-3-31C134-8 116 4 84 4 32 4 16-41 15-95c0-56 19-97 73-99zm17 164c33 0 40-30 41-66 1-37-9-64-41-64s-38 30-39 65c0 43 13 65 39 65" id="ap"/><path d="M185-48c-13 30-37 53-82 52C43 2 14-33 14-96s30-98 90-98c62 0 83 45 84 108H66c0 31 8 55 39 56 18 0 30-7 34-22zm-45-69c5-46-57-63-70-21-2 6-4 13-4 21h74" id="aq"/><g id="d"><use transform="matrix(0.0728395061728395,0,0,0.0728395061728395,0,0)" xlink:href="#ap"/><use transform="matrix(0.0728395061728395,0,0,0.0728395061728395,15.95185185185185,0)" xlink:href="#aq"/></g><path d="M137-138c1-29-70-34-71-4 15 46 118 7 119 86 1 83-164 76-172 9l43-7c4 19 20 25 44 25 33 8 57-30 24-41C81-84 22-81 20-136c-2-80 154-74 161-7" id="ar"/><path d="M190-63c-7 42-38 67-86 67-59 0-84-38-90-98-12-110 154-137 174-36l-49 2c-2-19-15-32-35-32-30 0-35 28-38 64-6 74 65 87 74 30" id="as"/><path d="M85 4C-2 5 27-109 22-190h50c7 57-23 150 33 157 60-5 35-97 40-157h50l1 190h-47c-2-12 1-28-3-38-12 25-28 42-61 42" id="at"/><path d="M135-194c87-1 58 113 63 194h-50c-7-57 23-157-34-157-59 0-34 97-39 157H25l-1-190h47c2 12-1 28 3 38 12-26 28-41 61-42" id="au"/><g id="e"><use transform="matrix(0.0728395061728395,0,0,0.0728395061728395,0,0)" xlink:href="#ar"/><use transform="matrix(0.0728395061728395,0,0,0.0728395061728395,14.5679012345679,0)" xlink:href="#aq"/><use transform="matrix(0.0728395061728395,0,0,0.0728395061728395,29.1358024691358,0)" xlink:href="#as"/><use transform="matrix(0.0728395061728395,0,0,0.0728395061728395,43.7037037037037,0)" xlink:href="#at"/><use transform="matrix(0.0728395061728395,0,0,0.0728395061728395,59.65555555555555,0)" xlink:href="#aq"/><use transform="matrix(0.0728395061728395,0,0,0.0728395061728395,74.22345679012345,0)" xlink:href="#au"/><use transform="matrix(0.0728395061728395,0,0,0.0728395061728395,90.1753086419753,0)" xlink:href="#as"/><use transform="matrix(0.0728395061728395,0,0,0.0728395061728395,104.7432098765432,0)" xlink:href="#ak"/><use transform="matrix(0.0728395061728395,0,0,0.0728395061728395,112.02716049382715,0)" xlink:href="#al"/></g><path d="M14-72v-43h91v43H14" id="av"/><use transform="matrix(0.0728395061728395,0,0,0.0728395061728395,0,0)" xlink:href="#av" id="f"/><path d="M67-125c0 54 23 88 75 88 28 0 53-7 68-21v-34h-60v-39h108v91C232-14 192 4 140 4 58 4 20-42 15-125 8-236 126-280 215-234c19 10 29 26 37 47l-47 15c-11-23-29-39-63-39-53 1-75 33-75 86" id="aw"/><path d="M123 10C108 53 80 86 19 72V37c35 8 53-11 59-39L3-190h52l48 148c12-52 28-100 44-148h51" id="ax"/><path d="M199 0l-22-63H83L61 0H9l90-248h61L250 0h-51zm-33-102l-36-108c-10 38-24 72-36 108h72" id="ay"/><path d="M135-194c53 0 70 44 70 98 0 56-19 98-73 100-31 1-45-17-59-34 3 33 2 69 2 105H25l-1-265h48c2 10 0 23 3 31 11-24 29-35 60-35zM114-30c33 0 39-31 40-66 0-38-9-64-40-64-56 0-55 130 0 130" id="az"/><g id="g"><use transform="matrix(0.0728395061728395,0,0,0.0728395061728395,0,0)" xlink:href="#aw"/><use transform="matrix(0.0728395061728395,0,0,0.0728395061728395,20.39506172839506,0)" xlink:href="#ax"/><use transform="matrix(0.0728395061728395,0,0,0.0728395061728395,34.96296296296296,0)" xlink:href="#ao"/><use transform="matrix(0.0728395061728395,0,0,0.0728395061728395,58.2716049382716,0)" xlink:href="#ay"/><use transform="matrix(0.0728395061728395,0,0,0.0728395061728395,77.13703703703703,0)" xlink:href="#az"/><use transform="matrix(0.0728395061728395,0,0,0.0728395061728395,93.08888888888889,0)" xlink:href="#az"/></g><path fill="#3a414a" d="M24 0v-248h52V0H24" id="aA"/><path fill="#3a414a" d="M135-194c87-1 58 113 63 194h-50c-7-57 23-157-34-157-59 0-34 97-39 157H25l-1-190h47c2 12-1 28 3 38 12-26 28-41 61-42" id="aB"/><path fill="#3a414a" d="M115-3C79 11 28 4 28-45v-112H4v-33h27l15-45h31v45h36v33H77v99c-1 23 16 31 38 25v30" id="aC"/><path fill="#3a414a" d="M185-48c-13 30-37 53-82 52C43 2 14-33 14-96s30-98 90-98c62 0 83 45 84 108H66c0 31 8 55 39 56 18 0 30-7 34-22zm-45-69c5-46-57-63-70-21-2 6-4 13-4 21h74" id="aD"/><path fill="#3a414a" d="M135-150c-39-12-60 13-60 57V0H25l-1-190h47c2 13-1 29 3 40 6-28 27-53 61-41v41" id="aE"/><path fill="#3a414a" d="M121-226c-27-7-43 5-38 36h38v33H83V0H34v-157H6v-33h28c-9-59 32-81 87-68v32" id="aF"/><path fill="#3a414a" d="M133-34C117-15 103 5 69 4 32 3 11-16 11-54c-1-60 55-63 116-61 1-26-3-47-28-47-18 1-26 9-28 27l-52-2c7-38 36-58 82-57s74 22 75 68l1 82c-1 14 12 18 25 15v27c-30 8-71 5-69-32zm-48 3c29 0 43-24 42-57-32 0-66-3-65 30 0 17 8 27 23 27" id="aG"/><path fill="#3a414a" d="M12 0v-35l95-120H19v-35h142v35L67-36h103V0H12" id="aH"/><g id="h"><use transform="matrix(0.05,0,0,0.05,0,0)" xlink:href="#aA"/><use transform="matrix(0.05,0,0,0.05,5,0)" xlink:href="#aB"/><use transform="matrix(0.05,0,0,0.05,15.950000000000001,0)" xlink:href="#aC"/><use transform="matrix(0.05,0,0,0.05,21.900000000000002,0)" xlink:href="#aD"/><use transform="matrix(0.05,0,0,0.05,31.900000000000002,0)" xlink:href="#aE"/><use transform="matrix(0.05,0,0,0.05,38.900000000000006,0)" xlink:href="#aF"/><use transform="matrix(0.05,0,0,0.05,44.85000000000001,0)" xlink:href="#aG"/><use transform="matrix(0.05,0,0,0.05,54.85,0)" xlink:href="#aH"/></g><path fill="#333" d="M238-95c0 69-44 99-111 99C63 4 22-25 22-93v-155h51v151c-1 38 19 59 55 60 90 1 49-130 58-211h52v153" id="aI"/><path fill="#333" d="M137-138c1-29-70-34-71-4 15 46 118 7 119 86 1 83-164 76-172 9l43-7c4 19 20 25 44 25 33 8 57-30 24-41C81-84 22-81 20-136c-2-80 154-74 161-7" id="aJ"/><path fill="#333" d="M85 4C-2 5 27-109 22-190h50c7 57-23 150 33 157 60-5 35-97 40-157h50l1 190h-47c-2-12 1-28-3-38-12 25-28 42-61 42" id="aK"/><path fill="#333" d="M133-34C117-15 103 5 69 4 32 3 11-16 11-54c-1-60 55-63 116-61 1-26-3-47-28-47-18 1-26 9-28 27l-52-2c7-38 36-58 82-57s74 22 75 68l1 82c-1 14 12 18 25 15v27c-30 8-71 5-69-32zm-48 3c29 0 43-24 42-57-32 0-66-3-65 30 0 17 8 27 23 27" id="aL"/><path fill="#333" d="M135-150c-39-12-60 13-60 57V0H25l-1-190h47c2 13-1 29 3 40 6-28 27-53 61-41v41" id="aM"/><path fill="#333" d="M25-224v-37h50v37H25zM25 0v-190h50V0H25" id="aN"/><path fill="#333" d="M110-194c64 0 96 36 96 99 0 64-35 99-97 99-61 0-95-36-95-99 0-62 34-99 96-99zm-1 164c35 0 45-28 45-65 0-40-10-65-43-65-34 0-45 26-45 65 0 36 10 65 43 65" id="aO"/><g id="i"><use transform="matrix(0.04938271604938272,0,0,0.04938271604938272,0,0)" xlink:href="#aI"/><use transform="matrix(0.04938271604938272,0,0,0.04938271604938272,12.790123456790125,0)" xlink:href="#aJ"/><use transform="matrix(0.04938271604938272,0,0,0.04938271604938272,22.66666666666667,0)" xlink:href="#aK"/><use transform="matrix(0.04938271604938272,0,0,0.04938271604938272,33.48148148148149,0)" xlink:href="#aL"/><use transform="matrix(0.04938271604938272,0,0,0.04938271604938272,43.35802469135803,0)" xlink:href="#aM"/><use transform="matrix(0.04938271604938272,0,0,0.04938271604938272,50.271604938271615,0)" xlink:href="#aN"/><use transform="matrix(0.04938271604938272,0,0,0.04938271604938272,55.209876543209894,0)" xlink:href="#aO"/></g><path fill="#3a414a" d="M169-182c-1-43-94-46-97-3 18 66 151 10 154 114 3 95-165 93-204 36-6-8-10-19-12-30l50-8c3 46 112 56 116 5-17-69-150-10-154-114-4-87 153-88 188-35 5 8 8 18 10 28" id="aP"/><path fill="#3a414a" d="M25-224v-37h50v37H25zM25 0v-190h50V0H25" id="aQ"/><path fill="#3a414a" d="M137-138c1-29-70-34-71-4 15 46 118 7 119 86 1 83-164 76-172 9l43-7c4 19 20 25 44 25 33 8 57-30 24-41C81-84 22-81 20-136c-2-80 154-74 161-7" id="aR"/><path fill="#3a414a" d="M220-157c-53 9-28 100-34 157h-49v-107c1-27-5-49-29-50C55-147 81-57 75 0H25l-1-190h47c2 12-1 28 3 38 10-53 101-56 108 0 13-22 24-43 59-42 82 1 51 116 57 194h-49v-107c-1-25-5-48-29-50" id="aS"/><g id="j"><use transform="matrix(0.05,0,0,0.05,0,0)" xlink:href="#aP"/><use transform="matrix(0.05,0,0,0.05,12,0)" xlink:href="#aQ"/><use transform="matrix(0.05,0,0,0.05,17,0)" xlink:href="#aR"/><use transform="matrix(0.05,0,0,0.05,27,0)" xlink:href="#aC"/><use transform="matrix(0.05,0,0,0.05,32.95,0)" xlink:href="#aD"/><use transform="matrix(0.05,0,0,0.05,42.95,0)" xlink:href="#aS"/><use transform="matrix(0.05,0,0,0.05,58.95,0)" xlink:href="#aG"/></g><path fill="#3a414a" d="M182-130c37 4 62 22 62 59C244 23 116-4 24 0v-248c84 5 203-23 205 63 0 31-19 50-47 55zM76-148c40-3 101 13 101-30 0-44-60-28-101-31v61zm0 110c48-3 116 14 116-37 0-48-69-32-116-35v72" id="aT"/><g id="k"><use transform="matrix(0.05,0,0,0.05,0,0)" xlink:href="#aT"/><use transform="matrix(0.05,0,0,0.05,12.950000000000001,0)" xlink:href="#aG"/><use transform="matrix(0.05,0,0,0.05,22.950000000000003,0)" xlink:href="#aR"/><use transform="matrix(0.05,0,0,0.05,32.95,0)" xlink:href="#aD"/></g><path fill="#3a414a" d="M88-194c31-1 46 15 58 34l-1-101h50l1 261h-48c-2-10 0-23-3-31C134-8 116 4 84 4 32 4 16-41 15-95c0-56 19-97 73-99zm17 164c33 0 40-30 41-66 1-37-9-64-41-64s-38 30-39 65c0 43 13 65 39 65" id="aU"/><g id="l"><use transform="matrix(0.05,0,0,0.05,0,0)" xlink:href="#aU"/><use transform="matrix(0.05,0,0,0.05,10.950000000000001,0)" xlink:href="#aD"/></g><path fill="#3a414a" d="M110-194c64 0 96 36 96 99 0 64-35 99-97 99-61 0-95-36-95-99 0-62 34-99 96-99zm-1 164c35 0 45-28 45-65 0-40-10-65-43-65-34 0-45 26-45 65 0 36 10 65 43 65" id="aV"/><g id="m"><use transform="matrix(0.05,0,0,0.05,0,0)" xlink:href="#aU"/><use transform="matrix(0.05,0,0,0.05,10.950000000000001,0)" xlink:href="#aG"/><use transform="matrix(0.05,0,0,0.05,20.950000000000003,0)" xlink:href="#aC"/><use transform="matrix(0.05,0,0,0.05,26.900000000000002,0)" xlink:href="#aV"/><use transform="matrix(0.05,0,0,0.05,37.85,0)" xlink:href="#aR"/></g><path fill="#333" d="M103-194c29 0 47 14 56 36 2-11 5-23 8-32h30L160-5C157 61 82 97 21 62 9 55 4 45 1 30l28-7c7 42 83 31 92-3 4-16 9-38 13-55-13 20-29 36-62 36-40 0-60-25-60-64 0-71 23-131 91-131zm4 24c-53 0-58 54-61 104-2 27 10 44 36 44 49 0 65-50 67-102 1-29-15-46-42-46" id="aW"/><g id="n"><use transform="matrix(0.04938271604938272,0,0,0.04938271604938272,0,0)" xlink:href="#aa"/><use transform="matrix(0.04938271604938272,0,0,0.04938271604938272,4.938271604938272,0)" xlink:href="#ab"/><use transform="matrix(0.04938271604938272,0,0,0.04938271604938272,14.814814814814817,0)" xlink:href="#aW"/><use transform="matrix(0.04938271604938272,0,0,0.04938271604938272,24.69135802469136,0)" xlink:href="#af"/><use transform="matrix(0.04938271604938272,0,0,0.04938271604938272,30.567901234567906,0)" xlink:href="#ah"/><use transform="matrix(0.04938271604938272,0,0,0.04938271604938272,40.44444444444445,0)" xlink:href="#ag"/><use transform="matrix(0.04938271604938272,0,0,0.04938271604938272,49.33333333333334,0)" xlink:href="#ae"/><use transform="matrix(0.04938271604938272,0,0,0.04938271604938272,59.209876543209894,0)" xlink:href="#af"/></g><path fill="#333" d="M67 3c-93-2-31-127-26-193h32L48-50c-3 39 53 32 70 12 30-34 30-101 43-152h32L157 0h-30c1-10 6-24 4-33-14 20-29 37-64 36" id="aX"/><path fill="#333" d="M30-147c31-64 166-65 159 27C183-49 158 1 86 4 9 8 1-88 30-147zM88-20c53 0 68-48 68-100 0-31-11-51-44-50-52 1-68 46-68 97 0 32 13 53 44 53" id="aY"/><g id="o"><use transform="matrix(0.04938271604938272,0,0,0.04938271604938272,0,0)" xlink:href="#aX"/><use transform="matrix(0.04938271604938272,0,0,0.04938271604938272,9.876543209876544,0)" xlink:href="#ag"/><use transform="matrix(0.04938271604938272,0,0,0.04938271604938272,18.765432098765434,0)" xlink:href="#aX"/><use transform="matrix(0.04938271604938272,0,0,0.04938271604938272,28.641975308641978,0)" xlink:href="#ae"/><use transform="matrix(0.04938271604938272,0,0,0.04938271604938272,38.51851851851852,0)" xlink:href="#af"/><use transform="matrix(0.04938271604938272,0,0,0.04938271604938272,44.39506172839506,0)" xlink:href="#ac"/><use transform="matrix(0.04938271604938272,0,0,0.04938271604938272,48.2962962962963,0)" xlink:href="#aY"/></g><path fill="#333" d="M51-54c-9 22 5 41 31 30L79-1C43 14 10-4 19-52l22-115H19l5-23h22l19-43h21l-9 43h35l-4 23H73" id="aZ"/><path fill="#333" d="M67-158c22-48 132-52 116 29L158 0h-32l25-140c3-38-53-32-70-12C52-117 51-52 38 0H6l36-190h30zm126-100c-8 21-15 46-44 47-22 0-30-19-50-21-14 0-21 10-25 21H58c8-21 14-47 44-47 22 0 32 18 50 21 13-1 21-10 25-21h16" id="ba"/><g id="p"><use transform="matrix(0.04938271604938272,0,0,0.04938271604938272,0,0)" xlink:href="#ad"/><use transform="matrix(0.04938271604938272,0,0,0.04938271604938272,8.88888888888889,0)" xlink:href="#aY"/><use transform="matrix(0.04938271604938272,0,0,0.04938271604938272,18.765432098765434,0)" xlink:href="#ab"/><use transform="matrix(0.04938271604938272,0,0,0.04938271604938272,28.641975308641978,0)" xlink:href="#aZ"/><use transform="matrix(0.04938271604938272,0,0,0.04938271604938272,33.580246913580254,0)" xlink:href="#af"/><use transform="matrix(0.04938271604938272,0,0,0.04938271604938272,39.4567901234568,0)" xlink:href="#ae"/><use transform="matrix(0.04938271604938272,0,0,0.04938271604938272,49.33333333333334,0)" xlink:href="#ag"/><use transform="matrix(0.04938271604938272,0,0,0.04938271604938272,58.22222222222223,0)" xlink:href="#ah"/><use transform="matrix(0.04938271604938272,0,0,0.04938271604938272,68.09876543209877,0)" xlink:href="#ba"/><use transform="matrix(0.04938271604938272,0,0,0.04938271604938272,77.97530864197532,0)" xlink:href="#ae"/></g><path fill="#333" d="M125-24c46 0 70-25 89-51l25 16C214-24 183 4 123 4 8 4-5-146 60-208c32-50 158-61 191-5 5 7 9 14 11 22l-32 10c-9-28-33-43-69-43-74 0-108 51-108 125 0 46 24 75 72 75" id="bb"/><path fill="#333" d="M6 0l50-261h32L37 0H6" id="bc"/><g id="q"><use transform="matrix(0.04938271604938272,0,0,0.04938271604938272,0,0)" xlink:href="#bb"/><use transform="matrix(0.04938271604938272,0,0,0.04938271604938272,12.790123456790125,0)" xlink:href="#aY"/><use transform="matrix(0.04938271604938272,0,0,0.04938271604938272,22.66666666666667,0)" xlink:href="#ab"/><use transform="matrix(0.04938271604938272,0,0,0.04938271604938272,32.543209876543216,0)" xlink:href="#ag"/><use transform="matrix(0.04938271604938272,0,0,0.04938271604938272,41.4320987654321,0)" xlink:href="#aX"/><use transform="matrix(0.04938271604938272,0,0,0.04938271604938272,51.308641975308646,0)" xlink:href="#bc"/><use transform="matrix(0.04938271604938272,0,0,0.04938271604938272,55.20987654320988,0)" xlink:href="#aZ"/><use transform="matrix(0.04938271604938272,0,0,0.04938271604938272,60.14814814814815,0)" xlink:href="#ae"/><use transform="matrix(0.04938271604938272,0,0,0.04938271604938272,70.0246913580247,0)" xlink:href="#af"/></g><path fill="#333" d="M133-28C103 26-5 8 13-77c13-62 24-115 90-117 29-1 46 15 56 35l19-102h32L160 0h-30zM45-64c-2 27 10 43 35 43 54-1 69-50 69-103 0-29-15-46-42-46-53-1-58 58-62 106" id="bd"/><g id="r"><use transform="matrix(0.04938271604938272,0,0,0.04938271604938272,0,0)" xlink:href="#bd"/><use transform="matrix(0.04938271604938272,0,0,0.04938271604938272,9.876543209876544,0)" xlink:href="#ae"/><use transform="matrix(0.04938271604938272,0,0,0.04938271604938272,19.75308641975309,0)" xlink:href="#aZ"/><use transform="matrix(0.04938271604938272,0,0,0.04938271604938272,24.69135802469136,0)" xlink:href="#aY"/><use transform="matrix(0.04938271604938272,0,0,0.04938271604938272,34.567901234567906,0)" xlink:href="#ag"/></g><g id="s"><use transform="matrix(0.04938271604938272,0,0,0.04938271604938272,0,0)" xlink:href="#bd"/><use transform="matrix(0.04938271604938272,0,0,0.04938271604938272,9.876543209876544,0)" xlink:href="#ah"/></g><g id="t"><use transform="matrix(0.04938271604938272,0,0,0.04938271604938272,0,0)" xlink:href="#ag"/><use transform="matrix(0.04938271604938272,0,0,0.04938271604938272,8.88888888888889,0)" xlink:href="#ah"/><use transform="matrix(0.04938271604938272,0,0,0.04938271604938272,18.765432098765434,0)" xlink:href="#ag"/><use transform="matrix(0.04938271604938272,0,0,0.04938271604938272,27.654320987654323,0)" xlink:href="#ac"/><use transform="matrix(0.04938271604938272,0,0,0.04938271604938272,31.555555555555557,0)" xlink:href="#ai"/><use transform="matrix(0.04938271604938272,0,0,0.04938271604938272,41.4320987654321,0)" xlink:href="#ab"/></g><path fill="#3a414a" d="M249-183c0 48-29 72-75 77L221 0h-36l-43-103H65L45 0H11l48-248c83 2 190-17 190 65zm-34 3c0-55-74-39-127-41l-18 92c63-1 145 13 145-51" id="be"/><path fill="#3a414a" d="M111-194c62-3 86 47 72 106H45c-7 38 6 69 45 68 27-1 43-14 53-32l24 11C152-15 129 4 87 4 38 3 12-23 12-71c0-70 32-119 99-123zm44 81c14-66-71-72-95-28-4 8-8 17-11 28h106" id="bf"/><path fill="#3a414a" d="M55-144c13 50 104 24 104 88C159 21 15 23 1-39l26-10c6 40 102 42 102-4-13-50-104-23-104-87 0-71 143-71 148-8l-29 4c-5-35-85-37-89 0" id="bg"/><path fill="#3a414a" d="M67-162c32-53 139-36 121 50C175-51 163 2 97 4 68 4 52-11 42-31 38 6 28 39 22 75H-9l50-265h29c-1 10 0 20-3 28zm89 36c0-26-10-43-35-43-54 0-67 50-69 103-1 29 14 45 42 46 53 0 62-58 62-106" id="bh"/><path fill="#3a414a" d="M67 3c-93-2-31-127-26-193h32L48-50c-3 39 53 32 70 12 30-34 30-101 43-152h32L157 0h-30c1-10 6-24 4-33-14 20-29 37-64 36" id="bi"/><path fill="#3a414a" d="M51-54c-9 22 5 41 31 30L79-1C43 14 10-4 19-52l22-115H19l5-23h22l19-43h21l-9 43h35l-4 23H73" id="bj"/><path fill="#3a414a" d="M165-48c-4 18 1 34 23 27l-3 20c-29 8-62 0-52-35h-2C116-14 99 4 63 4 30 4 8-16 8-49c0-68 71-67 138-67 10-26 0-56-31-54-26 1-42 9-47 31l-32-5c8-67 160-71 144 15-5 28-9 54-15 81zM42-50c3 52 80 24 89-6 7-12 7-24 11-38-47 1-103-4-100 44" id="bk"/><g id="u"><use transform="matrix(0.05,0,0,0.05,0,0)" xlink:href="#be"/><use transform="matrix(0.05,0,0,0.05,12.950000000000001,0)" xlink:href="#bf"/><use transform="matrix(0.05,0,0,0.05,22.950000000000003,0)" xlink:href="#bg"/><use transform="matrix(0.05,0,0,0.05,31.950000000000003,0)" xlink:href="#bh"/><use transform="matrix(0.05,0,0,0.05,41.95,0)" xlink:href="#bi"/><use transform="matrix(0.05,0,0,0.05,51.95,0)" xlink:href="#bf"/><use transform="matrix(0.05,0,0,0.05,61.95,0)" xlink:href="#bg"/><use transform="matrix(0.05,0,0,0.05,70.95,0)" xlink:href="#bj"/><use transform="matrix(0.05,0,0,0.05,75.95,0)" xlink:href="#bk"/></g><path fill="#3a414a" d="M133-28C103 26-5 8 13-77c13-62 24-115 90-117 29-1 46 15 56 35l19-102h32L160 0h-30zM45-64c-2 27 10 43 35 43 54-1 69-50 69-103 0-29-15-46-42-46-53-1-58 58-62 106" id="bl"/><g id="v"><use transform="matrix(0.05,0,0,0.05,0,0)" xlink:href="#bl"/><use transform="matrix(0.05,0,0,0.05,10,0)" xlink:href="#bf"/></g><path fill="#3a414a" d="M44-68c0 29 11 47 38 47 30 0 42-19 51-41l28 9C148-21 126 4 82 4 31 4 10-29 12-85c3-77 74-140 146-93 12 8 15 23 18 40l-31 5c-1-22-13-36-36-36-52 0-65 49-65 101" id="bm"/><path fill="#3a414a" d="M30-147c31-64 166-65 159 27C183-49 158 1 86 4 9 8 1-88 30-147zM88-20c53 0 68-48 68-100 0-31-11-51-44-50-52 1-68 46-68 97 0 32 13 53 44 53" id="bn"/><path fill="#3a414a" d="M67-158c22-48 132-52 116 29L158 0h-32l25-140c3-38-53-32-70-12C52-117 51-52 38 0H6l36-190h30" id="bo"/><path fill="#3a414a" d="M76-167L44 0H12l33-167H18l4-23h27c3-47 25-81 82-69l-4 24c-35-8-44 15-46 45h37l-5 23H76" id="bp"/><path fill="#3a414a" d="M50-231l6-30h32l-6 30H50zM6 0l37-190h31L37 0H6" id="bq"/><path fill="#3a414a" d="M66-151c12-25 30-51 66-40l-6 26C45-176 58-65 38 0H6l36-190h30" id="br"/><path fill="#3a414a" d="M248-111c6-24 9-61-24-58-72 9-57 108-77 169h-31l26-142c3-37-50-30-64-10C52-115 50-51 37 0H6l36-190h30c-1 10-6 24-4 32 13-43 101-52 105 5 13-22 29-41 61-41 90 0 28 129 23 194h-31" id="bs"/><path fill="#3a414a" d="M31-147c31-64 166-65 159 27C184-49 159 1 87 4 10 8 2-88 31-147zM89-20c53 0 68-48 68-100 0-31-11-51-44-50-52 1-68 46-68 97 0 32 13 53 44 53zm5-191c10-23 31-35 45-54h38l-1 5-66 49H94" id="bt"/><g id="w"><use transform="matrix(0.05,0,0,0.05,0,0)" xlink:href="#bm"/><use transform="matrix(0.05,0,0,0.05,9,0)" xlink:href="#bn"/><use transform="matrix(0.05,0,0,0.05,19,0)" xlink:href="#bo"/><use transform="matrix(0.05,0,0,0.05,29,0)" xlink:href="#bp"/><use transform="matrix(0.05,0,0,0.05,34,0)" xlink:href="#bq"/><use transform="matrix(0.05,0,0,0.05,37.95,0)" xlink:href="#br"/><use transform="matrix(0.05,0,0,0.05,43.900000000000006,0)" xlink:href="#bs"/><use transform="matrix(0.05,0,0,0.05,58.85,0)" xlink:href="#bk"/><use transform="matrix(0.05,0,0,0.05,68.85000000000001,0)" xlink:href="#bm"/><use transform="matrix(0.05,0,0,0.05,77.85000000000001,0)" xlink:href="#bq"/><use transform="matrix(0.05,0,0,0.05,81.80000000000001,0)" xlink:href="#bt"/><use transform="matrix(0.05,0,0,0.05,91.80000000000001,0)" xlink:href="#bo"/></g><path fill="#3a414a" d="M137 0h-34L2-248h35l83 218 83-218h36" id="bu"/><path fill="#3a414a" d="M100-194c63 0 86 42 84 106H49c0 40 14 67 53 68 26 1 43-12 49-29l28 8c-11 28-37 45-77 45C44 4 14-33 15-96c1-61 26-98 85-98zm52 81c6-60-76-77-97-28-3 7-6 17-6 28h103" id="bv"/><path fill="#3a414a" d="M114-163C36-179 61-72 57 0H25l-1-190h30c1 12-1 29 2 39 6-27 23-49 58-41v29" id="bw"/><path fill="#3a414a" d="M24-231v-30h32v30H24zM24 0v-190h32V0H24" id="bx"/><path fill="#3a414a" d="M101-234c-31-9-42 10-38 44h38v23H63V0H32v-167H5v-23h27c-7-52 17-82 69-68v24" id="by"/><path fill="#3a414a" d="M96-169c-40 0-48 33-48 73s9 75 48 75c24 0 41-14 43-38l32 2c-6 37-31 61-74 61-59 0-76-41-82-99-10-93 101-131 147-64 4 7 5 14 7 22l-32 3c-4-21-16-35-41-35" id="bz"/><path fill="#3a414a" d="M141-36C126-15 110 5 73 4 37 3 15-17 15-53c-1-64 63-63 125-63 3-35-9-54-41-54-24 1-41 7-42 31l-33-3c5-37 33-52 76-52 45 0 72 20 72 64v82c-1 20 7 32 28 27v20c-31 9-61-2-59-35zM48-53c0 20 12 33 32 33 41-3 63-29 60-74-43 2-92-5-92 41" id="bA"/><g id="x"><use transform="matrix(0.05,0,0,0.05,0,0)" xlink:href="#bu"/><use transform="matrix(0.05,0,0,0.05,11,0)" xlink:href="#bv"/><use transform="matrix(0.05,0,0,0.05,21,0)" xlink:href="#bw"/><use transform="matrix(0.05,0,0,0.05,26.950000000000003,0)" xlink:href="#bx"/><use transform="matrix(0.05,0,0,0.05,30.899999999999995,0)" xlink:href="#by"/><use transform="matrix(0.05,0,0,0.05,35.9,0)" xlink:href="#bx"/><use transform="matrix(0.05,0,0,0.05,39.85,0)" xlink:href="#bz"/><use transform="matrix(0.05,0,0,0.05,48.85,0)" xlink:href="#bA"/><use transform="matrix(0.05,0,0,0.05,58.85,0)" xlink:href="#bw"/></g><path fill="#3a414a" d="M11 0l48-248h184l-5 28H87l-15 79h140l-5 27H67L50-27h158l-5 27H11" id="bB"/><path fill="#3a414a" d="M89 0H52L20-190h33L74-25l89-165h34" id="bC"/><g id="y"><use transform="matrix(0.05,0,0,0.05,0,0)" xlink:href="#bB"/><use transform="matrix(0.05,0,0,0.05,12,0)" xlink:href="#bo"/><use transform="matrix(0.05,0,0,0.05,22,0)" xlink:href="#bC"/><use transform="matrix(0.05,0,0,0.05,31,0)" xlink:href="#bq"/><use transform="matrix(0.05,0,0,0.05,34.95,0)" xlink:href="#bk"/><use transform="matrix(0.05,0,0,0.05,44.95,0)" xlink:href="#br"/></g><path fill="#3a414a" d="M6 0l50-261h32L37 0H6" id="bD"/><g id="z"><use transform="matrix(0.05,0,0,0.05,0,0)" xlink:href="#br"/><use transform="matrix(0.05,0,0,0.05,5.95,0)" xlink:href="#bf"/><use transform="matrix(0.05,0,0,0.05,15.949999999999998,0)" xlink:href="#bg"/><use transform="matrix(0.05,0,0,0.05,24.95,0)" xlink:href="#bi"/><use transform="matrix(0.05,0,0,0.05,34.95,0)" xlink:href="#bD"/><use transform="matrix(0.05,0,0,0.05,38.900000000000006,0)" xlink:href="#bj"/><use transform="matrix(0.05,0,0,0.05,43.900000000000006,0)" xlink:href="#bk"/><use transform="matrix(0.05,0,0,0.05,53.900000000000006,0)" xlink:href="#bl"/><use transform="matrix(0.05,0,0,0.05,63.900000000000006,0)" xlink:href="#bn"/><use transform="matrix(0.05,0,0,0.05,73.9,0)" xlink:href="#bg"/></g><path fill="#3a414a" d="M222 0l43-216c-8 16-17 34-26 49L143 0h-22L81-216 41 0H11l48-248h42l38 208 116-208h45L252 0h-30" id="bE"/><g id="A"><use transform="matrix(0.05,0,0,0.05,0,0)" xlink:href="#bE"/><use transform="matrix(0.05,0,0,0.05,14.950000000000001,0)" xlink:href="#bn"/><use transform="matrix(0.05,0,0,0.05,24.950000000000003,0)" xlink:href="#bg"/><use transform="matrix(0.05,0,0,0.05,33.95,0)" xlink:href="#bj"/><use transform="matrix(0.05,0,0,0.05,38.95,0)" xlink:href="#br"/><use transform="matrix(0.05,0,0,0.05,44.900000000000006,0)" xlink:href="#bk"/><use transform="matrix(0.05,0,0,0.05,54.900000000000006,0)" xlink:href="#br"/></g><path fill="#3a414a" d="M14 0l48-248h34L48 0H14" id="bF"/><path fill="#3a414a" d="M-8 0l5-24 140-142H31l5-24h145l-5 24L36-24h119l-5 24H-8" id="bG"/><g id="B"><use transform="matrix(0.05,0,0,0.05,0,0)" xlink:href="#bF"/><use transform="matrix(0.05,0,0,0.05,5,0)" xlink:href="#bo"/><use transform="matrix(0.05,0,0,0.05,15,0)" xlink:href="#bj"/><use transform="matrix(0.05,0,0,0.05,20,0)" xlink:href="#bf"/><use transform="matrix(0.05,0,0,0.05,30,0)" xlink:href="#br"/><use transform="matrix(0.05,0,0,0.05,35.95,0)" xlink:href="#bp"/><use transform="matrix(0.05,0,0,0.05,40.95,0)" xlink:href="#bk"/><use transform="matrix(0.05,0,0,0.05,50.95,0)" xlink:href="#bG"/></g><g id="C"><use transform="matrix(0.05,0,0,0.05,0,0)" xlink:href="#bl"/><use transform="matrix(0.05,0,0,0.05,10,0)" xlink:href="#bf"/></g><g id="D"><use transform="matrix(0.05,0,0,0.05,0,0)" xlink:href="#bi"/><use transform="matrix(0.05,0,0,0.05,10,0)" xlink:href="#bg"/><use transform="matrix(0.05,0,0,0.05,19,0)" xlink:href="#bi"/><use transform="matrix(0.05,0,0,0.05,29,0)" xlink:href="#bk"/><use transform="matrix(0.05,0,0,0.05,39,0)" xlink:href="#br"/><use transform="matrix(0.05,0,0,0.05,44.95,0)" xlink:href="#bq"/><use transform="matrix(0.05,0,0,0.05,48.900000000000006,0)" xlink:href="#bn"/></g><path fill="#333" d="M249-183c0 48-29 72-75 77L221 0h-36l-43-103H65L45 0H11l48-248c83 2 190-17 190 65zm-34 3c0-55-74-39-127-41l-18 92c63-1 145 13 145-51" id="bH"/><g id="E"><use transform="matrix(0.04938271604938272,0,0,0.04938271604938272,0,0)" xlink:href="#bH"/><use transform="matrix(0.04938271604938272,0,0,0.04938271604938272,12.790123456790125,0)" xlink:href="#ah"/><use transform="matrix(0.04938271604938272,0,0,0.04938271604938272,22.66666666666667,0)" xlink:href="#aW"/><use transform="matrix(0.04938271604938272,0,0,0.04938271604938272,32.543209876543216,0)" xlink:href="#ac"/><use transform="matrix(0.04938271604938272,0,0,0.04938271604938272,36.44444444444445,0)" xlink:href="#ag"/><use transform="matrix(0.04938271604938272,0,0,0.04938271604938272,45.33333333333334,0)" xlink:href="#aZ"/><use transform="matrix(0.04938271604938272,0,0,0.04938271604938272,50.271604938271615,0)" xlink:href="#af"/><use transform="matrix(0.04938271604938272,0,0,0.04938271604938272,56.14814814814817,0)" xlink:href="#ae"/><use transform="matrix(0.04938271604938272,0,0,0.04938271604938272,66.02469135802471,0)" xlink:href="#af"/></g><path fill="#333" d="M11 0l48-248h184l-5 28H87l-15 79h140l-5 27H67L50-27h158l-5 27H11" id="bI"/><path fill="#333" d="M89 0H52L20-190h33L74-25l89-165h34" id="bJ"/><g id="F"><use transform="matrix(0.04938271604938272,0,0,0.04938271604938272,0,0)" xlink:href="#bI"/><use transform="matrix(0.04938271604938272,0,0,0.04938271604938272,11.851851851851853,0)" xlink:href="#ab"/><use transform="matrix(0.04938271604938272,0,0,0.04938271604938272,21.7283950617284,0)" xlink:href="#bJ"/><use transform="matrix(0.04938271604938272,0,0,0.04938271604938272,30.617283950617285,0)" xlink:href="#ac"/><use transform="matrix(0.04938271604938272,0,0,0.04938271604938272,34.518518518518526,0)" xlink:href="#ae"/><use transform="matrix(0.04938271604938272,0,0,0.04938271604938272,44.39506172839507,0)" xlink:href="#af"/></g><g id="G"><use transform="matrix(0.04938271604938272,0,0,0.04938271604938272,0,0)" xlink:href="#bd"/><use transform="matrix(0.04938271604938272,0,0,0.04938271604938272,9.876543209876544,0)" xlink:href="#ae"/><use transform="matrix(0.04938271604938272,0,0,0.04938271604938272,19.75308641975309,0)" xlink:href="#aZ"/><use transform="matrix(0.04938271604938272,0,0,0.04938271604938272,24.69135802469136,0)" xlink:href="#aY"/><use transform="matrix(0.04938271604938272,0,0,0.04938271604938272,34.567901234567906,0)" xlink:href="#ag"/></g><path fill="#333" d="M52-101C46-14 166-7 216-51l9-45h-74l6-28h105l-18 87C217-12 181 4 130 4 60 4 18-31 18-101c0-106 78-167 188-146 30 6 48 27 59 54l-34 9c-10-26-31-41-67-40-75 1-107 50-112 123" id="bK"/><g id="H"><use transform="matrix(0.04938271604938272,0,0,0.04938271604938272,0,0)" xlink:href="#bK"/><use transform="matrix(0.04938271604938272,0,0,0.04938271604938272,13.827160493827162,0)" xlink:href="#aX"/><use transform="matrix(0.04938271604938272,0,0,0.04938271604938272,23.703703703703706,0)" xlink:href="#ae"/><use transform="matrix(0.04938271604938272,0,0,0.04938271604938272,33.580246913580254,0)" xlink:href="#af"/><use transform="matrix(0.04938271604938272,0,0,0.04938271604938272,39.4567901234568,0)" xlink:href="#bd"/><use transform="matrix(0.04938271604938272,0,0,0.04938271604938272,49.33333333333334,0)" xlink:href="#ae"/><use transform="matrix(0.04938271604938272,0,0,0.04938271604938272,59.209876543209894,0)" xlink:href="#af"/></g><path fill="#3a414a" d="M51-231l6-30h31l-6 30H51zM33 24C28 60 2 84-40 72c3-12-1-29 18-22C-5 49-1 37 2 19l41-209h32" id="bL"/><g id="I"><use transform="matrix(0.05,0,0,0.05,0,0)" xlink:href="#bE"/><use transform="matrix(0.05,0,0,0.05,14.950000000000001,0)" xlink:href="#bf"/><use transform="matrix(0.05,0,0,0.05,24.950000000000003,0)" xlink:href="#bo"/><use transform="matrix(0.05,0,0,0.05,34.95,0)" xlink:href="#bg"/><use transform="matrix(0.05,0,0,0.05,43.95,0)" xlink:href="#bk"/><use transform="matrix(0.05,0,0,0.05,53.95,0)" xlink:href="#bL"/><use transform="matrix(0.05,0,0,0.05,57.900000000000006,0)" xlink:href="#bf"/></g><g id="J"><use transform="matrix(0.04938271604938272,0,0,0.04938271604938272,0,0)" xlink:href="#ad"/><use transform="matrix(0.04938271604938272,0,0,0.04938271604938272,8.88888888888889,0)" xlink:href="#aY"/><use transform="matrix(0.04938271604938272,0,0,0.04938271604938272,18.765432098765434,0)" xlink:href="#ab"/><use transform="matrix(0.04938271604938272,0,0,0.04938271604938272,28.641975308641978,0)" xlink:href="#aZ"/><use transform="matrix(0.04938271604938272,0,0,0.04938271604938272,33.580246913580254,0)" xlink:href="#ae"/><use transform="matrix(0.04938271604938272,0,0,0.04938271604938272,43.4567901234568,0)" xlink:href="#ad"/><use transform="matrix(0.04938271604938272,0,0,0.04938271604938272,52.345679012345684,0)" xlink:href="#aZ"/><use transform="matrix(0.04938271604938272,0,0,0.04938271604938272,57.283950617283956,0)" xlink:href="#aY"/></g><path fill="#333" d="M67-162c32-53 139-36 121 50C175-51 163 2 97 4 68 4 52-11 42-31 38 6 28 39 22 75H-9l50-265h29c-1 10 0 20-3 28zm89 36c0-26-10-43-35-43-54 0-67 50-69 103-1 29 14 45 42 46 53 0 62-58 62-106" id="bM"/><g id="K"><use transform="matrix(0.04938271604938272,0,0,0.04938271604938272,0,0)" xlink:href="#bM"/><use transform="matrix(0.04938271604938272,0,0,0.04938271604938272,9.876543209876544,0)" xlink:href="#ah"/><use transform="matrix(0.04938271604938272,0,0,0.04938271604938272,19.75308641975309,0)" xlink:href="#ag"/><use transform="matrix(0.04938271604938272,0,0,0.04938271604938272,28.641975308641978,0)" xlink:href="#aY"/></g><g id="L"><use transform="matrix(0.04938271604938272,0,0,0.04938271604938272,0,0)" xlink:href="#ae"/><use transform="matrix(0.04938271604938272,0,0,0.04938271604938272,9.876543209876544,0)" xlink:href="#bc"/><use transform="matrix(0.04938271604938272,0,0,0.04938271604938272,13.777777777777779,0)" xlink:href="#aZ"/><use transform="matrix(0.04938271604938272,0,0,0.04938271604938272,18.71604938271605,0)" xlink:href="#aX"/><use transform="matrix(0.04938271604938272,0,0,0.04938271604938272,28.592592592592595,0)" xlink:href="#af"/><use transform="matrix(0.04938271604938272,0,0,0.04938271604938272,34.46913580246914,0)" xlink:href="#ae"/></g><path fill="#3a414a" d="M125-24c46 0 70-25 89-51l25 16C214-24 183 4 123 4 8 4-5-146 60-208c32-50 158-61 191-5 5 7 9 14 11 22l-32 10c-9-28-33-43-69-43-74 0-108 51-108 125 0 46 24 75 72 75" id="bN"/><g id="M"><use transform="matrix(0.05,0,0,0.05,0,0)" xlink:href="#bN"/><use transform="matrix(0.05,0,0,0.05,12.950000000000001,0)" xlink:href="#bk"/><use transform="matrix(0.05,0,0,0.05,22.950000000000003,0)" xlink:href="#bD"/><use transform="matrix(0.05,0,0,0.05,26.900000000000002,0)" xlink:href="#bm"/><use transform="matrix(0.05,0,0,0.05,35.900000000000006,0)" xlink:href="#bi"/><use transform="matrix(0.05,0,0,0.05,45.900000000000006,0)" xlink:href="#bD"/><use transform="matrix(0.05,0,0,0.05,49.85000000000001,0)" xlink:href="#bk"/><use transform="matrix(0.05,0,0,0.05,59.85,0)" xlink:href="#br"/></g><g id="N"><use transform="matrix(0.05,0,0,0.05,0,0)" xlink:href="#bF"/><use transform="matrix(0.05,0,0,0.05,5,0)" xlink:href="#bE"/><use transform="matrix(0.05,0,0,0.05,19.950000000000003,0)" xlink:href="#bN"/></g><path fill="#333" d="M219-77C219 17 104-2 11 0l48-248c73 2 169-15 169 57 0 38-24 54-60 60 29 5 51 21 51 54zm-26-111c0-44-62-31-105-33l-16 79c55 0 121 9 121-46zm-7 110c-1-49-69-36-119-38L50-27c61-1 137 12 136-51" id="bO"/><g id="O"><use transform="matrix(0.04938271604938272,0,0,0.04938271604938272,0,0)" xlink:href="#bO"/><use transform="matrix(0.04938271604938272,0,0,0.04938271604938272,11.851851851851853,0)" xlink:href="#aX"/><use transform="matrix(0.04938271604938272,0,0,0.04938271604938272,21.7283950617284,0)" xlink:href="#ag"/><use transform="matrix(0.04938271604938272,0,0,0.04938271604938272,30.617283950617285,0)" xlink:href="#ad"/><use transform="matrix(0.04938271604938272,0,0,0.04938271604938272,39.50617283950618,0)" xlink:href="#ae"/><use transform="matrix(0.04938271604938272,0,0,0.04938271604938272,49.38271604938272,0)" xlink:href="#af"/></g><g id="P"><use transform="matrix(0.04938271604938272,0,0,0.04938271604938272,0,0)" xlink:href="#ad"/><use transform="matrix(0.04938271604938272,0,0,0.04938271604938272,8.88888888888889,0)" xlink:href="#bc"/><use transform="matrix(0.04938271604938272,0,0,0.04938271604938272,12.790123456790125,0)" xlink:href="#ae"/><use transform="matrix(0.04938271604938272,0,0,0.04938271604938272,22.666666666666668,0)" xlink:href="#ag"/><use transform="matrix(0.04938271604938272,0,0,0.04938271604938272,31.555555555555557,0)" xlink:href="#ah"/></g><path fill="#333" d="M194-120c59 52 2 134-86 124-53-6-90-18-98-63l31-7c8 30 29 43 70 43 46 0 84-17 71-62-32-43-135-20-137-98-3-89 178-90 191-16l-30 9c-8-48-127-53-127 5 0 53 81 35 115 65" id="bP"/><g id="Q"><use transform="matrix(0.04938271604938272,0,0,0.04938271604938272,0,0)" xlink:href="#bP"/><use transform="matrix(0.04938271604938272,0,0,0.04938271604938272,11.851851851851853,0)" xlink:href="#aY"/><use transform="matrix(0.04938271604938272,0,0,0.04938271604938272,21.7283950617284,0)" xlink:href="#bc"/><use transform="matrix(0.04938271604938272,0,0,0.04938271604938272,25.629629629629633,0)" xlink:href="#ac"/><use transform="matrix(0.04938271604938272,0,0,0.04938271604938272,29.530864197530867,0)" xlink:href="#ad"/><use transform="matrix(0.04938271604938272,0,0,0.04938271604938272,38.41975308641976,0)" xlink:href="#ac"/><use transform="matrix(0.04938271604938272,0,0,0.04938271604938272,42.320987654320994,0)" xlink:href="#aZ"/><use transform="matrix(0.04938271604938272,0,0,0.04938271604938272,47.25925925925927,0)" xlink:href="#ae"/><use transform="matrix(0.04938271604938272,0,0,0.04938271604938272,57.135802469135804,0)" xlink:href="#af"/></g><g id="R"><use transform="matrix(0.04938271604938272,0,0,0.04938271604938272,0,0)" xlink:href="#bc"/><use transform="matrix(0.04938271604938272,0,0,0.04938271604938272,3.901234567901235,0)" xlink:href="#ac"/><use transform="matrix(0.04938271604938272,0,0,0.04938271604938272,7.80246913580247,0)" xlink:href="#ag"/><use transform="matrix(0.04938271604938272,0,0,0.04938271604938272,16.69135802469136,0)" xlink:href="#aZ"/><use transform="matrix(0.04938271604938272,0,0,0.04938271604938272,21.629629629629633,0)" xlink:href="#ae"/></g><g id="S"><use transform="matrix(0.04938271604938272,0,0,0.04938271604938272,0,0)" xlink:href="#ad"/><use transform="matrix(0.04938271604938272,0,0,0.04938271604938272,8.88888888888889,0)" xlink:href="#bc"/><use transform="matrix(0.04938271604938272,0,0,0.04938271604938272,12.790123456790125,0)" xlink:href="#ae"/><use transform="matrix(0.04938271604938272,0,0,0.04938271604938272,22.666666666666668,0)" xlink:href="#ag"/><use transform="matrix(0.04938271604938272,0,0,0.04938271604938272,31.555555555555557,0)" xlink:href="#ah"/><use transform="matrix(0.04938271604938272,0,0,0.04938271604938272,41.4320987654321,0)" xlink:href="#ag"/></g><path fill="#333" d="M119 0H84L31-248h34l41 218 126-218h36" id="bQ"/><g id="T"><use transform="matrix(0.04938271604938272,0,0,0.04938271604938272,0,0)" xlink:href="#bQ"/><use transform="matrix(0.04938271604938272,0,0,0.04938271604938272,11.209876543209878,0)" xlink:href="#ae"/><use transform="matrix(0.04938271604938272,0,0,0.04938271604938272,21.086419753086425,0)" xlink:href="#bc"/><use transform="matrix(0.04938271604938272,0,0,0.04938271604938272,24.98765432098766,0)" xlink:href="#ac"/><use transform="matrix(0.04938271604938272,0,0,0.04938271604938272,28.888888888888893,0)" xlink:href="#bd"/><use transform="matrix(0.04938271604938272,0,0,0.04938271604938272,38.76543209876544,0)" xlink:href="#ae"/><use transform="matrix(0.04938271604938272,0,0,0.04938271604938272,48.64197530864198,0)" xlink:href="#af"/></g><g id="U"><use transform="matrix(0.04938271604938272,0,0,0.04938271604938272,0,0)" xlink:href="#ad"/><use transform="matrix(0.04938271604938272,0,0,0.04938271604938272,8.88888888888889,0)" xlink:href="#bc"/><use transform="matrix(0.04938271604938272,0,0,0.04938271604938272,12.790123456790125,0)" xlink:href="#ae"/><use transform="matrix(0.04938271604938272,0,0,0.04938271604938272,22.666666666666668,0)" xlink:href="#ag"/><use transform="matrix(0.04938271604938272,0,0,0.04938271604938272,31.555555555555557,0)" xlink:href="#ah"/><use transform="matrix(0.04938271604938272,0,0,0.04938271604938272,41.4320987654321,0)" xlink:href="#ag"/></g><g id="V"><use transform="matrix(0.05,0,0,0.05,0,0)" xlink:href="#bm"/><use transform="matrix(0.05,0,0,0.05,9,0)" xlink:href="#bn"/><use transform="matrix(0.05,0,0,0.05,19,0)" xlink:href="#bo"/><use transform="matrix(0.05,0,0,0.05,29,0)" xlink:href="#bg"/><use transform="matrix(0.05,0,0,0.05,38,0)" xlink:href="#bi"/><use transform="matrix(0.05,0,0,0.05,48,0)" xlink:href="#bD"/><use transform="matrix(0.05,0,0,0.05,51.95,0)" xlink:href="#bj"/><use transform="matrix(0.05,0,0,0.05,56.95,0)" xlink:href="#bk"/></g><path fill="#3a414a" d="M11 0l48-248h34L50-27h125l-5 27H11" id="bR"/><g id="W"><use transform="matrix(0.05,0,0,0.05,0,0)" xlink:href="#bR"/><use transform="matrix(0.05,0,0,0.05,10,0)" xlink:href="#bq"/><use transform="matrix(0.05,0,0,0.05,13.949999999999998,0)" xlink:href="#bg"/><use transform="matrix(0.05,0,0,0.05,22.95,0)" xlink:href="#bj"/><use transform="matrix(0.05,0,0,0.05,27.950000000000003,0)" xlink:href="#bk"/><use transform="matrix(0.05,0,0,0.05,37.95,0)" xlink:href="#bl"/><use transform="matrix(0.05,0,0,0.05,47.95,0)" xlink:href="#bn"/></g><g id="X"><use transform="matrix(0.05,0,0,0.05,0,0)" xlink:href="#bm"/><use transform="matrix(0.05,0,0,0.05,9,0)" xlink:href="#bD"/><use transform="matrix(0.05,0,0,0.05,12.949999999999998,0)" xlink:href="#bk"/><use transform="matrix(0.05,0,0,0.05,22.95,0)" xlink:href="#bg"/><use transform="matrix(0.05,0,0,0.05,31.950000000000003,0)" xlink:href="#bf"/><use transform="matrix(0.05,0,0,0.05,41.95,0)" xlink:href="#bg"/></g><g id="Y"><use transform="matrix(0.04938271604938272,0,0,0.04938271604938272,0,0)" xlink:href="#bI"/><use transform="matrix(0.04938271604938272,0,0,0.04938271604938272,11.851851851851853,0)" xlink:href="#ag"/><use transform="matrix(0.04938271604938272,0,0,0.04938271604938272,20.74074074074074,0)" xlink:href="#ad"/><use transform="matrix(0.04938271604938272,0,0,0.04938271604938272,29.629629629629633,0)" xlink:href="#aY"/><use transform="matrix(0.04938271604938272,0,0,0.04938271604938272,39.50617283950618,0)" xlink:href="#aW"/><use transform="matrix(0.04938271604938272,0,0,0.04938271604938272,49.38271604938272,0)" xlink:href="#ah"/><use transform="matrix(0.04938271604938272,0,0,0.04938271604938272,59.25925925925927,0)" xlink:href="#af"/></g><g id="Z"><use transform="matrix(0.04938271604938272,0,0,0.04938271604938272,0,0)" xlink:href="#af"/><use transform="matrix(0.04938271604938272,0,0,0.04938271604938272,5.8765432098765435,0)" xlink:href="#ah"/><use transform="matrix(0.04938271604938272,0,0,0.04938271604938272,15.753086419753087,0)" xlink:href="#aW"/><use transform="matrix(0.04938271604938272,0,0,0.04938271604938272,25.629629629629633,0)" xlink:href="#ac"/><use transform="matrix(0.04938271604938272,0,0,0.04938271604938272,29.530864197530867,0)" xlink:href="#ag"/><use transform="matrix(0.04938271604938272,0,0,0.04938271604938272,38.41975308641976,0)" xlink:href="#aZ"/><use transform="matrix(0.04938271604938272,0,0,0.04938271604938272,43.35802469135803,0)" xlink:href="#af"/><use transform="matrix(0.04938271604938272,0,0,0.04938271604938272,49.23456790123458,0)" xlink:href="#aY"/></g></defs></g></svg>