<svg xmlns="http://www.w3.org/2000/svg" xmlns:xlink="http://www.w3.org/1999/xlink" xmlns:lucid="lucid" width="1973" height="1291.14"><g transform="translate(0 0)" lucid:page-tab-id="0_0"><path d="M0 0h1973v1291.14H0z" fill="#fff"/><path d="M260 348a8 8 0 0 1 8-8h507.7a8 8 0 0 1 8 8v304a8 8 0 0 1-8 8H268a8 8 0 0 1-8-8z" stroke="#333" fill-opacity="0"/><use xlink:href="#a" transform="matrix(1,0,0,1,268,348) translate(198.14999999999998 15.6)"/><path d="M1140.2 348a8 8 0 0 1 8-8H1592a8 8 0 0 1 8 8v304a8 8 0 0 1-8 8h-443.8a8 8 0 0 1-8-8z" stroke="#333" fill-opacity="0"/><use xlink:href="#b" transform="matrix(1,0,0,1,1148.2095886922298,348) translate(187.575 15.6)"/><path d="M557.4 89.55a8 8 0 0 1 8-8h836.75a8 8 0 0 1 8 8v25.15a8 8 0 0 1-8 8H565.4a8 8 0 0 1-8-8z" stroke="#000" stroke-opacity="0" stroke-width="2" fill="#fff" fill-opacity="0"/><use xlink:href="#c" transform="matrix(1,0,0,1,561.4000000000008,85.54503294639244) translate(228.05074074074076 25.782777777777778)"/><use xlink:href="#d" transform="matrix(1,0,0,1,561.4000000000008,85.54503294639244) translate(354.6458024691358 25.782777777777778)"/><use xlink:href="#e" transform="matrix(1,0,0,1,561.4000000000008,85.54503294639244) translate(392.4495061728395 25.782777777777778)"/><use xlink:href="#f" transform="matrix(1,0,0,1,561.4000000000008,85.54503294639244) translate(498.57666666666665 25.782777777777778)"/><use xlink:href="#g" transform="matrix(1,0,0,1,561.4000000000008,85.54503294639244) translate(514.5285185185185 25.782777777777778)"/><path d="M829.9 121.36h317.57M829.93 121.36h-1.03M1147.45 121.36h1.02" stroke="#a9afb8" stroke-width="2" fill="none"/><path d="M557.4 130.7a8 8 0 0 1 8-8h837.7a8 8 0 0 1 8 8v2.85a8 8 0 0 1-8 8H565.4a8 8 0 0 1-8-8z" stroke="#000" stroke-opacity="0" stroke-width="2" fill="#fff" fill-opacity="0"/><path d="M583.84 576.02a8 8 0 0 1 11.32 0l8.68 8.7a8 8 0 0 1 0 11.3l-8.68 8.7a8 8 0 0 1-11.32 0l-8.68-8.7a8 8 0 0 1 0-11.3z" stroke="#333" fill="#fff"/><path d="M490.5 590.37h65.43" stroke="#333" fill="none"/><path d="M490.5 590.87h-.5v-1h.5z" stroke="#333" stroke-width=".05" fill="#333"/><path d="M570.7 590.37L556.42 595v-9.27z" stroke="#333" fill="#333"/><path d="M671.62 590.87H607.2v-1h64.42zm71.5 0h-48.55v-1h48.55z" stroke="#333" stroke-width=".05" fill="#333"/><path d="M607.2 590.87h-.55l.04-.5-.05-.5h.55z" fill="#333"/><path d="M607.23 590.9h-.6l.03-.53-.04-.53h.6zm-.55-1l.03.47-.02.47h.5v-.95z" stroke="#333" stroke-width=".05" fill="#333"/><path d="M757.88 590.37L743.62 595v-9.27z" fill="#333"/><path d="M759.5 590.37l-16.38 5.32v-10.66zm-15.38 3.94l12.14-3.93-12.14-3.95z" stroke="#333" stroke-width=".05" fill="#333"/><use xlink:href="#h" transform="matrix(1,0,0,1,671.618747424363,579.566078617738) translate(0.005000000000000782 14.4)"/><path d="M1780 1040c0 11.05-8.95 20-20 20s-20-8.95-20-20 8.95-20 20-20 20 8.95 20 20z" stroke="#333" fill="#fff"/><path d="M1772 1040c0 6.63-5.37 12-12 12s-12-5.37-12-12 5.37-12 12-12 12 5.37 12 12z" stroke="#333"/><path d="M589.5 572.72h-1v-39.88h1zm.5-85.47l-.02 24h-1l.02-24z" stroke="#333" stroke-width=".05" fill="#333"/><path d="M589.5 573.18l-1 .08v-.56h1z" fill="#333"/><path d="M589.52 573.2l-1.05.08v-.6h1.05zm-1-.47v.5l.95-.07v-.43z" stroke="#333" stroke-width=".05" fill="#333"/><path d="M594.14 486.75h-9.28l4.64-14.27z" fill="#333"/><path d="M594.82 487.25h-10.64l5.32-16.38zm-9.27-1h7.9l-3.95-12.15z" stroke="#333" stroke-width=".05" fill="#333"/><use xlink:href="#i" transform="matrix(1,0,0,1,581.2748440730444,511.2420161098989) translate(0.004999999999999893 14.4)"/><path d="M1339.96 383.66c-8.84 0-16 7.17-16 16v48c0 8.84 7.16 16 16 16h128c8.84 0 16-7.16 16-16v-48c0-8.83-7.16-16-16-16z" stroke="#333" fill="#fff"/><use xlink:href="#j" transform="matrix(1,0,0,1,1331.9585126703182,391.6616065093518) translate(46.025 24.799999999999997)"/><use xlink:href="#k" transform="matrix(1,0,0,1,1331.9585126703182,391.6616065093518) translate(27.074999999999996 46.4)"/><path d="M1021 498.3h102.37" stroke="#333" fill="none"/><path d="M1021 498.8h-.5v-1h.5z" stroke="#333" stroke-width=".05" fill="#333"/><path d="M1138.14 498.3l-14.27 4.62v-9.27z" stroke="#333" fill="#333"/><path d="M1398.3 529.58a8 8 0 0 1 11.32 0l8.68 8.7a8 8 0 0 1 0 11.3l-8.68 8.7a8 8 0 0 1-11.32 0l-8.68-8.7a8 8 0 0 1 0-11.3z" stroke="#333" fill="#fff"/><path d="M1403.96 464.66v45.7" stroke="#333" fill="none"/><path d="M1404.46 464.67h-1v-.5h1z" stroke="#333" stroke-width=".05" fill="#333"/><path d="M1403.96 525.12l-4.64-14.27h9.27z" stroke="#333" fill="#333"/><path d="M1404.46 621.34h-1v-24.97h1zm0-46.57h-1V561.6h1z" stroke="#333" stroke-width=".05" fill="#333"/><path d="M1403.96 561.1l.5-.03v.55h-1v-.55z" fill="#333"/><path d="M1403.96 561.08l.52-.04v.6h-1.05v-.6zm-.48.52h.95v-.5l-.47.03-.48-.03z" stroke="#333" stroke-width=".05" fill="#333"/><path d="M1403.96 636.1l-4.64-14.26h9.27z" fill="#333"/><path d="M1403.96 637.72l-5.32-16.38h10.64zm-3.95-15.38l3.96 12.15 3.95-12.16z" stroke="#333" stroke-width=".05" fill="#333"/><use xlink:href="#h" transform="matrix(1,0,0,1,1392.4835126703183,574.7695925563845) translate(0.005000000000000782 14.4)"/><path d="M1451.18 544.42h-29.53v-1h29.53zm29.6 0h-13.65v-1h13.64z" stroke="#333" stroke-width=".05" fill="#333"/><path d="M1421.66 544.42h-.55l.05-.5-.04-.5h.56z" fill="#333"/><path d="M1421.68 544.45h-.6l.04-.53-.04-.52h.6zm-.55-1l.04.47-.04.48h.5v-.95z" stroke="#333" stroke-width=".05" fill="#333"/><path d="M1495.54 543.92l-14.27 4.64v-9.27z" fill="#333"/><path d="M1497.16 543.92l-16.4 5.33V538.6zm-15.4 3.95l12.16-3.95-12.15-3.94z" stroke="#333" stroke-width=".05" fill="#333"/><use xlink:href="#i" transform="matrix(1,0,0,1,1451.1772600946815,533.1221099855665) translate(0.004999999999999893 14.4)"/><path d="M1760 541v462.12" stroke="#333" fill="none"/><path d="M1760.5 541h-1v-.5h1z" stroke="#333" stroke-width=".05" fill="#333"/><path d="M1760 1017.88l-4.64-14.26h9.28z" stroke="#333" fill="#333"/><path d="M345.5 550.37c-8.84 0-16 7.16-16 16v48c0 8.83 7.16 16 16 16h128c8.84 0 16-7.17 16-16v-48c0-8.84-7.16-16-16-16z" stroke="#333" fill="#fff"/><use xlink:href="#l" transform="matrix(1,0,0,1,337.5,558.3660786177379) translate(19.074999999999996 35.6)"/><use xlink:href="#m" transform="matrix(1,0,0,1,337.5,558.3660786177379) translate(69.975 35.6)"/><path d="M230 590.37c0 11.04-8.95 20-20 20s-20-8.96-20-20c0-11.05 8.95-20 20-20s20 8.95 20 20z" stroke="#333"/><path d="M231 590.37h81.62" stroke="#333" fill="none"/><path d="M231 590.87h-.56l.06-.48-.02-.53h.53z" stroke="#333" stroke-width=".05" fill="#333"/><path d="M327.38 590.37L313.12 595v-9.27z" stroke="#333" fill="#333"/><path d="M609.5 450.37c0 11.04-8.95 20-20 20s-20-8.96-20-20c0-11.05 8.95-20 20-20s20 8.95 20 20z" stroke="#333" fill="#fff"/><path d="M601.5 450.37c0 6.62-5.37 12-12 12s-12-5.38-12-12c0-6.63 5.37-12 12-12s12 5.37 12 12z" stroke="#333"/><path d="M800 590.37c0 11.04-8.95 20-20 20s-20-8.96-20-20c0-11.05 8.95-20 20-20s20 8.95 20 20z" stroke="#333" fill="#fff"/><path d="M765.86 576.22l28.28 28.3m0-28.3l-28.28 28.3M801 590.37h127a12 12 0 0 1 12 12v205.5" stroke="#333" fill="none"/><path d="M801 590.87h-.56l.06-.48-.02-.53h.53z" stroke="#333" stroke-width=".05" fill="#333"/><path d="M940 822.63l-4.64-14.26h9.28z" stroke="#333" fill="#333"/><path d="M843.12 498.3h-58.47" stroke="#333" fill="none"/><path d="M857.88 498.3l-14.26 4.62v-9.27z" stroke="#333" fill="#333"/><path d="M784.66 498.8h-.5v-1h.5z" stroke="#333" stroke-width=".05" fill="#333"/><path d="M876 458.3c-8.84 0-16 7.15-16 16v48c0 8.82 7.16 16 16 16h128c8.84 0 16-7.18 16-16v-48c0-8.85-7.16-16-16-16z" stroke="#333" fill="#fff"/><use xlink:href="#n" transform="matrix(1,0,0,1,868,466.2869945301828) translate(31 35.6)"/><path d="M1240.26 423.66c0 11.05-8.96 20-20 20-11.05 0-20-8.95-20-20 0-11.04 8.95-20 20-20 11.04 0 20 8.96 20 20z" stroke="#333"/><path d="M1241.26 423.66h65.8" stroke="#333" fill="none"/><path d="M1241.27 424.16h-.57l.06-.48-.02-.52h.53z" stroke="#333" stroke-width=".05" fill="#333"/><path d="M1321.84 423.66l-14.27 4.64v-9.27z" stroke="#333" fill="#333"/><path d="M1423.96 658.22c0 11.05-8.96 20-20 20-11.05 0-20-8.95-20-20 0-11.04 8.95-20 20-20 11.04 0 20 8.96 20 20z" stroke="#333" fill="#fff"/><path d="M1389.8 644.08l28.3 28.3m0-28.3l-28.3 28.3M1403.96 679.22v173.53a12 12 0 0 1-12 12h-355.08" stroke="#333" fill="none"/><path d="M1403.94 678.72h.52v.52h-1v-.57z" stroke="#333" stroke-width=".05" fill="#333"/><path d="M1022.12 864.75l14.26-4.63v9.27z" stroke="#333" fill="#333"/><path d="M1537.66 543.92c0 11.05-8.96 20-20 20-11.05 0-20-8.95-20-20 0-11.04 8.95-20 20-20 11.04 0 20 8.96 20 20z" stroke="#333" fill="#fff"/><path d="M1529.66 543.92c0 6.63-5.37 12-12 12s-12-5.37-12-12 5.37-12 12-12 12 5.37 12 12z" stroke="#333"/><path d="M1696 460c-8.84 0-16 7.16-16 16v48c0 8.84 7.16 16 16 16h128c8.84 0 16-7.16 16-16v-48c0-8.84-7.16-16-16-16z" stroke="#333" fill="#fff"/><use xlink:href="#o" transform="matrix(1,0,0,1,1688,468) translate(28.574999999999996 35.6)"/><path d="M1601.02 500h62.1" stroke="#333" fill="none"/><path d="M1601.03 500.5h-.58v-1h.58z" stroke="#333" stroke-width=".05" fill="#333"/><path d="M1677.88 500l-14.26 4.64v-9.28z" stroke="#333" fill="#333"/><path d="M200 180.3a8 8 0 0 1 8-8h1584a8 8 0 0 1 8 8v84a8 8 0 0 1-8 8H208a8 8 0 0 1-8-8z" stroke="#333" fill="#fff"/><use xlink:href="#p" transform="matrix(1,0,0,1,205,177.311042266551) translate(730.6 48.15)"/><use xlink:href="#q" transform="matrix(1,0,0,1,205,177.311042266551) translate(808.45 48.15)"/><path d="M876 824.75c-8.84 0-16 7.16-16 16v48c0 8.84 7.16 16 16 16h128c8.84 0 16-7.16 16-16v-48c0-8.84-7.16-16-16-16z" stroke="#333" fill="#fff"/><use xlink:href="#r" transform="matrix(1,0,0,1,868,832.7511011120056) translate(33.075 35.6)"/><path d="M859 864.75H443.07" stroke="#333" fill="none"/><path d="M859.5 865.25h-.5v-1h.5z" stroke="#333" stroke-width=".05" fill="#333"/><path d="M428.3 864.75l14.27-4.63v9.27z" stroke="#333" fill="#333"/><path d="M403.84 850.4a8 8 0 0 1 11.32 0l8.68 8.7a8 8 0 0 1 0 11.3l-8.68 8.7a8 8 0 0 1-11.32 0l-8.68-8.7a8 8 0 0 1 0-11.3z" stroke="#333" fill="#fff"/><path d="M410 847.06h-1V750h1zm0-118.65h-1v-81.15h1z" stroke="#333" stroke-width=".05" fill="#333"/><path d="M410 847.6l-.5-.04-.5.04v-.55h1z" fill="#333"/><path d="M410.02 847.63l-.52-.04-.52.03v-.6h1.04zm-1-.55v.5l.48-.04.48.04v-.5z" stroke="#333" stroke-width=".05" fill="#333"/><path d="M414.14 646.75h-9.28l4.64-14.26z" fill="#333"/><path d="M414.82 647.25h-10.64l5.32-16.38zm-9.27-1h7.9l-3.95-12.15z" stroke="#333" stroke-width=".05" fill="#333"/><use xlink:href="#s" transform="matrix(1,0,0,1,401,728.4146865135531) translate(0.005000000000000782 14.4)"/><path d="M1723.12 1039.5v1l-716.18-.08v-1zM410 1027.98l.14 1.82.42 1.75.7 1.67.94 1.54 1.17 1.37 1.37 1.17 1.54.95 1.67.7 1.73.4 564.3.07v1l-564.42-.07-1.92-.46-1.82-.76-1.67-1.03-1.5-1.26-1.26-1.5-1.04-1.66-.75-1.82-.45-1.9-.15-1.94V882.44h1z" stroke="#333" stroke-width=".05" fill="#333"/><path d="M409.5 881.94l.5-.04v.55h-1v-.55z" fill="#333"/><path d="M409.5 881.9l.52-.03v.6h-1.04v-.6zm-.48.53h.96v-.5l-.48.03-.48-.03z" stroke="#333" stroke-width=".05" fill="#333"/><path d="M1737.88 1040l-14.26 4.64v-9.28z" fill="#333"/><path d="M1739.5 1040l-16.38 5.32v-10.64zm-15.38 3.95l12.14-3.95-12.14-3.95z" stroke="#333" stroke-width=".05" fill="#333"/><g><use xlink:href="#h" transform="matrix(1,0,0,1,983.9942979803659,1029.2) translate(0.005000000000000782 14.4)"/></g><defs><path fill="#333" d="M30-248c118-7 216 8 213 122C240-48 200 0 122 0H30v-248zM63-27c89 8 146-16 146-99s-60-101-146-95v194" id="t"/><path fill="#333" d="M24-231v-30h32v30H24zM24 0v-190h32V0H24" id="u"/><path fill="#333" d="M135-143c-3-34-86-38-87 0 15 53 115 12 119 90S17 21 10-45l28-5c4 36 97 45 98 0-10-56-113-15-118-90-4-57 82-63 122-42 12 7 21 19 24 35" id="v"/><path fill="#333" d="M115-194c55 1 70 41 70 98S169 2 115 4C84 4 66-9 55-30l1 105H24l-1-265h31l2 30c10-21 28-34 59-34zm-8 174c40 0 45-34 45-75s-6-73-45-74c-42 0-51 32-51 76 0 43 10 73 51 73" id="w"/><path fill="#333" d="M100-194c62-1 85 37 85 99 1 63-27 99-86 99S16-35 15-95c0-66 28-99 85-99zM99-20c44 1 53-31 53-75 0-43-8-75-51-75s-53 32-53 75 10 74 51 75" id="x"/><path fill="#333" d="M117-194c89-4 53 116 60 194h-32v-121c0-31-8-49-39-48C34-167 62-67 57 0H25l-1-190h30c1 10-1 24 2 32 11-22 29-35 61-36" id="y"/><path fill="#333" d="M115-194c53 0 69 39 70 98 0 66-23 100-70 100C84 3 66-7 56-30L54 0H23l1-261h32v101c10-23 28-34 59-34zm-8 174c40 0 45-34 45-75 0-40-5-75-45-74-42 0-51 32-51 76 0 43 10 73 51 73" id="z"/><path fill="#333" d="M24 0v-261h32V0H24" id="A"/><path fill="#333" d="M85-194c31 0 48 13 60 33l-1-100h32l1 261h-30c-2-10 0-23-3-31C134-8 116 4 85 4 32 4 16-35 15-94c0-66 23-100 70-100zm9 24c-40 0-46 34-46 75 0 40 6 74 45 74 42 0 51-32 51-76 0-42-9-74-50-73" id="B"/><path fill="#333" d="M141-36C126-15 110 5 73 4 37 3 15-17 15-53c-1-64 63-63 125-63 3-35-9-54-41-54-24 1-41 7-42 31l-33-3c5-37 33-52 76-52 45 0 72 20 72 64v82c-1 20 7 32 28 27v20c-31 9-61-2-59-35zM48-53c0 20 12 33 32 33 41-3 63-29 60-74-43 2-92-5-92 41" id="C"/><g id="a"><use transform="matrix(0.05,0,0,0.05,0,0)" xlink:href="#t"/><use transform="matrix(0.05,0,0,0.05,12.950000000000001,0)" xlink:href="#u"/><use transform="matrix(0.05,0,0,0.05,16.900000000000002,0)" xlink:href="#v"/><use transform="matrix(0.05,0,0,0.05,25.900000000000002,0)" xlink:href="#w"/><use transform="matrix(0.05,0,0,0.05,35.900000000000006,0)" xlink:href="#x"/><use transform="matrix(0.05,0,0,0.05,45.900000000000006,0)" xlink:href="#y"/><use transform="matrix(0.05,0,0,0.05,55.900000000000006,0)" xlink:href="#u"/><use transform="matrix(0.05,0,0,0.05,59.85,0)" xlink:href="#z"/><use transform="matrix(0.05,0,0,0.05,69.85000000000001,0)" xlink:href="#u"/><use transform="matrix(0.05,0,0,0.05,73.80000000000001,0)" xlink:href="#A"/><use transform="matrix(0.05,0,0,0.05,77.75000000000001,0)" xlink:href="#u"/><use transform="matrix(0.05,0,0,0.05,81.70000000000002,0)" xlink:href="#B"/><use transform="matrix(0.05,0,0,0.05,91.70000000000002,0)" xlink:href="#C"/><use transform="matrix(0.05,0,0,0.05,101.70000000000002,0)" xlink:href="#B"/></g><path fill="#333" d="M233-177c-1 41-23 64-60 70L243 0h-38l-65-103H63V0H30v-248c88 3 205-21 203 71zM63-129c60-2 137 13 137-47 0-61-80-42-137-45v92" id="D"/><path fill="#333" d="M100-194c63 0 86 42 84 106H49c0 40 14 67 53 68 26 1 43-12 49-29l28 8c-11 28-37 45-77 45C44 4 14-33 15-96c1-61 26-98 85-98zm52 81c6-60-76-77-97-28-3 7-6 17-6 28h103" id="E"/><path fill="#333" d="M108 0H70L1-190h34L89-25l56-165h34" id="F"/><path fill="#333" d="M100-194c62-1 85 37 85 99 1 63-27 99-86 99S16-35 15-95c0-66 28-99 85-99zM99-20c44 1 53-31 53-75 0-43-8-75-51-75s-53 32-53 75 10 74 51 75zM76-211c8-23 27-35 38-54h36v5l-58 49H76" id="G"/><g id="b"><use transform="matrix(0.05,0,0,0.05,0,0)" xlink:href="#D"/><use transform="matrix(0.05,0,0,0.05,12.950000000000001,0)" xlink:href="#E"/><use transform="matrix(0.05,0,0,0.05,22.950000000000003,0)" xlink:href="#F"/><use transform="matrix(0.05,0,0,0.05,31.950000000000003,0)" xlink:href="#u"/><use transform="matrix(0.05,0,0,0.05,35.900000000000006,0)" xlink:href="#v"/><use transform="matrix(0.05,0,0,0.05,44.900000000000006,0)" xlink:href="#u"/><use transform="matrix(0.05,0,0,0.05,48.85000000000001,0)" xlink:href="#G"/><use transform="matrix(0.05,0,0,0.05,58.85,0)" xlink:href="#y"/></g><path d="M24-248c120-7 223 5 221 122C244-46 201 0 124 0H24v-248zM76-40c74 7 117-18 117-86 0-67-45-88-117-82v168" id="H"/><path d="M25-224v-37h50v37H25zM25 0v-190h50V0H25" id="I"/><path d="M133-34C117-15 103 5 69 4 32 3 11-16 11-54c-1-60 55-63 116-61 1-26-3-47-28-47-18 1-26 9-28 27l-52-2c7-38 36-58 82-57s74 22 75 68l1 82c-1 14 12 18 25 15v27c-30 8-71 5-69-32zm-48 3c29 0 43-24 42-57-32 0-66-3-65 30 0 17 8 27 23 27" id="J"/><path d="M195-6C206 82 75 100 31 46c-4-6-6-13-8-21l49-6c3 16 16 24 34 25 40 0 42-37 40-79-11 22-30 35-61 35-53 0-70-43-70-97 0-56 18-96 73-97 30 0 46 14 59 34l2-30h47zm-90-29c32 0 41-27 41-63 0-35-9-62-40-62-32 0-39 29-40 63 0 36 9 62 39 62" id="K"/><path d="M135-150c-39-12-60 13-60 57V0H25l-1-190h47c2 13-1 29 3 40 6-28 27-53 61-41v41" id="L"/><path d="M220-157c-53 9-28 100-34 157h-49v-107c1-27-5-49-29-50C55-147 81-57 75 0H25l-1-190h47c2 12-1 28 3 38 10-53 101-56 108 0 13-22 24-43 59-42 82 1 51 116 57 194h-49v-107c-1-25-5-48-29-50" id="M"/><g id="c"><use transform="matrix(0.0728395061728395,0,0,0.0728395061728395,0,0)" xlink:href="#H"/><use transform="matrix(0.0728395061728395,0,0,0.0728395061728395,18.86543209876543,0)" xlink:href="#I"/><use transform="matrix(0.0728395061728395,0,0,0.0728395061728395,26.14938271604938,0)" xlink:href="#J"/><use transform="matrix(0.0728395061728395,0,0,0.0728395061728395,40.717283950617286,0)" xlink:href="#K"/><use transform="matrix(0.0728395061728395,0,0,0.0728395061728395,56.66913580246913,0)" xlink:href="#L"/><use transform="matrix(0.0728395061728395,0,0,0.0728395061728395,66.86666666666666,0)" xlink:href="#J"/><use transform="matrix(0.0728395061728395,0,0,0.0728395061728395,81.43456790123457,0)" xlink:href="#M"/><use transform="matrix(0.0728395061728395,0,0,0.0728395061728395,104.7432098765432,0)" xlink:href="#J"/></g><path d="M88-194c31-1 46 15 58 34l-1-101h50l1 261h-48c-2-10 0-23-3-31C134-8 116 4 84 4 32 4 16-41 15-95c0-56 19-97 73-99zm17 164c33 0 40-30 41-66 1-37-9-64-41-64s-38 30-39 65c0 43 13 65 39 65" id="N"/><path d="M185-48c-13 30-37 53-82 52C43 2 14-33 14-96s30-98 90-98c62 0 83 45 84 108H66c0 31 8 55 39 56 18 0 30-7 34-22zm-45-69c5-46-57-63-70-21-2 6-4 13-4 21h74" id="O"/><g id="d"><use transform="matrix(0.0728395061728395,0,0,0.0728395061728395,0,0)" xlink:href="#N"/><use transform="matrix(0.0728395061728395,0,0,0.0728395061728395,15.95185185185185,0)" xlink:href="#O"/></g><path d="M137-138c1-29-70-34-71-4 15 46 118 7 119 86 1 83-164 76-172 9l43-7c4 19 20 25 44 25 33 8 57-30 24-41C81-84 22-81 20-136c-2-80 154-74 161-7" id="P"/><path d="M115-3C79 11 28 4 28-45v-112H4v-33h27l15-45h31v45h36v33H77v99c-1 23 16 31 38 25v30" id="Q"/><path d="M110-194c64 0 96 36 96 99 0 64-35 99-97 99-61 0-95-36-95-99 0-62 34-99 96-99zm-1 164c35 0 45-28 45-65 0-40-10-65-43-65-34 0-45 26-45 65 0 36 10 65 43 65" id="R"/><g id="e"><use transform="matrix(0.0728395061728395,0,0,0.0728395061728395,0,0)" xlink:href="#O"/><use transform="matrix(0.0728395061728395,0,0,0.0728395061728395,14.5679012345679,0)" xlink:href="#P"/><use transform="matrix(0.0728395061728395,0,0,0.0728395061728395,29.1358024691358,0)" xlink:href="#Q"/><use transform="matrix(0.0728395061728395,0,0,0.0728395061728395,37.803703703703704,0)" xlink:href="#J"/><use transform="matrix(0.0728395061728395,0,0,0.0728395061728395,52.3716049382716,0)" xlink:href="#N"/><use transform="matrix(0.0728395061728395,0,0,0.0728395061728395,68.32345679012346,0)" xlink:href="#R"/><use transform="matrix(0.0728395061728395,0,0,0.0728395061728395,84.2753086419753,0)" xlink:href="#P"/></g><path d="M14-72v-43h91v43H14" id="S"/><use transform="matrix(0.0728395061728395,0,0,0.0728395061728395,0,0)" xlink:href="#S" id="f"/><path d="M67-125c0 54 23 88 75 88 28 0 53-7 68-21v-34h-60v-39h108v91C232-14 192 4 140 4 58 4 20-42 15-125 8-236 126-280 215-234c19 10 29 26 37 47l-47 15c-11-23-29-39-63-39-53 1-75 33-75 86" id="T"/><path d="M123 10C108 53 80 86 19 72V37c35 8 53-11 59-39L3-190h52l48 148c12-52 28-100 44-148h51" id="U"/><path d="M199 0l-22-63H83L61 0H9l90-248h61L250 0h-51zm-33-102l-36-108c-10 38-24 72-36 108h72" id="V"/><path d="M135-194c53 0 70 44 70 98 0 56-19 98-73 100-31 1-45-17-59-34 3 33 2 69 2 105H25l-1-265h48c2 10 0 23 3 31 11-24 29-35 60-35zM114-30c33 0 39-31 40-66 0-38-9-64-40-64-56 0-55 130 0 130" id="W"/><g id="g"><use transform="matrix(0.0728395061728395,0,0,0.0728395061728395,0,0)" xlink:href="#T"/><use transform="matrix(0.0728395061728395,0,0,0.0728395061728395,20.39506172839506,0)" xlink:href="#U"/><use transform="matrix(0.0728395061728395,0,0,0.0728395061728395,34.96296296296296,0)" xlink:href="#M"/><use transform="matrix(0.0728395061728395,0,0,0.0728395061728395,58.2716049382716,0)" xlink:href="#V"/><use transform="matrix(0.0728395061728395,0,0,0.0728395061728395,77.13703703703703,0)" xlink:href="#W"/><use transform="matrix(0.0728395061728395,0,0,0.0728395061728395,93.08888888888889,0)" xlink:href="#W"/></g><path fill="#333" d="M190 0L58-211 59 0H30v-248h39L202-35l-2-213h31V0h-41" id="X"/><g id="h"><use transform="matrix(0.05,0,0,0.05,0,0)" xlink:href="#X"/><use transform="matrix(0.05,0,0,0.05,12.950000000000001,0)" xlink:href="#x"/></g><path fill="#333" d="M185-189c-5-48-123-54-124 2 14 75 158 14 163 119 3 78-121 87-175 55-17-10-28-26-33-46l33-7c5 56 141 63 141-1 0-78-155-14-162-118-5-82 145-84 179-34 5 7 8 16 11 25" id="Y"/><g id="i"><use transform="matrix(0.05,0,0,0.05,0,0)" xlink:href="#Y"/><use transform="matrix(0.05,0,0,0.05,12,0)" xlink:href="#u"/></g><path fill="#333" d="M212-179c-10-28-35-45-73-45-59 0-87 40-87 99 0 60 29 101 89 101 43 0 62-24 78-52l27 14C228-24 195 4 139 4 59 4 22-46 18-125c-6-104 99-153 187-111 19 9 31 26 39 46" id="Z"/><path fill="#333" d="M84 4C-5 8 30-112 23-190h32v120c0 31 7 50 39 49 72-2 45-101 50-169h31l1 190h-30c-1-10 1-25-2-33-11 22-28 36-60 37" id="aa"/><g id="j"><use transform="matrix(0.05,0,0,0.05,0,0)" xlink:href="#Z"/><use transform="matrix(0.05,0,0,0.05,12.950000000000001,0)" xlink:href="#aa"/><use transform="matrix(0.05,0,0,0.05,22.950000000000003,0)" xlink:href="#w"/><use transform="matrix(0.05,0,0,0.05,32.95,0)" xlink:href="#x"/><use transform="matrix(0.05,0,0,0.05,42.95,0)" xlink:href="#v"/></g><g id="k"><use transform="matrix(0.05,0,0,0.05,0,0)" xlink:href="#B"/><use transform="matrix(0.05,0,0,0.05,10,0)" xlink:href="#u"/><use transform="matrix(0.05,0,0,0.05,13.949999999999998,0)" xlink:href="#v"/><use transform="matrix(0.05,0,0,0.05,22.95,0)" xlink:href="#w"/><use transform="matrix(0.05,0,0,0.05,32.95,0)" xlink:href="#x"/><use transform="matrix(0.05,0,0,0.05,42.95,0)" xlink:href="#y"/><use transform="matrix(0.05,0,0,0.05,52.95,0)" xlink:href="#u"/><use transform="matrix(0.05,0,0,0.05,56.900000000000006,0)" xlink:href="#z"/><use transform="matrix(0.05,0,0,0.05,66.9,0)" xlink:href="#A"/><use transform="matrix(0.05,0,0,0.05,70.85000000000001,0)" xlink:href="#E"/><use transform="matrix(0.05,0,0,0.05,80.85000000000001,0)" xlink:href="#v"/></g><g id="l"><use transform="matrix(0.05,0,0,0.05,0,0)" xlink:href="#Z"/><use transform="matrix(0.05,0,0,0.05,12.950000000000001,0)" xlink:href="#A"/><use transform="matrix(0.05,0,0,0.05,16.900000000000002,0)" xlink:href="#C"/><use transform="matrix(0.05,0,0,0.05,26.900000000000002,0)" xlink:href="#v"/><use transform="matrix(0.05,0,0,0.05,35.900000000000006,0)" xlink:href="#E"/></g><path fill="#333" d="M96-169c-40 0-48 33-48 73s9 75 48 75c24 0 41-14 43-38l32 2c-6 37-31 61-74 61-59 0-76-41-82-99-10-93 101-131 147-64 4 7 5 14 7 22l-32 3c-4-21-16-35-41-35" id="ab"/><path fill="#333" d="M114-163C36-179 61-72 57 0H25l-1-190h30c1 12-1 29 2 39 6-27 23-49 58-41v29" id="ac"/><g id="m"><use transform="matrix(0.05,0,0,0.05,0,0)" xlink:href="#ab"/><use transform="matrix(0.05,0,0,0.05,9,0)" xlink:href="#ac"/><use transform="matrix(0.05,0,0,0.05,14.949999999999998,0)" xlink:href="#E"/><use transform="matrix(0.05,0,0,0.05,24.95,0)" xlink:href="#C"/><use transform="matrix(0.05,0,0,0.05,34.95,0)" xlink:href="#B"/><use transform="matrix(0.05,0,0,0.05,44.95,0)" xlink:href="#C"/></g><path fill="#333" d="M205 0l-28-72H64L36 0H1l101-248h38L239 0h-34zm-38-99l-47-123c-12 45-31 82-46 123h93" id="ad"/><path fill="#333" d="M177-190C167-65 218 103 67 71c-23-6-38-20-44-43l32-5c15 47 100 32 89-28v-30C133-14 115 1 83 1 29 1 15-40 15-95c0-56 16-97 71-98 29-1 48 16 59 35 1-10 0-23 2-32h30zM94-22c36 0 50-32 50-73 0-42-14-75-50-75-39 0-46 34-46 75s6 73 46 73" id="ae"/><g id="n"><use transform="matrix(0.05,0,0,0.05,0,0)" xlink:href="#ad"/><use transform="matrix(0.05,0,0,0.05,12,0)" xlink:href="#ae"/><use transform="matrix(0.05,0,0,0.05,22,0)" xlink:href="#E"/><use transform="matrix(0.05,0,0,0.05,32,0)" xlink:href="#y"/><use transform="matrix(0.05,0,0,0.05,42,0)" xlink:href="#B"/><use transform="matrix(0.05,0,0,0.05,52,0)" xlink:href="#C"/><use transform="matrix(0.05,0,0,0.05,62,0)" xlink:href="#B"/><use transform="matrix(0.05,0,0,0.05,72,0)" xlink:href="#C"/></g><path fill="#333" d="M59-47c-2 24 18 29 38 22v24C64 9 27 4 27-40v-127H5v-23h24l9-43h21v43h35v23H59v120" id="af"/><g id="o"><use transform="matrix(0.05,0,0,0.05,0,0)" xlink:href="#D"/><use transform="matrix(0.05,0,0,0.05,12.950000000000001,0)" xlink:href="#E"/><use transform="matrix(0.05,0,0,0.05,22.950000000000003,0)" xlink:href="#ae"/><use transform="matrix(0.05,0,0,0.05,32.95,0)" xlink:href="#u"/><use transform="matrix(0.05,0,0,0.05,36.900000000000006,0)" xlink:href="#v"/><use transform="matrix(0.05,0,0,0.05,45.900000000000006,0)" xlink:href="#af"/><use transform="matrix(0.05,0,0,0.05,50.900000000000006,0)" xlink:href="#ac"/><use transform="matrix(0.05,0,0,0.05,56.85,0)" xlink:href="#C"/><use transform="matrix(0.05,0,0,0.05,66.85000000000001,0)" xlink:href="#B"/><use transform="matrix(0.05,0,0,0.05,76.85000000000001,0)" xlink:href="#x"/></g><g id="p"><use transform="matrix(0.05,0,0,0.05,0,0)" xlink:href="#D"/><use transform="matrix(0.05,0,0,0.05,12.950000000000001,0)" xlink:href="#E"/><use transform="matrix(0.05,0,0,0.05,22.950000000000003,0)" xlink:href="#v"/><use transform="matrix(0.05,0,0,0.05,31.950000000000003,0)" xlink:href="#E"/><use transform="matrix(0.05,0,0,0.05,41.95,0)" xlink:href="#ac"/><use transform="matrix(0.05,0,0,0.05,47.900000000000006,0)" xlink:href="#F"/><use transform="matrix(0.05,0,0,0.05,56.900000000000006,0)" xlink:href="#C"/><use transform="matrix(0.05,0,0,0.05,66.9,0)" xlink:href="#ac"/></g><g id="q"><use transform="matrix(0.05,0,0,0.05,0,0)" xlink:href="#ab"/><use transform="matrix(0.05,0,0,0.05,9,0)" xlink:href="#A"/><use transform="matrix(0.05,0,0,0.05,12.949999999999998,0)" xlink:href="#C"/><use transform="matrix(0.05,0,0,0.05,22.95,0)" xlink:href="#v"/><use transform="matrix(0.05,0,0,0.05,31.950000000000003,0)" xlink:href="#E"/><use transform="matrix(0.05,0,0,0.05,41.95,0)" xlink:href="#v"/></g><g id="r"><use transform="matrix(0.05,0,0,0.05,0,0)" xlink:href="#Y"/><use transform="matrix(0.05,0,0,0.05,12,0)" xlink:href="#x"/><use transform="matrix(0.05,0,0,0.05,22,0)" xlink:href="#A"/><use transform="matrix(0.05,0,0,0.05,25.950000000000003,0)" xlink:href="#u"/><use transform="matrix(0.05,0,0,0.05,29.899999999999995,0)" xlink:href="#ab"/><use transform="matrix(0.05,0,0,0.05,38.9,0)" xlink:href="#u"/><use transform="matrix(0.05,0,0,0.05,42.85,0)" xlink:href="#af"/><use transform="matrix(0.05,0,0,0.05,47.85,0)" xlink:href="#C"/><use transform="matrix(0.05,0,0,0.05,57.85,0)" xlink:href="#B"/><use transform="matrix(0.05,0,0,0.05,67.85,0)" xlink:href="#x"/></g><path fill="#333" d="M34 0v-190h32V0H34zM24-211c8-23 27-35 38-54h36v5l-58 49H24" id="ag"/><g id="s"><use transform="matrix(0.05,0,0,0.05,0,0)" xlink:href="#Y"/><use transform="matrix(0.05,0,0,0.05,12,0)" xlink:href="#ag"/></g></defs></g></svg>