<svg xmlns="http://www.w3.org/2000/svg" xmlns:xlink="http://www.w3.org/1999/xlink" xmlns:lucid="lucid" width="1973" height="2389.14"><g transform="translate(0 0)" lucid:page-tab-id="0_0"><path d="M0 0h1973v2389.14H0z" fill="#fff"/><path d="M126.5 708a8 8 0 0 1 8-8h627.7a8 8 0 0 1 8 8v284a8 8 0 0 1-8 8H134.5a8 8 0 0 1-8-8z" stroke="#333" fill-opacity="0"/><use xlink:href="#a" transform="matrix(1,0,0,1,134.5,708) translate(258.15 15.6)"/><path d="M1142.75 308a8 8 0 0 1 8-8h410.08a8 8 0 0 1 8 8v364a8 8 0 0 1-8 8h-410.08a8 8 0 0 1-8-8z" stroke="#333" fill-opacity="0"/><use xlink:href="#b" transform="matrix(1,0,0,1,1150.7510760219116,308) translate(171.075 15.6)"/><path d="M126.5 1808a8 8 0 0 1 8-8H892a8 8 0 0 1 8 8v284a8 8 0 0 1-8 8H134.5a8 8 0 0 1-8-8z" stroke="#333" fill-opacity="0"/><use xlink:href="#c" transform="matrix(1,0,0,1,134.5,1808) translate(338.55 15.6)"/><path d="M1142.75 1408a8 8 0 0 1 8-8H1632a8 8 0 0 1 8 8v364a8 8 0 0 1-8 8h-481.25a8 8 0 0 1-8-8z" stroke="#333" fill-opacity="0"/><use xlink:href="#d" transform="matrix(1,0,0,1,1150.7510760219116,1408) translate(206.725 15.6)"/><path d="M557.4 89.55a8 8 0 0 1 8-8h836.75a8 8 0 0 1 8 8v25.15a8 8 0 0 1-8 8H565.4a8 8 0 0 1-8-8z" stroke="#000" stroke-opacity="0" stroke-width="2" fill="#fff" fill-opacity="0"/><use xlink:href="#e" transform="matrix(1,0,0,1,561.4000000000008,85.54503294639244) translate(202.59333333333336 25.782777777777778)"/><use xlink:href="#f" transform="matrix(1,0,0,1,561.4000000000008,85.54503294639244) translate(329.18839506172844 25.782777777777778)"/><use xlink:href="#g" transform="matrix(1,0,0,1,561.4000000000008,85.54503294639244) translate(366.9920987654321 25.782777777777778)"/><use xlink:href="#h" transform="matrix(1,0,0,1,561.4000000000008,85.54503294639244) translate(473.11925925925925 25.782777777777778)"/><use xlink:href="#i" transform="matrix(1,0,0,1,561.4000000000008,85.54503294639244) translate(489.0711111111111 25.782777777777778)"/><path d="M829.9 121.36h317.57M829.93 121.36h-1.03M1147.45 121.36h1.02" stroke="#a9afb8" stroke-width="2" fill="none"/><path d="M557.4 130.7a8 8 0 0 1 8-8h837.7a8 8 0 0 1 8 8v2.85a8 8 0 0 1-8 8H565.4a8 8 0 0 1-8-8z" stroke="#000" stroke-opacity="0" stroke-width="2" fill="#fff" fill-opacity="0"/><path d="M216.5 508.64c0 11.04-8.95 20-20 20s-20-8.96-20-20c0-11.05 8.95-20 20-20s20 8.95 20 20z" stroke="#333"/><path d="M217.5 508.64h132.12" stroke="#333" fill="none"/><path d="M217.5 509.14h-.56l.06-.48-.02-.52h.53z" stroke="#333" stroke-width=".05" fill="#333"/><path d="M364.38 508.64l-14.26 4.63V504z" stroke="#333" fill="#333"/><path d="M446.5 549.64v133.53" stroke="#333" fill="none"/><path d="M447 549.65h-1v-.5h1z" stroke="#333" stroke-width=".05" fill="#333"/><path d="M446.5 697.93l-4.64-14.26h9.28z" stroke="#333" fill="#333"/><path d="M570.34 916.02a8 8 0 0 1 11.32 0l8.68 8.7a8 8 0 0 1 0 11.3l-8.68 8.7a8 8 0 0 1-11.32 0l-8.68-8.7a8 8 0 0 1 0-11.3z" stroke="#333" fill="#fff"/><path d="M477 930.37h65.43" stroke="#333" fill="none"/><path d="M477 930.87h-.5v-1h.5z" stroke="#333" stroke-width=".05" fill="#333"/><path d="M557.2 930.37L542.92 935v-9.27z" stroke="#333" fill="#333"/><path d="M658.12 930.87H593.7v-1h64.42zm71.5 0h-48.55v-1h48.55z" stroke="#333" stroke-width=".05" fill="#333"/><path d="M593.7 930.87h-.55l.04-.5-.05-.5h.55z" fill="#333"/><path d="M593.73 930.9h-.6l.03-.53-.04-.53h.6zm-.55-1l.03.47-.02.47h.5v-.95z" stroke="#333" stroke-width=".05" fill="#333"/><path d="M744.38 930.37L730.12 935v-9.27z" fill="#333"/><path d="M746 930.37l-16.38 5.32v-10.66zm-15.38 3.94l12.14-3.93-12.14-3.95z" stroke="#333" stroke-width=".05" fill="#333"/><use xlink:href="#j" transform="matrix(1,0,0,1,658.118747424363,919.566078617738) translate(0.005000000000000782 14.4)"/><path d="M1426 1089.14c0 11.04-8.94 20-20 20-11.03 0-20-8.96-20-20 0-11.05 8.97-20 20-20 11.06 0 20 8.95 20 20z" stroke="#333" fill="#fff"/><path d="M1418 1089.14c0 6.62-5.36 12-12 12-6.6 0-12-5.38-12-12 0-6.63 5.4-12 12-12 6.64 0 12 5.37 12 12z" stroke="#333"/><path d="M1406 970.37v81.88" stroke="#333" fill="none"/><path d="M1406.5 970.38h-1v-.5h1z" stroke="#333" stroke-width=".05" fill="#333"/><path d="M1406 1067.02l-4.62-14.27h9.27z" stroke="#333" fill="#333"/><path d="M576 912.72h-1v-39.88h1zm.5-85.47l-.02 24h-1l.02-24z" stroke="#333" stroke-width=".05" fill="#333"/><path d="M576 913.18l-1 .08v-.56h1z" fill="#333"/><path d="M576.02 913.2l-1.05.08v-.6h1.05zm-1-.47v.5l.95-.07v-.43z" stroke="#333" stroke-width=".05" fill="#333"/><path d="M580.64 826.75h-9.28l4.64-14.27z" fill="#333"/><path d="M581.32 827.25h-10.64l5.32-16.38zm-9.27-1h7.9L576 814.1z" stroke="#333" stroke-width=".05" fill="#333"/><use xlink:href="#k" transform="matrix(1,0,0,1,567.7748440730443,851.2420161098988) translate(0.004999999999999893 14.4)"/><path d="M1342.5 343.66c-8.84 0-16 7.17-16 16v48c0 8.84 7.16 16 16 16h128c8.84 0 16-7.16 16-16v-48c0-8.83-7.16-16-16-16z" stroke="#333" fill="#fff"/><use xlink:href="#l" transform="matrix(1,0,0,1,1334.5,351.6616065093518) translate(42.025 35.6)"/><path d="M1027.5 508.64h98.42" stroke="#333" fill="none"/><path d="M1027.5 509.14h-.5v-1h.5z" stroke="#333" stroke-width=".05" fill="#333"/><path d="M1140.7 508.64l-14.28 4.63V504z" stroke="#333" fill="#333"/><path d="M1400.84 489.58a8 8 0 0 1 11.32 0l8.68 8.7a8 8 0 0 1 0 11.3l-8.68 8.7a8 8 0 0 1-11.32 0l-8.68-8.7a8 8 0 0 1 0-11.3z" stroke="#333" fill="#fff"/><path d="M1406.5 424.66v45.7" stroke="#333" fill="none"/><path d="M1407 424.67h-1v-.5h1z" stroke="#333" stroke-width=".05" fill="#333"/><path d="M1406.5 485.12l-4.64-14.27h9.28z" stroke="#333" fill="#333"/><path d="M1407 643.12h-1V601.1h1zm0-63.62h-1v-57.9h1z" stroke="#333" stroke-width=".05" fill="#333"/><path d="M1406.5 521.1l.5-.03v.55h-1v-.55z" fill="#333"/><path d="M1406.5 521.08l.53-.04v.6h-1.06v-.6zm-.47.52h.94v-.5l-.47.03-.47-.03z" stroke="#333" stroke-width=".05" fill="#333"/><path d="M1406.5 657.88l-4.64-14.26h9.28z" fill="#333"/><path d="M1406.5 659.5l-5.32-16.38h10.64zm-3.95-15.38l3.95 12.14 3.95-12.14z" stroke="#333" stroke-width=".05" fill="#333"/><use xlink:href="#j" transform="matrix(1,0,0,1,1395.025,579.5048024171463) translate(0.005000000000000782 14.4)"/><path d="M1453.72 504.42h-29.53v-1h29.52zm29.6 0h-13.65v-1h13.65z" stroke="#333" stroke-width=".05" fill="#333"/><path d="M1424.2 504.42h-.55l.04-.5-.05-.5h.55z" fill="#333"/><path d="M1424.23 504.45h-.6l.03-.53-.04-.52h.6zm-.55-1l.03.47-.02.48h.5v-.95z" stroke="#333" stroke-width=".05" fill="#333"/><path d="M1498.08 503.92l-14.26 4.64v-9.27z" fill="#333"/><path d="M1499.7 503.92l-16.38 5.33V498.6zm-15.38 3.95l12.14-3.95-12.14-3.94z" stroke="#333" stroke-width=".05" fill="#333"/><use xlink:href="#k" transform="matrix(1,0,0,1,1453.7187474243633,493.1221099855664) translate(0.004999999999999893 14.4)"/><path d="M1766.5 531v342.48" stroke="#333" fill="none"/><path d="M1767 531h-1v-.5h1z" stroke="#333" stroke-width=".05" fill="#333"/><path d="M1766.5 888.25l-4.64-14.27h9.28z" stroke="#333" fill="#333"/><path d="M382.5 468.64c-8.84 0-16 7.16-16 16v48c0 8.84 7.16 16 16 16h128c8.84 0 16-7.16 16-16v-48c0-8.84-7.16-16-16-16z" stroke="#333" fill="#fff"/><use xlink:href="#m" transform="matrix(1,0,0,1,374.5,476.63855983202643) translate(33.075 35.6)"/><path d="M332 890.37c-8.84 0-16 7.16-16 16v48c0 8.83 7.16 16 16 16h128c8.84 0 16-7.17 16-16v-48c0-8.84-7.16-16-16-16z" stroke="#333" fill="#fff"/><use xlink:href="#n" transform="matrix(1,0,0,1,324,898.3660786177379) translate(6.599999999999994 35.6)"/><use xlink:href="#o" transform="matrix(1,0,0,1,324,898.3660786177379) translate(56.55 35.6)"/><path d="M216.5 930.37c0 11.04-8.95 20-20 20s-20-8.96-20-20c0-11.05 8.95-20 20-20s20 8.95 20 20z" stroke="#333"/><path d="M217.5 930.37h81.62" stroke="#333" fill="none"/><path d="M217.5 930.87h-.56l.06-.48-.02-.53h.53z" stroke="#333" stroke-width=".05" fill="#333"/><path d="M313.88 930.37L299.62 935v-9.27z" stroke="#333" fill="#333"/><path d="M596 790.37c0 11.04-8.95 20-20 20s-20-8.96-20-20c0-11.05 8.95-20 20-20s20 8.95 20 20z" stroke="#333" fill="#fff"/><path d="M588 790.37c0 6.62-5.37 12-12 12s-12-5.38-12-12c0-6.63 5.37-12 12-12s12 5.37 12 12z" stroke="#333"/><path d="M786.5 930.37c0 11.04-8.95 20-20 20s-20-8.96-20-20c0-11.05 8.95-20 20-20s20 8.95 20 20z" stroke="#333" fill="#fff"/><path d="M752.36 916.22l28.28 28.3m0-28.3l-28.28 28.3" stroke="#333" fill="none"/><path d="M1342.5 889.37c-8.84 0-16 7.16-16 16v48c0 8.83 7.16 16 16 16h128c8.84 0 16-7.17 16-16v-48c0-8.84-7.16-16-16-16z" stroke="#333" fill="#fff"/><use xlink:href="#p" transform="matrix(1,0,0,1,1334.5,897.3657667638265) translate(26.525 35.6)"/><path d="M787.5 930.37h522.12" stroke="#333" fill="none"/><path d="M787.5 930.87h-.56l.06-.48-.02-.53h.53z" stroke="#333" stroke-width=".05" fill="#333"/><path d="M1324.38 930.37l-14.26 4.63v-9.27z" stroke="#333" fill="#333"/><path d="M849.62 508.64h-19.3a12 12 0 0 0-12 12V838a12 12 0 0 1-12 12h-35.17" stroke="#333" fill="none"/><path d="M864.38 508.64l-14.26 4.63V504z" stroke="#333" fill="#333"/><path d="M771.16 850.5h-.5v-1h.5z" stroke="#333" stroke-width=".05" fill="#333"/><path d="M882.5 468.64c-8.84 0-16 7.16-16 16v48c0 8.84 7.16 16 16 16h128c8.84 0 16-7.16 16-16v-48c0-8.84-7.16-16-16-16z" stroke="#333" fill="#fff"/><use xlink:href="#q" transform="matrix(1,0,0,1,874.5,476.63855983202643) translate(34.099999999999994 35.6)"/><path d="M1242.8 383.66c0 11.05-8.95 20-20 20s-20-8.95-20-20c0-11.04 8.95-20 20-20s20 8.96 20 20z" stroke="#333"/><path d="M1243.8 383.66h65.82" stroke="#333" fill="none"/><path d="M1243.8 384.16h-.56l.06-.48-.02-.52h.53z" stroke="#333" stroke-width=".05" fill="#333"/><path d="M1324.38 383.66l-14.26 4.64v-9.27z" stroke="#333" fill="#333"/><path d="M1426.5 680c0 11.05-8.95 20-20 20s-20-8.95-20-20 8.95-20 20-20 20 8.95 20 20z" stroke="#333" fill="#fff"/><path d="M1392.36 665.86l28.28 28.28m0-28.28l-28.28 28.28M1406.5 701v171.48" stroke="#333" fill="none"/><path d="M1406.48 700.5l.52-.02v.53h-1v-.56z" stroke="#333" stroke-width=".05" fill="#333"/><path d="M1406.5 887.25l-4.64-14.27h9.28z" stroke="#333" fill="#333"/><path d="M1540.2 503.92c0 11.05-8.95 20-20 20s-20-8.95-20-20c0-11.04 8.95-20 20-20s20 8.96 20 20z" stroke="#333" fill="#fff"/><path d="M1532.2 503.92c0 6.63-5.37 12-12 12s-12-5.37-12-12 5.37-12 12-12 12 5.37 12 12z" stroke="#333"/><path d="M1702.5 450c-8.84 0-16 7.16-16 16v48c0 8.84 7.16 16 16 16h128c8.84 0 16-7.16 16-16v-48c0-8.84-7.16-16-16-16z" stroke="#333" fill="#fff"/><use xlink:href="#r" transform="matrix(1,0,0,1,1694.5,458) translate(28.574999999999996 35.6)"/><path d="M1569.8 490h99.82" stroke="#333" fill="none"/><path d="M1569.82 490.5h-.54v-1h.54z" stroke="#333" stroke-width=".05" fill="#333"/><path d="M1684.38 490l-14.26 4.64v-9.28z" stroke="#333" fill="#333"/><path d="M1702.5 890.37c-8.84 0-16 7.16-16 16v48c0 8.83 7.16 16 16 16h128c8.84 0 16-7.17 16-16v-48c0-8.84-7.16-16-16-16z" stroke="#333" fill="#fff"/><use xlink:href="#s" transform="matrix(1,0,0,1,1694.5,898.3660786177379) translate(29.049999999999997 35.6)"/><path d="M1766.5 971.37v105.77a12 12 0 0 1-12 12h-311.6" stroke="#333" fill="none"/><path d="M1767 971.38h-1v-.5h1z" stroke="#333" stroke-width=".05" fill="#333"/><path d="M1428.13 1089.14l14.27-4.64v9.27z" stroke="#333" fill="#333"/><path d="M216.5 1483.66c0 11.05-8.95 20-20 20s-20-8.95-20-20c0-11.04 8.95-20 20-20s20 8.96 20 20z" stroke="#333"/><path d="M217.5 1483.66h198.87" stroke="#333" fill="none"/><path d="M217.5 1484.16h-.56l.06-.48-.02-.52h.53z" stroke="#333" stroke-width=".05" fill="#333"/><path d="M431.13 1483.66l-14.26 4.64v-9.27z" stroke="#333" fill="#333"/><path d="M513.25 1524.66v258.5" stroke="#333" fill="none"/><path d="M513.75 1524.67h-1v-.5h1z" stroke="#333" stroke-width=".05" fill="#333"/><path d="M513.25 1797.93l-4.64-14.26h9.3z" stroke="#333" fill="#333"/><path d="M461 1950.37h62.12" stroke="#333" fill="none"/><path d="M461 1950.87h-.5v-1h.5z" stroke="#333" stroke-width=".05" fill="#333"/><path d="M537.88 1950.37l-14.26 4.63v-9.27z" stroke="#333" fill="#333"/><path d="M1426 2189.14c0 11.04-8.94 20-20 20-11.03 0-20-8.96-20-20 0-11.05 8.97-20 20-20 11.06 0 20 8.95 20 20z" stroke="#333" fill="#fff"/><path d="M1418 2189.14c0 6.62-5.36 12-12 12-6.6 0-12-5.38-12-12 0-6.63 5.4-12 12-12 6.64 0 12 5.37 12 12z" stroke="#333"/><path d="M1406 2070.37v81.88" stroke="#333" fill="none"/><path d="M1406.5 2070.38h-1v-.5h1z" stroke="#333" stroke-width=".05" fill="#333"/><path d="M1406 2167.02l-4.62-14.27h9.27z" stroke="#333" fill="#333"/><path d="M1342.5 1443.66c-8.84 0-16 7.17-16 16v48c0 8.84 7.16 16 16 16h128c8.84 0 16-7.16 16-16v-48c0-8.83-7.16-16-16-16z" stroke="#333" fill="#fff"/><use xlink:href="#t" transform="matrix(1,0,0,1,1334.5,1451.6616065093517) translate(34.55 35.6)"/><path d="M1027.5 1483.66h57.1a.02.02 0 0 1 .04.03.02.02 0 0 0 .02 0h41.23" stroke="#333" fill="none"/><path d="M1027.5 1484.16h-.5v-1h.5z" stroke="#333" stroke-width=".05" fill="#333"/><path d="M1140.65 1483.7l-14.26 4.65v-9.28z" stroke="#333" fill="#333"/><path d="M1400.84 1589.58a8 8 0 0 1 11.32 0l8.68 8.7a8 8 0 0 1 0 11.3l-8.68 8.7a8 8 0 0 1-11.32 0l-8.68-8.7a8 8 0 0 1 0-11.3z" stroke="#333" fill="#fff"/><path d="M1406.5 1524.66v45.7" stroke="#333" fill="none"/><path d="M1407 1524.67h-1v-.5h1z" stroke="#333" stroke-width=".05" fill="#333"/><path d="M1406.5 1585.12l-4.64-14.27h9.28z" stroke="#333" fill="#333"/><path d="M1407 1743.12h-1v-42.02h1zm0-63.62h-1v-57.9h1z" stroke="#333" stroke-width=".05" fill="#333"/><path d="M1406.5 1621.1l.5-.03v.55h-1v-.55z" fill="#333"/><path d="M1406.5 1621.08l.53-.04v.6h-1.06v-.6zm-.47.52h.94v-.5l-.47.03-.47-.03z" stroke="#333" stroke-width=".05" fill="#333"/><path d="M1406.5 1757.88l-4.64-14.26h9.28z" fill="#333"/><path d="M1406.5 1759.5l-5.32-16.38h10.64zm-3.95-15.38l3.95 12.14 3.95-12.14z" stroke="#333" stroke-width=".05" fill="#333"/><use xlink:href="#u" transform="matrix(1,0,0,1,1366.55,1679.5048024171463) translate(0.005000000000002558 14.4)"/><path d="M1457.17 1604.42h-32.98v-1h32.97zm85.95 0h-17.1v-1h17.1z" stroke="#333" stroke-width=".05" fill="#333"/><path d="M1424.2 1604.42h-.55l.04-.5-.05-.5h.55z" fill="#333"/><path d="M1424.23 1604.45h-.6l.03-.53-.04-.52h.6zm-.55-1l.03.47-.02.48h.5v-.95z" stroke="#333" stroke-width=".05" fill="#333"/><path d="M1557.88 1603.92l-14.26 4.64v-9.27z" fill="#333"/><path d="M1559.5 1603.92l-16.38 5.33v-10.65zm-15.38 3.95l12.14-3.95-12.14-3.94z" stroke="#333" stroke-width=".05" fill="#333"/><use xlink:href="#v" transform="matrix(1,0,0,1,1457.1687474243633,1593.1221099855663) translate(0.005000000000002558 14.4)"/><path d="M449.25 1443.66c-8.84 0-16 7.17-16 16v48c0 8.84 7.16 16 16 16h128c8.84 0 16-7.16 16-16v-48c0-8.83-7.16-16-16-16z" stroke="#333" fill="#fff"/><use xlink:href="#m" transform="matrix(1,0,0,1,441.25,1451.6616065093517) translate(33.075 35.6)"/><path d="M316 1910.37c-8.84 0-16 7.16-16 16v48c0 8.83 7.16 16 16 16h128c8.84 0 16-7.17 16-16v-48c0-8.84-7.16-16-16-16z" stroke="#333" fill="#fff"/><use xlink:href="#w" transform="matrix(1,0,0,1,308,1918.366078617738) translate(39.099999999999994 35.6)"/><path d="M216.5 1950.37c0 11.04-8.95 20-20 20s-20-8.96-20-20c0-11.05 8.95-20 20-20s20 8.95 20 20z" stroke="#333"/><path d="M217.5 1950.37h65.62" stroke="#333" fill="none"/><path d="M217.5 1950.87h-.56l.06-.48-.02-.53h.53z" stroke="#333" stroke-width=".05" fill="#333"/><path d="M297.88 1950.37l-14.26 4.63v-9.27z" stroke="#333" fill="#333"/><path d="M840 1950c0 11.05-8.95 20-20 20s-20-8.95-20-20 8.95-20 20-20 20 8.95 20 20z" stroke="#333" fill="#fff"/><path d="M832 1950c0 6.63-5.37 12-12 12s-12-5.37-12-12 5.37-12 12-12 12 5.37 12 12z" stroke="#333"/><path d="M1342.5 1989.37c-8.84 0-16 7.16-16 16v48c0 8.83 7.16 16 16 16h128c8.84 0 16-7.17 16-16v-48c0-8.84-7.16-16-16-16z" stroke="#333" fill="#fff"/><use xlink:href="#x" transform="matrix(1,0,0,1,1334.5,1997.3657667638263) translate(26.525 35.6)"/><path d="M849.62 1483.66H708.5a12 12 0 0 0-12 12v303.84" stroke="#333" fill="none"/><path d="M864.38 1483.66l-14.26 4.64v-9.27z" stroke="#333" fill="#333"/><path d="M696.5 1799.5v.5" stroke="#333" fill="none"/><path d="M882.5 1443.66c-8.84 0-16 7.17-16 16v48c0 8.84 7.16 16 16 16h128c8.84 0 16-7.16 16-16v-48c0-8.83-7.16-16-16-16z" stroke="#333" fill="#fff"/><use xlink:href="#y" transform="matrix(1,0,0,1,874.5,1451.6616065093517) translate(37.074999999999996 35.6)"/><path d="M1242.8 1483.66c0 11.05-8.95 20-20 20s-20-8.95-20-20c0-11.04 8.95-20 20-20s20 8.96 20 20z" stroke="#333"/><path d="M1243.8 1483.66h65.82" stroke="#333" fill="none"/><path d="M1243.8 1484.16h-.56l.06-.48-.02-.52h.53z" stroke="#333" stroke-width=".05" fill="#333"/><path d="M1324.38 1483.66l-14.26 4.64v-9.27z" stroke="#333" fill="#333"/><path d="M1426.5 1780c0 11.05-8.95 20-20 20s-20-8.95-20-20 8.95-20 20-20 20 8.95 20 20z" stroke="#333" fill="#fff"/><path d="M1392.36 1765.86l28.28 28.28m0-28.28l-28.28 28.28M1406.5 1801v171.48" stroke="#333" fill="none"/><path d="M1406.48 1800.5l.52-.02v.53h-1v-.56z" stroke="#333" stroke-width=".05" fill="#333"/><path d="M1406.5 1987.25l-4.64-14.27h9.28z" stroke="#333" fill="#333"/><path d="M1600 1603.92c0 11.05-8.95 20-20 20s-20-8.95-20-20c0-11.04 8.95-20 20-20s20 8.96 20 20z" stroke="#333" fill="#fff"/><path d="M1592 1603.92c0 6.63-5.37 12-12 12s-12-5.37-12-12 5.37-12 12-12 12 5.37 12 12z" stroke="#333"/><path d="M1702.5 1550c-8.84 0-16 7.16-16 16v48c0 8.84 7.16 16 16 16h128c8.84 0 16-7.16 16-16v-48c0-8.84-7.16-16-16-16z" stroke="#333" fill="#fff"/><use xlink:href="#z" transform="matrix(1,0,0,1,1694.5,1558) translate(41 35.6)"/><path d="M1641.06 1590h28.56" stroke="#333" fill="none"/><path d="M1641.07 1590.5h-.62v-1h.62z" stroke="#333" stroke-width=".05" fill="#333"/><path d="M1684.38 1590l-14.26 4.64v-9.28z" stroke="#333" fill="#333"/><path d="M1702.5 1990.37c-8.84 0-16 7.16-16 16v48c0 8.83 7.16 16 16 16h128c8.84 0 16-7.17 16-16v-48c0-8.84-7.16-16-16-16z" stroke="#333" fill="#fff"/><use xlink:href="#q" transform="matrix(1,0,0,1,1694.5,1998.366078617738) translate(34.099999999999994 35.6)"/><path d="M1766.5 1631v342.48" stroke="#333" fill="none"/><path d="M1767 1631h-1v-.5h1z" stroke="#333" stroke-width=".05" fill="#333"/><path d="M1766.5 1988.25l-4.64-14.27h9.28z" stroke="#333" fill="#333"/><path d="M1766.5 2071.37v105.77a12 12 0 0 1-12 12h-311.6" stroke="#333" fill="none"/><path d="M1767 2071.38h-1v-.5h1z" stroke="#333" stroke-width=".05" fill="#333"/><path d="M1428.13 2189.14l14.27-4.64v9.27z" stroke="#333" fill="#333"/><path d="M556 1910.37c-8.84 0-16 7.16-16 16v48c0 8.83 7.16 16 16 16h128c8.84 0 16-7.17 16-16v-48c0-8.84-7.16-16-16-16z" stroke="#333" fill="#fff"/><use xlink:href="#A" transform="matrix(1,0,0,1,548,1918.366078617738) translate(39.05 35.6)"/><path d="M701 1950.37h82.13" stroke="#333" fill="none"/><path d="M701 1950.87h-.5v-1h.5z" stroke="#333" stroke-width=".05" fill="#333"/><path d="M797.9 1950.37l-14.27 4.63v-9.27z" stroke="#333" fill="#333"/><path d="M200 1266.45a8 8 0 0 1 8-8h1584a8 8 0 0 1 8 8v84a8 8 0 0 1-8 8H208a8 8 0 0 1-8-8z" stroke="#333" fill="#fff"/><g><use xlink:href="#B" transform="matrix(1,0,0,1,205,1263.454967053527) translate(763.025 48.15)"/></g><path d="M200 180.3a8 8 0 0 1 8-8h1584a8 8 0 0 1 8 8v84a8 8 0 0 1-8 8H208a8 8 0 0 1-8-8z" stroke="#333" fill="#fff"/><g><use xlink:href="#C" transform="matrix(1,0,0,1,205,177.311042266551) translate(753.55 48.15)"/></g><defs><path fill="#333" d="M30-248c118-7 216 8 213 122C240-48 200 0 122 0H30v-248zM63-27c89 8 146-16 146-99s-60-101-146-95v194" id="D"/><path fill="#333" d="M24-231v-30h32v30H24zM24 0v-190h32V0H24" id="E"/><path fill="#333" d="M135-143c-3-34-86-38-87 0 15 53 115 12 119 90S17 21 10-45l28-5c4 36 97 45 98 0-10-56-113-15-118-90-4-57 82-63 122-42 12 7 21 19 24 35" id="F"/><path fill="#333" d="M115-194c55 1 70 41 70 98S169 2 115 4C84 4 66-9 55-30l1 105H24l-1-265h31l2 30c10-21 28-34 59-34zm-8 174c40 0 45-34 45-75s-6-73-45-74c-42 0-51 32-51 76 0 43 10 73 51 73" id="G"/><path fill="#333" d="M100-194c62-1 85 37 85 99 1 63-27 99-86 99S16-35 15-95c0-66 28-99 85-99zM99-20c44 1 53-31 53-75 0-43-8-75-51-75s-53 32-53 75 10 74 51 75" id="H"/><path fill="#333" d="M117-194c89-4 53 116 60 194h-32v-121c0-31-8-49-39-48C34-167 62-67 57 0H25l-1-190h30c1 10-1 24 2 32 11-22 29-35 61-36" id="I"/><path fill="#333" d="M115-194c53 0 69 39 70 98 0 66-23 100-70 100C84 3 66-7 56-30L54 0H23l1-261h32v101c10-23 28-34 59-34zm-8 174c40 0 45-34 45-75 0-40-5-75-45-74-42 0-51 32-51 76 0 43 10 73 51 73" id="J"/><path fill="#333" d="M24 0v-261h32V0H24" id="K"/><path fill="#333" d="M85-194c31 0 48 13 60 33l-1-100h32l1 261h-30c-2-10 0-23-3-31C134-8 116 4 85 4 32 4 16-35 15-94c0-66 23-100 70-100zm9 24c-40 0-46 34-46 75 0 40 6 74 45 74 42 0 51-32 51-76 0-42-9-74-50-73" id="L"/><path fill="#333" d="M141-36C126-15 110 5 73 4 37 3 15-17 15-53c-1-64 63-63 125-63 3-35-9-54-41-54-24 1-41 7-42 31l-33-3c5-37 33-52 76-52 45 0 72 20 72 64v82c-1 20 7 32 28 27v20c-31 9-61-2-59-35zM48-53c0 20 12 33 32 33 41-3 63-29 60-74-43 2-92-5-92 41" id="M"/><g id="a"><use transform="matrix(0.05,0,0,0.05,0,0)" xlink:href="#D"/><use transform="matrix(0.05,0,0,0.05,12.950000000000001,0)" xlink:href="#E"/><use transform="matrix(0.05,0,0,0.05,16.900000000000002,0)" xlink:href="#F"/><use transform="matrix(0.05,0,0,0.05,25.900000000000002,0)" xlink:href="#G"/><use transform="matrix(0.05,0,0,0.05,35.900000000000006,0)" xlink:href="#H"/><use transform="matrix(0.05,0,0,0.05,45.900000000000006,0)" xlink:href="#I"/><use transform="matrix(0.05,0,0,0.05,55.900000000000006,0)" xlink:href="#E"/><use transform="matrix(0.05,0,0,0.05,59.85,0)" xlink:href="#J"/><use transform="matrix(0.05,0,0,0.05,69.85000000000001,0)" xlink:href="#E"/><use transform="matrix(0.05,0,0,0.05,73.80000000000001,0)" xlink:href="#K"/><use transform="matrix(0.05,0,0,0.05,77.75000000000001,0)" xlink:href="#E"/><use transform="matrix(0.05,0,0,0.05,81.70000000000002,0)" xlink:href="#L"/><use transform="matrix(0.05,0,0,0.05,91.70000000000002,0)" xlink:href="#M"/><use transform="matrix(0.05,0,0,0.05,101.70000000000002,0)" xlink:href="#L"/></g><path fill="#333" d="M233-177c-1 41-23 64-60 70L243 0h-38l-65-103H63V0H30v-248c88 3 205-21 203 71zM63-129c60-2 137 13 137-47 0-61-80-42-137-45v92" id="N"/><path fill="#333" d="M100-194c63 0 86 42 84 106H49c0 40 14 67 53 68 26 1 43-12 49-29l28 8c-11 28-37 45-77 45C44 4 14-33 15-96c1-61 26-98 85-98zm52 81c6-60-76-77-97-28-3 7-6 17-6 28h103" id="O"/><path fill="#333" d="M108 0H70L1-190h34L89-25l56-165h34" id="P"/><path fill="#333" d="M100-194c62-1 85 37 85 99 1 63-27 99-86 99S16-35 15-95c0-66 28-99 85-99zM99-20c44 1 53-31 53-75 0-43-8-75-51-75s-53 32-53 75 10 74 51 75zM76-211c8-23 27-35 38-54h36v5l-58 49H76" id="Q"/><g id="b"><use transform="matrix(0.05,0,0,0.05,0,0)" xlink:href="#N"/><use transform="matrix(0.05,0,0,0.05,12.950000000000001,0)" xlink:href="#O"/><use transform="matrix(0.05,0,0,0.05,22.950000000000003,0)" xlink:href="#P"/><use transform="matrix(0.05,0,0,0.05,31.950000000000003,0)" xlink:href="#E"/><use transform="matrix(0.05,0,0,0.05,35.900000000000006,0)" xlink:href="#F"/><use transform="matrix(0.05,0,0,0.05,44.900000000000006,0)" xlink:href="#E"/><use transform="matrix(0.05,0,0,0.05,48.85000000000001,0)" xlink:href="#Q"/><use transform="matrix(0.05,0,0,0.05,58.85,0)" xlink:href="#I"/></g><path fill="#333" d="M63-220v92h138v28H63V0H30v-248h175v28H63" id="R"/><path fill="#333" d="M96-169c-40 0-48 33-48 73s9 75 48 75c24 0 41-14 43-38l32 2c-6 37-31 61-74 61-59 0-76-41-82-99-10-93 101-131 147-64 4 7 5 14 7 22l-32 3c-4-21-16-35-41-35" id="S"/><path fill="#333" d="M59-47c-2 24 18 29 38 22v24C64 9 27 4 27-40v-127H5v-23h24l9-43h21v43h35v23H59v120" id="T"/><path fill="#333" d="M84 4C-5 8 30-112 23-190h32v120c0 31 7 50 39 49 72-2 45-101 50-169h31l1 190h-30c-1-10 1-25-2-33-11 22-28 36-60 37" id="U"/><path fill="#333" d="M114-163C36-179 61-72 57 0H25l-1-190h30c1 12-1 29 2 39 6-27 23-49 58-41v29" id="V"/><g id="c"><use transform="matrix(0.05,0,0,0.05,0,0)" xlink:href="#R"/><use transform="matrix(0.05,0,0,0.05,10.950000000000001,0)" xlink:href="#M"/><use transform="matrix(0.05,0,0,0.05,20.950000000000003,0)" xlink:href="#S"/><use transform="matrix(0.05,0,0,0.05,29.950000000000003,0)" xlink:href="#T"/><use transform="matrix(0.05,0,0,0.05,34.95,0)" xlink:href="#U"/><use transform="matrix(0.05,0,0,0.05,44.95,0)" xlink:href="#V"/><use transform="matrix(0.05,0,0,0.05,50.900000000000006,0)" xlink:href="#M"/><use transform="matrix(0.05,0,0,0.05,60.900000000000006,0)" xlink:href="#L"/><use transform="matrix(0.05,0,0,0.05,70.9,0)" xlink:href="#M"/></g><path fill="#333" d="M137 0h-34L2-248h35l83 218 83-218h36" id="W"/><g id="d"><use transform="matrix(0.05,0,0,0.05,0,0)" xlink:href="#W"/><use transform="matrix(0.05,0,0,0.05,10.65,0)" xlink:href="#M"/><use transform="matrix(0.05,0,0,0.05,20.65,0)" xlink:href="#K"/><use transform="matrix(0.05,0,0,0.05,24.599999999999998,0)" xlink:href="#E"/><use transform="matrix(0.05,0,0,0.05,28.549999999999997,0)" xlink:href="#L"/><use transform="matrix(0.05,0,0,0.05,38.55,0)" xlink:href="#M"/><use transform="matrix(0.05,0,0,0.05,48.55,0)" xlink:href="#L"/><use transform="matrix(0.05,0,0,0.05,58.54999999999999,0)" xlink:href="#M"/></g><path fill="#a9afb8" d="M24-248c120-7 223 5 221 122C244-46 201 0 124 0H24v-248zM76-40c74 7 117-18 117-86 0-67-45-88-117-82v168" id="X"/><path fill="#a9afb8" d="M25-224v-37h50v37H25zM25 0v-190h50V0H25" id="Y"/><path fill="#a9afb8" d="M133-34C117-15 103 5 69 4 32 3 11-16 11-54c-1-60 55-63 116-61 1-26-3-47-28-47-18 1-26 9-28 27l-52-2c7-38 36-58 82-57s74 22 75 68l1 82c-1 14 12 18 25 15v27c-30 8-71 5-69-32zm-48 3c29 0 43-24 42-57-32 0-66-3-65 30 0 17 8 27 23 27" id="Z"/><path fill="#a9afb8" d="M195-6C206 82 75 100 31 46c-4-6-6-13-8-21l49-6c3 16 16 24 34 25 40 0 42-37 40-79-11 22-30 35-61 35-53 0-70-43-70-97 0-56 18-96 73-97 30 0 46 14 59 34l2-30h47zm-90-29c32 0 41-27 41-63 0-35-9-62-40-62-32 0-39 29-40 63 0 36 9 62 39 62" id="aa"/><path fill="#a9afb8" d="M135-150c-39-12-60 13-60 57V0H25l-1-190h47c2 13-1 29 3 40 6-28 27-53 61-41v41" id="ab"/><path fill="#a9afb8" d="M220-157c-53 9-28 100-34 157h-49v-107c1-27-5-49-29-50C55-147 81-57 75 0H25l-1-190h47c2 12-1 28 3 38 10-53 101-56 108 0 13-22 24-43 59-42 82 1 51 116 57 194h-49v-107c-1-25-5-48-29-50" id="ac"/><g id="e"><use transform="matrix(0.0728395061728395,0,0,0.0728395061728395,0,0)" xlink:href="#X"/><use transform="matrix(0.0728395061728395,0,0,0.0728395061728395,18.86543209876543,0)" xlink:href="#Y"/><use transform="matrix(0.0728395061728395,0,0,0.0728395061728395,26.14938271604938,0)" xlink:href="#Z"/><use transform="matrix(0.0728395061728395,0,0,0.0728395061728395,40.717283950617286,0)" xlink:href="#aa"/><use transform="matrix(0.0728395061728395,0,0,0.0728395061728395,56.66913580246913,0)" xlink:href="#ab"/><use transform="matrix(0.0728395061728395,0,0,0.0728395061728395,66.86666666666666,0)" xlink:href="#Z"/><use transform="matrix(0.0728395061728395,0,0,0.0728395061728395,81.43456790123457,0)" xlink:href="#ac"/><use transform="matrix(0.0728395061728395,0,0,0.0728395061728395,104.7432098765432,0)" xlink:href="#Z"/></g><path fill="#a9afb8" d="M88-194c31-1 46 15 58 34l-1-101h50l1 261h-48c-2-10 0-23-3-31C134-8 116 4 84 4 32 4 16-41 15-95c0-56 19-97 73-99zm17 164c33 0 40-30 41-66 1-37-9-64-41-64s-38 30-39 65c0 43 13 65 39 65" id="ad"/><path fill="#a9afb8" d="M185-48c-13 30-37 53-82 52C43 2 14-33 14-96s30-98 90-98c62 0 83 45 84 108H66c0 31 8 55 39 56 18 0 30-7 34-22zm-45-69c5-46-57-63-70-21-2 6-4 13-4 21h74" id="ae"/><g id="f"><use transform="matrix(0.0728395061728395,0,0,0.0728395061728395,0,0)" xlink:href="#ad"/><use transform="matrix(0.0728395061728395,0,0,0.0728395061728395,15.95185185185185,0)" xlink:href="#ae"/></g><path fill="#a9afb8" d="M137-138c1-29-70-34-71-4 15 46 118 7 119 86 1 83-164 76-172 9l43-7c4 19 20 25 44 25 33 8 57-30 24-41C81-84 22-81 20-136c-2-80 154-74 161-7" id="af"/><path fill="#a9afb8" d="M115-3C79 11 28 4 28-45v-112H4v-33h27l15-45h31v45h36v33H77v99c-1 23 16 31 38 25v30" id="ag"/><path fill="#a9afb8" d="M110-194c64 0 96 36 96 99 0 64-35 99-97 99-61 0-95-36-95-99 0-62 34-99 96-99zm-1 164c35 0 45-28 45-65 0-40-10-65-43-65-34 0-45 26-45 65 0 36 10 65 43 65" id="ah"/><g id="g"><use transform="matrix(0.0728395061728395,0,0,0.0728395061728395,0,0)" xlink:href="#ae"/><use transform="matrix(0.0728395061728395,0,0,0.0728395061728395,14.5679012345679,0)" xlink:href="#af"/><use transform="matrix(0.0728395061728395,0,0,0.0728395061728395,29.1358024691358,0)" xlink:href="#ag"/><use transform="matrix(0.0728395061728395,0,0,0.0728395061728395,37.803703703703704,0)" xlink:href="#Z"/><use transform="matrix(0.0728395061728395,0,0,0.0728395061728395,52.3716049382716,0)" xlink:href="#ad"/><use transform="matrix(0.0728395061728395,0,0,0.0728395061728395,68.32345679012346,0)" xlink:href="#ah"/><use transform="matrix(0.0728395061728395,0,0,0.0728395061728395,84.2753086419753,0)" xlink:href="#af"/></g><path fill="#a9afb8" d="M14-72v-43h91v43H14" id="ai"/><use transform="matrix(0.0728395061728395,0,0,0.0728395061728395,0,0)" xlink:href="#ai" id="h"/><path fill="#a9afb8" d="M24-248c93 1 206-16 204 79-1 75-69 88-152 82V0H24v-248zm52 121c47 0 100 7 100-41 0-47-54-39-100-39v80" id="aj"/><path fill="#a9afb8" d="M84 4C32 4 15-41 15-95c0-55 18-99 73-99 29 0 47 12 58 34l2-30h48l-1 265h-49V-32C136-9 114 4 84 4zm21-34c32 0 41-29 41-66 0-36-9-64-40-64-33 0-39 30-40 65 0 43 13 65 39 65" id="ak"/><path fill="#a9afb8" d="M85 4C-2 5 27-109 22-190h50c7 57-23 150 33 157 60-5 35-97 40-157h50l1 190h-47c-2-12 1-28-3-38-12 25-28 42-61 42" id="al"/><g id="i"><use transform="matrix(0.0728395061728395,0,0,0.0728395061728395,0,0)" xlink:href="#aj"/><use transform="matrix(0.0728395061728395,0,0,0.0728395061728395,17.48148148148148,0)" xlink:href="#Z"/><use transform="matrix(0.0728395061728395,0,0,0.0728395061728395,32.04938271604938,0)" xlink:href="#ab"/><use transform="matrix(0.0728395061728395,0,0,0.0728395061728395,42.24691358024691,0)" xlink:href="#ak"/><use transform="matrix(0.0728395061728395,0,0,0.0728395061728395,58.19876543209875,0)" xlink:href="#al"/><use transform="matrix(0.0728395061728395,0,0,0.0728395061728395,74.15061728395061,0)" xlink:href="#ae"/><use transform="matrix(0.0728395061728395,0,0,0.0728395061728395,88.7185185185185,0)" xlink:href="#Z"/><use transform="matrix(0.0728395061728395,0,0,0.0728395061728395,103.2864197530864,0)" xlink:href="#ad"/><use transform="matrix(0.0728395061728395,0,0,0.0728395061728395,119.23827160493828,0)" xlink:href="#ae"/><use transform="matrix(0.0728395061728395,0,0,0.0728395061728395,133.80617283950616,0)" xlink:href="#ab"/><use transform="matrix(0.0728395061728395,0,0,0.0728395061728395,144.00370370370368,0)" xlink:href="#ah"/></g><path fill="#333" d="M190 0L58-211 59 0H30v-248h39L202-35l-2-213h31V0h-41" id="am"/><g id="j"><use transform="matrix(0.05,0,0,0.05,0,0)" xlink:href="#am"/><use transform="matrix(0.05,0,0,0.05,12.950000000000001,0)" xlink:href="#H"/></g><path fill="#333" d="M185-189c-5-48-123-54-124 2 14 75 158 14 163 119 3 78-121 87-175 55-17-10-28-26-33-46l33-7c5 56 141 63 141-1 0-78-155-14-162-118-5-82 145-84 179-34 5 7 8 16 11 25" id="an"/><g id="k"><use transform="matrix(0.05,0,0,0.05,0,0)" xlink:href="#an"/><use transform="matrix(0.05,0,0,0.05,12,0)" xlink:href="#E"/></g><path fill="#333" d="M33 0v-248h34V0H33" id="ao"/><path fill="#333" d="M177-190C167-65 218 103 67 71c-23-6-38-20-44-43l32-5c15 47 100 32 89-28v-30C133-14 115 1 83 1 29 1 15-40 15-95c0-56 16-97 71-98 29-1 48 16 59 35 1-10 0-23 2-32h30zM94-22c36 0 50-32 50-73 0-42-14-75-50-75-39 0-46 34-46 75s6 73 46 73" id="ap"/><g id="l"><use transform="matrix(0.05,0,0,0.05,0,0)" xlink:href="#ao"/><use transform="matrix(0.05,0,0,0.05,5,0)" xlink:href="#I"/><use transform="matrix(0.05,0,0,0.05,15,0)" xlink:href="#ap"/><use transform="matrix(0.05,0,0,0.05,25,0)" xlink:href="#V"/><use transform="matrix(0.05,0,0,0.05,30.950000000000003,0)" xlink:href="#O"/><use transform="matrix(0.05,0,0,0.05,40.95,0)" xlink:href="#F"/><use transform="matrix(0.05,0,0,0.05,49.95,0)" xlink:href="#H"/></g><g id="m"><use transform="matrix(0.05,0,0,0.05,0,0)" xlink:href="#an"/><use transform="matrix(0.05,0,0,0.05,12,0)" xlink:href="#H"/><use transform="matrix(0.05,0,0,0.05,22,0)" xlink:href="#K"/><use transform="matrix(0.05,0,0,0.05,25.950000000000003,0)" xlink:href="#E"/><use transform="matrix(0.05,0,0,0.05,29.899999999999995,0)" xlink:href="#S"/><use transform="matrix(0.05,0,0,0.05,38.9,0)" xlink:href="#E"/><use transform="matrix(0.05,0,0,0.05,42.85,0)" xlink:href="#T"/><use transform="matrix(0.05,0,0,0.05,47.85,0)" xlink:href="#M"/><use transform="matrix(0.05,0,0,0.05,57.85,0)" xlink:href="#L"/><use transform="matrix(0.05,0,0,0.05,67.85,0)" xlink:href="#H"/></g><path fill="#333" d="M30-248c87 1 191-15 191 75 0 78-77 80-158 76V0H30v-248zm33 125c57 0 124 11 124-50 0-59-68-47-124-48v98" id="aq"/><path fill="#333" d="M9 0v-24l116-142H16v-24h144v24L44-24h123V0H9" id="ar"/><g id="n"><use transform="matrix(0.05,0,0,0.05,0,0)" xlink:href="#aq"/><use transform="matrix(0.05,0,0,0.05,12,0)" xlink:href="#K"/><use transform="matrix(0.05,0,0,0.05,15.949999999999998,0)" xlink:href="#M"/><use transform="matrix(0.05,0,0,0.05,25.950000000000003,0)" xlink:href="#ar"/><use transform="matrix(0.05,0,0,0.05,34.95,0)" xlink:href="#M"/></g><g id="o"><use transform="matrix(0.05,0,0,0.05,0,0)" xlink:href="#L"/><use transform="matrix(0.05,0,0,0.05,10,0)" xlink:href="#E"/><use transform="matrix(0.05,0,0,0.05,13.949999999999998,0)" xlink:href="#F"/><use transform="matrix(0.05,0,0,0.05,22.95,0)" xlink:href="#G"/><use transform="matrix(0.05,0,0,0.05,32.95,0)" xlink:href="#H"/><use transform="matrix(0.05,0,0,0.05,42.95,0)" xlink:href="#I"/><use transform="matrix(0.05,0,0,0.05,52.95,0)" xlink:href="#E"/><use transform="matrix(0.05,0,0,0.05,56.900000000000006,0)" xlink:href="#J"/><use transform="matrix(0.05,0,0,0.05,66.9,0)" xlink:href="#K"/><use transform="matrix(0.05,0,0,0.05,70.85000000000001,0)" xlink:href="#O"/></g><path fill="#333" d="M106-169C34-169 62-67 57 0H25v-261h32l-1 103c12-21 28-36 61-36 89 0 53 116 60 194h-32v-121c2-32-8-49-39-48" id="as"/><g id="p"><use transform="matrix(0.05,0,0,0.05,0,0)" xlink:href="#N"/><use transform="matrix(0.05,0,0,0.05,12.950000000000001,0)" xlink:href="#O"/><use transform="matrix(0.05,0,0,0.05,22.950000000000003,0)" xlink:href="#S"/><use transform="matrix(0.05,0,0,0.05,31.950000000000003,0)" xlink:href="#as"/><use transform="matrix(0.05,0,0,0.05,41.95,0)" xlink:href="#M"/><use transform="matrix(0.05,0,0,0.05,51.95,0)" xlink:href="#ar"/><use transform="matrix(0.05,0,0,0.05,60.95,0)" xlink:href="#M"/><use transform="matrix(0.05,0,0,0.05,70.95,0)" xlink:href="#L"/><use transform="matrix(0.05,0,0,0.05,80.95,0)" xlink:href="#H"/></g><path fill="#333" d="M210-169c-67 3-38 105-44 169h-31v-121c0-29-5-50-35-48C34-165 62-65 56 0H25l-1-190h30c1 10-1 24 2 32 10-44 99-50 107 0 11-21 27-35 58-36 85-2 47 119 55 194h-31v-121c0-29-5-49-35-48" id="at"/><g id="q"><use transform="matrix(0.05,0,0,0.05,0,0)" xlink:href="#aq"/><use transform="matrix(0.05,0,0,0.05,12,0)" xlink:href="#O"/><use transform="matrix(0.05,0,0,0.05,22,0)" xlink:href="#V"/><use transform="matrix(0.05,0,0,0.05,27.950000000000003,0)" xlink:href="#at"/><use transform="matrix(0.05,0,0,0.05,42.9,0)" xlink:href="#E"/><use transform="matrix(0.05,0,0,0.05,46.85,0)" xlink:href="#T"/><use transform="matrix(0.05,0,0,0.05,51.85,0)" xlink:href="#E"/><use transform="matrix(0.05,0,0,0.05,55.800000000000004,0)" xlink:href="#L"/><use transform="matrix(0.05,0,0,0.05,65.80000000000001,0)" xlink:href="#H"/></g><g id="r"><use transform="matrix(0.05,0,0,0.05,0,0)" xlink:href="#N"/><use transform="matrix(0.05,0,0,0.05,12.950000000000001,0)" xlink:href="#O"/><use transform="matrix(0.05,0,0,0.05,22.950000000000003,0)" xlink:href="#ap"/><use transform="matrix(0.05,0,0,0.05,32.95,0)" xlink:href="#E"/><use transform="matrix(0.05,0,0,0.05,36.900000000000006,0)" xlink:href="#F"/><use transform="matrix(0.05,0,0,0.05,45.900000000000006,0)" xlink:href="#T"/><use transform="matrix(0.05,0,0,0.05,50.900000000000006,0)" xlink:href="#V"/><use transform="matrix(0.05,0,0,0.05,56.85,0)" xlink:href="#M"/><use transform="matrix(0.05,0,0,0.05,66.85000000000001,0)" xlink:href="#L"/><use transform="matrix(0.05,0,0,0.05,76.85000000000001,0)" xlink:href="#H"/></g><path fill="#333" d="M205 0l-28-72H64L36 0H1l101-248h38L239 0h-34zm-38-99l-47-123c-12 45-31 82-46 123h93" id="au"/><g id="s"><use transform="matrix(0.05,0,0,0.05,0,0)" xlink:href="#au"/><use transform="matrix(0.05,0,0,0.05,12,0)" xlink:href="#U"/><use transform="matrix(0.05,0,0,0.05,22,0)" xlink:href="#T"/><use transform="matrix(0.05,0,0,0.05,27,0)" xlink:href="#H"/><use transform="matrix(0.05,0,0,0.05,37,0)" xlink:href="#V"/><use transform="matrix(0.05,0,0,0.05,42.95,0)" xlink:href="#E"/><use transform="matrix(0.05,0,0,0.05,46.900000000000006,0)" xlink:href="#ar"/><use transform="matrix(0.05,0,0,0.05,55.900000000000006,0)" xlink:href="#M"/><use transform="matrix(0.05,0,0,0.05,65.9,0)" xlink:href="#L"/><use transform="matrix(0.05,0,0,0.05,75.9,0)" xlink:href="#H"/></g><g id="t"><use transform="matrix(0.05,0,0,0.05,0,0)" xlink:href="#N"/><use transform="matrix(0.05,0,0,0.05,12.950000000000001,0)" xlink:href="#O"/><use transform="matrix(0.05,0,0,0.05,22.950000000000003,0)" xlink:href="#P"/><use transform="matrix(0.05,0,0,0.05,31.950000000000003,0)" xlink:href="#E"/><use transform="matrix(0.05,0,0,0.05,35.900000000000006,0)" xlink:href="#F"/><use transform="matrix(0.05,0,0,0.05,44.900000000000006,0)" xlink:href="#M"/><use transform="matrix(0.05,0,0,0.05,54.900000000000006,0)" xlink:href="#L"/><use transform="matrix(0.05,0,0,0.05,64.9,0)" xlink:href="#M"/></g><g id="u"><use transform="matrix(0.05,0,0,0.05,0,0)" xlink:href="#ao"/><use transform="matrix(0.05,0,0,0.05,5,0)" xlink:href="#I"/><use transform="matrix(0.05,0,0,0.05,15,0)" xlink:href="#S"/><use transform="matrix(0.05,0,0,0.05,24,0)" xlink:href="#H"/><use transform="matrix(0.05,0,0,0.05,34,0)" xlink:href="#V"/><use transform="matrix(0.05,0,0,0.05,39.95,0)" xlink:href="#V"/><use transform="matrix(0.05,0,0,0.05,45.900000000000006,0)" xlink:href="#O"/><use transform="matrix(0.05,0,0,0.05,55.900000000000006,0)" xlink:href="#S"/><use transform="matrix(0.05,0,0,0.05,64.9,0)" xlink:href="#T"/><use transform="matrix(0.05,0,0,0.05,69.9,0)" xlink:href="#M"/></g><path fill="#333" d="M212-179c-10-28-35-45-73-45-59 0-87 40-87 99 0 60 29 101 89 101 43 0 62-24 78-52l27 14C228-24 195 4 139 4 59 4 22-46 18-125c-6-104 99-153 187-111 19 9 31 26 39 46" id="av"/><g id="v"><use transform="matrix(0.05,0,0,0.05,0,0)" xlink:href="#av"/><use transform="matrix(0.05,0,0,0.05,12.950000000000001,0)" xlink:href="#H"/><use transform="matrix(0.05,0,0,0.05,22.950000000000003,0)" xlink:href="#V"/><use transform="matrix(0.05,0,0,0.05,28.900000000000002,0)" xlink:href="#V"/><use transform="matrix(0.05,0,0,0.05,34.85,0)" xlink:href="#O"/><use transform="matrix(0.05,0,0,0.05,44.85,0)" xlink:href="#S"/><use transform="matrix(0.05,0,0,0.05,53.85,0)" xlink:href="#T"/><use transform="matrix(0.05,0,0,0.05,58.85,0)" xlink:href="#M"/></g><g id="w"><use transform="matrix(0.05,0,0,0.05,0,0)" xlink:href="#av"/><use transform="matrix(0.05,0,0,0.05,12.950000000000001,0)" xlink:href="#M"/><use transform="matrix(0.05,0,0,0.05,22.950000000000003,0)" xlink:href="#K"/><use transform="matrix(0.05,0,0,0.05,26.900000000000002,0)" xlink:href="#S"/><use transform="matrix(0.05,0,0,0.05,35.900000000000006,0)" xlink:href="#U"/><use transform="matrix(0.05,0,0,0.05,45.900000000000006,0)" xlink:href="#K"/><use transform="matrix(0.05,0,0,0.05,49.85000000000001,0)" xlink:href="#M"/><use transform="matrix(0.05,0,0,0.05,59.85,0)" xlink:href="#V"/></g><g id="x"><use transform="matrix(0.05,0,0,0.05,0,0)" xlink:href="#N"/><use transform="matrix(0.05,0,0,0.05,12.950000000000001,0)" xlink:href="#O"/><use transform="matrix(0.05,0,0,0.05,22.950000000000003,0)" xlink:href="#S"/><use transform="matrix(0.05,0,0,0.05,31.950000000000003,0)" xlink:href="#as"/><use transform="matrix(0.05,0,0,0.05,41.95,0)" xlink:href="#M"/><use transform="matrix(0.05,0,0,0.05,51.95,0)" xlink:href="#ar"/><use transform="matrix(0.05,0,0,0.05,60.95,0)" xlink:href="#M"/><use transform="matrix(0.05,0,0,0.05,70.95,0)" xlink:href="#L"/><use transform="matrix(0.05,0,0,0.05,80.95,0)" xlink:href="#M"/></g><g id="y"><use transform="matrix(0.05,0,0,0.05,0,0)" xlink:href="#N"/><use transform="matrix(0.05,0,0,0.05,12.950000000000001,0)" xlink:href="#O"/><use transform="matrix(0.05,0,0,0.05,22.950000000000003,0)" xlink:href="#S"/><use transform="matrix(0.05,0,0,0.05,31.950000000000003,0)" xlink:href="#E"/><use transform="matrix(0.05,0,0,0.05,35.900000000000006,0)" xlink:href="#J"/><use transform="matrix(0.05,0,0,0.05,45.900000000000006,0)" xlink:href="#E"/><use transform="matrix(0.05,0,0,0.05,49.85000000000001,0)" xlink:href="#L"/><use transform="matrix(0.05,0,0,0.05,59.85,0)" xlink:href="#M"/></g><g id="z"><use transform="matrix(0.05,0,0,0.05,0,0)" xlink:href="#aq"/><use transform="matrix(0.05,0,0,0.05,12,0)" xlink:href="#M"/><use transform="matrix(0.05,0,0,0.05,22,0)" xlink:href="#ap"/><use transform="matrix(0.05,0,0,0.05,32,0)" xlink:href="#M"/><use transform="matrix(0.05,0,0,0.05,42,0)" xlink:href="#L"/><use transform="matrix(0.05,0,0,0.05,52,0)" xlink:href="#M"/></g><path fill="#333" d="M143 4C61 4 22-44 18-125c-5-107 100-154 193-111 17 8 29 25 37 43l-32 9c-13-25-37-40-76-40-61 0-88 39-88 99 0 61 29 100 91 101 35 0 62-11 79-27v-45h-74v-28h105v86C228-13 192 4 143 4" id="aw"/><g id="A"><use transform="matrix(0.05,0,0,0.05,0,0)" xlink:href="#aw"/><use transform="matrix(0.05,0,0,0.05,14,0)" xlink:href="#O"/><use transform="matrix(0.05,0,0,0.05,24,0)" xlink:href="#I"/><use transform="matrix(0.05,0,0,0.05,34,0)" xlink:href="#O"/><use transform="matrix(0.05,0,0,0.05,44,0)" xlink:href="#V"/><use transform="matrix(0.05,0,0,0.05,49.95,0)" xlink:href="#M"/><use transform="matrix(0.05,0,0,0.05,59.95,0)" xlink:href="#V"/></g><path fill="#333" d="M30 0v-248h33v221h125V0H30" id="ax"/><g id="B"><use transform="matrix(0.05,0,0,0.05,0,0)" xlink:href="#an"/><use transform="matrix(0.05,0,0,0.05,12,0)" xlink:href="#au"/><use transform="matrix(0.05,0,0,0.05,24,0)" xlink:href="#ax"/><use transform="matrix(0.05,0,0,0.05,34,0)" xlink:href="#ao"/><use transform="matrix(0.05,0,0,0.05,39,0)" xlink:href="#D"/><use transform="matrix(0.05,0,0,0.05,51.95,0)" xlink:href="#au"/></g><path fill="#333" d="M30 0v-248h187v28H63v79h144v27H63v87h162V0H30" id="ay"/><path fill="#333" d="M140-251c81 0 123 46 123 126C263-46 219 4 140 4 59 4 17-45 17-125s42-126 123-126zm0 227c63 0 89-41 89-101s-29-99-89-99c-61 0-89 39-89 99S79-25 140-24" id="az"/><g id="C"><use transform="matrix(0.05,0,0,0.05,0,0)" xlink:href="#ao"/><use transform="matrix(0.05,0,0,0.05,5,0)" xlink:href="#am"/><use transform="matrix(0.05,0,0,0.05,17.950000000000003,0)" xlink:href="#aw"/><use transform="matrix(0.05,0,0,0.05,31.950000000000003,0)" xlink:href="#N"/><use transform="matrix(0.05,0,0,0.05,44.900000000000006,0)" xlink:href="#ay"/><use transform="matrix(0.05,0,0,0.05,56.900000000000006,0)" xlink:href="#an"/><use transform="matrix(0.05,0,0,0.05,68.9,0)" xlink:href="#az"/></g></defs></g></svg>