<svg xmlns="http://www.w3.org/2000/svg" xmlns:xlink="http://www.w3.org/1999/xlink" xmlns:lucid="lucid" width="1472.5" height="2296.73"><g transform="translate(0 0)" lucid:page-tab-id="0_0"><path d="M0 0h1472.5v2296.73H0z" fill="#fff"/><path d="M200 297.67v19.8m0 19.82v39.62m0 19.8v39.63m0 19.8v39.63m0 19.82v39.62m0 19.8v39.63m0 19.8v39.64m0 19.8v39.62m0 19.8v39.64m0 19.8v39.63m0 19.8v39.62m0 19.82v39.62m0 19.8v39.63m0 19.8v39.63m0 19.8v39.63m0 19.8V1209m0 19.8v39.63m0 19.8v39.63m0 19.8v39.64m0 19.8v39.63m0 19.8v39.64m0 19.8v39.63m0 19.8v39.63m0 19.82v39.62m0 19.8v39.63m0 19.8v39.64m0 19.8v39.63m0 19.8v39.64m0 19.82v39.62m0 19.8v39.63m0 19.82v39.6m0 19.82v39.62m0 19.8v39.64m0 19.8V2259M200 297.7v-4.03M200 2258.97v1.03" stroke="#333" stroke-width="2" fill="none"/><path d="M520.93 560.17h134.04l.02.02h118.14" stroke="#333" fill="none"/><path d="M520.95 560.67h-.52v-1h.52z" stroke="#333" stroke-width=".05" fill="#333"/><path d="M787.9 560.2l-14.26 4.62v-9.27z" stroke="#333" fill="#333"/><use xlink:href="#a" transform="matrix(1,0,0,1,603.2260353729442,564.1886690885502) translate(0.005000000000002558 14.222222222222223)"/><use xlink:href="#b" transform="matrix(1,0,0,1,603.2260353729442,564.1886690885502) translate(52.20253086419754 14.222222222222223)"/><path d="M309.4 76a8 8 0 0 1 8-8h836.75a8 8 0 0 1 8 8v25.16a8 8 0 0 1-8 8H317.4a8 8 0 0 1-8-8z" stroke="#000" stroke-opacity="0" stroke-width="2" fill="#fff" fill-opacity="0"/><use xlink:href="#c" transform="matrix(1,0,0,1,313.39655278534315,72) translate(188.71740740740745 25.782777777777778)"/><use xlink:href="#d" transform="matrix(1,0,0,1,313.39655278534315,72) translate(315.31246913580253 25.782777777777778)"/><use xlink:href="#e" transform="matrix(1,0,0,1,313.39655278534315,72) translate(353.1161728395062 25.782777777777778)"/><use xlink:href="#f" transform="matrix(1,0,0,1,313.39655278534315,72) translate(486.99518518518516 25.782777777777778)"/><use xlink:href="#g" transform="matrix(1,0,0,1,313.39655278534315,72) translate(502.94703703703703 25.782777777777778)"/><path d="M581.27 107.8h318.26M581.3 107.8h-1.03M899.5 107.8h1.03" stroke="#a9afb8" stroke-width="2" fill="none"/><path d="M309.4 117.16a8 8 0 0 1 8-8h837.7a8 8 0 0 1 8 8V120a8 8 0 0 1-8 8H317.4a8 8 0 0 1-8-8z" stroke="#000" stroke-opacity="0" stroke-width="2" fill="#fff" fill-opacity="0"/><path d="M500 381v20.2m0 20.2v40.37m0 20.2v40.38m0 20.2v40.4m0 20.18v40.4m0 20.18v40.4m0 20.2v40.38m0 20.2v40.38m0 20.2v40.38m0 20.2v40.38m0 20.2V1007m0 20.2v40.38m0 20.2v40.38m0 20.2v40.38m0 20.2v40.38m0 20.2v40.38m0 20.2v40.38m0 20.2v40.38m0 20.2v40.4m0 20.18v40.4m0 20.18v40.4m0 20.18v40.4m0 20.18v40.4m0 20.18v40.4m0 20.18v40.4m0 20.18v40.4m0 20.18v40.4m0 20.18v40.4m0 20.18v40.4m0 20.2v40.37m0 20.2v40.38m0 20.2v20.2" stroke="#333" stroke-width="2" fill="none"/><path d="M501 381.03h-2V377h2z" stroke="#333" stroke-width=".05" fill="#333"/><path d="M500 2258.97v1.03M810 362v19.76m0 19.76v39.52m0 19.76v39.52m0 19.76v39.52m0 19.77v39.52m0 19.75v39.52m0 19.76v39.52m0 19.76v39.53m0 19.76V856m0 19.77v39.52m0 19.75v39.52m0 19.76v39.52m0 19.76v39.54m0 19.76v39.52m0 19.76v39.52m0 19.76v39.52m0 19.76v39.52m0 19.76v39.52m0 19.76v39.52m0 19.76v39.52m0 19.76v39.53m0 19.75v39.52m0 19.76v39.52m0 19.76v39.53m0 19.76v39.5m0 19.77v39.52m0 19.75v39.52m0 19.76v39.52m0 19.76v39.54m0 19.76v39.52m0 19.76v39.52m0 19.76v39.52m0 19.76V2259" stroke="#333" stroke-width="2" fill="none"/><path d="M810 361l1-.03v1.06h-2v-1.08z" stroke="#333" stroke-width=".05" fill="#333"/><path d="M810 2258.97v1.03" stroke="#333" stroke-width="2" fill="none"/><path d="M560 310c0 27.6-22.4 50-50 50s-50-22.4-50-50 22.4-50 50-50 50 22.4 50 50z" stroke="#3a414a" stroke-width="2" fill="#fff"/><path d="M440 260v100m0-50h20" stroke="#3a414a" stroke-width="2" fill="none"/><use xlink:href="#h" transform="matrix(1,0,0,1,420,360) translate(58.074999999999996 14.4)"/><path d="M219.75 219.75c0 10.9-8.84 19.75-19.75 19.75-10.9 0-19.75-8.84-19.75-19.75 0-10.9 8.84-19.75 19.75-19.75 10.9 0 19.75 8.84 19.75 19.75z" stroke="#54c45e" stroke-width="2" fill="#fff"/><path d="M200 239.5v47.3a27.6 27.6 0 0 0 4.28 14.76L240 358m-40-63.2L160 358m0-98.75h80" stroke="#54c45e" stroke-width="2" fill="none"/><path d="M160 208a8 8 0 0 1 8-8h64a8 8 0 0 1 8 8v164a8 8 0 0 1-8 8h-64a8 8 0 0 1-8-8z" fill="none"/><use xlink:href="#i" transform="matrix(1,0,0,1,80,358) translate(83.01234567901234 14.555555555555555)"/><path d="M860 310c0 27.6-22.4 50-50 50s-50-22.4-50-50 22.4-50 50-50 50 22.4 50 50z" stroke="#3a414a" stroke-width="2" fill="#fff"/><path d="M820 254l-10 6 10 7.2" stroke="#3a414a" stroke-width="2" fill="none"/><use xlink:href="#j" transform="matrix(1,0,0,1,720,360) translate(55.525 14.4)"/><path d="M1110 360c-27.6 0-50-22.4-50-50s22.4-50 50-50 50 22.4 50 50-22.4 50-50 50z" stroke="#3a414a" stroke-width="2" fill="#fff"/><path d="M1060 360h100" stroke="#3a414a" stroke-width="2" fill="none"/><use xlink:href="#k" transform="matrix(1,0,0,1,1020,360) translate(29.125 14.4)"/><use xlink:href="#l" transform="matrix(1,0,0,1,1020,360) translate(77.075 14.4)"/><use xlink:href="#m" transform="matrix(1,0,0,1,1020,360) translate(103.025 14.4)"/><path d="M1110 381v20.2m0 20.2v40.37m0 20.2v40.38m0 20.2v40.4m0 20.18v40.4m0 20.18v40.4m0 20.2v40.38m0 20.2v40.38m0 20.2v40.38m0 20.2v40.38m0 20.2V1007m0 20.2v40.38m0 20.2v40.38m0 20.2v40.38m0 20.2v40.38m0 20.2v40.38m0 20.2v40.38m0 20.2v40.38m0 20.2v40.4m0 20.18v40.4m0 20.18v40.4m0 20.18v40.4m0 20.18v40.4m0 20.18v40.4m0 20.18v40.4m0 20.18v40.4m0 20.18v40.4m0 20.18v40.4m0 20.18v40.4m0 20.2v40.37m0 20.2v40.38m0 20.2v20.2" stroke="#333" stroke-width="2" fill="none"/><path d="M1111 381.03h-2V377h2z" stroke="#333" stroke-width=".05" fill="#333"/><path d="M1110 2258.97v1.03" stroke="#333" stroke-width="2" fill="none"/><path d="M180 488a8 8 0 0 1 8-8h24a8 8 0 0 1 8 8v204a8 8 0 0 1-8 8h-24a8 8 0 0 1-8-8z" stroke="#3a414a" fill="#fff"/><path d="M220.9 498.8H350a.06.06 0 0 0 .06-.07.06.06 0 0 1 .06-.05h113.22" stroke="#333" fill="none"/><path d="M220.92 499.3h-.5v-1h.5z" stroke="#333" stroke-width=".05" fill="#333"/><path d="M478.1 498.68l-14.26 4.63v-9.26z" stroke="#333" fill="#333"/><use xlink:href="#n" transform="matrix(1,0,0,1,285.96819201360785,502.791778716735) translate(0.0049999999999954525 14.222222222222223)"/><use xlink:href="#o" transform="matrix(1,0,0,1,285.96819201360785,502.791778716735) translate(70.0296913580247 14.222222222222223)"/><path d="M220.93 538.23H349.8a.18.18 0 0 0 .17-.18.18.18 0 0 1 .18-.17h113" stroke="#333" fill="none"/><path d="M220.94 538.73h-.5v-1h.5z" stroke="#333" stroke-width=".05" fill="#333"/><path d="M477.9 537.88l-14.26 4.63v-9.26z" stroke="#333" fill="#333"/><use xlink:href="#n" transform="matrix(1,0,0,1,271.04056421547335,542.2314448081567) translate(0.0049999999999954525 14.222222222222223)"/><use xlink:href="#p" transform="matrix(1,0,0,1,271.04056421547335,542.2314448081567) translate(70.0296913580247 14.222222222222223)"/><path d="M480 500.5a8 8 0 0 1 8-8h24a8 8 0 0 1 8 8V692a8 8 0 0 1-8 8h-24a8 8 0 0 1-8-8z" stroke="#3a414a" fill="#fff"/><path d="M830.98 581.35H1076.06" stroke="#333" fill="none"/><path d="M831 581.85h-.52v-1h.5z" stroke="#333" stroke-width=".05" fill="#333"/><path d="M1090.84 581.34l-14.27 4.63v-9.27z" stroke="#333" fill="#333"/><use xlink:href="#q" transform="matrix(1,0,0,1,858.8504315995666,585.3463527128176) translate(0.0049999999999954525 14.222222222222223)"/><use xlink:href="#r" transform="matrix(1,0,0,1,858.8504315995666,585.3463527128176) translate(80.84450617283952 14.222222222222223)"/><use xlink:href="#s" transform="matrix(1,0,0,1,858.8504315995666,585.3463527128176) translate(129.23956790123458 14.222222222222223)"/><use xlink:href="#t" transform="matrix(1,0,0,1,858.8504315995666,585.3463527128176) translate(153.93092592592595 14.222222222222223)"/><path d="M790 548a8 8 0 0 1 8-8h24a8 8 0 0 1 8 8v44a8 8 0 0 1-8 8h-24a8 8 0 0 1-8-8zM1092.94 568a8 8 0 0 1 8-8h24a8 8 0 0 1 8 8v84a8 8 0 0 1-8 8h-24a8 8 0 0 1-8-8z" stroke="#3a414a" fill="#fff"/><path d="M1092.02 638.62h-10.87m-10.87 0h-21.75m-10.88 0h-21.75m-10.87 0h-21.75m-10.87 0H961.52v.06h-9.58m-9.55 0h-19.1m-9.55 0h-19.1m-9.56 0h-19.1m-9.55 0h-9.54" stroke="#333" fill="none"/><path d="M1092.53 639.12h-.52v-1h.52z" stroke="#333" stroke-width=".05" fill="#333"/><path d="M832.1 638.7l14.26-4.65v9.27z" stroke="#333" fill="#333"/><use xlink:href="#u" transform="matrix(1,0,0,1,867.125,642.6187640179878) translate(0.0049999999999954525 14.4)"/><use xlink:href="#v" transform="matrix(1,0,0,1,867.125,642.6187640179878) translate(90.955 14.4)"/><use xlink:href="#w" transform="matrix(1,0,0,1,867.125,642.6187640179878) translate(115.955 14.4)"/><path d="M1133.86 580.8h27.57a12 12 0 0 1 12 12v34.45a12 12 0 0 1-12 12h-11.62" stroke="#3a414a" fill="none"/><path d="M1133.87 581.3h-.5v-1h.5z" stroke="#3a414a" stroke-width=".05" fill="#3a414a"/><path d="M1135.05 639.25l14.26-4.63v9.27z" stroke="#3a414a" fill="#3a414a"/><use xlink:href="#x" transform="matrix(1,0,0,1,1181.4282786662188,599.1887546525941) translate(0.005000000000002558 14.4)"/><path d="M789.1 660H777.9m-11.17 0H744.4m-11.16 0H710.9m-11.17 0H677.4m-11.17 0h-11.19v.04h-9.87m-9.84 0h-19.7m-9.84 0h-19.7m-9.85 0h-19.7m-9.84 0h-9.83M789.08 660h.5" stroke="#333" fill="none"/><path d="M522.1 660.04l14.27-4.63v9.28z" stroke="#333" fill="#333"/><use xlink:href="#y" transform="matrix(1,0,0,1,599.7654764169113,664) translate(0.0049999999999954525 14.4)"/><use xlink:href="#z" transform="matrix(1,0,0,1,599.7654764169113,664) translate(55.905 14.4)"/><path d="M479.1 681.27h-10.76m-10.74 0h-21.5m-10.75 0h-21.5m-10.75 0h-21.5m-10.74 0h-10.79v.02l-.02.02v.04l-.02.02-.02.02h-9.44m-9.42 0h-18.86m-9.42 0H284m-9.42 0h-18.85m-9.43 0h-9.42" stroke="#333" fill="none"/><path d="M479.6 681.77h-.52v-1h.5z" stroke="#333" stroke-width=".05" fill="#333"/><path d="M222.1 681.4l14.28-4.64v9.27z" stroke="#333" fill="#333"/><use xlink:href="#A" transform="matrix(1,0,0,1,256.2969842851352,685.2651840022247) translate(0.0049999999999954525 14.4)"/><use xlink:href="#B" transform="matrix(1,0,0,1,256.2969842851352,685.2651840022247) translate(65.855 14.4)"/><use xlink:href="#C" transform="matrix(1,0,0,1,256.2969842851352,685.2651840022247) translate(130.805 14.4)"/><use xlink:href="#D" transform="matrix(1,0,0,1,256.2969842851352,685.2651840022247) translate(155.805 14.4)"/><path d="M180 837.73a8 8 0 0 1 8-8h24a8 8 0 0 1 8 8V1692a8 8 0 0 1-8 8h-24a8 8 0 0 1-8-8z" stroke="#3a414a" fill="#fff"/><path d="M220.9 856.65h128.98a.07.07 0 0 0 .08-.07.07.07 0 0 1 .07-.07h113.1" stroke="#333" fill="none"/><path d="M220.92 857.15h-.52v-1h.52z" stroke="#333" stroke-width=".05" fill="#333"/><path d="M477.9 856.5l-14.27 4.64v-9.27z" stroke="#333" fill="#333"/><use xlink:href="#E" transform="matrix(1,0,0,1,282.4538768803445,860.6503634679578) translate(0.0049999999999954525 14.222222222222223)"/><use xlink:href="#F" transform="matrix(1,0,0,1,282.4538768803445,860.6503634679578) translate(76.84450617283952 14.222222222222223)"/><path d="M480 837.73a8 8 0 0 1 8-8h24a8 8 0 0 1 8 8V1012a8 8 0 0 1-8 8h-24a8 8 0 0 1-8-8z" stroke="#3a414a" fill="#fff"/><path d="M520.93 880h252.21" stroke="#333" fill="none"/><path d="M520.94 880.5h-.5v-1h.5z" stroke="#333" stroke-width=".05" fill="#333"/><path d="M787.9 880l-14.25 4.64v-9.27z" stroke="#333" fill="#333"/><use xlink:href="#G" transform="matrix(1,0,0,1,599.5953902207623,884.0061097391233) translate(0.005000000000002558 14.222222222222223)"/><use xlink:href="#H" transform="matrix(1,0,0,1,599.5953902207623,884.0061097391233) translate(59.4617901234568 14.222222222222223)"/><path d="M790 864.5a8 8 0 0 1 8-8h24a8 8 0 0 1 8 8V912a8 8 0 0 1-8 8h-24a8 8 0 0 1-8-8zM1090 888.03a8 8 0 0 1 8-8h24a8 8 0 0 1 8 8V972a8 8 0 0 1-8 8h-24a8 8 0 0 1-8-8z" stroke="#3a414a" fill="#fff"/><path d="M830.98 900.05h129l.02-.02h113.13" stroke="#333" fill="none"/><path d="M831 900.55h-.52v-1h.5z" stroke="#333" stroke-width=".05" fill="#333"/><path d="M1087.9 900.03l-14.27 4.64v-9.27z" stroke="#333" fill="#333"/><use xlink:href="#q" transform="matrix(1,0,0,1,847.0814768230965,904.0494320658985) translate(0.0049999999999954525 14.222222222222223)"/><use xlink:href="#I" transform="matrix(1,0,0,1,847.0814768230965,904.0494320658985) translate(80.84450617283952 14.222222222222223)"/><use xlink:href="#J" transform="matrix(1,0,0,1,847.0814768230965,904.0494320658985) translate(137.09141975308643 14.222222222222223)"/><path d="M1130.92 900.05h27.55a12 12 0 0 1 12 12v24a12 12 0 0 1-12 12h-11.6" stroke="#3a414a" fill="none"/><path d="M1130.93 900.55h-.5v-1h.5z" stroke="#3a414a" stroke-width=".05" fill="#3a414a"/><path d="M1132.1 948.04l14.26-4.63v9.28z" stroke="#3a414a" fill="#3a414a"/><use xlink:href="#x" transform="matrix(1,0,0,1,1178.4722878684229,913.2153952636588) translate(0.005000000000002558 14.4)"/><path d="M1089.1 964h-10.77m-10.76 0h-21.5m-10.77 0h-21.5m-10.77 0h-21.5m-10.77 0h-20.18m-9.43 0h-18.87m-9.43 0h-18.86m-9.44 0h-18.86m-9.44 0h-9.43" stroke="#333" fill="none"/><path d="M1089.6 964.5h-.52v-1h.5z" stroke="#333" stroke-width=".05" fill="#333"/><path d="M832.04 964l14.27-4.63v9.27z" stroke="#333" fill="#333"/><use xlink:href="#K" transform="matrix(1,0,0,1,853.1318762931744,968.0005038393043) translate(0.0049999999999954525 14.4)"/><use xlink:href="#L" transform="matrix(1,0,0,1,853.1318762931744,968.0005038393043) translate(77.805 14.4)"/><use xlink:href="#C" transform="matrix(1,0,0,1,853.1318762931744,968.0005038393043) translate(136.805 14.4)"/><use xlink:href="#M" transform="matrix(1,0,0,1,853.1318762931744,968.0005038393043) translate(161.805 14.4)"/><path d="M789.06 980H777.9m-11.18 0h-22.34m-11.17 0h-22.33m-11.17 0h-22.34m-11.17 0h-21.03m-9.84 0h-19.7m-9.84 0h-19.7m-9.85 0h-19.7m-9.84 0h-9.83" stroke="#333" fill="none"/><path d="M789.56 980.5h-.52v-1h.5z" stroke="#333" stroke-width=".05" fill="#333"/><path d="M522.1 980l14.27-4.64v9.27z" stroke="#333" fill="#333"/><use xlink:href="#y" transform="matrix(1,0,0,1,599.7473714622671,983.9911658461306) translate(0.0049999999999954525 14.4)"/><use xlink:href="#z" transform="matrix(1,0,0,1,599.7473714622671,983.9911658461306) translate(55.905 14.4)"/><path d="M479.1 1000h-10.76m-10.74 0h-21.5m-10.74 0h-21.5m-10.75 0h-21.48m-10.75 0h-10.79v.02h-.03v.03H350v.07l-.02.02v.03l-.02.02h-.02l-.02.02h-.02l-.02.02h-9.42m-9.43 0H312.2m-9.42 0h-18.85m-9.43 0h-18.85m-9.42 0h-9.43" stroke="#333" fill="none"/><path d="M479.6 1000.5h-.52v-1h.5z" stroke="#333" stroke-width=".05" fill="#333"/><path d="M222.04 1000.24l14.26-4.64v9.27z" stroke="#333" fill="#333"/><use xlink:href="#A" transform="matrix(1,0,0,1,276.31102019444484,1003.9979831063608) translate(0.0049999999999954525 14.4)"/><use xlink:href="#N" transform="matrix(1,0,0,1,276.31102019444484,1003.9979831063608) translate(65.855 14.4)"/><path d="M220.93 1060.22h128.92a.1.1 0 0 0 .12-.1.1.1 0 0 1 .1-.13h113.05" stroke="#333" fill="none"/><path d="M220.94 1060.72h-.5v-1h.5z" stroke="#333" stroke-width=".05" fill="#333"/><path d="M477.9 1060l-14.28 4.63v-9.27z" stroke="#333" fill="#333"/><use xlink:href="#E" transform="matrix(1,0,0,1,285.922636795201,1064.2215450125948) translate(0.0049999999999954525 14.222222222222223)"/><use xlink:href="#O" transform="matrix(1,0,0,1,285.922636795201,1064.2215450125948) translate(76.84450617283952 14.222222222222223)"/><path d="M480 1044.5a8 8 0 0 1 8-8h24a8 8 0 0 1 8 8V1252a8 8 0 0 1-8 8h-24a8 8 0 0 1-8-8z" stroke="#3a414a" fill="#fff"/><path d="M520.92 1082.68H773.15" stroke="#333" fill="none"/><path d="M520.93 1083.18h-.5v-1h.5z" stroke="#333" stroke-width=".05" fill="#333"/><path d="M787.9 1082.67l-14.25 4.63v-9.27z" stroke="#333" fill="#333"/><use xlink:href="#G" transform="matrix(1,0,0,1,596.1599699006579,1086.6792048978753) translate(0.005000000000002558 14.222222222222223)"/><use xlink:href="#o" transform="matrix(1,0,0,1,596.1599699006579,1086.6792048978753) translate(59.4617901234568 14.222222222222223)"/><path d="M790 1068.32a8 8 0 0 1 8-8h24a8 8 0 0 1 8 8v47.5a8 8 0 0 1-8 8h-24a8 8 0 0 1-8-8zM1092.94 1089.64a8 8 0 0 1 8-8h24a8 8 0 0 1 8 8v83.98a8 8 0 0 1-8 8h-24a8 8 0 0 1-8-8z" stroke="#3a414a" fill="#fff"/><path d="M830.97 1100h245.1" stroke="#333" fill="none"/><path d="M830.98 1100.5h-.5v-1h.5z" stroke="#333" stroke-width=".05" fill="#333"/><path d="M1090.84 1100l-14.27 4.65v-9.27z" stroke="#333" fill="#333"/><use xlink:href="#q" transform="matrix(1,0,0,1,891.9553501265743,1104.0112455713022) translate(0.0049999999999954525 14.222222222222223)"/><use xlink:href="#o" transform="matrix(1,0,0,1,891.9553501265743,1104.0112455713022) translate(80.84450617283952 14.222222222222223)"/><path d="M1133.86 1100h27.56a12 12 0 0 1 12 12v26.66a12 12 0 0 1-12 12h-11.62" stroke="#3a414a" fill="none"/><path d="M1133.87 1100.5h-.5v-1h.5z" stroke="#3a414a" stroke-width=".05" fill="#3a414a"/><path d="M1135.03 1150.66l14.27-4.64v9.27z" stroke="#3a414a" fill="#3a414a"/><use xlink:href="#x" transform="matrix(1,0,0,1,1181.416458841571,1114.4952403029947) translate(0.005000000000002558 14.4)"/><path d="M1092.02 1157.8h-10.22m-10.2 0h-20.45m-10.22 0h-20.43m-10.22 0h-20.43m-10.22 0H959.2m-10.23 0h-20.43m-10.22 0H897.9m-10.23 0h-20.44m-10.2 0H846.8" stroke="#333" fill="none"/><path d="M1092.52 1158.3h-.5v-1h.5z" stroke="#333" stroke-width=".05" fill="#333"/><path d="M832.03 1157.8l14.27-4.63v9.27z" stroke="#333" fill="#333"/><use xlink:href="#u" transform="matrix(1,0,0,1,850.5680233648474,1161.8057546952512) translate(0.0049999999999954525 14.4)"/><use xlink:href="#P" transform="matrix(1,0,0,1,850.5680233648474,1161.8057546952512) translate(90.955 14.4)"/><use xlink:href="#D" transform="matrix(1,0,0,1,850.5680233648474,1161.8057546952512) translate(162.905 14.4)"/><path d="M790 628a8 8 0 0 1 8-8h24a8 8 0 0 1 8 8v44a8 8 0 0 1-8 8h-24a8 8 0 0 1-8-8z" stroke="#3a414a" fill="#fff"/><path d="M789.06 1184H777.9m-11.18 0h-22.34m-11.17 0H710.9m-11.17 0h-22.33m-11.17 0h-11.17l-.02-.02h-9.84m-9.85 0h-19.68m-9.84 0h-19.7m-9.84 0h-19.7m-9.84 0h-9.85" stroke="#333" fill="none"/><path d="M789.56 1184.5h-.5v-1h.5z" stroke="#333" stroke-width=".05" fill="#333"/><path d="M522.1 1183.98l14.25-4.64v9.27z" stroke="#333" fill="#333"/><use xlink:href="#y" transform="matrix(1,0,0,1,590.1150748100647,1187.998148660635) translate(0.0049999999999954525 14.4)"/><use xlink:href="#Q" transform="matrix(1,0,0,1,590.1150748100647,1187.998148660635) translate(55.905 14.4)"/><path d="M790 1152.74a8 8 0 0 1 8-8h24a8 8 0 0 1 8 8v47.5a8 8 0 0 1-8 8h-24a8 8 0 0 1-8-8zM790 953.57a8 8 0 0 1 8-8h24a8 8 0 0 1 8 8v45.86a8 8 0 0 1-8 8h-24a8 8 0 0 1-8-8z" stroke="#3a414a" fill="#fff"/><path d="M479.08 1218.67h-10.75m-10.75 0h-21.5m-10.76 0h-21.5m-10.76 0h-21.5m-10.75 0h-10.78v.04l-.02.02h-9.45m-9.43 0h-18.86m-9.43 0h-18.86m-9.42 0H255.7m-9.44 0h-9.43" stroke="#333" fill="none"/><path d="M479.58 1219.17h-.5v-1h.5z" stroke="#333" stroke-width=".05" fill="#333"/><path d="M222.06 1218.75l14.27-4.64v9.28z" stroke="#333" fill="#333"/><use xlink:href="#R" transform="matrix(1,0,0,1,282.14053313734667,1222.7494477705784) translate(0.0049999999999954525 14.4)"/><use xlink:href="#S" transform="matrix(1,0,0,1,282.14053313734667,1222.7494477705784) translate(68.805 14.4)"/><path d="M480 1308a8 8 0 0 1 8-8h24a8 8 0 0 1 8 8v184a8 8 0 0 1-8 8h-24a8 8 0 0 1-8-8z" stroke="#3a414a" fill="#fff"/><path d="M220.96 1320H463.12" stroke="#333" fill="none"/><path d="M220.97 1320.5h-.5v-1h.5z" stroke="#333" stroke-width=".05" fill="#333"/><path d="M477.9 1320l-14.28 4.64v-9.27z" stroke="#333" fill="#333"/><use xlink:href="#n" transform="matrix(1,0,0,1,289.3149049853413,1324.0027954690752) translate(0.005000000000002558 14.222222222222223)"/><use xlink:href="#T" transform="matrix(1,0,0,1,289.3149049853413,1324.0027954690752) translate(70.0296913580247 14.222222222222223)"/><path d="M520.92 1336.5h251.81" stroke="#333" fill="none"/><path d="M520.93 1337h-.5v-1h.5z" stroke="#333" stroke-width=".05" fill="#333"/><path d="M787.5 1336.5l-14.27 4.63v-9.27z" stroke="#333" fill="#333"/><use xlink:href="#G" transform="matrix(1,0,0,1,599.3802622186147,1340.4960910477996) translate(0.005000000000002558 14.222222222222223)"/><use xlink:href="#T" transform="matrix(1,0,0,1,599.3802622186147,1340.4960910477996) translate(59.4617901234568 14.222222222222223)"/><path d="M790 1328a8 8 0 0 1 8-8h24a8 8 0 0 1 8 8v47.5a8 8 0 0 1-8 8h-24a8 8 0 0 1-8-8z" stroke="#3a414a" fill="#fff"/><path d="M830.97 1359.98h130.48l.02-.02h114.6" stroke="#333" fill="none"/><path d="M830.98 1360.48h-.5v-1h.5z" stroke="#333" stroke-width=".05" fill="#333"/><path d="M1090.84 1359.96l-14.27 4.64v-9.28z" stroke="#333" fill="#333"/><use xlink:href="#q" transform="matrix(1,0,0,1,895.389141932423,1363.983389956542) translate(0.0049999999999954525 14.222222222222223)"/><use xlink:href="#T" transform="matrix(1,0,0,1,895.389141932423,1363.983389956542) translate(80.84450617283952 14.222222222222223)"/><path d="M1092.94 1348a8 8 0 0 1 8-8h24a8 8 0 0 1 8 8v84a8 8 0 0 1-8 8h-24a8 8 0 0 1-8-8z" stroke="#3a414a" fill="#fff"/><path d="M1133.86 1361.37h27.56a12 12 0 0 1 12 12v23.87a12 12 0 0 1-12 12h-11.62" stroke="#3a414a" fill="none"/><path d="M1133.87 1361.87h-.5v-1h.5z" stroke="#3a414a" stroke-width=".05" fill="#3a414a"/><path d="M1135.03 1409.24l14.27-4.64v9.27z" stroke="#3a414a" fill="#3a414a"/><use xlink:href="#x" transform="matrix(1,0,0,1,1181.4166957500754,1374.4727620650815) translate(0.005000000000002558 14.4)"/><path d="M790 1408a8 8 0 0 1 8-8h24a8 8 0 0 1 8 8v47.5a8 8 0 0 1-8 8h-24a8 8 0 0 1-8-8z" stroke="#3a414a" fill="#fff"/><path d="M1092.02 1416.5h-10.88m-10.88 0h-21.75m-10.87 0h-21.76m-10.88 0h-21.77m-10.88 0H951.9m-9.54 0h-19.1m-9.57 0h-19.12m-9.55 0h-19.1m-9.57 0h-9.55" stroke="#333" fill="none"/><path d="M1092.52 1417h-.5v-1h.5z" stroke="#333" stroke-width=".05" fill="#333"/><path d="M832.04 1416.5l14.27-4.64v9.27z" stroke="#333" fill="#333"/><use xlink:href="#u" transform="matrix(1,0,0,1,854.0465947981745,1420.5025599508647) translate(0.0049999999999954525 14.4)"/><use xlink:href="#P" transform="matrix(1,0,0,1,854.0465947981745,1420.5025599508647) translate(90.955 14.4)"/><use xlink:href="#U" transform="matrix(1,0,0,1,854.0465947981745,1420.5025599508647) translate(162.905 14.4)"/><path d="M789.06 1440H777.9m-11.18 0H744.4m-11.18 0h-22.34m-11.17 0h-22.33m-11.17 0H655v.02h-9.83m-9.85 0h-19.7m-9.84 0h-19.7m-9.84 0h-19.7m-9.84 0h-9.84" stroke="#333" fill="none"/><path d="M789.57 1440.5h-.52v-1h.5z" stroke="#333" stroke-width=".05" fill="#333"/><path d="M522.1 1440.02l14.26-4.64v9.27z" stroke="#333" fill="#333"/><use xlink:href="#y" transform="matrix(1,0,0,1,590.118845195211,1444.0155934797024) translate(0.0049999999999954525 14.4)"/><use xlink:href="#Q" transform="matrix(1,0,0,1,590.118845195211,1444.0155934797024) translate(55.905 14.4)"/><path d="M479.1 1480h-10.76m-10.75 0h-21.5m-10.76 0h-21.5m-10.75 0h-21.5m-10.76 0h-10.78l-.02-.02v-.04l-.02-.02v-.02H340.55m-9.42 0h-18.86m-9.43 0H284m-9.43 0H255.7m-9.4 0h-9.44" stroke="#333" fill="none"/><path d="M479.6 1480.5h-.52v-1h.5z" stroke="#333" stroke-width=".05" fill="#333"/><path d="M222.1 1479.9l14.26-4.64v9.27z" stroke="#333" fill="#333"/><use xlink:href="#A" transform="matrix(1,0,0,1,280.1565394923686,1483.999842252186) translate(0.0049999999999954525 14.4)"/><use xlink:href="#Q" transform="matrix(1,0,0,1,280.1565394923686,1483.999842252186) translate(65.855 14.4)"/><path d="M790 1568a8 8 0 0 1 8-8h24a8 8 0 0 1 8 8v84a8 8 0 0 1-8 8h-24a8 8 0 0 1-8-8z" stroke="#3a414a" fill="#fff"/><path d="M220.98 1556.08h131.5a.03.03 0 0 0 .02-.04.03.03 0 0 1 .04-.03h115.6" stroke="#333" fill="none"/><path d="M221 1556.58h-.52v-1h.52z" stroke="#333" stroke-width=".05" fill="#333"/><path d="M482.9 1556l-14.27 4.64v-9.27z" stroke="#333" fill="#333"/><use xlink:href="#V" transform="matrix(1,0,0,1,301.2433718396593,1560.0777151488849) translate(0.005000000000002558 14.222222222222223)"/><use xlink:href="#W" transform="matrix(1,0,0,1,301.2433718396593,1560.0777151488849) translate(49.23956790123458 14.222222222222223)"/><path d="M485 1548a8 8 0 0 1 8-8h24a8 8 0 0 1 8 8v44a8 8 0 0 1-8 8h-24a8 8 0 0 1-8-8z" stroke="#3a414a" fill="#fff"/><path d="M525.97 1580.03h131.5a.02.02 0 0 0 .02-.02h115.63" stroke="#333" fill="none"/><path d="M526 1580.53h-.52v-1h.5z" stroke="#333" stroke-width=".05" fill="#333"/><path d="M787.9 1580l-14.27 4.63v-9.27z" stroke="#333" fill="#333"/><use xlink:href="#X" transform="matrix(1,0,0,1,595.8404257632412,1584.0323187690785) translate(0.005000000000002558 14.222222222222223)"/><use xlink:href="#W" transform="matrix(1,0,0,1,595.8404257632412,1584.0323187690785) translate(70.0296913580247 14.222222222222223)"/><path d="M789.07 1630.5h-10.52m-10.5 0H747m-10.52 0h-21.03m-10.52 0H683.9m-10.53 0h-21.03m-10.52 0h-21.04m-10.5 0h-21.05m-10.52 0H557.7m-10.52 0h-21.04m-10.52 0h-10.54l-.02.02v.04l-.02.02-.02.02h-9.94m-9.93 0h-19.86m-9.93 0h-19.86m-9.93 0H405.7m-9.94 0H375.9m-9.93 0H346.1m-9.92 0h-19.86m-9.93 0h-19.87m-9.93 0h-19.86m-9.93 0h-9.92" stroke="#333" fill="none"/><path d="M789.57 1631h-.5v-1h.5z" stroke="#333" stroke-width=".05" fill="#333"/><path d="M222.1 1630.6l14.28-4.63v9.27z" stroke="#333" fill="#333"/><use xlink:href="#Y" transform="matrix(1,0,0,1,592.8419772465729,1634.4959993113644) translate(0.005000000000002558 14.4)"/><use xlink:href="#Z" transform="matrix(1,0,0,1,592.8419772465729,1634.4959993113644) translate(69.70500000000001 14.4)"/><path d="M180 1768a8 8 0 0 1 8-8h24a8 8 0 0 1 8 8v444a8 8 0 0 1-8 8h-24a8 8 0 0 1-8-8z" stroke="#3a414a" fill="#fff"/><path d="M220.9 1800h241.82" stroke="#333" fill="none"/><path d="M220.92 1800.5h-.5v-1h.5z" stroke="#333" stroke-width=".05" fill="#333"/><path d="M477.5 1800l-14.28 4.64v-9.28z" stroke="#333" fill="#333"/><g><use xlink:href="#E" transform="matrix(1,0,0,1,288.17787087348023,1804.0149509698433) translate(0.005000000000002558 14.222222222222223)"/><use xlink:href="#aa" transform="matrix(1,0,0,1,288.17787087348023,1804.0149509698433) translate(76.84450617283952 14.222222222222223)"/></g><path d="M480 1788a8 8 0 0 1 8-8h24a8 8 0 0 1 8 8v84a8 8 0 0 1-8 8h-24a8 8 0 0 1-8-8z" stroke="#3a414a" fill="#fff"/><path d="M479.08 1859.98h-10.75m-10.76 0h-21.5m-10.76 0h-21.5m-10.75 0h-21.5m-10.77 0H350v.04h-9.45m-9.43 0h-18.86m-9.44 0h-18.86m-9.43 0h-18.86m-9.43 0h-9.43" stroke="#333" fill="none"/><path d="M479.58 1860.48h-.5v-1h.5z" stroke="#333" stroke-width=".05" fill="#333"/><path d="M222.04 1860.03l14.27-4.64v9.26z" stroke="#333" fill="#333"/><g><use xlink:href="#R" transform="matrix(1,0,0,1,288.6287914729641,1864.028637775205) translate(0.005000000000002558 14.4)"/><use xlink:href="#Z" transform="matrix(1,0,0,1,288.6287914729641,1864.028637775205) translate(68.805 14.4)"/></g><path d="M480 1928a8 8 0 0 1 8-8h24a8 8 0 0 1 8 8v204a8 8 0 0 1-8 8h-24a8 8 0 0 1-8-8z" stroke="#3a414a" fill="#fff"/><path d="M220.94 1940.02h129a.03.03 0 0 0 .03-.03.03.03 0 0 1 .03-.04h113.12" stroke="#333" fill="none"/><path d="M220.95 1940.52h-.5v-1h.5z" stroke="#333" stroke-width=".05" fill="#333"/><path d="M477.9 1939.96l-14.28 4.64v-9.27z" stroke="#333" fill="#333"/><g><use xlink:href="#n" transform="matrix(1,0,0,1,288.31969286062855,1944.0204230110878) translate(0.005000000000002558 14.222222222222223)"/><use xlink:href="#W" transform="matrix(1,0,0,1,288.31969286062855,1944.0204230110878) translate(70.0296913580247 14.222222222222223)"/></g><path d="M790 1948a8 8 0 0 1 8-8h24a8 8 0 0 1 8 8v264a8 8 0 0 1-8 8h-24a8 8 0 0 1-8-8z" stroke="#3a414a" fill="#fff"/><path d="M520.92 1960.08H654.9a.06.06 0 0 0 .06-.06.06.06 0 0 1 .06-.05h118.1" stroke="#333" fill="none"/><path d="M520.93 1960.58h-.5v-1h.5z" stroke="#333" stroke-width=".05" fill="#333"/><path d="M787.9 1959.97l-14.28 4.63v-9.27z" stroke="#333" fill="#333"/><g><use xlink:href="#G" transform="matrix(1,0,0,1,598.5932314734653,1964.0803907230509) translate(0.005000000000002558 14.222222222222223)"/><use xlink:href="#W" transform="matrix(1,0,0,1,598.5932314734653,1964.0803907230509) translate(59.4617901234568 14.222222222222223)"/></g><path d="M1080 1968a8 8 0 0 1 8-8h24a8 8 0 0 1 8 8v84a8 8 0 0 1-8 8h-24a8 8 0 0 1-8-8z" stroke="#3a414a" fill="#fff"/><path d="M830.9 1980.07h124.03a.03.03 0 0 0 .03-.04.03.03 0 0 1 .04-.03h108.13" stroke="#333" fill="none"/><path d="M830.93 1980.57h-.52v-1h.53z" stroke="#333" stroke-width=".05" fill="#333"/><path d="M1077.9 1980l-14.27 4.64v-9.28z" stroke="#333" fill="#333"/><g><use xlink:href="#q" transform="matrix(1,0,0,1,887.9034384007537,1984.0657976551033) translate(0.0049999999999954525 14.222222222222223)"/><use xlink:href="#W" transform="matrix(1,0,0,1,887.9034384007537,1984.0657976551033) translate(80.84450617283952 14.222222222222223)"/></g><path d="M1120.92 1981.34h27.56a12 12 0 0 1 12 12v29.34a12 12 0 0 1-12 12h-11.62" stroke="#3a414a" fill="none"/><path d="M1120.93 1981.84h-.5v-1h.5z" stroke="#3a414a" stroke-width=".05" fill="#3a414a"/><path d="M1122.1 2034.68l14.26-4.64v9.28z" stroke="#3a414a" fill="#3a414a"/><g><use xlink:href="#x" transform="matrix(1,0,0,1,1168.479972853552,1997.1794342489538) translate(0.005000000000002558 14.4)"/></g><path d="M1079.06 2020h-10.34m-10.33 0h-20.7m-10.33 0h-20.67m-10.34 0H975.7m-10.35 0H955v.02h-9.02m-9.03 0h-18.03m-9 0h-18.04m-9 0h-18.04m-9 0h-9.03" stroke="#333" fill="none"/><path d="M1079.56 2020.5h-.5v-1h.5z" stroke="#333" stroke-width=".05" fill="#333"/><path d="M832.05 2020.03l14.26-4.64v9.26z" stroke="#333" fill="#333"/><g><use xlink:href="#u" transform="matrix(1,0,0,1,846.5699523833914,2028.6615260135707) translate(0.0049999999999954525 14.4)"/><use xlink:href="#P" transform="matrix(1,0,0,1,846.5699523833914,2028.6615260135707) translate(90.955 14.4)"/><use xlink:href="#ab" transform="matrix(1,0,0,1,846.5699523833914,2028.6615260135707) translate(162.905 14.4)"/></g><path d="M789.02 2014.64h-27.5a12 12 0 0 0-12 12v42.7a12 12 0 0 0 12 12h11.65" stroke="#3a414a" fill="none"/><path d="M789.52 2015.14h-.5v-1h.5z" stroke="#3a414a" stroke-width=".05" fill="#3a414a"/><path d="M787.93 2081.34l-14.26 4.64v-9.27z" stroke="#3a414a" fill="#3a414a"/><g><use xlink:href="#ac" transform="matrix(1,0,0,1,615.7747644404034,2037.2022906349664) translate(0.005000000000002558 14.4)"/><use xlink:href="#ad" transform="matrix(1,0,0,1,615.7747644404034,2037.2022906349664) translate(70.805 14.4)"/></g><path d="M789.06 2120.1H777.9m-11.17 0H744.4m-11.17 0H710.9m-11.17 0H677.4m-11.17 0h-11.19v-.06H655l-.02-.02h-9.84m-9.85 0h-19.67m-9.85 0H586.1m-9.85 0h-19.68m-9.85 0h-9.84" stroke="#333" fill="none"/><path d="M789.56 2120.6h-.5v-1h.5z" stroke="#333" stroke-width=".05" fill="#333"/><path d="M522.1 2120.02l14.28-4.63v9.26z" stroke="#333" fill="#333"/><g><use xlink:href="#y" transform="matrix(1,0,0,1,590.1276381746187,2124.0930751727765) translate(0.0049999999999954525 14.4)"/><use xlink:href="#Q" transform="matrix(1,0,0,1,590.1276381746187,2124.0930751727765) translate(55.905 14.4)"/></g><path d="M789.1 2198.66h-10.23m-10.23 0H748.2m-10.24 0H717.5m-10.22 0h-20.45m-10.22 0h-20.45m-10.22 0h-20.46m-10.22 0H594.8m-10.23 0h-20.45m-10.23 0h-20.46m-10.23 0h-20.44m-10.23 0h-20.45m-10.22 0H441.4m-10.22 0h-20.45m-10.23 0h-20.45m-10.23 0h-20.45m-10.23 0H318.7m-10.24 0H288m-10.2 0h-20.47m-10.22 0H236.9" stroke="#333" fill="none"/><path d="M789.6 2199.16h-.52v-1h.5z" stroke="#333" stroke-width=".05" fill="#333"/><path d="M222.12 2198.66l14.26-4.63v9.27z" stroke="#333" fill="#333"/><g><use xlink:href="#Y" transform="matrix(1,0,0,1,592.3416666666669,2202.6635969877393) translate(0.005000000000002558 14.4)"/><use xlink:href="#ae" transform="matrix(1,0,0,1,592.3416666666669,2202.6635969877393) translate(69.70500000000001 14.4)"/></g><defs><path fill="#333" d="M14 0l48-248h34L48 0H14" id="af"/><path fill="#333" d="M67-158c22-48 132-52 116 29L158 0h-32l25-140c3-38-53-32-70-12C52-117 51-52 38 0H6l36-190h30" id="ag"/><path fill="#333" d="M50-231l6-30h32l-6 30H50zM6 0l37-190h31L37 0H6" id="ah"/><path fill="#333" d="M44-68c0 29 11 47 38 47 30 0 42-19 51-41l28 9C148-21 126 4 82 4 31 4 10-29 12-85c3-77 74-140 146-93 12 8 15 23 18 40l-31 5c-1-22-13-36-36-36-52 0-65 49-65 101" id="ai"/><path fill="#333" d="M165-48c-4 18 1 34 23 27l-3 20c-29 8-62 0-52-35h-2C116-14 99 4 63 4 30 4 8-16 8-49c0-68 71-67 138-67 10-26 0-56-31-54-26 1-42 9-47 31l-32-5c8-67 160-71 144 15-5 28-9 54-15 81zM42-50c3 52 80 24 89-6 7-12 7-24 11-38-47 1-103-4-100 44" id="aj"/><path fill="#333" d="M66-151c12-25 30-51 66-40l-6 26C45-176 58-65 38 0H6l36-190h30" id="ak"/><g id="a"><use transform="matrix(0.04938271604938272,0,0,0.04938271604938272,0,0)" xlink:href="#af"/><use transform="matrix(0.04938271604938272,0,0,0.04938271604938272,4.938271604938272,0)" xlink:href="#ag"/><use transform="matrix(0.04938271604938272,0,0,0.04938271604938272,14.814814814814817,0)" xlink:href="#ah"/><use transform="matrix(0.04938271604938272,0,0,0.04938271604938272,18.71604938271605,0)" xlink:href="#ai"/><use transform="matrix(0.04938271604938272,0,0,0.04938271604938272,27.60493827160494,0)" xlink:href="#ah"/><use transform="matrix(0.04938271604938272,0,0,0.04938271604938272,31.506172839506174,0)" xlink:href="#aj"/><use transform="matrix(0.04938271604938272,0,0,0.04938271604938272,41.38271604938272,0)" xlink:href="#ak"/></g><path fill="#333" d="M55-144c13 50 104 24 104 88C159 21 15 23 1-39l26-10c6 40 102 42 102-4-13-50-104-23-104-87 0-71 143-71 148-8l-29 4c-5-35-85-37-89 0" id="al"/><path fill="#333" d="M111-194c62-3 86 47 72 106H45c-7 38 6 69 45 68 27-1 43-14 53-32l24 11C152-15 129 4 87 4 38 3 12-23 12-71c0-70 32-119 99-123zm44 81c14-66-71-72-95-28-4 8-8 17-11 28h106" id="am"/><path fill="#333" d="M31-147c31-64 166-65 159 27C184-49 159 1 87 4 10 8 2-88 31-147zM89-20c53 0 68-48 68-100 0-31-11-51-44-50-52 1-68 46-68 97 0 32 13 53 44 53zm5-191c10-23 31-35 45-54h38l-1 5-66 49H94" id="an"/><g id="b"><use transform="matrix(0.04938271604938272,0,0,0.04938271604938272,0,0)" xlink:href="#al"/><use transform="matrix(0.04938271604938272,0,0,0.04938271604938272,8.88888888888889,0)" xlink:href="#am"/><use transform="matrix(0.04938271604938272,0,0,0.04938271604938272,18.765432098765434,0)" xlink:href="#al"/><use transform="matrix(0.04938271604938272,0,0,0.04938271604938272,27.654320987654323,0)" xlink:href="#ah"/><use transform="matrix(0.04938271604938272,0,0,0.04938271604938272,31.555555555555557,0)" xlink:href="#an"/><use transform="matrix(0.04938271604938272,0,0,0.04938271604938272,41.4320987654321,0)" xlink:href="#ag"/></g><path fill="#a9afb8" d="M24-248c120-7 223 5 221 122C244-46 201 0 124 0H24v-248zM76-40c74 7 117-18 117-86 0-67-45-88-117-82v168" id="ao"/><path fill="#a9afb8" d="M25-224v-37h50v37H25zM25 0v-190h50V0H25" id="ap"/><path fill="#a9afb8" d="M133-34C117-15 103 5 69 4 32 3 11-16 11-54c-1-60 55-63 116-61 1-26-3-47-28-47-18 1-26 9-28 27l-52-2c7-38 36-58 82-57s74 22 75 68l1 82c-1 14 12 18 25 15v27c-30 8-71 5-69-32zm-48 3c29 0 43-24 42-57-32 0-66-3-65 30 0 17 8 27 23 27" id="aq"/><path fill="#a9afb8" d="M195-6C206 82 75 100 31 46c-4-6-6-13-8-21l49-6c3 16 16 24 34 25 40 0 42-37 40-79-11 22-30 35-61 35-53 0-70-43-70-97 0-56 18-96 73-97 30 0 46 14 59 34l2-30h47zm-90-29c32 0 41-27 41-63 0-35-9-62-40-62-32 0-39 29-40 63 0 36 9 62 39 62" id="ar"/><path fill="#a9afb8" d="M135-150c-39-12-60 13-60 57V0H25l-1-190h47c2 13-1 29 3 40 6-28 27-53 61-41v41" id="as"/><path fill="#a9afb8" d="M220-157c-53 9-28 100-34 157h-49v-107c1-27-5-49-29-50C55-147 81-57 75 0H25l-1-190h47c2 12-1 28 3 38 10-53 101-56 108 0 13-22 24-43 59-42 82 1 51 116 57 194h-49v-107c-1-25-5-48-29-50" id="at"/><g id="c"><use transform="matrix(0.0728395061728395,0,0,0.0728395061728395,0,0)" xlink:href="#ao"/><use transform="matrix(0.0728395061728395,0,0,0.0728395061728395,18.86543209876543,0)" xlink:href="#ap"/><use transform="matrix(0.0728395061728395,0,0,0.0728395061728395,26.14938271604938,0)" xlink:href="#aq"/><use transform="matrix(0.0728395061728395,0,0,0.0728395061728395,40.717283950617286,0)" xlink:href="#ar"/><use transform="matrix(0.0728395061728395,0,0,0.0728395061728395,56.66913580246913,0)" xlink:href="#as"/><use transform="matrix(0.0728395061728395,0,0,0.0728395061728395,66.86666666666666,0)" xlink:href="#aq"/><use transform="matrix(0.0728395061728395,0,0,0.0728395061728395,81.43456790123457,0)" xlink:href="#at"/><use transform="matrix(0.0728395061728395,0,0,0.0728395061728395,104.7432098765432,0)" xlink:href="#aq"/></g><path fill="#a9afb8" d="M88-194c31-1 46 15 58 34l-1-101h50l1 261h-48c-2-10 0-23-3-31C134-8 116 4 84 4 32 4 16-41 15-95c0-56 19-97 73-99zm17 164c33 0 40-30 41-66 1-37-9-64-41-64s-38 30-39 65c0 43 13 65 39 65" id="au"/><path fill="#a9afb8" d="M185-48c-13 30-37 53-82 52C43 2 14-33 14-96s30-98 90-98c62 0 83 45 84 108H66c0 31 8 55 39 56 18 0 30-7 34-22zm-45-69c5-46-57-63-70-21-2 6-4 13-4 21h74" id="av"/><g id="d"><use transform="matrix(0.0728395061728395,0,0,0.0728395061728395,0,0)" xlink:href="#au"/><use transform="matrix(0.0728395061728395,0,0,0.0728395061728395,15.95185185185185,0)" xlink:href="#av"/></g><path fill="#a9afb8" d="M137-138c1-29-70-34-71-4 15 46 118 7 119 86 1 83-164 76-172 9l43-7c4 19 20 25 44 25 33 8 57-30 24-41C81-84 22-81 20-136c-2-80 154-74 161-7" id="aw"/><path fill="#a9afb8" d="M190-63c-7 42-38 67-86 67-59 0-84-38-90-98-12-110 154-137 174-36l-49 2c-2-19-15-32-35-32-30 0-35 28-38 64-6 74 65 87 74 30" id="ax"/><path fill="#a9afb8" d="M85 4C-2 5 27-109 22-190h50c7 57-23 150 33 157 60-5 35-97 40-157h50l1 190h-47c-2-12 1-28-3-38-12 25-28 42-61 42" id="ay"/><path fill="#a9afb8" d="M135-194c87-1 58 113 63 194h-50c-7-57 23-157-34-157-59 0-34 97-39 157H25l-1-190h47c2 12-1 28 3 38 12-26 28-41 61-42" id="az"/><g id="e"><use transform="matrix(0.0728395061728395,0,0,0.0728395061728395,0,0)" xlink:href="#aw"/><use transform="matrix(0.0728395061728395,0,0,0.0728395061728395,14.5679012345679,0)" xlink:href="#av"/><use transform="matrix(0.0728395061728395,0,0,0.0728395061728395,29.1358024691358,0)" xlink:href="#ax"/><use transform="matrix(0.0728395061728395,0,0,0.0728395061728395,43.7037037037037,0)" xlink:href="#ay"/><use transform="matrix(0.0728395061728395,0,0,0.0728395061728395,59.65555555555555,0)" xlink:href="#av"/><use transform="matrix(0.0728395061728395,0,0,0.0728395061728395,74.22345679012345,0)" xlink:href="#az"/><use transform="matrix(0.0728395061728395,0,0,0.0728395061728395,90.1753086419753,0)" xlink:href="#ax"/><use transform="matrix(0.0728395061728395,0,0,0.0728395061728395,104.7432098765432,0)" xlink:href="#ap"/><use transform="matrix(0.0728395061728395,0,0,0.0728395061728395,112.02716049382715,0)" xlink:href="#aq"/></g><path fill="#a9afb8" d="M14-72v-43h91v43H14" id="aA"/><use transform="matrix(0.0728395061728395,0,0,0.0728395061728395,0,0)" xlink:href="#aA" id="f"/><path fill="#a9afb8" d="M24-248c93 1 206-16 204 79-1 75-69 88-152 82V0H24v-248zm52 121c47 0 100 7 100-41 0-47-54-39-100-39v80" id="aB"/><path fill="#a9afb8" d="M84 4C32 4 15-41 15-95c0-55 18-99 73-99 29 0 47 12 58 34l2-30h48l-1 265h-49V-32C136-9 114 4 84 4zm21-34c32 0 41-29 41-66 0-36-9-64-40-64-33 0-39 30-40 65 0 43 13 65 39 65" id="aC"/><path fill="#a9afb8" d="M110-194c64 0 96 36 96 99 0 64-35 99-97 99-61 0-95-36-95-99 0-62 34-99 96-99zm-1 164c35 0 45-28 45-65 0-40-10-65-43-65-34 0-45 26-45 65 0 36 10 65 43 65" id="aD"/><g id="g"><use transform="matrix(0.0728395061728395,0,0,0.0728395061728395,0,0)" xlink:href="#aB"/><use transform="matrix(0.0728395061728395,0,0,0.0728395061728395,17.48148148148148,0)" xlink:href="#aq"/><use transform="matrix(0.0728395061728395,0,0,0.0728395061728395,32.04938271604938,0)" xlink:href="#as"/><use transform="matrix(0.0728395061728395,0,0,0.0728395061728395,42.24691358024691,0)" xlink:href="#aC"/><use transform="matrix(0.0728395061728395,0,0,0.0728395061728395,58.19876543209875,0)" xlink:href="#ay"/><use transform="matrix(0.0728395061728395,0,0,0.0728395061728395,74.15061728395061,0)" xlink:href="#av"/><use transform="matrix(0.0728395061728395,0,0,0.0728395061728395,88.7185185185185,0)" xlink:href="#aq"/><use transform="matrix(0.0728395061728395,0,0,0.0728395061728395,103.2864197530864,0)" xlink:href="#au"/><use transform="matrix(0.0728395061728395,0,0,0.0728395061728395,119.23827160493828,0)" xlink:href="#av"/><use transform="matrix(0.0728395061728395,0,0,0.0728395061728395,133.80617283950616,0)" xlink:href="#as"/><use transform="matrix(0.0728395061728395,0,0,0.0728395061728395,144.00370370370368,0)" xlink:href="#aD"/></g><path fill="#3a414a" d="M24 0v-248h52V0H24" id="aE"/><path fill="#3a414a" d="M135-194c87-1 58 113 63 194h-50c-7-57 23-157-34-157-59 0-34 97-39 157H25l-1-190h47c2 12-1 28 3 38 12-26 28-41 61-42" id="aF"/><path fill="#3a414a" d="M115-3C79 11 28 4 28-45v-112H4v-33h27l15-45h31v45h36v33H77v99c-1 23 16 31 38 25v30" id="aG"/><path fill="#3a414a" d="M185-48c-13 30-37 53-82 52C43 2 14-33 14-96s30-98 90-98c62 0 83 45 84 108H66c0 31 8 55 39 56 18 0 30-7 34-22zm-45-69c5-46-57-63-70-21-2 6-4 13-4 21h74" id="aH"/><path fill="#3a414a" d="M135-150c-39-12-60 13-60 57V0H25l-1-190h47c2 13-1 29 3 40 6-28 27-53 61-41v41" id="aI"/><path fill="#3a414a" d="M121-226c-27-7-43 5-38 36h38v33H83V0H34v-157H6v-33h28c-9-59 32-81 87-68v32" id="aJ"/><path fill="#3a414a" d="M133-34C117-15 103 5 69 4 32 3 11-16 11-54c-1-60 55-63 116-61 1-26-3-47-28-47-18 1-26 9-28 27l-52-2c7-38 36-58 82-57s74 22 75 68l1 82c-1 14 12 18 25 15v27c-30 8-71 5-69-32zm-48 3c29 0 43-24 42-57-32 0-66-3-65 30 0 17 8 27 23 27" id="aK"/><path fill="#3a414a" d="M12 0v-35l95-120H19v-35h142v35L67-36h103V0H12" id="aL"/><g id="h"><use transform="matrix(0.05,0,0,0.05,0,0)" xlink:href="#aE"/><use transform="matrix(0.05,0,0,0.05,5,0)" xlink:href="#aF"/><use transform="matrix(0.05,0,0,0.05,15.950000000000001,0)" xlink:href="#aG"/><use transform="matrix(0.05,0,0,0.05,21.900000000000002,0)" xlink:href="#aH"/><use transform="matrix(0.05,0,0,0.05,31.900000000000002,0)" xlink:href="#aI"/><use transform="matrix(0.05,0,0,0.05,38.900000000000006,0)" xlink:href="#aJ"/><use transform="matrix(0.05,0,0,0.05,44.85000000000001,0)" xlink:href="#aK"/><use transform="matrix(0.05,0,0,0.05,54.85,0)" xlink:href="#aL"/></g><path fill="#333" d="M140-251c80 0 125 45 125 126S219 4 139 4C58 4 15-44 15-125s44-126 125-126zm-1 214c52 0 73-35 73-88 0-50-21-86-72-86-52 0-73 35-73 86s22 88 72 88" id="aM"/><path fill="#333" d="M135-194c53 0 70 44 70 98 0 56-19 98-73 100-31 1-45-17-59-34 3 33 2 69 2 105H25l-1-265h48c2 10 0 23 3 31 11-24 29-35 60-35zM114-30c33 0 39-31 40-66 0-38-9-64-40-64-56 0-55 130 0 130" id="aN"/><path fill="#333" d="M185-48c-13 30-37 53-82 52C43 2 14-33 14-96s30-98 90-98c62 0 83 45 84 108H66c0 31 8 55 39 56 18 0 30-7 34-22zm-45-69c5-46-57-63-70-21-2 6-4 13-4 21h74" id="aO"/><path fill="#333" d="M135-150c-39-12-60 13-60 57V0H25l-1-190h47c2 13-1 29 3 40 6-28 27-53 61-41v41" id="aP"/><path fill="#333" d="M133-34C117-15 103 5 69 4 32 3 11-16 11-54c-1-60 55-63 116-61 1-26-3-47-28-47-18 1-26 9-28 27l-52-2c7-38 36-58 82-57s74 22 75 68l1 82c-1 14 12 18 25 15v27c-30 8-71 5-69-32zm-48 3c29 0 43-24 42-57-32 0-66-3-65 30 0 17 8 27 23 27" id="aQ"/><path fill="#333" d="M25-224v-37h50v37H25zM25 0v-190h50V0H25" id="aR"/><path fill="#333" d="M110-194c64 0 96 36 96 99 0 64-35 99-97 99-61 0-95-36-95-99 0-62 34-99 96-99zm-1 164c35 0 45-28 45-65 0-40-10-65-43-65-34 0-45 26-45 65 0 36 10 65 43 65" id="aS"/><g id="i"><use transform="matrix(0.04938271604938272,0,0,0.04938271604938272,0,0)" xlink:href="#aM"/><use transform="matrix(0.04938271604938272,0,0,0.04938271604938272,13.827160493827162,0)" xlink:href="#aN"/><use transform="matrix(0.04938271604938272,0,0,0.04938271604938272,24.641975308641975,0)" xlink:href="#aO"/><use transform="matrix(0.04938271604938272,0,0,0.04938271604938272,34.51851851851852,0)" xlink:href="#aP"/><use transform="matrix(0.04938271604938272,0,0,0.04938271604938272,41.4320987654321,0)" xlink:href="#aQ"/><use transform="matrix(0.04938271604938272,0,0,0.04938271604938272,51.308641975308646,0)" xlink:href="#aP"/><use transform="matrix(0.04938271604938272,0,0,0.04938271604938272,58.22222222222223,0)" xlink:href="#aR"/><use transform="matrix(0.04938271604938272,0,0,0.04938271604938272,63.1604938271605,0)" xlink:href="#aS"/></g><path fill="#3a414a" d="M169-182c-1-43-94-46-97-3 18 66 151 10 154 114 3 95-165 93-204 36-6-8-10-19-12-30l50-8c3 46 112 56 116 5-17-69-150-10-154-114-4-87 153-88 188-35 5 8 8 18 10 28" id="aT"/><path fill="#3a414a" d="M25-224v-37h50v37H25zM25 0v-190h50V0H25" id="aU"/><path fill="#3a414a" d="M137-138c1-29-70-34-71-4 15 46 118 7 119 86 1 83-164 76-172 9l43-7c4 19 20 25 44 25 33 8 57-30 24-41C81-84 22-81 20-136c-2-80 154-74 161-7" id="aV"/><path fill="#3a414a" d="M220-157c-53 9-28 100-34 157h-49v-107c1-27-5-49-29-50C55-147 81-57 75 0H25l-1-190h47c2 12-1 28 3 38 10-53 101-56 108 0 13-22 24-43 59-42 82 1 51 116 57 194h-49v-107c-1-25-5-48-29-50" id="aW"/><g id="j"><use transform="matrix(0.05,0,0,0.05,0,0)" xlink:href="#aT"/><use transform="matrix(0.05,0,0,0.05,12,0)" xlink:href="#aU"/><use transform="matrix(0.05,0,0,0.05,17,0)" xlink:href="#aV"/><use transform="matrix(0.05,0,0,0.05,27,0)" xlink:href="#aG"/><use transform="matrix(0.05,0,0,0.05,32.95,0)" xlink:href="#aH"/><use transform="matrix(0.05,0,0,0.05,42.95,0)" xlink:href="#aW"/><use transform="matrix(0.05,0,0,0.05,58.95,0)" xlink:href="#aK"/></g><path fill="#3a414a" d="M182-130c37 4 62 22 62 59C244 23 116-4 24 0v-248c84 5 203-23 205 63 0 31-19 50-47 55zM76-148c40-3 101 13 101-30 0-44-60-28-101-31v61zm0 110c48-3 116 14 116-37 0-48-69-32-116-35v72" id="aX"/><g id="k"><use transform="matrix(0.05,0,0,0.05,0,0)" xlink:href="#aX"/><use transform="matrix(0.05,0,0,0.05,12.950000000000001,0)" xlink:href="#aK"/><use transform="matrix(0.05,0,0,0.05,22.950000000000003,0)" xlink:href="#aV"/><use transform="matrix(0.05,0,0,0.05,32.95,0)" xlink:href="#aH"/></g><path fill="#3a414a" d="M88-194c31-1 46 15 58 34l-1-101h50l1 261h-48c-2-10 0-23-3-31C134-8 116 4 84 4 32 4 16-41 15-95c0-56 19-97 73-99zm17 164c33 0 40-30 41-66 1-37-9-64-41-64s-38 30-39 65c0 43 13 65 39 65" id="aY"/><g id="l"><use transform="matrix(0.05,0,0,0.05,0,0)" xlink:href="#aY"/><use transform="matrix(0.05,0,0,0.05,10.950000000000001,0)" xlink:href="#aH"/></g><path fill="#3a414a" d="M110-194c64 0 96 36 96 99 0 64-35 99-97 99-61 0-95-36-95-99 0-62 34-99 96-99zm-1 164c35 0 45-28 45-65 0-40-10-65-43-65-34 0-45 26-45 65 0 36 10 65 43 65" id="aZ"/><g id="m"><use transform="matrix(0.05,0,0,0.05,0,0)" xlink:href="#aY"/><use transform="matrix(0.05,0,0,0.05,10.950000000000001,0)" xlink:href="#aK"/><use transform="matrix(0.05,0,0,0.05,20.950000000000003,0)" xlink:href="#aG"/><use transform="matrix(0.05,0,0,0.05,26.900000000000002,0)" xlink:href="#aZ"/><use transform="matrix(0.05,0,0,0.05,37.85,0)" xlink:href="#aV"/></g><path fill="#333" d="M103-194c29 0 47 14 56 36 2-11 5-23 8-32h30L160-5C157 61 82 97 21 62 9 55 4 45 1 30l28-7c7 42 83 31 92-3 4-16 9-38 13-55-13 20-29 36-62 36-40 0-60-25-60-64 0-71 23-131 91-131zm4 24c-53 0-58 54-61 104-2 27 10 44 36 44 49 0 65-50 67-102 1-29-15-46-42-46" id="ba"/><g id="n"><use transform="matrix(0.04938271604938272,0,0,0.04938271604938272,0,0)" xlink:href="#af"/><use transform="matrix(0.04938271604938272,0,0,0.04938271604938272,4.938271604938272,0)" xlink:href="#ag"/><use transform="matrix(0.04938271604938272,0,0,0.04938271604938272,14.814814814814817,0)" xlink:href="#ba"/><use transform="matrix(0.04938271604938272,0,0,0.04938271604938272,24.69135802469136,0)" xlink:href="#ak"/><use transform="matrix(0.04938271604938272,0,0,0.04938271604938272,30.567901234567906,0)" xlink:href="#am"/><use transform="matrix(0.04938271604938272,0,0,0.04938271604938272,40.44444444444445,0)" xlink:href="#al"/><use transform="matrix(0.04938271604938272,0,0,0.04938271604938272,49.33333333333334,0)" xlink:href="#aj"/><use transform="matrix(0.04938271604938272,0,0,0.04938271604938272,59.209876543209894,0)" xlink:href="#ak"/></g><path fill="#333" d="M67 3c-93-2-31-127-26-193h32L48-50c-3 39 53 32 70 12 30-34 30-101 43-152h32L157 0h-30c1-10 6-24 4-33-14 20-29 37-64 36" id="bb"/><path fill="#333" d="M30-147c31-64 166-65 159 27C183-49 158 1 86 4 9 8 1-88 30-147zM88-20c53 0 68-48 68-100 0-31-11-51-44-50-52 1-68 46-68 97 0 32 13 53 44 53" id="bc"/><g id="o"><use transform="matrix(0.04938271604938272,0,0,0.04938271604938272,0,0)" xlink:href="#bb"/><use transform="matrix(0.04938271604938272,0,0,0.04938271604938272,9.876543209876544,0)" xlink:href="#al"/><use transform="matrix(0.04938271604938272,0,0,0.04938271604938272,18.765432098765434,0)" xlink:href="#bb"/><use transform="matrix(0.04938271604938272,0,0,0.04938271604938272,28.641975308641978,0)" xlink:href="#aj"/><use transform="matrix(0.04938271604938272,0,0,0.04938271604938272,38.51851851851852,0)" xlink:href="#ak"/><use transform="matrix(0.04938271604938272,0,0,0.04938271604938272,44.39506172839506,0)" xlink:href="#ah"/><use transform="matrix(0.04938271604938272,0,0,0.04938271604938272,48.2962962962963,0)" xlink:href="#bc"/></g><path fill="#333" d="M51-54c-9 22 5 41 31 30L79-1C43 14 10-4 19-52l22-115H19l5-23h22l19-43h21l-9 43h35l-4 23H73" id="bd"/><path fill="#333" d="M67-158c22-48 132-52 116 29L158 0h-32l25-140c3-38-53-32-70-12C52-117 51-52 38 0H6l36-190h30zm126-100c-8 21-15 46-44 47-22 0-30-19-50-21-14 0-21 10-25 21H58c8-21 14-47 44-47 22 0 32 18 50 21 13-1 21-10 25-21h16" id="be"/><g id="p"><use transform="matrix(0.04938271604938272,0,0,0.04938271604938272,0,0)" xlink:href="#ai"/><use transform="matrix(0.04938271604938272,0,0,0.04938271604938272,8.88888888888889,0)" xlink:href="#bc"/><use transform="matrix(0.04938271604938272,0,0,0.04938271604938272,18.765432098765434,0)" xlink:href="#ag"/><use transform="matrix(0.04938271604938272,0,0,0.04938271604938272,28.641975308641978,0)" xlink:href="#bd"/><use transform="matrix(0.04938271604938272,0,0,0.04938271604938272,33.580246913580254,0)" xlink:href="#ak"/><use transform="matrix(0.04938271604938272,0,0,0.04938271604938272,39.4567901234568,0)" xlink:href="#aj"/><use transform="matrix(0.04938271604938272,0,0,0.04938271604938272,49.33333333333334,0)" xlink:href="#al"/><use transform="matrix(0.04938271604938272,0,0,0.04938271604938272,58.22222222222223,0)" xlink:href="#am"/><use transform="matrix(0.04938271604938272,0,0,0.04938271604938272,68.09876543209877,0)" xlink:href="#be"/><use transform="matrix(0.04938271604938272,0,0,0.04938271604938272,77.97530864197532,0)" xlink:href="#aj"/></g><path fill="#333" d="M125-24c46 0 70-25 89-51l25 16C214-24 183 4 123 4 8 4-5-146 60-208c32-50 158-61 191-5 5 7 9 14 11 22l-32 10c-9-28-33-43-69-43-74 0-108 51-108 125 0 46 24 75 72 75" id="bf"/><path fill="#333" d="M6 0l50-261h32L37 0H6" id="bg"/><g id="q"><use transform="matrix(0.04938271604938272,0,0,0.04938271604938272,0,0)" xlink:href="#bf"/><use transform="matrix(0.04938271604938272,0,0,0.04938271604938272,12.790123456790125,0)" xlink:href="#bc"/><use transform="matrix(0.04938271604938272,0,0,0.04938271604938272,22.66666666666667,0)" xlink:href="#ag"/><use transform="matrix(0.04938271604938272,0,0,0.04938271604938272,32.543209876543216,0)" xlink:href="#al"/><use transform="matrix(0.04938271604938272,0,0,0.04938271604938272,41.4320987654321,0)" xlink:href="#bb"/><use transform="matrix(0.04938271604938272,0,0,0.04938271604938272,51.308641975308646,0)" xlink:href="#bg"/><use transform="matrix(0.04938271604938272,0,0,0.04938271604938272,55.20987654320988,0)" xlink:href="#bd"/><use transform="matrix(0.04938271604938272,0,0,0.04938271604938272,60.14814814814815,0)" xlink:href="#aj"/><use transform="matrix(0.04938271604938272,0,0,0.04938271604938272,70.0246913580247,0)" xlink:href="#ak"/></g><path fill="#333" d="M133-28C103 26-5 8 13-77c13-62 24-115 90-117 29-1 46 15 56 35l19-102h32L160 0h-30zM45-64c-2 27 10 43 35 43 54-1 69-50 69-103 0-29-15-46-42-46-53-1-58 58-62 106" id="bh"/><g id="r"><use transform="matrix(0.04938271604938272,0,0,0.04938271604938272,0,0)" xlink:href="#bh"/><use transform="matrix(0.04938271604938272,0,0,0.04938271604938272,9.876543209876544,0)" xlink:href="#aj"/><use transform="matrix(0.04938271604938272,0,0,0.04938271604938272,19.75308641975309,0)" xlink:href="#bd"/><use transform="matrix(0.04938271604938272,0,0,0.04938271604938272,24.69135802469136,0)" xlink:href="#bc"/><use transform="matrix(0.04938271604938272,0,0,0.04938271604938272,34.567901234567906,0)" xlink:href="#al"/></g><g id="s"><use transform="matrix(0.04938271604938272,0,0,0.04938271604938272,0,0)" xlink:href="#bh"/><use transform="matrix(0.04938271604938272,0,0,0.04938271604938272,9.876543209876544,0)" xlink:href="#am"/></g><g id="t"><use transform="matrix(0.04938271604938272,0,0,0.04938271604938272,0,0)" xlink:href="#al"/><use transform="matrix(0.04938271604938272,0,0,0.04938271604938272,8.88888888888889,0)" xlink:href="#am"/><use transform="matrix(0.04938271604938272,0,0,0.04938271604938272,18.765432098765434,0)" xlink:href="#al"/><use transform="matrix(0.04938271604938272,0,0,0.04938271604938272,27.654320987654323,0)" xlink:href="#ah"/><use transform="matrix(0.04938271604938272,0,0,0.04938271604938272,31.555555555555557,0)" xlink:href="#an"/><use transform="matrix(0.04938271604938272,0,0,0.04938271604938272,41.4320987654321,0)" xlink:href="#ag"/></g><path fill="#3a414a" d="M249-183c0 48-29 72-75 77L221 0h-36l-43-103H65L45 0H11l48-248c83 2 190-17 190 65zm-34 3c0-55-74-39-127-41l-18 92c63-1 145 13 145-51" id="bi"/><path fill="#3a414a" d="M111-194c62-3 86 47 72 106H45c-7 38 6 69 45 68 27-1 43-14 53-32l24 11C152-15 129 4 87 4 38 3 12-23 12-71c0-70 32-119 99-123zm44 81c14-66-71-72-95-28-4 8-8 17-11 28h106" id="bj"/><path fill="#3a414a" d="M55-144c13 50 104 24 104 88C159 21 15 23 1-39l26-10c6 40 102 42 102-4-13-50-104-23-104-87 0-71 143-71 148-8l-29 4c-5-35-85-37-89 0" id="bk"/><path fill="#3a414a" d="M67-162c32-53 139-36 121 50C175-51 163 2 97 4 68 4 52-11 42-31 38 6 28 39 22 75H-9l50-265h29c-1 10 0 20-3 28zm89 36c0-26-10-43-35-43-54 0-67 50-69 103-1 29 14 45 42 46 53 0 62-58 62-106" id="bl"/><path fill="#3a414a" d="M67 3c-93-2-31-127-26-193h32L48-50c-3 39 53 32 70 12 30-34 30-101 43-152h32L157 0h-30c1-10 6-24 4-33-14 20-29 37-64 36" id="bm"/><path fill="#3a414a" d="M51-54c-9 22 5 41 31 30L79-1C43 14 10-4 19-52l22-115H19l5-23h22l19-43h21l-9 43h35l-4 23H73" id="bn"/><path fill="#3a414a" d="M165-48c-4 18 1 34 23 27l-3 20c-29 8-62 0-52-35h-2C116-14 99 4 63 4 30 4 8-16 8-49c0-68 71-67 138-67 10-26 0-56-31-54-26 1-42 9-47 31l-32-5c8-67 160-71 144 15-5 28-9 54-15 81zM42-50c3 52 80 24 89-6 7-12 7-24 11-38-47 1-103-4-100 44" id="bo"/><g id="u"><use transform="matrix(0.05,0,0,0.05,0,0)" xlink:href="#bi"/><use transform="matrix(0.05,0,0,0.05,12.950000000000001,0)" xlink:href="#bj"/><use transform="matrix(0.05,0,0,0.05,22.950000000000003,0)" xlink:href="#bk"/><use transform="matrix(0.05,0,0,0.05,31.950000000000003,0)" xlink:href="#bl"/><use transform="matrix(0.05,0,0,0.05,41.95,0)" xlink:href="#bm"/><use transform="matrix(0.05,0,0,0.05,51.95,0)" xlink:href="#bj"/><use transform="matrix(0.05,0,0,0.05,61.95,0)" xlink:href="#bk"/><use transform="matrix(0.05,0,0,0.05,70.95,0)" xlink:href="#bn"/><use transform="matrix(0.05,0,0,0.05,75.95,0)" xlink:href="#bo"/></g><path fill="#3a414a" d="M133-28C103 26-5 8 13-77c13-62 24-115 90-117 29-1 46 15 56 35l19-102h32L160 0h-30zM45-64c-2 27 10 43 35 43 54-1 69-50 69-103 0-29-15-46-42-46-53-1-58 58-62 106" id="bp"/><g id="v"><use transform="matrix(0.05,0,0,0.05,0,0)" xlink:href="#bp"/><use transform="matrix(0.05,0,0,0.05,10,0)" xlink:href="#bj"/></g><path fill="#3a414a" d="M44-68c0 29 11 47 38 47 30 0 42-19 51-41l28 9C148-21 126 4 82 4 31 4 10-29 12-85c3-77 74-140 146-93 12 8 15 23 18 40l-31 5c-1-22-13-36-36-36-52 0-65 49-65 101" id="bq"/><path fill="#3a414a" d="M30-147c31-64 166-65 159 27C183-49 158 1 86 4 9 8 1-88 30-147zM88-20c53 0 68-48 68-100 0-31-11-51-44-50-52 1-68 46-68 97 0 32 13 53 44 53" id="br"/><path fill="#3a414a" d="M67-158c22-48 132-52 116 29L158 0h-32l25-140c3-38-53-32-70-12C52-117 51-52 38 0H6l36-190h30" id="bs"/><path fill="#3a414a" d="M76-167L44 0H12l33-167H18l4-23h27c3-47 25-81 82-69l-4 24c-35-8-44 15-46 45h37l-5 23H76" id="bt"/><path fill="#3a414a" d="M50-231l6-30h32l-6 30H50zM6 0l37-190h31L37 0H6" id="bu"/><path fill="#3a414a" d="M66-151c12-25 30-51 66-40l-6 26C45-176 58-65 38 0H6l36-190h30" id="bv"/><path fill="#3a414a" d="M248-111c6-24 9-61-24-58-72 9-57 108-77 169h-31l26-142c3-37-50-30-64-10C52-115 50-51 37 0H6l36-190h30c-1 10-6 24-4 32 13-43 101-52 105 5 13-22 29-41 61-41 90 0 28 129 23 194h-31" id="bw"/><path fill="#3a414a" d="M31-147c31-64 166-65 159 27C184-49 159 1 87 4 10 8 2-88 31-147zM89-20c53 0 68-48 68-100 0-31-11-51-44-50-52 1-68 46-68 97 0 32 13 53 44 53zm5-191c10-23 31-35 45-54h38l-1 5-66 49H94" id="bx"/><g id="w"><use transform="matrix(0.05,0,0,0.05,0,0)" xlink:href="#bq"/><use transform="matrix(0.05,0,0,0.05,9,0)" xlink:href="#br"/><use transform="matrix(0.05,0,0,0.05,19,0)" xlink:href="#bs"/><use transform="matrix(0.05,0,0,0.05,29,0)" xlink:href="#bt"/><use transform="matrix(0.05,0,0,0.05,34,0)" xlink:href="#bu"/><use transform="matrix(0.05,0,0,0.05,37.95,0)" xlink:href="#bv"/><use transform="matrix(0.05,0,0,0.05,43.900000000000006,0)" xlink:href="#bw"/><use transform="matrix(0.05,0,0,0.05,58.85,0)" xlink:href="#bo"/><use transform="matrix(0.05,0,0,0.05,68.85000000000001,0)" xlink:href="#bq"/><use transform="matrix(0.05,0,0,0.05,77.85000000000001,0)" xlink:href="#bu"/><use transform="matrix(0.05,0,0,0.05,81.80000000000001,0)" xlink:href="#bx"/><use transform="matrix(0.05,0,0,0.05,91.80000000000001,0)" xlink:href="#bs"/></g><path fill="#3a414a" d="M137 0h-34L2-248h35l83 218 83-218h36" id="by"/><path fill="#3a414a" d="M100-194c63 0 86 42 84 106H49c0 40 14 67 53 68 26 1 43-12 49-29l28 8c-11 28-37 45-77 45C44 4 14-33 15-96c1-61 26-98 85-98zm52 81c6-60-76-77-97-28-3 7-6 17-6 28h103" id="bz"/><path fill="#3a414a" d="M114-163C36-179 61-72 57 0H25l-1-190h30c1 12-1 29 2 39 6-27 23-49 58-41v29" id="bA"/><path fill="#3a414a" d="M24-231v-30h32v30H24zM24 0v-190h32V0H24" id="bB"/><path fill="#3a414a" d="M101-234c-31-9-42 10-38 44h38v23H63V0H32v-167H5v-23h27c-7-52 17-82 69-68v24" id="bC"/><path fill="#3a414a" d="M96-169c-40 0-48 33-48 73s9 75 48 75c24 0 41-14 43-38l32 2c-6 37-31 61-74 61-59 0-76-41-82-99-10-93 101-131 147-64 4 7 5 14 7 22l-32 3c-4-21-16-35-41-35" id="bD"/><path fill="#3a414a" d="M141-36C126-15 110 5 73 4 37 3 15-17 15-53c-1-64 63-63 125-63 3-35-9-54-41-54-24 1-41 7-42 31l-33-3c5-37 33-52 76-52 45 0 72 20 72 64v82c-1 20 7 32 28 27v20c-31 9-61-2-59-35zM48-53c0 20 12 33 32 33 41-3 63-29 60-74-43 2-92-5-92 41" id="bE"/><g id="x"><use transform="matrix(0.05,0,0,0.05,0,0)" xlink:href="#by"/><use transform="matrix(0.05,0,0,0.05,11,0)" xlink:href="#bz"/><use transform="matrix(0.05,0,0,0.05,21,0)" xlink:href="#bA"/><use transform="matrix(0.05,0,0,0.05,26.950000000000003,0)" xlink:href="#bB"/><use transform="matrix(0.05,0,0,0.05,30.899999999999995,0)" xlink:href="#bC"/><use transform="matrix(0.05,0,0,0.05,35.9,0)" xlink:href="#bB"/><use transform="matrix(0.05,0,0,0.05,39.85,0)" xlink:href="#bD"/><use transform="matrix(0.05,0,0,0.05,48.85,0)" xlink:href="#bE"/><use transform="matrix(0.05,0,0,0.05,58.85,0)" xlink:href="#bA"/></g><path fill="#3a414a" d="M11 0l48-248h184l-5 28H87l-15 79h140l-5 27H67L50-27h158l-5 27H11" id="bF"/><path fill="#3a414a" d="M89 0H52L20-190h33L74-25l89-165h34" id="bG"/><g id="y"><use transform="matrix(0.05,0,0,0.05,0,0)" xlink:href="#bF"/><use transform="matrix(0.05,0,0,0.05,12,0)" xlink:href="#bs"/><use transform="matrix(0.05,0,0,0.05,22,0)" xlink:href="#bG"/><use transform="matrix(0.05,0,0,0.05,31,0)" xlink:href="#bu"/><use transform="matrix(0.05,0,0,0.05,34.95,0)" xlink:href="#bo"/><use transform="matrix(0.05,0,0,0.05,44.95,0)" xlink:href="#bv"/></g><path fill="#3a414a" d="M6 0l50-261h32L37 0H6" id="bH"/><g id="z"><use transform="matrix(0.05,0,0,0.05,0,0)" xlink:href="#bv"/><use transform="matrix(0.05,0,0,0.05,5.95,0)" xlink:href="#bj"/><use transform="matrix(0.05,0,0,0.05,15.949999999999998,0)" xlink:href="#bk"/><use transform="matrix(0.05,0,0,0.05,24.95,0)" xlink:href="#bm"/><use transform="matrix(0.05,0,0,0.05,34.95,0)" xlink:href="#bH"/><use transform="matrix(0.05,0,0,0.05,38.900000000000006,0)" xlink:href="#bn"/><use transform="matrix(0.05,0,0,0.05,43.900000000000006,0)" xlink:href="#bo"/><use transform="matrix(0.05,0,0,0.05,53.900000000000006,0)" xlink:href="#bp"/><use transform="matrix(0.05,0,0,0.05,63.900000000000006,0)" xlink:href="#br"/><use transform="matrix(0.05,0,0,0.05,73.9,0)" xlink:href="#bk"/></g><path fill="#3a414a" d="M222 0l43-216c-8 16-17 34-26 49L143 0h-22L81-216 41 0H11l48-248h42l38 208 116-208h45L252 0h-30" id="bI"/><g id="A"><use transform="matrix(0.05,0,0,0.05,0,0)" xlink:href="#bI"/><use transform="matrix(0.05,0,0,0.05,14.950000000000001,0)" xlink:href="#br"/><use transform="matrix(0.05,0,0,0.05,24.950000000000003,0)" xlink:href="#bk"/><use transform="matrix(0.05,0,0,0.05,33.95,0)" xlink:href="#bn"/><use transform="matrix(0.05,0,0,0.05,38.95,0)" xlink:href="#bv"/><use transform="matrix(0.05,0,0,0.05,44.900000000000006,0)" xlink:href="#bo"/><use transform="matrix(0.05,0,0,0.05,54.900000000000006,0)" xlink:href="#bv"/></g><path fill="#3a414a" d="M14 0l48-248h34L48 0H14" id="bJ"/><path fill="#3a414a" d="M-8 0l5-24 140-142H31l5-24h145l-5 24L36-24h119l-5 24H-8" id="bK"/><g id="B"><use transform="matrix(0.05,0,0,0.05,0,0)" xlink:href="#bJ"/><use transform="matrix(0.05,0,0,0.05,5,0)" xlink:href="#bs"/><use transform="matrix(0.05,0,0,0.05,15,0)" xlink:href="#bn"/><use transform="matrix(0.05,0,0,0.05,20,0)" xlink:href="#bj"/><use transform="matrix(0.05,0,0,0.05,30,0)" xlink:href="#bv"/><use transform="matrix(0.05,0,0,0.05,35.95,0)" xlink:href="#bt"/><use transform="matrix(0.05,0,0,0.05,40.95,0)" xlink:href="#bo"/><use transform="matrix(0.05,0,0,0.05,50.95,0)" xlink:href="#bK"/></g><g id="C"><use transform="matrix(0.05,0,0,0.05,0,0)" xlink:href="#bp"/><use transform="matrix(0.05,0,0,0.05,10,0)" xlink:href="#bj"/></g><g id="D"><use transform="matrix(0.05,0,0,0.05,0,0)" xlink:href="#bm"/><use transform="matrix(0.05,0,0,0.05,10,0)" xlink:href="#bk"/><use transform="matrix(0.05,0,0,0.05,19,0)" xlink:href="#bm"/><use transform="matrix(0.05,0,0,0.05,29,0)" xlink:href="#bo"/><use transform="matrix(0.05,0,0,0.05,39,0)" xlink:href="#bv"/><use transform="matrix(0.05,0,0,0.05,44.95,0)" xlink:href="#bu"/><use transform="matrix(0.05,0,0,0.05,48.900000000000006,0)" xlink:href="#br"/></g><path fill="#333" d="M249-183c0 48-29 72-75 77L221 0h-36l-43-103H65L45 0H11l48-248c83 2 190-17 190 65zm-34 3c0-55-74-39-127-41l-18 92c63-1 145 13 145-51" id="bL"/><g id="E"><use transform="matrix(0.04938271604938272,0,0,0.04938271604938272,0,0)" xlink:href="#bL"/><use transform="matrix(0.04938271604938272,0,0,0.04938271604938272,12.790123456790125,0)" xlink:href="#am"/><use transform="matrix(0.04938271604938272,0,0,0.04938271604938272,22.66666666666667,0)" xlink:href="#ba"/><use transform="matrix(0.04938271604938272,0,0,0.04938271604938272,32.543209876543216,0)" xlink:href="#ah"/><use transform="matrix(0.04938271604938272,0,0,0.04938271604938272,36.44444444444445,0)" xlink:href="#al"/><use transform="matrix(0.04938271604938272,0,0,0.04938271604938272,45.33333333333334,0)" xlink:href="#bd"/><use transform="matrix(0.04938271604938272,0,0,0.04938271604938272,50.271604938271615,0)" xlink:href="#ak"/><use transform="matrix(0.04938271604938272,0,0,0.04938271604938272,56.14814814814817,0)" xlink:href="#aj"/><use transform="matrix(0.04938271604938272,0,0,0.04938271604938272,66.02469135802471,0)" xlink:href="#ak"/></g><g id="F"><use transform="matrix(0.04938271604938272,0,0,0.04938271604938272,0,0)" xlink:href="#ah"/><use transform="matrix(0.04938271604938272,0,0,0.04938271604938272,3.901234567901235,0)" xlink:href="#ag"/><use transform="matrix(0.04938271604938272,0,0,0.04938271604938272,13.777777777777779,0)" xlink:href="#ba"/><use transform="matrix(0.04938271604938272,0,0,0.04938271604938272,23.654320987654323,0)" xlink:href="#ak"/><use transform="matrix(0.04938271604938272,0,0,0.04938271604938272,29.530864197530867,0)" xlink:href="#am"/><use transform="matrix(0.04938271604938272,0,0,0.04938271604938272,39.40740740740741,0)" xlink:href="#al"/><use transform="matrix(0.04938271604938272,0,0,0.04938271604938272,48.296296296296305,0)" xlink:href="#bc"/></g><path fill="#333" d="M119 0H84L31-248h34l41 218 126-218h36" id="bM"/><g id="G"><use transform="matrix(0.04938271604938272,0,0,0.04938271604938272,0,0)" xlink:href="#bM"/><use transform="matrix(0.04938271604938272,0,0,0.04938271604938272,11.209876543209878,0)" xlink:href="#aj"/><use transform="matrix(0.04938271604938272,0,0,0.04938271604938272,21.086419753086425,0)" xlink:href="#bg"/><use transform="matrix(0.04938271604938272,0,0,0.04938271604938272,24.98765432098766,0)" xlink:href="#ah"/><use transform="matrix(0.04938271604938272,0,0,0.04938271604938272,28.888888888888893,0)" xlink:href="#bh"/><use transform="matrix(0.04938271604938272,0,0,0.04938271604938272,38.76543209876544,0)" xlink:href="#aj"/><use transform="matrix(0.04938271604938272,0,0,0.04938271604938272,48.64197530864198,0)" xlink:href="#ak"/></g><path fill="#333" d="M67-162c32-53 139-36 121 50C175-51 163 2 97 4 68 4 52-11 42-31 38 6 28 39 22 75H-9l50-265h29c-1 10 0 20-3 28zm89 36c0-26-10-43-35-43-54 0-67 50-69 103-1 29 14 45 42 46 53 0 62-58 62-106" id="bN"/><path fill="#333" d="M-8 0l5-24 140-142H31l5-24h145l-5 24L36-24h119l-5 24H-8" id="bO"/><g id="H"><use transform="matrix(0.04938271604938272,0,0,0.04938271604938272,0,0)" xlink:href="#bN"/><use transform="matrix(0.04938271604938272,0,0,0.04938271604938272,9.876543209876544,0)" xlink:href="#bg"/><use transform="matrix(0.04938271604938272,0,0,0.04938271604938272,13.777777777777779,0)" xlink:href="#aj"/><use transform="matrix(0.04938271604938272,0,0,0.04938271604938272,23.654320987654323,0)" xlink:href="#bO"/><use transform="matrix(0.04938271604938272,0,0,0.04938271604938272,32.543209876543216,0)" xlink:href="#aj"/><use transform="matrix(0.04938271604938272,0,0,0.04938271604938272,42.41975308641976,0)" xlink:href="#al"/></g><g id="I"><use transform="matrix(0.04938271604938272,0,0,0.04938271604938272,0,0)" xlink:href="#bN"/><use transform="matrix(0.04938271604938272,0,0,0.04938271604938272,9.876543209876544,0)" xlink:href="#bg"/><use transform="matrix(0.04938271604938272,0,0,0.04938271604938272,13.777777777777779,0)" xlink:href="#aj"/><use transform="matrix(0.04938271604938272,0,0,0.04938271604938272,23.654320987654323,0)" xlink:href="#bO"/><use transform="matrix(0.04938271604938272,0,0,0.04938271604938272,32.543209876543216,0)" xlink:href="#aj"/><use transform="matrix(0.04938271604938272,0,0,0.04938271604938272,42.41975308641976,0)" xlink:href="#al"/></g><path fill="#333" d="M68-162c25-46 127-43 121 31C183-60 169 1 98 4 69 5 53-11 43-31L36 0H5l52-261h31zm88 36c2-27-9-43-34-43-55 0-70 51-70 103 0 29 15 45 43 46 52 0 58-58 61-106" id="bP"/><g id="J"><use transform="matrix(0.04938271604938272,0,0,0.04938271604938272,0,0)" xlink:href="#bh"/><use transform="matrix(0.04938271604938272,0,0,0.04938271604938272,9.876543209876544,0)" xlink:href="#ah"/><use transform="matrix(0.04938271604938272,0,0,0.04938271604938272,13.777777777777779,0)" xlink:href="#al"/><use transform="matrix(0.04938271604938272,0,0,0.04938271604938272,22.666666666666668,0)" xlink:href="#bN"/><use transform="matrix(0.04938271604938272,0,0,0.04938271604938272,32.543209876543216,0)" xlink:href="#bc"/><use transform="matrix(0.04938271604938272,0,0,0.04938271604938272,42.41975308641976,0)" xlink:href="#ag"/><use transform="matrix(0.04938271604938272,0,0,0.04938271604938272,52.2962962962963,0)" xlink:href="#ah"/><use transform="matrix(0.04938271604938272,0,0,0.04938271604938272,56.19753086419754,0)" xlink:href="#bP"/><use transform="matrix(0.04938271604938272,0,0,0.04938271604938272,66.07407407407408,0)" xlink:href="#bg"/><use transform="matrix(0.04938271604938272,0,0,0.04938271604938272,69.97530864197532,0)" xlink:href="#am"/><use transform="matrix(0.04938271604938272,0,0,0.04938271604938272,79.85185185185186,0)" xlink:href="#al"/></g><path fill="#3a414a" d="M125-24c46 0 70-25 89-51l25 16C214-24 183 4 123 4 8 4-5-146 60-208c32-50 158-61 191-5 5 7 9 14 11 22l-32 10c-9-28-33-43-69-43-74 0-108 51-108 125 0 46 24 75 72 75" id="bQ"/><g id="K"><use transform="matrix(0.05,0,0,0.05,0,0)" xlink:href="#bQ"/><use transform="matrix(0.05,0,0,0.05,12.950000000000001,0)" xlink:href="#br"/><use transform="matrix(0.05,0,0,0.05,22.950000000000003,0)" xlink:href="#bs"/><use transform="matrix(0.05,0,0,0.05,32.95,0)" xlink:href="#bt"/><use transform="matrix(0.05,0,0,0.05,37.95,0)" xlink:href="#bu"/><use transform="matrix(0.05,0,0,0.05,41.900000000000006,0)" xlink:href="#bv"/><use transform="matrix(0.05,0,0,0.05,47.85000000000001,0)" xlink:href="#bw"/><use transform="matrix(0.05,0,0,0.05,62.80000000000001,0)" xlink:href="#bo"/></g><g id="L"><use transform="matrix(0.05,0,0,0.05,0,0)" xlink:href="#bj"/><use transform="matrix(0.05,0,0,0.05,10,0)" xlink:href="#bk"/><use transform="matrix(0.05,0,0,0.05,19,0)" xlink:href="#bn"/><use transform="matrix(0.05,0,0,0.05,24,0)" xlink:href="#bo"/><use transform="matrix(0.05,0,0,0.05,34,0)" xlink:href="#bp"/><use transform="matrix(0.05,0,0,0.05,44,0)" xlink:href="#br"/></g><g id="M"><use transform="matrix(0.05,0,0,0.05,0,0)" xlink:href="#bl"/><use transform="matrix(0.05,0,0,0.05,10,0)" xlink:href="#bH"/><use transform="matrix(0.05,0,0,0.05,13.949999999999998,0)" xlink:href="#bo"/><use transform="matrix(0.05,0,0,0.05,23.95,0)" xlink:href="#bK"/><use transform="matrix(0.05,0,0,0.05,32.95,0)" xlink:href="#bo"/><use transform="matrix(0.05,0,0,0.05,42.95,0)" xlink:href="#bk"/></g><path fill="#3a414a" d="M68-162c25-46 127-43 121 31C183-60 169 1 98 4 69 5 53-11 43-31L36 0H5l52-261h31zm88 36c2-27-9-43-34-43-55 0-70 51-70 103 0 29 15 45 43 46 52 0 58-58 61-106" id="bR"/><g id="N"><use transform="matrix(0.05,0,0,0.05,0,0)" xlink:href="#bp"/><use transform="matrix(0.05,0,0,0.05,10,0)" xlink:href="#bu"/><use transform="matrix(0.05,0,0,0.05,13.949999999999998,0)" xlink:href="#bk"/><use transform="matrix(0.05,0,0,0.05,22.95,0)" xlink:href="#bl"/><use transform="matrix(0.05,0,0,0.05,32.95,0)" xlink:href="#br"/><use transform="matrix(0.05,0,0,0.05,42.95,0)" xlink:href="#bs"/><use transform="matrix(0.05,0,0,0.05,52.95,0)" xlink:href="#bu"/><use transform="matrix(0.05,0,0,0.05,56.900000000000006,0)" xlink:href="#bR"/><use transform="matrix(0.05,0,0,0.05,66.9,0)" xlink:href="#bu"/><use transform="matrix(0.05,0,0,0.05,70.85000000000001,0)" xlink:href="#bH"/><use transform="matrix(0.05,0,0,0.05,74.80000000000001,0)" xlink:href="#bu"/><use transform="matrix(0.05,0,0,0.05,78.75000000000001,0)" xlink:href="#bp"/><use transform="matrix(0.05,0,0,0.05,88.75000000000001,0)" xlink:href="#bo"/><use transform="matrix(0.05,0,0,0.05,98.75000000000001,0)" xlink:href="#bp"/></g><g id="O"><use transform="matrix(0.04938271604938272,0,0,0.04938271604938272,0,0)" xlink:href="#ai"/><use transform="matrix(0.04938271604938272,0,0,0.04938271604938272,8.88888888888889,0)" xlink:href="#bg"/><use transform="matrix(0.04938271604938272,0,0,0.04938271604938272,12.790123456790125,0)" xlink:href="#ah"/><use transform="matrix(0.04938271604938272,0,0,0.04938271604938272,16.691358024691358,0)" xlink:href="#am"/><use transform="matrix(0.04938271604938272,0,0,0.04938271604938272,26.567901234567902,0)" xlink:href="#ag"/><use transform="matrix(0.04938271604938272,0,0,0.04938271604938272,36.44444444444444,0)" xlink:href="#bd"/><use transform="matrix(0.04938271604938272,0,0,0.04938271604938272,41.382716049382715,0)" xlink:href="#am"/></g><g id="P"><use transform="matrix(0.05,0,0,0.05,0,0)" xlink:href="#bq"/><use transform="matrix(0.05,0,0,0.05,9,0)" xlink:href="#br"/><use transform="matrix(0.05,0,0,0.05,19,0)" xlink:href="#bs"/><use transform="matrix(0.05,0,0,0.05,29,0)" xlink:href="#bk"/><use transform="matrix(0.05,0,0,0.05,38,0)" xlink:href="#bm"/><use transform="matrix(0.05,0,0,0.05,48,0)" xlink:href="#bH"/><use transform="matrix(0.05,0,0,0.05,51.95,0)" xlink:href="#bn"/><use transform="matrix(0.05,0,0,0.05,56.95,0)" xlink:href="#bo"/></g><g id="Q"><use transform="matrix(0.05,0,0,0.05,0,0)" xlink:href="#bv"/><use transform="matrix(0.05,0,0,0.05,5.95,0)" xlink:href="#bj"/><use transform="matrix(0.05,0,0,0.05,15.949999999999998,0)" xlink:href="#bk"/><use transform="matrix(0.05,0,0,0.05,24.95,0)" xlink:href="#bm"/><use transform="matrix(0.05,0,0,0.05,34.95,0)" xlink:href="#bH"/><use transform="matrix(0.05,0,0,0.05,38.900000000000006,0)" xlink:href="#bn"/><use transform="matrix(0.05,0,0,0.05,43.900000000000006,0)" xlink:href="#bo"/><use transform="matrix(0.05,0,0,0.05,53.900000000000006,0)" xlink:href="#bp"/><use transform="matrix(0.05,0,0,0.05,63.900000000000006,0)" xlink:href="#br"/></g><path fill="#3a414a" d="M194-120c59 52 2 134-86 124-53-6-90-18-98-63l31-7c8 30 29 43 70 43 46 0 84-17 71-62-32-43-135-20-137-98-3-89 178-90 191-16l-30 9c-8-48-127-53-127 5 0 53 81 35 115 65" id="bS"/><g id="R"><use transform="matrix(0.05,0,0,0.05,0,0)" xlink:href="#bS"/><use transform="matrix(0.05,0,0,0.05,12,0)" xlink:href="#br"/><use transform="matrix(0.05,0,0,0.05,22,0)" xlink:href="#bH"/><use transform="matrix(0.05,0,0,0.05,25.950000000000003,0)" xlink:href="#bu"/><use transform="matrix(0.05,0,0,0.05,29.899999999999995,0)" xlink:href="#bq"/><use transform="matrix(0.05,0,0,0.05,38.9,0)" xlink:href="#bu"/><use transform="matrix(0.05,0,0,0.05,42.85,0)" xlink:href="#bn"/><use transform="matrix(0.05,0,0,0.05,47.85,0)" xlink:href="#bo"/><use transform="matrix(0.05,0,0,0.05,57.85,0)" xlink:href="#bv"/></g><path fill="#3a414a" d="M67-158c15-20 31-36 64-36 94 0 33 127 27 194h-32l25-140c3-38-53-32-70-12C52-117 51-51 37 0H6l51-261h31" id="bT"/><path fill="#3a414a" d="M16 0l37-190h31L47 0H16zm30-211c10-23 31-35 45-54h38l-1 5-66 49H46" id="bU"/><g id="S"><use transform="matrix(0.05,0,0,0.05,0,0)" xlink:href="#bG"/><use transform="matrix(0.05,0,0,0.05,9,0)" xlink:href="#bj"/><use transform="matrix(0.05,0,0,0.05,19,0)" xlink:href="#bT"/><use transform="matrix(0.05,0,0,0.05,29,0)" xlink:href="#bU"/><use transform="matrix(0.05,0,0,0.05,34,0)" xlink:href="#bq"/><use transform="matrix(0.05,0,0,0.05,43,0)" xlink:href="#bm"/><use transform="matrix(0.05,0,0,0.05,53,0)" xlink:href="#bH"/><use transform="matrix(0.05,0,0,0.05,56.95,0)" xlink:href="#br"/></g><g id="T"><use transform="matrix(0.04938271604938272,0,0,0.04938271604938272,0,0)" xlink:href="#bN"/><use transform="matrix(0.04938271604938272,0,0,0.04938271604938272,9.876543209876544,0)" xlink:href="#bg"/><use transform="matrix(0.04938271604938272,0,0,0.04938271604938272,13.777777777777779,0)" xlink:href="#aj"/><use transform="matrix(0.04938271604938272,0,0,0.04938271604938272,23.654320987654323,0)" xlink:href="#ai"/><use transform="matrix(0.04938271604938272,0,0,0.04938271604938272,32.543209876543216,0)" xlink:href="#aj"/><use transform="matrix(0.04938271604938272,0,0,0.04938271604938272,42.41975308641976,0)" xlink:href="#al"/></g><g id="U"><use transform="matrix(0.05,0,0,0.05,0,0)" xlink:href="#bl"/><use transform="matrix(0.05,0,0,0.05,10,0)" xlink:href="#bH"/><use transform="matrix(0.05,0,0,0.05,13.949999999999998,0)" xlink:href="#bo"/><use transform="matrix(0.05,0,0,0.05,23.95,0)" xlink:href="#bq"/><use transform="matrix(0.05,0,0,0.05,32.95,0)" xlink:href="#bo"/><use transform="matrix(0.05,0,0,0.05,42.95,0)" xlink:href="#bk"/></g><g id="V"><use transform="matrix(0.04938271604938272,0,0,0.04938271604938272,0,0)" xlink:href="#bf"/><use transform="matrix(0.04938271604938272,0,0,0.04938271604938272,12.790123456790125,0)" xlink:href="#ak"/><use transform="matrix(0.04938271604938272,0,0,0.04938271604938272,18.666666666666668,0)" xlink:href="#am"/><use transform="matrix(0.04938271604938272,0,0,0.04938271604938272,28.543209876543212,0)" xlink:href="#aj"/><use transform="matrix(0.04938271604938272,0,0,0.04938271604938272,38.41975308641976,0)" xlink:href="#ak"/></g><path fill="#333" d="M133-28C103 26-5 8 13-77c13-62 24-115 90-117 29-1 46 15 56 35 2-12 6-24 8-34h31L144 75h-31zM45-64c-2 27 10 43 35 43 54-1 69-50 69-103 0-29-15-46-42-46-53-1-58 58-62 106" id="bV"/><g id="W"><use transform="matrix(0.04938271604938272,0,0,0.04938271604938272,0,0)" xlink:href="#bd"/><use transform="matrix(0.04938271604938272,0,0,0.04938271604938272,4.938271604938272,0)" xlink:href="#ah"/><use transform="matrix(0.04938271604938272,0,0,0.04938271604938272,8.839506172839506,0)" xlink:href="#bV"/><use transform="matrix(0.04938271604938272,0,0,0.04938271604938272,18.71604938271605,0)" xlink:href="#bb"/><use transform="matrix(0.04938271604938272,0,0,0.04938271604938272,28.592592592592595,0)" xlink:href="#am"/><use transform="matrix(0.04938271604938272,0,0,0.04938271604938272,38.46913580246914,0)" xlink:href="#bd"/><use transform="matrix(0.04938271604938272,0,0,0.04938271604938272,43.40740740740741,0)" xlink:href="#am"/></g><path fill="#333" d="M52-101C46-14 166-7 216-51l9-45h-74l6-28h105l-18 87C217-12 181 4 130 4 60 4 18-31 18-101c0-106 78-167 188-146 30 6 48 27 59 54l-34 9c-10-26-31-41-67-40-75 1-107 50-112 123" id="bW"/><g id="X"><use transform="matrix(0.04938271604938272,0,0,0.04938271604938272,0,0)" xlink:href="#bW"/><use transform="matrix(0.04938271604938272,0,0,0.04938271604938272,13.827160493827162,0)" xlink:href="#am"/><use transform="matrix(0.04938271604938272,0,0,0.04938271604938272,23.703703703703706,0)" xlink:href="#ag"/><use transform="matrix(0.04938271604938272,0,0,0.04938271604938272,33.580246913580254,0)" xlink:href="#am"/><use transform="matrix(0.04938271604938272,0,0,0.04938271604938272,43.4567901234568,0)" xlink:href="#ak"/><use transform="matrix(0.04938271604938272,0,0,0.04938271604938272,49.33333333333334,0)" xlink:href="#aj"/><use transform="matrix(0.04938271604938272,0,0,0.04938271604938272,59.209876543209894,0)" xlink:href="#ak"/></g><g id="Y"><use transform="matrix(0.05,0,0,0.05,0,0)" xlink:href="#bJ"/><use transform="matrix(0.05,0,0,0.05,5,0)" xlink:href="#bw"/><use transform="matrix(0.05,0,0,0.05,19.950000000000003,0)" xlink:href="#bl"/><use transform="matrix(0.05,0,0,0.05,29.950000000000003,0)" xlink:href="#bv"/><use transform="matrix(0.05,0,0,0.05,35.900000000000006,0)" xlink:href="#bu"/><use transform="matrix(0.05,0,0,0.05,39.85000000000001,0)" xlink:href="#bw"/><use transform="matrix(0.05,0,0,0.05,54.80000000000001,0)" xlink:href="#bu"/><use transform="matrix(0.05,0,0,0.05,58.750000000000014,0)" xlink:href="#bv"/></g><path fill="#3a414a" d="M133-28C103 26-5 8 13-77c13-62 24-115 90-117 29-1 46 15 56 35 2-12 6-24 8-34h31L144 75h-31zM45-64c-2 27 10 43 35 43 54-1 69-50 69-103 0-29-15-46-42-46-53-1-58 58-62 106" id="bX"/><g id="Z"><use transform="matrix(0.05,0,0,0.05,0,0)" xlink:href="#bn"/><use transform="matrix(0.05,0,0,0.05,5,0)" xlink:href="#bu"/><use transform="matrix(0.05,0,0,0.05,8.95,0)" xlink:href="#bX"/><use transform="matrix(0.05,0,0,0.05,18.95,0)" xlink:href="#bm"/><use transform="matrix(0.05,0,0,0.05,28.950000000000003,0)" xlink:href="#bj"/><use transform="matrix(0.05,0,0,0.05,38.95,0)" xlink:href="#bn"/><use transform="matrix(0.05,0,0,0.05,43.95,0)" xlink:href="#bj"/></g><g id="aa"><use transform="matrix(0.04938271604938272,0,0,0.04938271604938272,0,0)" xlink:href="#al"/><use transform="matrix(0.04938271604938272,0,0,0.04938271604938272,8.88888888888889,0)" xlink:href="#aj"/><use transform="matrix(0.04938271604938272,0,0,0.04938271604938272,18.765432098765434,0)" xlink:href="#bg"/><use transform="matrix(0.04938271604938272,0,0,0.04938271604938272,22.666666666666668,0)" xlink:href="#ah"/><use transform="matrix(0.04938271604938272,0,0,0.04938271604938272,26.567901234567902,0)" xlink:href="#bh"/><use transform="matrix(0.04938271604938272,0,0,0.04938271604938272,36.44444444444444,0)" xlink:href="#aj"/></g><g id="ab"><use transform="matrix(0.05,0,0,0.05,0,0)" xlink:href="#bn"/><use transform="matrix(0.05,0,0,0.05,5,0)" xlink:href="#bu"/><use transform="matrix(0.05,0,0,0.05,8.95,0)" xlink:href="#bX"/><use transform="matrix(0.05,0,0,0.05,18.95,0)" xlink:href="#bm"/><use transform="matrix(0.05,0,0,0.05,28.950000000000003,0)" xlink:href="#bj"/><use transform="matrix(0.05,0,0,0.05,38.95,0)" xlink:href="#bn"/><use transform="matrix(0.05,0,0,0.05,43.95,0)" xlink:href="#bj"/></g><path fill="#3a414a" d="M212-179c-10-28-35-45-73-45-59 0-87 40-87 99 0 60 29 101 89 101 43 0 62-24 78-52l27 14C228-24 195 4 139 4 59 4 22-46 18-125c-6-104 99-153 187-111 19 9 31 26 39 46" id="bY"/><path fill="#3a414a" d="M24 0v-261h32V0H24" id="bZ"/><path fill="#3a414a" d="M84 4C-5 8 30-112 23-190h32v120c0 31 7 50 39 49 72-2 45-101 50-169h31l1 190h-30c-1-10 1-25-2-33-11 22-28 36-60 37" id="ca"/><g id="ac"><use transform="matrix(0.05,0,0,0.05,0,0)" xlink:href="#bY"/><use transform="matrix(0.05,0,0,0.05,12.950000000000001,0)" xlink:href="#bE"/><use transform="matrix(0.05,0,0,0.05,22.950000000000003,0)" xlink:href="#bZ"/><use transform="matrix(0.05,0,0,0.05,26.900000000000002,0)" xlink:href="#bD"/><use transform="matrix(0.05,0,0,0.05,35.900000000000006,0)" xlink:href="#ca"/><use transform="matrix(0.05,0,0,0.05,45.900000000000006,0)" xlink:href="#bZ"/><use transform="matrix(0.05,0,0,0.05,49.85000000000001,0)" xlink:href="#bE"/><use transform="matrix(0.05,0,0,0.05,59.85,0)" xlink:href="#bA"/></g><path fill="#3a414a" d="M59-47c-2 24 18 29 38 22v24C64 9 27 4 27-40v-127H5v-23h24l9-43h21v43h35v23H59v120" id="cb"/><g id="ad"><use transform="matrix(0.05,0,0,0.05,0,0)" xlink:href="#bC"/><use transform="matrix(0.05,0,0,0.05,5,0)" xlink:href="#bE"/><use transform="matrix(0.05,0,0,0.05,15,0)" xlink:href="#bD"/><use transform="matrix(0.05,0,0,0.05,24,0)" xlink:href="#cb"/><use transform="matrix(0.05,0,0,0.05,29,0)" xlink:href="#ca"/><use transform="matrix(0.05,0,0,0.05,39,0)" xlink:href="#bA"/><use transform="matrix(0.05,0,0,0.05,44.95,0)" xlink:href="#bE"/></g><g id="ae"><use transform="matrix(0.05,0,0,0.05,0,0)" xlink:href="#bt"/><use transform="matrix(0.05,0,0,0.05,5,0)" xlink:href="#bo"/><use transform="matrix(0.05,0,0,0.05,15,0)" xlink:href="#bq"/><use transform="matrix(0.05,0,0,0.05,24,0)" xlink:href="#bn"/><use transform="matrix(0.05,0,0,0.05,29,0)" xlink:href="#bm"/><use transform="matrix(0.05,0,0,0.05,39,0)" xlink:href="#bv"/><use transform="matrix(0.05,0,0,0.05,44.95,0)" xlink:href="#bo"/></g></defs></g></svg>