<svg xmlns="http://www.w3.org/2000/svg" xmlns:xlink="http://www.w3.org/1999/xlink" xmlns:lucid="lucid" width="2804" height="2371"><g transform="translate(0 0)" lucid:page-tab-id="0_0"><path d="M0 0h2804v2371H0z" fill="#fff"/><path d="M240 1000h-32a8 8 0 0 1-8-8V208a8 8 0 0 1 8-8h32zM240.5 200H280v400h-39.5M240.5 600H280v400h-39.5" stroke="#333" fill="#fff"/><path d="M280 200h2312a8 8 0 0 1 8 8v392H280zM2600 600v392a8 8 0 0 1-8 8H280V600z" stroke="#333" fill="none"/><use xlink:href="#a" transform="matrix(-1.8369701987210297e-16,-1,1,-1.8369701987210297e-16,200,1000) translate(370.025 23.6)"/><use xlink:href="#b" transform="matrix(-1.8369701987210297e-16,-1,1,-1.8369701987210297e-16,240.00000000000006,600) translate(172.075 23.6)"/><use xlink:href="#c" transform="matrix(-1.8369701987210297e-16,-1,1,-1.8369701987210297e-16,240,1000.0000000000001) translate(165.075 23.6)"/><path d="M240.3 2000h-28.6a8 8 0 0 1-8-8v-784a8 8 0 0 1 8-8h28.6zM240.8 1200h39.5v400h-39.5M240.8 1600h39.5v400h-39.5" stroke="#333" fill="#fff"/><path d="M280.3 1200h2312a8 8 0 0 1 8 8v392h-2320zM2600.3 1600v392a8 8 0 0 1-8 8h-2312v-400z" stroke="#333" fill="none"/><use xlink:href="#d" transform="matrix(-1.8369701987210297e-16,-1,1,-1.8369701987210297e-16,203.70000000000027,2000) translate(375.05 22.1)"/><use xlink:href="#b" transform="matrix(-1.8369701987210297e-16,-1,1,-1.8369701987210297e-16,240.30000000000018,1600) translate(172.075 23.6)"/><use xlink:href="#c" transform="matrix(-1.8369701987210297e-16,-1,1,-1.8369701987210297e-16,240.30000000000018,2000) translate(165.075 23.6)"/><path d="M975.15 48a8 8 0 0 1 8-8h836.75a8 8 0 0 1 8 8v25.16a8 8 0 0 1-8 8H983.15a8 8 0 0 1-8-8z" stroke="#000" stroke-opacity="0" stroke-width="2" fill="#fff" fill-opacity="0"/><use xlink:href="#e" transform="matrix(1,0,0,1,979.1465527853431,44) translate(180.74148148148151 25.782777777777778)"/><use xlink:href="#f" transform="matrix(1,0,0,1,979.1465527853431,44) translate(307.3365432098766 25.782777777777778)"/><use xlink:href="#g" transform="matrix(1,0,0,1,979.1465527853431,44) translate(345.14024691358026 25.782777777777778)"/><use xlink:href="#h" transform="matrix(1,0,0,1,979.1465527853431,44) translate(494.9711111111111 25.782777777777778)"/><use xlink:href="#i" transform="matrix(1,0,0,1,979.1465527853431,44) translate(510.92296296296297 25.782777777777778)"/><path d="M1247.65 79.8h317.57M1247.68 79.8h-1.03M1565.2 79.8h1.02" stroke="#a9afb8" stroke-width="2" fill="none"/><path d="M975.15 89.16a8 8 0 0 1 8-8h837.7a8 8 0 0 1 8 8V92a8 8 0 0 1-8 8h-837.7a8 8 0 0 1-8-8z" stroke="#000" stroke-opacity="0" stroke-width="2" fill="#fff" fill-opacity="0"/><path d="M380 283.66c0 11.05-8.95 20-20 20s-20-8.95-20-20c0-11.04 8.95-20 20-20s20 8.96 20 20z" stroke="#333"/><path d="M496 243.66c-8.84 0-16 7.17-16 16v48c0 8.84 7.16 16 16 16h128c8.84 0 16-7.16 16-16v-48c0-8.83-7.16-16-16-16z" stroke="#333" fill="#fff"/><use xlink:href="#j" transform="matrix(1,0,0,1,488,251.66160650935194) translate(37.574999999999996 24.799999999999997)"/><use xlink:href="#k" transform="matrix(1,0,0,1,488,251.66160650935194) translate(92.475 24.799999999999997)"/><use xlink:href="#l" transform="matrix(1,0,0,1,488,251.66160650935194) translate(21.049999999999997 46.4)"/><path d="M596 790.37c-8.84 0-16 7.16-16 16v48c0 8.83 7.16 16 16 16h128c8.84 0 16-7.17 16-16v-48c0-8.84-7.16-16-16-16z" stroke="#333" fill="#fff"/><use xlink:href="#m" transform="matrix(1,0,0,1,588,798.3660786177379) translate(1.125 35.6)"/><use xlink:href="#n" transform="matrix(1,0,0,1,588,798.3660786177379) translate(78.025 35.6)"/><path d="M720 261.66a8 8 0 0 1 8-8h128a22.1 22.1 0 0 1 14.15 5.12l23.7 19.76a6.67 6.67 0 0 1 0 10.24l-23.7 19.76a22.1 22.1 0 0 1-14.15 5.12H728a8 8 0 0 1-8-8z" stroke="#333" fill="#fff"/><use xlink:href="#o" transform="matrix(1,0,0,1,728,261.66160650935194) translate(21.075000000000003 14.799999999999999)"/><use xlink:href="#p" transform="matrix(1,0,0,1,728,261.66160650935194) translate(93.925 14.799999999999999)"/><use xlink:href="#q" transform="matrix(1,0,0,1,728,261.66160650935194) translate(38.05 36.4)"/><path d="M381 283.66h82.12" stroke="#333" fill="none"/><path d="M381 284.16h-.56l.06-.48-.02-.52h.53z" stroke="#333" stroke-width=".05" fill="#333"/><path d="M477.88 283.66l-14.26 4.64v-9.27z" stroke="#333" fill="#333"/><path d="M641 283.66h62.16" stroke="#333" fill="none"/><path d="M641 284.16h-.5v-1h.5z" stroke="#333" stroke-width=".05" fill="#333"/><path d="M717.93 283.66l-14.27 4.64v-9.27z" stroke="#333" fill="#333"/><path d="M326.15 805.5a2.9 2.9 0 0 1 1.85-5.13h164a8 8 0 0 1 8 8v44a8 8 0 0 1-8 8H328a2.9 2.9 0 0 1-1.85-5.13l23.7-19.75a6.67 6.67 0 0 0 0-10.26z" stroke="#333" fill="#fff"/><use xlink:href="#r" transform="matrix(1,0,0,1,356,808.3660786177379) translate(33.575 14.799999999999999)"/><use xlink:href="#s" transform="matrix(1,0,0,1,356,808.3660786177379) translate(36.075 36.4)"/><path d="M500.95 830.37h62.17" stroke="#333" fill="none"/><path d="M500.96 830.87h-.5v-1h.5z" stroke="#333" stroke-width=".05" fill="#333"/><path d="M577.88 830.37L563.62 835v-9.27z" stroke="#333" fill="#333"/><path d="M874.34 816.02a8 8 0 0 1 11.32 0l8.68 8.7a8 8 0 0 1 0 11.3l-8.68 8.7a8 8 0 0 1-11.32 0l-8.68-8.7a8 8 0 0 1 0-11.3z" stroke="#333" fill="#fff"/><path d="M741 830.37h105.43" stroke="#333" fill="none"/><path d="M741 830.87h-.5v-1h.5z" stroke="#333" stroke-width=".05" fill="#333"/><path d="M861.2 830.37L846.92 835v-9.27z" stroke="#333" fill="#333"/><path d="M790 679.74a8 8 0 0 1 8-8h128a22.1 22.1 0 0 1 14.15 5.12l23.7 19.75a6.67 6.67 0 0 1 0 10.26l-23.7 19.75a22.1 22.1 0 0 1-14.15 5.14H798a8 8 0 0 1-8-8z" stroke="#333" fill="#fff"/><use xlink:href="#t" transform="matrix(1,0,0,1,798,679.7352419760888) translate(0.07500000000000284 25.6)"/><use xlink:href="#q" transform="matrix(1,0,0,1,798,679.7352419760888) translate(76.025 25.6)"/><path d="M880.5 812.68h-1v-29.2h1zm0-50.8h-1v-13.3h1z" stroke="#333" stroke-width=".05" fill="#333"/><path d="M880.5 813.22l-.5-.04-.5.04v-.55h1z" fill="#333"/><path d="M880.52 813.24l-.52-.04-.52.04v-.6h1.04zm-1-.55v.5l.48-.05.48.04v-.5z" stroke="#333" stroke-width=".05" fill="#333"/><path d="M884.64 748.1h-9.28L880 733.8z" fill="#333"/><path d="M885.32 748.6h-10.64l5.32-16.4zm-9.27-1h7.9L880 735.43z" stroke="#333" stroke-width=".05" fill="#333"/><use xlink:href="#u" transform="matrix(1,0,0,1,868.525,761.8898791978199) translate(0.005000000000000782 14.4)"/><path d="M796.15 473.8a2.9 2.9 0 0 1 1.85-5.12h164a8 8 0 0 1 8 8v44a8 8 0 0 1-8 8H798a2.9 2.9 0 0 1-1.85-5.12l23.7-19.76a6.67 6.67 0 0 0 0-10.24z" stroke="#333" fill="#fff"/><use xlink:href="#v" transform="matrix(1,0,0,1,826,476.682613461806) translate(32.025 14.799999999999999)"/><use xlink:href="#w" transform="matrix(1,0,0,1,826,476.682613461806) translate(36.075 36.4)"/><path d="M878.67 670.77V545.52" stroke="#333" fill="none"/><path d="M879.17 671.27h-1v-.5h1z" stroke="#333" stroke-width=".05" fill="#333"/><path d="M878.67 530.75l4.64 14.27h-9.26z" stroke="#333" fill="#333"/><path d="M1080 498.68c0 11.05-8.95 20-20 20s-20-8.95-20-20c0-11.04 8.95-20 20-20s20 8.96 20 20z" stroke="#333" fill="#fff"/><path d="M1072 498.68c0 6.63-5.37 12-12 12s-12-5.37-12-12c0-6.62 5.37-12 12-12s12 5.38 12 12z" stroke="#333"/><path d="M970.95 498.68h52.17" stroke="#333" fill="none"/><path d="M970.96 499.18h-.5v-1h.5z" stroke="#333" stroke-width=".05" fill="#333"/><path d="M1037.88 498.68l-14.26 4.64v-9.27z" stroke="#333" fill="#333"/><path d="M808.67 314.63v39.5H316v476.24h23.62" stroke="#333" fill="none"/><path d="M809.17 314.64h-1v-.5h1z" stroke="#333" stroke-width=".05" fill="#333"/><path d="M354.38 830.37L340.12 835v-9.27z" stroke="#333" fill="#333"/><path d="M775 858.37a8 8 0 0 1 8-8h194a8 8 0 0 1 8 8v14a8 8 0 0 1-8 8H783a8 8 0 0 1-8-8z" stroke="#000" stroke-opacity="0" fill="#fff" fill-opacity="0"/><use xlink:href="#x" transform="matrix(1,0,0,1,780,855.3660786177379) translate(19.156172839506183 12.094444444444445)"/><use xlink:href="#y" transform="matrix(1,0,0,1,780,855.3660786177379) translate(58.99444444444445 12.094444444444445)"/><use xlink:href="#z" transform="matrix(1,0,0,1,780,855.3660786177379) translate(101.88271604938272 12.094444444444445)"/><path d="M980 526.68a8 8 0 0 1 8-8h144a8 8 0 0 1 8 8v20.6a8 8 0 0 1-8 8H988a8 8 0 0 1-8-8z" stroke="#000" stroke-opacity="0" fill="#fff" fill-opacity="0"/><use xlink:href="#A" transform="matrix(1,0,0,1,985,523.682613461806) translate(19.68580246913581 15.906944444444445)"/><use xlink:href="#B" transform="matrix(1,0,0,1,985,523.682613461806) translate(68.59876543209876 15.906944444444445)"/><path d="M1120 808.37a8 8 0 0 1 8-8h128a22.1 22.1 0 0 1 14.15 5.12l23.7 19.74a6.67 6.67 0 0 1 0 10.25l-23.7 19.74a22.1 22.1 0 0 1-14.15 5.13h-128a8 8 0 0 1-8-8z" stroke="#333" fill="#fff"/><use xlink:href="#C" transform="matrix(1,0,0,1,1128,808.3660786177379) translate(37.525 14.799999999999999)"/><use xlink:href="#D" transform="matrix(1,0,0,1,1128,808.3660786177379) translate(30.5 36.4)"/><path d="M1000.4 830.87H897.7v-1h102.7zm102.76 0h-86.82v-1h86.82z" stroke="#333" stroke-width=".05" fill="#333"/><path d="M897.7 830.87h-.55l.04-.5-.05-.5h.55z" fill="#333"/><path d="M897.73 830.9h-.6l.03-.53-.04-.53h.6zm-.55-1l.03.47-.02.47h.5v-.95z" stroke="#333" stroke-width=".05" fill="#333"/><path d="M1117.93 830.37l-14.27 4.63v-9.27z" fill="#333"/><path d="M1119.55 830.37l-16.4 5.32v-10.66zm-15.4 3.94l12.16-3.93-12.14-3.95z" stroke="#333" stroke-width=".05" fill="#333"/><use xlink:href="#E" transform="matrix(1,0,0,1,1000.392865691828,819.566078617738) translate(0.004999999999999893 14.4)"/><path d="M1126.15 258.78a2.9 2.9 0 0 1 1.85-5.12h164a8 8 0 0 1 8 8v44a8 8 0 0 1-8 8h-164a2.9 2.9 0 0 1-1.85-5.12l23.7-19.76a6.67 6.67 0 0 0 0-10.24z" stroke="#333" fill="#fff"/><use xlink:href="#F" transform="matrix(1,0,0,1,1156,261.6616065093519) translate(29.5 14.799999999999999)"/><use xlink:href="#w" transform="matrix(1,0,0,1,1156,261.6616065093519) translate(36.075 36.4)"/><path d="M1208.67 799.4V330.5" stroke="#333" fill="none"/><path d="M1209.17 799.9h-1v-.5h1z" stroke="#333" stroke-width=".05" fill="#333"/><path d="M1208.67 315.73l4.64 14.27h-9.26z" stroke="#333" fill="#333"/><path d="M897.25 283.66h4.97m4.96 0h9.92m4.96 0h9.92m4.96 0h9.92m4.96 0h9.92m4.96 0h9.93m4.96 0h9.9m4.97 0h9.92m4.95 0h9.92m4.96 0h9.92m4.96 0h9.94m4.96 0h9.92m4.96 0h9.92m4.96 0h9.92m4.96 0h9.92m4.96 0h9.93m4.96 0h4.97" stroke="#333" fill="none"/><path d="M897.27 284.16h-.56l.05-.5-.04-.5h.57z" stroke="#333" stroke-width=".05" fill="#333"/><path d="M1150.13 283.66l-14.26 4.64v-9.27z" stroke="#333" fill="#333"/><path d="M1476 243.66c-8.84 0-16 7.17-16 16v48c0 8.84 7.16 16 16 16h128c8.84 0 16-7.16 16-16v-48c0-8.83-7.16-16-16-16z" stroke="#333" fill="#fff"/><use xlink:href="#G" transform="matrix(1,0,0,1,1468,251.66160650935197) translate(39.574999999999996 14.4)"/><use xlink:href="#H" transform="matrix(1,0,0,1,1468,251.66160650935197) translate(17.549999999999997 36)"/><use xlink:href="#I" transform="matrix(1,0,0,1,1468,251.66160650935197) translate(117.45 36)"/><use xlink:href="#J" transform="matrix(1,0,0,1,1468,251.66160650935197) translate(47.55 57.6)"/><path d="M1300.95 283.66h142.17" stroke="#333" fill="none"/><path d="M1300.96 284.16h-.5v-1h.5z" stroke="#333" stroke-width=".05" fill="#333"/><path d="M1457.88 283.66l-14.26 4.64v-9.27z" stroke="#333" fill="#333"/><path d="M1534.34 389.58a8 8 0 0 1 11.32 0l8.68 8.7a8 8 0 0 1 0 11.3l-8.68 8.7a8 8 0 0 1-11.32 0l-8.68-8.7a8 8 0 0 1 0-11.3z" stroke="#333" fill="#fff"/><path d="M1540 324.66v45.7" stroke="#333" fill="none"/><path d="M1540.5 324.67h-1v-.5h1z" stroke="#333" stroke-width=".05" fill="#333"/><path d="M1540 385.12l-4.64-14.27h9.28z" stroke="#333" fill="#333"/><path d="M1534.34 816.02a8 8 0 0 1 11.32 0l8.68 8.7a8 8 0 0 1 0 11.3l-8.68 8.7a8 8 0 0 1-11.32 0l-8.68-8.7a8 8 0 0 1 0-11.3z" stroke="#333" fill="#fff"/><path d="M1297.25 830.37h5m4.97 0h9.96m4.98 0h9.96m4.98 0h9.96m4.98 0h9.96m4.98 0h9.96m4.98 0h9.96m4.98 0h9.96m4.98 0h9.96m4.98 0h9.96m4.98 0h9.96m5 0h9.95m4.97 0h9.96m4.98 0h9.97m4.98 0h4.98" stroke="#333" fill="none"/><path d="M1297.27 830.87h-.56l.05-.5-.04-.5h.57z" stroke="#333" stroke-width=".05" fill="#333"/><path d="M1521.2 830.37l-14.27 4.63v-9.27z" stroke="#333" fill="#333"/><path d="M1450 507.18a8 8 0 0 1 8-8h128a22.1 22.1 0 0 1 14.15 5.12l23.7 19.76a6.67 6.67 0 0 1 0 10.24l-23.7 19.76a22.1 22.1 0 0 1-14.15 5.12h-128a8 8 0 0 1-8-8z" stroke="#333" fill="#fff"/><use xlink:href="#v" transform="matrix(1,0,0,1,1458,507.182613461831) translate(32.025 14.799999999999999)"/><use xlink:href="#K" transform="matrix(1,0,0,1,1458,507.182613461831) translate(20.049999999999997 36.4)"/><path d="M1540.5 482.33h-1V470.7h1zm0-33.22h-1v-27.5h1z" stroke="#333" stroke-width=".05" fill="#333"/><path d="M1540 421.1l.5-.03v.55h-1v-.55z" fill="#333"/><path d="M1540 421.08l.53-.04v.6h-1.06v-.6zm-.47.52h.94v-.5l-.47.03-.47-.03z" stroke="#333" stroke-width=".05" fill="#333"/><path d="M1540 497.1l-4.64-14.27h9.28z" fill="#333"/><path d="M1540 498.72l-5.32-16.4h10.64zm-3.95-15.4l3.95 12.16 3.95-12.15z" stroke="#333" stroke-width=".05" fill="#333"/><use xlink:href="#u" transform="matrix(1,0,0,1,1528.525,449.1138067291626) translate(0.005000000000000782 14.4)"/><path d="M1456.15 645.63a2.9 2.9 0 0 1 1.85-5.12h164a8 8 0 0 1 8 8v44a8 8 0 0 1-8 8h-164a2.9 2.9 0 0 1-1.85-5.12l23.7-19.75a6.67 6.67 0 0 0 0-10.25z" stroke="#333" fill="#fff"/><use xlink:href="#v" transform="matrix(1,0,0,1,1486,648.5055968125495) translate(32.025 14.799999999999999)"/><use xlink:href="#w" transform="matrix(1,0,0,1,1486,648.5055968125495) translate(36.075 36.4)"/><path d="M1538.67 560.15v63.52" stroke="#333" fill="none"/><path d="M1539.17 560.16h-1v-.5h1z" stroke="#333" stroke-width=".05" fill="#333"/><path d="M1538.67 638.43l-4.63-14.26h9.27z" stroke="#333" fill="#333"/><path d="M1738.63 673.23c0 11.05-8.95 20-20 20-11.04 0-20-8.95-20-20 0-11.04 8.96-20 20-20 11.05 0 20 8.96 20 20z" stroke="#333" fill="#fff"/><path d="M1730.63 673.23c0 6.63-5.37 12-12 12s-12-5.37-12-12 5.37-12 12-12 12 5.37 12 12z" stroke="#333"/><path d="M1630.96 673.23h50.8" stroke="#333" fill="none"/><path d="M1630.97 673.73h-.5v-1h.5z" stroke="#333" stroke-width=".05" fill="#333"/><path d="M1696.5 673.23l-14.25 4.64v-9.27z" stroke="#333" fill="#333"/><path d="M1640 701.23a8 8 0 0 1 8-8h144a8 8 0 0 1 8 8v24a8 8 0 0 1-8 8h-144a8 8 0 0 1-8-8z" stroke="#000" stroke-opacity="0" fill="#fff" fill-opacity="0"/><use xlink:href="#A" transform="matrix(1,0,0,1,1645,698.2312507727901) translate(19.68580246913581 18.344444444444445)"/><use xlink:href="#B" transform="matrix(1,0,0,1,1645,698.2312507727901) translate(68.59876543209876 18.344444444444445)"/><path d="M1540 812.68v-5.3m0-5.3v-10.6m0-5.28v-10.6m0-5.3v-10.6m0-5.28v-10.6m0-5.3v-10.6m0-5.28v-5.3" stroke="#333" fill="none"/><path d="M1540.5 813.22l-.5-.04-.5.04v-.55h1z" stroke="#333" stroke-width=".05" fill="#333"/><path d="M1540 702.57l4.64 14.27h-9.28z" stroke="#333" fill="#333"/><path d="M1340 389.1a8 8 0 0 1 8-8h164a8 8 0 0 1 8 8v34a8 8 0 0 1-8 8h-164a8 8 0 0 1-8-8z" stroke="#000" stroke-opacity="0" fill="#fff" fill-opacity="0"/><use xlink:href="#L" transform="matrix(1,0,0,1,1345,386.0908808838026) translate(12.402469135802477 23.344444444444445)"/><use xlink:href="#M" transform="matrix(1,0,0,1,1345,386.0908808838026) translate(74.83333333333333 23.344444444444445)"/><path d="M1800 381.92a8 8 0 0 1 8-8h128a22.1 22.1 0 0 1 14.15 5.12l23.7 19.76a6.67 6.67 0 0 1 0 10.24l-23.7 19.76a22.1 22.1 0 0 1-14.15 5.12h-128a8 8 0 0 1-8-8z" stroke="#333" fill="#fff"/><use xlink:href="#N" transform="matrix(1,0,0,1,1808,381.92210998556646) translate(20 25.6)"/><use xlink:href="#O" transform="matrix(1,0,0,1,1808,381.92210998556646) translate(71 25.6)"/><path d="M1670.4 404.42h-112.7v-1h112.7zm112.76 0h-96.82v-1h96.82z" stroke="#333" stroke-width=".05" fill="#333"/><path d="M1557.7 404.42h-.55l.04-.5-.05-.5h.55z" fill="#333"/><path d="M1557.73 404.45h-.6l.03-.53-.04-.52h.6zm-.55-1l.03.47-.02.48h.5v-.95z" stroke="#333" stroke-width=".05" fill="#333"/><path d="M1797.93 403.92l-14.27 4.64v-9.27z" fill="#333"/><path d="M1799.55 403.92l-16.4 5.33V398.6zm-15.4 3.95l12.16-3.95-12.14-3.94z" stroke="#333" stroke-width=".05" fill="#333"/><use xlink:href="#E" transform="matrix(1,0,0,1,1670.3928656918283,393.12210998556645) translate(0.004999999999999893 14.4)"/><path d="M1800 243.66h164l16 16v64h-180z" stroke="#333" fill="#fff"/><path d="M1964 244.14v15.52h15.52" stroke="#333" fill="#fff"/><use xlink:href="#P" transform="matrix(1,0,0,1,1805,248.66160650935188) translate(12.569444444444443 21.781944444444445)"/><use xlink:href="#Q" transform="matrix(1,0,0,1,1805,248.66160650935188) translate(51.69228395061727 21.781944444444445)"/><use xlink:href="#R" transform="matrix(1,0,0,1,1805,248.66160650935188) translate(119.3570987654321 21.781944444444445)"/><use xlink:href="#S" transform="matrix(1,0,0,1,1805,248.66160650935188) translate(7.601543209876553 38.048611111111114)"/><use xlink:href="#T" transform="matrix(1,0,0,1,1805,248.66160650935188) translate(63.894753086419755 38.048611111111114)"/><use xlink:href="#U" transform="matrix(1,0,0,1,1805,248.66160650935188) translate(115.7824074074074 38.048611111111114)"/><use xlink:href="#V" transform="matrix(1,0,0,1,1805,248.66160650935188) translate(34.957407407407416 54.31527777777778)"/><use xlink:href="#W" transform="matrix(1,0,0,1,1805,248.66160650935188) translate(83.11728395061729 54.31527777777778)"/><path d="M1888.67 372.96v-5.37m0-5.37V351.5m0-5.37V335.4m0-5.37v-5.37" stroke="#333" fill="none"/><path d="M1889.17 373.46h-1v-.5h1zM1889.17 324.67h-1v-.5h1z" stroke="#333" stroke-width=".05" fill="#333"/><path d="M1806.15 805.5a2.9 2.9 0 0 1 1.85-5.13h164a8 8 0 0 1 8 8v44a8 8 0 0 1-8 8h-164a2.9 2.9 0 0 1-1.85-5.13l23.7-19.75a6.67 6.67 0 0 0 0-10.26z" stroke="#333" fill="#fff"/><use xlink:href="#v" transform="matrix(1,0,0,1,1836,808.3660786177379) translate(32.025 14.799999999999999)"/><use xlink:href="#w" transform="matrix(1,0,0,1,1836,808.3660786177379) translate(36.075 36.4)"/><path d="M1557.7 830.37h5.04m5.05 0h10.1m5.05 0h10.1m5.06 0h10.1m5.07 0h10.1m5.05 0h10.1m5.06 0h10.1m5.06 0h10.1m5.06 0h10.1m5.05 0h10.1m5.06 0h10.12m5.05 0h10.1m5.06 0h10.1m5.05 0h10.1m5.06 0h10.1m5.06 0h10.1m5.06 0h10.1m5.05 0h5.07" stroke="#333" fill="none"/><path d="M1557.7 830.87h-.55l.04-.5-.05-.5h.55z" stroke="#333" stroke-width=".05" fill="#333"/><path d="M1830.13 830.37l-14.26 4.63v-9.27z" stroke="#333" fill="#333"/><path d="M1888.67 434.9v348.63" stroke="#333" fill="none"/><path d="M1889.17 434.9h-1v-.5h1z" stroke="#333" stroke-width=".05" fill="#333"/><path d="M1888.67 798.3l-4.63-14.27h9.27z" stroke="#333" fill="#333"/><path d="M2096 790.37c-8.84 0-16 7.16-16 16v48c0 8.83 7.16 16 16 16h128c8.84 0 16-7.17 16-16v-48c0-8.84-7.16-16-16-16z" stroke="#333" fill="#fff"/><use xlink:href="#X" transform="matrix(1,0,0,1,2088,798.3660786177379) translate(3.6499999999999915 24.799999999999997)"/><use xlink:href="#Y" transform="matrix(1,0,0,1,2088,798.3660786177379) translate(81.45 24.799999999999997)"/><use xlink:href="#Z" transform="matrix(1,0,0,1,2088,798.3660786177379) translate(38.525 46.4)"/><path d="M1980.95 830.37h82.17" stroke="#333" fill="none"/><path d="M1980.96 830.87h-.5v-1h.5z" stroke="#333" stroke-width=".05" fill="#333"/><path d="M2077.88 830.37l-14.26 4.63v-9.27z" stroke="#333" fill="#333"/><path d="M2300 808.37a8 8 0 0 1 8-8h128a22.1 22.1 0 0 1 14.15 5.12l23.7 19.74a6.67 6.67 0 0 1 0 10.25l-23.7 19.74a22.1 22.1 0 0 1-14.15 5.13h-128a8 8 0 0 1-8-8z" stroke="#333" fill="#fff"/><use xlink:href="#aa" transform="matrix(1,0,0,1,2308,808.3660786177379) translate(5.074999999999996 25.6)"/><use xlink:href="#ab" transform="matrix(1,0,0,1,2308,808.3660786177379) translate(75.975 25.6)"/><path d="M2241 830.37h42.16" stroke="#333" fill="none"/><path d="M2241 830.87h-.5v-1h.5z" stroke="#333" stroke-width=".05" fill="#333"/><path d="M2297.93 830.37l-14.27 4.63v-9.27z" stroke="#333" fill="#333"/><path d="M2046.15 379.04a2.9 2.9 0 0 1 1.85-5.12h164a8 8 0 0 1 8 8v44a8 8 0 0 1-8 8h-164a2.9 2.9 0 0 1-1.85-5.12l23.7-19.76a6.67 6.67 0 0 0 0-10.24z" stroke="#333" fill="#fff"/><use xlink:href="#ac" transform="matrix(1,0,0,1,2076,381.92210998556646) translate(3.950000000000003 25.6)"/><use xlink:href="#w" transform="matrix(1,0,0,1,2076,381.92210998556646) translate(68.2 25.6)"/><path d="M1977.25 403.92h5.2m5.22 0h10.4m5.22 0h10.4m5.2 0h10.43m5.2 0h10.42m5.2 0h5.22" stroke="#333" fill="none"/><path d="M1977.27 404.42h-.56l.05-.5-.04-.5h.57z" stroke="#333" stroke-width=".05" fill="#333"/><path d="M2070.13 403.92l-14.26 4.64v-9.27z" stroke="#333" fill="#333"/><path d="M2388.67 799.4V629.14a12 12 0 0 0-12-12H2142a12 12 0 0 1-12-12V450.76" stroke="#333" fill="none"/><path d="M2389.17 799.9h-1v-.5h1z" stroke="#333" stroke-width=".05" fill="#333"/><path d="M2130 436l4.64 14.26h-9.28z" stroke="#333" fill="#333"/><path d="M2296 363.92c-8.84 0-16 7.17-16 16v48c0 8.84 7.16 16 16 16h128c8.84 0 16-7.16 16-16v-48c0-8.83-7.16-16-16-16z" stroke="#333" fill="#fff"/><use xlink:href="#ad" transform="matrix(1,0,0,1,2288,371.92210998556646) translate(10.125 35.6)"/><use xlink:href="#ab" transform="matrix(1,0,0,1,2288,371.92210998556646) translate(79.925 35.6)"/><path d="M2220.95 403.92h42.17" stroke="#333" fill="none"/><path d="M2220.96 404.42h-.5v-1h.5z" stroke="#333" stroke-width=".05" fill="#333"/><path d="M2277.88 403.92l-14.26 4.64v-9.27z" stroke="#333" fill="#333"/><path d="M2540 403.92c0 11.05-8.95 20-20 20s-20-8.95-20-20c0-11.04 8.95-20 20-20s20 8.96 20 20z" stroke="#333" fill="#fff"/><path d="M2532 403.92c0 6.63-5.37 12-12 12s-12-5.37-12-12 5.37-12 12-12 12 5.37 12 12z" stroke="#333"/><path d="M2441 403.92h42.12" stroke="#333" fill="none"/><path d="M2441 404.42h-.5v-1h.5z" stroke="#333" stroke-width=".05" fill="#333"/><path d="M2497.88 403.92l-14.26 4.64v-9.27z" stroke="#333" fill="#333"/><path d="M2470 246.8h84l16 16v64h-100z" stroke="#333" fill="#fff"/><path d="M2554 247.3v15.5h15.52" stroke="#333" fill="#fff"/><use xlink:href="#ae" transform="matrix(1,0,0,1,2475,251.811042266576) translate(22.42623456790124 30.531944444444445)"/><use xlink:href="#af" transform="matrix(1,0,0,1,2475,251.811042266576) translate(19.79043209876543 46.798611111111114)"/><path d="M2520 382.92v-4.6m0-4.58v-9.2m0-4.58v-9.2m0-4.58V337m0-4.6v-4.6" stroke="#333" fill="none"/><path d="M2520.5 383.48l-.48-.06-.52.02v-.53h1zM2520.5 327.82h-1v-.5h1z" stroke="#333" stroke-width=".05" fill="#333"/><path d="M383.7 1283.66c0 11.05-8.95 20-20 20s-20-8.95-20-20c0-11.04 8.95-20 20-20s20 8.96 20 20z" stroke="#333"/><path d="M499.7 1243.66c-8.84 0-16 7.17-16 16v48c0 8.84 7.16 16 16 16h128c8.84 0 16-7.16 16-16v-48c0-8.83-7.16-16-16-16z" stroke="#333" fill="#fff"/><use xlink:href="#ag" transform="matrix(1,0,0,1,491.7000000000003,1251.661606509352) translate(17.225 14.4)"/><use xlink:href="#ah" transform="matrix(1,0,0,1,491.7000000000003,1251.661606509352) translate(87.82499999999999 14.4)"/><use xlink:href="#ai" transform="matrix(1,0,0,1,491.7000000000003,1251.661606509352) translate(112.82499999999999 14.4)"/><use xlink:href="#aj" transform="matrix(1,0,0,1,491.7000000000003,1251.661606509352) translate(21.549999999999997 36)"/><use xlink:href="#ak" transform="matrix(1,0,0,1,491.7000000000003,1251.661606509352) translate(93.5 36)"/><use xlink:href="#al" transform="matrix(1,0,0,1,491.7000000000003,1251.661606509352) translate(108.5 36)"/><use xlink:href="#am" transform="matrix(1,0,0,1,491.7000000000003,1251.661606509352) translate(48.55 57.6)"/><path d="M749.7 1790.37c-8.84 0-16 7.16-16 16v48c0 8.83 7.16 16 16 16h128c8.84 0 16-7.17 16-16v-48c0-8.84-7.16-16-16-16z" stroke="#333" fill="#fff"/><use xlink:href="#m" transform="matrix(1,0,0,1,741.7000000000003,1798.366078617738) translate(1.125 35.6)"/><use xlink:href="#n" transform="matrix(1,0,0,1,741.7000000000003,1798.366078617738) translate(78.025 35.6)"/><path d="M723.7 1261.66a8 8 0 0 1 8-8h128a22.1 22.1 0 0 1 14.15 5.12l23.7 19.76a6.67 6.67 0 0 1 0 10.24l-23.7 19.76a22.1 22.1 0 0 1-14.15 5.12h-128a8 8 0 0 1-8-8z" stroke="#333" fill="#fff"/><use xlink:href="#o" transform="matrix(1,0,0,1,731.7000000000003,1261.661606509352) translate(21.075000000000003 14.799999999999999)"/><use xlink:href="#p" transform="matrix(1,0,0,1,731.7000000000003,1261.661606509352) translate(93.925 14.799999999999999)"/><use xlink:href="#am" transform="matrix(1,0,0,1,731.7000000000003,1261.661606509352) translate(44.05 36.4)"/><path d="M384.7 1283.66h82.12" stroke="#333" fill="none"/><path d="M384.7 1284.16h-.56l.06-.48-.02-.52h.53z" stroke="#333" stroke-width=".05" fill="#333"/><path d="M481.58 1283.66l-14.26 4.64v-9.27z" stroke="#333" fill="#333"/><path d="M644.7 1283.66h62.16" stroke="#333" fill="none"/><path d="M644.7 1284.16h-.5v-1h.5z" stroke="#333" stroke-width=".05" fill="#333"/><path d="M721.63 1283.66l-14.27 4.64v-9.27z" stroke="#333" fill="#333"/><path d="M479.85 1805.5a2.9 2.9 0 0 1 1.85-5.13h164a8 8 0 0 1 8 8v44a8 8 0 0 1-8 8h-164a2.9 2.9 0 0 1-1.85-5.13l23.7-19.75a6.67 6.67 0 0 0 0-10.26z" stroke="#333" fill="#fff"/><use xlink:href="#r" transform="matrix(1,0,0,1,509.7000000000003,1808.3660786177377) translate(33.575 14.799999999999999)"/><use xlink:href="#s" transform="matrix(1,0,0,1,509.7000000000003,1808.3660786177377) translate(36.075 36.4)"/><path d="M654.65 1830.37h62.17" stroke="#333" fill="none"/><path d="M654.66 1830.87h-.5v-1h.5z" stroke="#333" stroke-width=".05" fill="#333"/><path d="M731.58 1830.37l-14.26 4.63v-9.27z" stroke="#333" fill="#333"/><path d="M812.37 1314.63v39.5H469.7v476.24h23.62" stroke="#333" fill="none"/><path d="M812.87 1314.64h-1v-.5h1z" stroke="#333" stroke-width=".05" fill="#333"/><path d="M508.08 1830.37l-14.26 4.63v-9.27z" stroke="#333" fill="#333"/><path d="M1123.7 1808.37a8 8 0 0 1 8-8h128a22.1 22.1 0 0 1 14.15 5.12l23.7 19.74a6.67 6.67 0 0 1 0 10.25l-23.7 19.74a22.1 22.1 0 0 1-14.15 5.13h-128a8 8 0 0 1-8-8z" stroke="#333" fill="#fff"/><use xlink:href="#N" transform="matrix(1,0,0,1,1131.7000000000003,1808.366078617738) translate(14.524999999999999 25.6)"/><use xlink:href="#an" transform="matrix(1,0,0,1,1131.7000000000003,1808.366078617738) translate(65.525 25.6)"/><path d="M1129.85 1258.78a2.9 2.9 0 0 1 1.85-5.12h164a8 8 0 0 1 8 8v44a8 8 0 0 1-8 8h-164a2.9 2.9 0 0 1-1.85-5.12l23.7-19.76a6.67 6.67 0 0 0 0-10.24z" stroke="#333" fill="#fff"/><use xlink:href="#ao" transform="matrix(1,0,0,1,1159.7000000000003,1261.661606509352) translate(3.125 25.6)"/><use xlink:href="#s" transform="matrix(1,0,0,1,1159.7000000000003,1261.661606509352) translate(69.025 25.6)"/><path d="M1212.37 1799.4v-468.9" stroke="#333" fill="none"/><path d="M1212.87 1799.9h-1v-.5h1z" stroke="#333" stroke-width=".05" fill="#333"/><path d="M1212.37 1315.73L1217 1330h-9.26z" stroke="#333" fill="#333"/><path d="M900.95 1283.66h4.97m4.96 0h9.92m4.96 0h9.92m4.96 0h9.92m4.96 0h9.92m4.96 0h9.93m4.96 0h9.9m4.97 0h9.92m4.95 0h9.92m4.96 0h9.92m4.96 0h9.94m4.96 0h9.92m4.96 0h9.92m4.96 0h9.92m4.96 0h9.92m4.96 0h9.93m4.96 0h4.97" stroke="#333" fill="none"/><path d="M900.97 1284.16h-.56l.05-.5-.04-.5h.57z" stroke="#333" stroke-width=".05" fill="#333"/><path d="M1153.83 1283.66l-14.26 4.64v-9.27z" stroke="#333" fill="#333"/><path d="M1479.7 1243.66c-8.84 0-16 7.17-16 16v48c0 8.84 7.16 16 16 16h128c8.84 0 16-7.16 16-16v-48c0-8.83-7.16-16-16-16z" stroke="#333" fill="#fff"/><use xlink:href="#ap" transform="matrix(1,0,0,1,1471.7000000000003,1251.661606509352) translate(9.599999999999994 35.6)"/><use xlink:href="#an" transform="matrix(1,0,0,1,1471.7000000000003,1251.661606509352) translate(79.45 35.6)"/><path d="M1304.65 1283.66h142.17" stroke="#333" fill="none"/><path d="M1304.66 1284.16h-.5v-1h.5z" stroke="#333" stroke-width=".05" fill="#333"/><path d="M1461.58 1283.66l-14.26 4.64v-9.27z" stroke="#333" fill="#333"/><path d="M1538.04 1389.58a8 8 0 0 1 11.32 0l8.68 8.7a8 8 0 0 1 0 11.3l-8.68 8.7a8 8 0 0 1-11.32 0l-8.68-8.7a8 8 0 0 1 0-11.3z" stroke="#333" fill="#fff"/><path d="M1543.7 1324.66v45.7" stroke="#333" fill="none"/><path d="M1544.2 1324.67h-1v-.5h1z" stroke="#333" stroke-width=".05" fill="#333"/><path d="M1543.7 1385.12l-4.64-14.27h9.28z" stroke="#333" fill="#333"/><path d="M1538.04 1816.02a8 8 0 0 1 11.32 0l8.68 8.7a8 8 0 0 1 0 11.3l-8.68 8.7a8 8 0 0 1-11.32 0l-8.68-8.7a8 8 0 0 1 0-11.3z" stroke="#333" fill="#fff"/><path d="M1300.95 1830.37h5m4.97 0h9.96m4.98 0h9.96m4.98 0h9.96m4.98 0h9.96m4.98 0h9.96m4.98 0h9.96m4.98 0h9.96m4.98 0h9.96m4.98 0h9.96m4.98 0h9.96m5 0h9.95m4.97 0h9.96m4.98 0h9.97m4.98 0h4.98" stroke="#333" fill="none"/><path d="M1300.97 1830.87h-.56l.05-.5-.04-.5h.57z" stroke="#333" stroke-width=".05" fill="#333"/><path d="M1524.9 1830.37l-14.27 4.63v-9.27z" stroke="#333" fill="#333"/><path d="M1453.7 1507.18a8 8 0 0 1 8-8h128a22.1 22.1 0 0 1 14.15 5.12l23.7 19.76a6.67 6.67 0 0 1 0 10.24l-23.7 19.76a22.1 22.1 0 0 1-14.15 5.12h-128a8 8 0 0 1-8-8z" stroke="#333" fill="#fff"/><use xlink:href="#t" transform="matrix(1,0,0,1,1461.7000000000003,1507.182613461831) translate(2.049999999999997 25.6)"/><use xlink:href="#an" transform="matrix(1,0,0,1,1461.7000000000003,1507.182613461831) translate(78 25.6)"/><path d="M1544.2 1482.33h-1v-11.62h1zm0-33.22h-1v-27.5h1z" stroke="#333" stroke-width=".05" fill="#333"/><path d="M1543.7 1421.1l.5-.03v.55h-1v-.55z" fill="#333"/><path d="M1543.7 1421.08l.52-.04v.6h-1.05v-.6zm-.48.52h.95v-.5l-.47.03-.48-.03z" stroke="#333" stroke-width=".05" fill="#333"/><path d="M1543.7 1497.1l-4.64-14.27h9.28z" fill="#333"/><path d="M1543.7 1498.72l-5.32-16.4h10.64zm-3.95-15.4l3.95 12.16 3.95-12.15z" stroke="#333" stroke-width=".05" fill="#333"/><use xlink:href="#u" transform="matrix(1,0,0,1,1532.2250000000004,1449.1138067291627) translate(0.005000000000000782 14.4)"/><path d="M1459.85 1645.63a2.9 2.9 0 0 1 1.85-5.12h164a8 8 0 0 1 8 8v44a8 8 0 0 1-8 8h-164a2.9 2.9 0 0 1-1.85-5.12l23.7-19.75a6.67 6.67 0 0 0 0-10.25z" stroke="#333" fill="#fff"/><use xlink:href="#v" transform="matrix(1,0,0,1,1489.7000000000003,1648.5055968125494) translate(32.025 14.799999999999999)"/><use xlink:href="#w" transform="matrix(1,0,0,1,1489.7000000000003,1648.5055968125494) translate(36.075 36.4)"/><path d="M1542.37 1560.15v63.52" stroke="#333" fill="none"/><path d="M1542.87 1560.16h-1v-.5h1z" stroke="#333" stroke-width=".05" fill="#333"/><path d="M1542.37 1638.43l-4.63-14.26h9.27z" stroke="#333" fill="#333"/><path d="M1742.33 1673.23c0 11.05-8.95 20-20 20-11.04 0-20-8.95-20-20 0-11.04 8.96-20 20-20 11.05 0 20 8.96 20 20z" stroke="#333" fill="#fff"/><path d="M1734.33 1673.23c0 6.63-5.37 12-12 12s-12-5.37-12-12 5.37-12 12-12 12 5.37 12 12z" stroke="#333"/><path d="M1634.66 1673.23h50.8" stroke="#333" fill="none"/><path d="M1634.67 1673.73h-.5v-1h.5z" stroke="#333" stroke-width=".05" fill="#333"/><path d="M1700.2 1673.23l-14.25 4.64v-9.27z" stroke="#333" fill="#333"/><path d="M1643.7 1701.23a8 8 0 0 1 8-8h144a8 8 0 0 1 8 8v24a8 8 0 0 1-8 8h-144a8 8 0 0 1-8-8z" stroke="#000" stroke-opacity="0" fill="#fff" fill-opacity="0"/><use xlink:href="#aq" transform="matrix(1,0,0,1,1648.7000000000003,1698.2312507727902) translate(23.470061728395066 18.344444444444445)"/><use xlink:href="#ar" transform="matrix(1,0,0,1,1648.7000000000003,1698.2312507727902) translate(64.81450617283951 18.344444444444445)"/><path d="M1543.7 1812.68v-5.3m0-5.3v-10.6m0-5.28v-10.6m0-5.3v-10.6m0-5.28v-10.6m0-5.3v-10.6m0-5.28v-5.3" stroke="#333" fill="none"/><path d="M1544.2 1813.22l-.5-.04-.5.04v-.55h1z" stroke="#333" stroke-width=".05" fill="#333"/><path d="M1543.7 1702.57l4.64 14.27h-9.28z" stroke="#333" fill="#333"/><path d="M1343.7 1389.1a8 8 0 0 1 8-8h164a8 8 0 0 1 8 8v34a8 8 0 0 1-8 8h-164a8 8 0 0 1-8-8z" stroke="#000" stroke-opacity="0" fill="#fff" fill-opacity="0"/><g><use xlink:href="#L" transform="matrix(1,0,0,1,1348.7000000000003,1386.0908808838026) translate(27.445370370370377 23.344444444444445)"/><use xlink:href="#as" transform="matrix(1,0,0,1,1348.7000000000003,1386.0908808838026) translate(89.87623456790124 23.344444444444445)"/></g><path d="M1803.7 1381.92a8 8 0 0 1 8-8h128a22.1 22.1 0 0 1 14.15 5.12l23.7 19.76a6.67 6.67 0 0 1 0 10.24l-23.7 19.76a22.1 22.1 0 0 1-14.15 5.12h-128a8 8 0 0 1-8-8z" stroke="#333" fill="#fff"/><g><use xlink:href="#at" transform="matrix(1,0,0,1,1811.7000000000005,1381.9221099855665) translate(15.074999999999996 25.6)"/><use xlink:href="#au" transform="matrix(1,0,0,1,1811.7000000000005,1381.9221099855665) translate(79.92500000000001 25.6)"/></g><path d="M1674.1 1404.42h-112.7v-1h112.7zm112.76 0h-96.82v-1h96.82z" stroke="#333" stroke-width=".05" fill="#333"/><path d="M1561.4 1404.42h-.55l.04-.5-.05-.5h.55z" fill="#333"/><path d="M1561.43 1404.45h-.6l.03-.53-.04-.52h.6zm-.55-1l.03.47-.02.48h.5v-.95z" stroke="#333" stroke-width=".05" fill="#333"/><path d="M1801.63 1403.92l-14.27 4.64v-9.27z" fill="#333"/><path d="M1803.25 1403.92l-16.4 5.33v-10.65zm-15.4 3.95l12.16-3.95-12.14-3.94z" stroke="#333" stroke-width=".05" fill="#333"/><g><use xlink:href="#E" transform="matrix(1,0,0,1,1674.0928656918286,1393.1221099855666) translate(0.004999999999999893 14.4)"/></g><path d="M1809.85 1805.5a2.9 2.9 0 0 1 1.85-5.13h164a8 8 0 0 1 8 8v44a8 8 0 0 1-8 8h-164a2.9 2.9 0 0 1-1.85-5.13l23.7-19.75a6.67 6.67 0 0 0 0-10.26z" stroke="#333" fill="#fff"/><g><use xlink:href="#av" transform="matrix(1,0,0,1,1839.7000000000005,1808.366078617738) translate(12.575000000000003 25.6)"/><use xlink:href="#w" transform="matrix(1,0,0,1,1839.7000000000005,1808.366078617738) translate(59.575 25.6)"/></g><path d="M1561.4 1830.37h5.04m5.05 0h10.1m5.05 0h10.1m5.06 0h10.1m5.07 0h10.1m5.05 0h10.1m5.06 0h10.1m5.06 0h10.1m5.06 0h10.1m5.05 0h10.1m5.06 0h10.12m5.05 0h10.1m5.06 0h10.1m5.05 0h10.1m5.06 0h10.1m5.06 0h10.1m5.06 0h10.1m5.05 0h5.07" stroke="#333" fill="none"/><path d="M1561.4 1830.87h-.55l.04-.5-.05-.5h.55z" stroke="#333" stroke-width=".05" fill="#333"/><path d="M1833.83 1830.37l-14.26 4.63v-9.27z" stroke="#333" fill="#333"/><path d="M1892.37 1434.9v348.63" stroke="#333" fill="none"/><path d="M1892.87 1434.9h-1v-.5h1z" stroke="#333" stroke-width=".05" fill="#333"/><path d="M1892.37 1798.3l-4.63-14.27h9.27z" stroke="#333" fill="#333"/><path d="M2099.7 1790.37c-8.84 0-16 7.16-16 16v48c0 8.83 7.16 16 16 16h128c8.84 0 16-7.17 16-16v-48c0-8.84-7.16-16-16-16z" stroke="#333" fill="#fff"/><g><use xlink:href="#av" transform="matrix(1,0,0,1,2091.7000000000003,1798.366078617738) translate(8.575000000000003 35.6)"/><use xlink:href="#aw" transform="matrix(1,0,0,1,2091.7000000000003,1798.366078617738) translate(55.575 35.6)"/></g><path d="M1984.65 1830.37h82.17" stroke="#333" fill="none"/><path d="M1984.66 1830.87h-.5v-1h.5z" stroke="#333" stroke-width=".05" fill="#333"/><path d="M2081.58 1830.37l-14.26 4.63v-9.27z" stroke="#333" fill="#333"/><path d="M2303.7 1808.37a8 8 0 0 1 8-8h128a22.1 22.1 0 0 1 14.15 5.12l23.7 19.74a6.67 6.67 0 0 1 0 10.25l-23.7 19.74a22.1 22.1 0 0 1-14.15 5.13h-128a8 8 0 0 1-8-8z" stroke="#333" fill="#fff"/><g><use xlink:href="#ax" transform="matrix(1,0,0,1,2311.7000000000003,1808.366078617738) translate(34.55 14.799999999999999)"/><use xlink:href="#ay" transform="matrix(1,0,0,1,2311.7000000000003,1808.366078617738) translate(15.049999999999997 36.4)"/></g><path d="M2244.7 1830.37h42.16" stroke="#333" fill="none"/><path d="M2244.7 1830.87h-.5v-1h.5z" stroke="#333" stroke-width=".05" fill="#333"/><path d="M2301.63 1830.37l-14.27 4.63v-9.27z" stroke="#333" fill="#333"/><path d="M2049.85 1379.04a2.9 2.9 0 0 1 1.85-5.12h164a8 8 0 0 1 8 8v44a8 8 0 0 1-8 8h-164a2.9 2.9 0 0 1-1.85-5.12l23.7-19.76a6.67 6.67 0 0 0 0-10.24z" stroke="#333" fill="#fff"/><g><use xlink:href="#az" transform="matrix(1,0,0,1,2079.7000000000003,1381.9221099855665) translate(13.074999999999996 14.799999999999999)"/><use xlink:href="#w" transform="matrix(1,0,0,1,2079.7000000000003,1381.9221099855665) translate(36.075 36.4)"/></g><path d="M1980.95 1403.92h5.2m5.22 0h10.4m5.22 0h10.4m5.2 0h10.43m5.2 0h10.42m5.2 0h5.22" stroke="#333" fill="none"/><path d="M1980.97 1404.42h-.56l.05-.5-.04-.5h.57z" stroke="#333" stroke-width=".05" fill="#333"/><path d="M2073.83 1403.92l-14.26 4.64v-9.27z" stroke="#333" fill="#333"/><path d="M2392.37 1799.4v-170.26a12 12 0 0 0-12-12H2145.7a12 12 0 0 1-12-12v-154.38" stroke="#333" fill="none"/><path d="M2392.87 1799.9h-1v-.5h1z" stroke="#333" stroke-width=".05" fill="#333"/><path d="M2133.7 1436l4.64 14.26h-9.28z" stroke="#333" fill="#333"/><path d="M2299.7 1363.92c-8.84 0-16 7.17-16 16v48c0 8.84 7.16 16 16 16h128c8.84 0 16-7.16 16-16v-48c0-8.83-7.16-16-16-16z" stroke="#333" fill="#fff"/><g><use xlink:href="#aA" transform="matrix(1,0,0,1,2291.7000000000003,1371.9221099855665) translate(39.6 24.799999999999997)"/><use xlink:href="#ay" transform="matrix(1,0,0,1,2291.7000000000003,1371.9221099855665) translate(19.549999999999997 46.4)"/></g><path d="M2224.65 1403.92h42.17" stroke="#333" fill="none"/><path d="M2224.66 1404.42h-.5v-1h.5z" stroke="#333" stroke-width=".05" fill="#333"/><path d="M2281.58 1403.92l-14.26 4.64v-9.27z" stroke="#333" fill="#333"/><path d="M2543.7 1403.92c0 11.05-8.95 20-20 20s-20-8.95-20-20c0-11.04 8.95-20 20-20s20 8.96 20 20z" stroke="#333" fill="#fff"/><path d="M2535.7 1403.92c0 6.63-5.37 12-12 12s-12-5.37-12-12 5.37-12 12-12 12 5.37 12 12z" stroke="#333"/><path d="M2444.7 1403.92h42.12" stroke="#333" fill="none"/><path d="M2444.7 1404.42h-.5v-1h.5z" stroke="#333" stroke-width=".05" fill="#333"/><path d="M2501.58 1403.92l-14.26 4.64v-9.27z" stroke="#333" fill="#333"/><path d="M2473.7 1246.8h84l16 16v64h-100z" stroke="#333" fill="#fff"/><path d="M2557.7 1247.3v15.5h15.52" stroke="#333" fill="#fff"/><g><use xlink:href="#aB" transform="matrix(1,0,0,1,2478.7000000000003,1251.811042266576) translate(0.2478395061728378 37.09444444444445)"/><use xlink:href="#af" transform="matrix(1,0,0,1,2478.7000000000003,1251.811042266576) translate(39.33302469135802 37.09444444444445)"/></g><path d="M2523.7 1382.92v-4.6m0-4.58v-9.2m0-4.58v-9.2m0-4.58V1337m0-4.6v-4.6" stroke="#333" fill="none"/><path d="M2524.2 1383.48l-.48-.06-.52.02v-.53h1zM2524.2 1327.82h-1v-.5h1z" stroke="#333" stroke-width=".05" fill="#333"/><path d="M894.7 1830.37h212.16" stroke="#333" fill="none"/><path d="M894.7 1830.87h-.5v-1h.5z" stroke="#333" stroke-width=".05" fill="#333"/><path d="M1121.63 1830.37l-14.27 4.63v-9.27z" stroke="#333" fill="#333"/><defs><path fill="#333" d="M33 0v-248h34V0H33" id="aC"/><path fill="#333" d="M117-194c89-4 53 116 60 194h-32v-121c0-31-8-49-39-48C34-167 62-67 57 0H25l-1-190h30c1 10-1 24 2 32 11-22 29-35 61-36" id="aD"/><path fill="#333" d="M177-190C167-65 218 103 67 71c-23-6-38-20-44-43l32-5c15 47 100 32 89-28v-30C133-14 115 1 83 1 29 1 15-40 15-95c0-56 16-97 71-98 29-1 48 16 59 35 1-10 0-23 2-32h30zM94-22c36 0 50-32 50-73 0-42-14-75-50-75-39 0-46 34-46 75s6 73 46 73" id="aE"/><path fill="#333" d="M114-163C36-179 61-72 57 0H25l-1-190h30c1 12-1 29 2 39 6-27 23-49 58-41v29" id="aF"/><path fill="#333" d="M100-194c63 0 86 42 84 106H49c0 40 14 67 53 68 26 1 43-12 49-29l28 8c-11 28-37 45-77 45C44 4 14-33 15-96c1-61 26-98 85-98zm52 81c6-60-76-77-97-28-3 7-6 17-6 28h103" id="aG"/><path fill="#333" d="M135-143c-3-34-86-38-87 0 15 53 115 12 119 90S17 21 10-45l28-5c4 36 97 45 98 0-10-56-113-15-118-90-4-57 82-63 122-42 12 7 21 19 24 35" id="aH"/><path fill="#333" d="M100-194c62-1 85 37 85 99 1 63-27 99-86 99S16-35 15-95c0-66 28-99 85-99zM99-20c44 1 53-31 53-75 0-43-8-75-51-75s-53 32-53 75 10 74 51 75" id="aI"/><g id="a"><use transform="matrix(0.05,0,0,0.05,0,0)" xlink:href="#aC"/><use transform="matrix(0.05,0,0,0.05,5,0)" xlink:href="#aD"/><use transform="matrix(0.05,0,0,0.05,15,0)" xlink:href="#aE"/><use transform="matrix(0.05,0,0,0.05,25,0)" xlink:href="#aF"/><use transform="matrix(0.05,0,0,0.05,30.950000000000003,0)" xlink:href="#aG"/><use transform="matrix(0.05,0,0,0.05,40.95,0)" xlink:href="#aH"/><use transform="matrix(0.05,0,0,0.05,49.95,0)" xlink:href="#aI"/></g><path fill="#333" d="M212-179c-10-28-35-45-73-45-59 0-87 40-87 99 0 60 29 101 89 101 43 0 62-24 78-52l27 14C228-24 195 4 139 4 59 4 22-46 18-125c-6-104 99-153 187-111 19 9 31 26 39 46" id="aJ"/><path fill="#333" d="M24 0v-261h32V0H24" id="aK"/><path fill="#333" d="M24-231v-30h32v30H24zM24 0v-190h32V0H24" id="aL"/><path fill="#333" d="M59-47c-2 24 18 29 38 22v24C64 9 27 4 27-40v-127H5v-23h24l9-43h21v43h35v23H59v120" id="aM"/><g id="b"><use transform="matrix(0.05,0,0,0.05,0,0)" xlink:href="#aJ"/><use transform="matrix(0.05,0,0,0.05,12.950000000000001,0)" xlink:href="#aK"/><use transform="matrix(0.05,0,0,0.05,16.900000000000002,0)" xlink:href="#aL"/><use transform="matrix(0.05,0,0,0.05,20.85,0)" xlink:href="#aG"/><use transform="matrix(0.05,0,0,0.05,30.85,0)" xlink:href="#aD"/><use transform="matrix(0.05,0,0,0.05,40.85,0)" xlink:href="#aM"/><use transform="matrix(0.05,0,0,0.05,45.85,0)" xlink:href="#aG"/></g><path fill="#333" d="M140-251c81 0 123 46 123 126C263-46 219 4 140 4 59 4 17-45 17-125s42-126 123-126zm0 227c63 0 89-41 89-101s-29-99-89-99c-61 0-89 39-89 99S79-25 140-24" id="aN"/><path fill="#333" d="M115-194c55 1 70 41 70 98S169 2 115 4C84 4 66-9 55-30l1 105H24l-1-265h31l2 30c10-21 28-34 59-34zm-8 174c40 0 45-34 45-75s-6-73-45-74c-42 0-51 32-51 76 0 43 10 73 51 73" id="aO"/><path fill="#333" d="M141-36C126-15 110 5 73 4 37 3 15-17 15-53c-1-64 63-63 125-63 3-35-9-54-41-54-24 1-41 7-42 31l-33-3c5-37 33-52 76-52 45 0 72 20 72 64v82c-1 20 7 32 28 27v20c-31 9-61-2-59-35zM48-53c0 20 12 33 32 33 41-3 63-29 60-74-43 2-92-5-92 41" id="aP"/><g id="c"><use transform="matrix(0.05,0,0,0.05,0,0)" xlink:href="#aN"/><use transform="matrix(0.05,0,0,0.05,14,0)" xlink:href="#aO"/><use transform="matrix(0.05,0,0,0.05,24,0)" xlink:href="#aG"/><use transform="matrix(0.05,0,0,0.05,34,0)" xlink:href="#aF"/><use transform="matrix(0.05,0,0,0.05,39.95,0)" xlink:href="#aP"/><use transform="matrix(0.05,0,0,0.05,49.95,0)" xlink:href="#aF"/><use transform="matrix(0.05,0,0,0.05,55.900000000000006,0)" xlink:href="#aL"/><use transform="matrix(0.05,0,0,0.05,59.85,0)" xlink:href="#aI"/></g><path fill="#333" d="M185-189c-5-48-123-54-124 2 14 75 158 14 163 119 3 78-121 87-175 55-17-10-28-26-33-46l33-7c5 56 141 63 141-1 0-78-155-14-162-118-5-82 145-84 179-34 5 7 8 16 11 25" id="aQ"/><path fill="#333" d="M85-194c31 0 48 13 60 33l-1-100h32l1 261h-30c-2-10 0-23-3-31C134-8 116 4 85 4 32 4 16-35 15-94c0-66 23-100 70-100zm9 24c-40 0-46 34-46 75 0 40 6 74 45 74 42 0 51-32 51-76 0-42-9-74-50-73" id="aR"/><g id="d"><use transform="matrix(0.05,0,0,0.05,0,0)" xlink:href="#aQ"/><use transform="matrix(0.05,0,0,0.05,12,0)" xlink:href="#aP"/><use transform="matrix(0.05,0,0,0.05,22,0)" xlink:href="#aK"/><use transform="matrix(0.05,0,0,0.05,25.950000000000003,0)" xlink:href="#aL"/><use transform="matrix(0.05,0,0,0.05,29.899999999999995,0)" xlink:href="#aR"/><use transform="matrix(0.05,0,0,0.05,39.9,0)" xlink:href="#aP"/></g><path fill="#a9afb8" d="M24-248c120-7 223 5 221 122C244-46 201 0 124 0H24v-248zM76-40c74 7 117-18 117-86 0-67-45-88-117-82v168" id="aS"/><path fill="#a9afb8" d="M25-224v-37h50v37H25zM25 0v-190h50V0H25" id="aT"/><path fill="#a9afb8" d="M133-34C117-15 103 5 69 4 32 3 11-16 11-54c-1-60 55-63 116-61 1-26-3-47-28-47-18 1-26 9-28 27l-52-2c7-38 36-58 82-57s74 22 75 68l1 82c-1 14 12 18 25 15v27c-30 8-71 5-69-32zm-48 3c29 0 43-24 42-57-32 0-66-3-65 30 0 17 8 27 23 27" id="aU"/><path fill="#a9afb8" d="M195-6C206 82 75 100 31 46c-4-6-6-13-8-21l49-6c3 16 16 24 34 25 40 0 42-37 40-79-11 22-30 35-61 35-53 0-70-43-70-97 0-56 18-96 73-97 30 0 46 14 59 34l2-30h47zm-90-29c32 0 41-27 41-63 0-35-9-62-40-62-32 0-39 29-40 63 0 36 9 62 39 62" id="aV"/><path fill="#a9afb8" d="M135-150c-39-12-60 13-60 57V0H25l-1-190h47c2 13-1 29 3 40 6-28 27-53 61-41v41" id="aW"/><path fill="#a9afb8" d="M220-157c-53 9-28 100-34 157h-49v-107c1-27-5-49-29-50C55-147 81-57 75 0H25l-1-190h47c2 12-1 28 3 38 10-53 101-56 108 0 13-22 24-43 59-42 82 1 51 116 57 194h-49v-107c-1-25-5-48-29-50" id="aX"/><g id="e"><use transform="matrix(0.0728395061728395,0,0,0.0728395061728395,0,0)" xlink:href="#aS"/><use transform="matrix(0.0728395061728395,0,0,0.0728395061728395,18.86543209876543,0)" xlink:href="#aT"/><use transform="matrix(0.0728395061728395,0,0,0.0728395061728395,26.14938271604938,0)" xlink:href="#aU"/><use transform="matrix(0.0728395061728395,0,0,0.0728395061728395,40.717283950617286,0)" xlink:href="#aV"/><use transform="matrix(0.0728395061728395,0,0,0.0728395061728395,56.66913580246913,0)" xlink:href="#aW"/><use transform="matrix(0.0728395061728395,0,0,0.0728395061728395,66.86666666666666,0)" xlink:href="#aU"/><use transform="matrix(0.0728395061728395,0,0,0.0728395061728395,81.43456790123457,0)" xlink:href="#aX"/><use transform="matrix(0.0728395061728395,0,0,0.0728395061728395,104.7432098765432,0)" xlink:href="#aU"/></g><path fill="#a9afb8" d="M88-194c31-1 46 15 58 34l-1-101h50l1 261h-48c-2-10 0-23-3-31C134-8 116 4 84 4 32 4 16-41 15-95c0-56 19-97 73-99zm17 164c33 0 40-30 41-66 1-37-9-64-41-64s-38 30-39 65c0 43 13 65 39 65" id="aY"/><path fill="#a9afb8" d="M185-48c-13 30-37 53-82 52C43 2 14-33 14-96s30-98 90-98c62 0 83 45 84 108H66c0 31 8 55 39 56 18 0 30-7 34-22zm-45-69c5-46-57-63-70-21-2 6-4 13-4 21h74" id="aZ"/><g id="f"><use transform="matrix(0.0728395061728395,0,0,0.0728395061728395,0,0)" xlink:href="#aY"/><use transform="matrix(0.0728395061728395,0,0,0.0728395061728395,15.95185185185185,0)" xlink:href="#aZ"/></g><path fill="#a9afb8" d="M190-63c-7 42-38 67-86 67-59 0-84-38-90-98-12-110 154-137 174-36l-49 2c-2-19-15-32-35-32-30 0-35 28-38 64-6 74 65 87 74 30" id="ba"/><path fill="#a9afb8" d="M115-3C79 11 28 4 28-45v-112H4v-33h27l15-45h31v45h36v33H77v99c-1 23 16 31 38 25v30" id="bb"/><path fill="#a9afb8" d="M128 0H69L1-190h53L99-40l48-150h52" id="bc"/><path fill="#a9afb8" d="M137-138c1-29-70-34-71-4 15 46 118 7 119 86 1 83-164 76-172 9l43-7c4 19 20 25 44 25 33 8 57-30 24-41C81-84 22-81 20-136c-2-80 154-74 161-7" id="bd"/><g id="g"><use transform="matrix(0.0728395061728395,0,0,0.0728395061728395,0,0)" xlink:href="#aU"/><use transform="matrix(0.0728395061728395,0,0,0.0728395061728395,14.5679012345679,0)" xlink:href="#ba"/><use transform="matrix(0.0728395061728395,0,0,0.0728395061728395,29.1358024691358,0)" xlink:href="#bb"/><use transform="matrix(0.0728395061728395,0,0,0.0728395061728395,37.803703703703704,0)" xlink:href="#aT"/><use transform="matrix(0.0728395061728395,0,0,0.0728395061728395,45.08765432098765,0)" xlink:href="#bc"/><use transform="matrix(0.0728395061728395,0,0,0.0728395061728395,59.65555555555555,0)" xlink:href="#aT"/><use transform="matrix(0.0728395061728395,0,0,0.0728395061728395,66.9395061728395,0)" xlink:href="#aY"/><use transform="matrix(0.0728395061728395,0,0,0.0728395061728395,82.89135802469136,0)" xlink:href="#aU"/><use transform="matrix(0.0728395061728395,0,0,0.0728395061728395,97.45925925925926,0)" xlink:href="#aY"/><use transform="matrix(0.0728395061728395,0,0,0.0728395061728395,113.41111111111111,0)" xlink:href="#aZ"/><use transform="matrix(0.0728395061728395,0,0,0.0728395061728395,127.97901234567901,0)" xlink:href="#bd"/></g><path fill="#a9afb8" d="M14-72v-43h91v43H14" id="be"/><use transform="matrix(0.0728395061728395,0,0,0.0728395061728395,0,0)" xlink:href="#be" id="h"/><path fill="#a9afb8" d="M24-248c93 1 206-16 204 79-1 75-69 88-152 82V0H24v-248zm52 121c47 0 100 7 100-41 0-47-54-39-100-39v80" id="bf"/><path fill="#a9afb8" d="M84 4C32 4 15-41 15-95c0-55 18-99 73-99 29 0 47 12 58 34l2-30h48l-1 265h-49V-32C136-9 114 4 84 4zm21-34c32 0 41-29 41-66 0-36-9-64-40-64-33 0-39 30-40 65 0 43 13 65 39 65" id="bg"/><path fill="#a9afb8" d="M85 4C-2 5 27-109 22-190h50c7 57-23 150 33 157 60-5 35-97 40-157h50l1 190h-47c-2-12 1-28-3-38-12 25-28 42-61 42" id="bh"/><path fill="#a9afb8" d="M110-194c64 0 96 36 96 99 0 64-35 99-97 99-61 0-95-36-95-99 0-62 34-99 96-99zm-1 164c35 0 45-28 45-65 0-40-10-65-43-65-34 0-45 26-45 65 0 36 10 65 43 65" id="bi"/><g id="i"><use transform="matrix(0.0728395061728395,0,0,0.0728395061728395,0,0)" xlink:href="#bf"/><use transform="matrix(0.0728395061728395,0,0,0.0728395061728395,17.48148148148148,0)" xlink:href="#aU"/><use transform="matrix(0.0728395061728395,0,0,0.0728395061728395,32.04938271604938,0)" xlink:href="#aW"/><use transform="matrix(0.0728395061728395,0,0,0.0728395061728395,42.24691358024691,0)" xlink:href="#bg"/><use transform="matrix(0.0728395061728395,0,0,0.0728395061728395,58.19876543209875,0)" xlink:href="#bh"/><use transform="matrix(0.0728395061728395,0,0,0.0728395061728395,74.15061728395061,0)" xlink:href="#aZ"/><use transform="matrix(0.0728395061728395,0,0,0.0728395061728395,88.7185185185185,0)" xlink:href="#aU"/><use transform="matrix(0.0728395061728395,0,0,0.0728395061728395,103.2864197530864,0)" xlink:href="#aY"/><use transform="matrix(0.0728395061728395,0,0,0.0728395061728395,119.23827160493828,0)" xlink:href="#aZ"/><use transform="matrix(0.0728395061728395,0,0,0.0728395061728395,133.80617283950616,0)" xlink:href="#aW"/><use transform="matrix(0.0728395061728395,0,0,0.0728395061728395,144.00370370370368,0)" xlink:href="#bi"/></g><path fill="#333" d="M30 0v-248h33v221h125V0H30" id="bj"/><g id="j"><use transform="matrix(0.05,0,0,0.05,0,0)" xlink:href="#bj"/><use transform="matrix(0.05,0,0,0.05,10,0)" xlink:href="#aK"/><use transform="matrix(0.05,0,0,0.05,13.949999999999998,0)" xlink:href="#aG"/><use transform="matrix(0.05,0,0,0.05,23.95,0)" xlink:href="#aE"/><use transform="matrix(0.05,0,0,0.05,33.95,0)" xlink:href="#aP"/><use transform="matrix(0.05,0,0,0.05,43.95,0)" xlink:href="#aF"/></g><g id="k"><use transform="matrix(0.05,0,0,0.05,0,0)" xlink:href="#aP"/><use transform="matrix(0.05,0,0,0.05,10,0)" xlink:href="#aK"/></g><path fill="#333" d="M145-31C134-9 116 4 85 4 32 4 16-35 15-94c0-59 17-99 70-100 32-1 48 14 60 33 0-11-1-24 2-32h30l-1 268h-32zM93-21c41 0 51-33 51-76s-8-73-50-73c-40 0-46 35-46 75s5 74 45 74" id="bk"/><path fill="#333" d="M84 4C-5 8 30-112 23-190h32v120c0 31 7 50 39 49 72-2 45-101 50-169h31l1 190h-30c-1-10 1-25-2-33-11 22-28 36-60 37" id="bl"/><g id="l"><use transform="matrix(0.05,0,0,0.05,0,0)" xlink:href="#aO"/><use transform="matrix(0.05,0,0,0.05,10,0)" xlink:href="#aP"/><use transform="matrix(0.05,0,0,0.05,20,0)" xlink:href="#aF"/><use transform="matrix(0.05,0,0,0.05,25.950000000000003,0)" xlink:href="#bk"/><use transform="matrix(0.05,0,0,0.05,35.95,0)" xlink:href="#bl"/><use transform="matrix(0.05,0,0,0.05,45.95,0)" xlink:href="#aG"/><use transform="matrix(0.05,0,0,0.05,55.95,0)" xlink:href="#aP"/><use transform="matrix(0.05,0,0,0.05,65.95,0)" xlink:href="#aR"/><use transform="matrix(0.05,0,0,0.05,75.95,0)" xlink:href="#aG"/><use transform="matrix(0.05,0,0,0.05,85.95,0)" xlink:href="#aF"/><use transform="matrix(0.05,0,0,0.05,91.9,0)" xlink:href="#aI"/></g><path fill="#333" d="M30-248c87 1 191-15 191 75 0 78-77 80-158 76V0H30v-248zm33 125c57 0 124 11 124-50 0-59-68-47-124-48v98" id="bm"/><path fill="#333" d="M96-169c-40 0-48 33-48 73s9 75 48 75c24 0 41-14 43-38l32 2c-6 37-31 61-74 61-59 0-76-41-82-99-10-93 101-131 147-64 4 7 5 14 7 22l-32 3c-4-21-16-35-41-35" id="bn"/><g id="m"><use transform="matrix(0.05,0,0,0.05,0,0)" xlink:href="#bm"/><use transform="matrix(0.05,0,0,0.05,12,0)" xlink:href="#aF"/><use transform="matrix(0.05,0,0,0.05,17.95,0)" xlink:href="#aI"/><use transform="matrix(0.05,0,0,0.05,27.950000000000003,0)" xlink:href="#bn"/><use transform="matrix(0.05,0,0,0.05,36.95,0)" xlink:href="#aG"/><use transform="matrix(0.05,0,0,0.05,46.95,0)" xlink:href="#aH"/><use transform="matrix(0.05,0,0,0.05,55.95,0)" xlink:href="#aP"/><use transform="matrix(0.05,0,0,0.05,65.95,0)" xlink:href="#aF"/></g><g id="n"><use transform="matrix(0.05,0,0,0.05,0,0)" xlink:href="#aH"/><use transform="matrix(0.05,0,0,0.05,9,0)" xlink:href="#aI"/><use transform="matrix(0.05,0,0,0.05,19,0)" xlink:href="#aK"/><use transform="matrix(0.05,0,0,0.05,22.95,0)" xlink:href="#aL"/><use transform="matrix(0.05,0,0,0.05,26.899999999999995,0)" xlink:href="#bn"/><use transform="matrix(0.05,0,0,0.05,35.9,0)" xlink:href="#aL"/><use transform="matrix(0.05,0,0,0.05,39.85,0)" xlink:href="#aM"/><use transform="matrix(0.05,0,0,0.05,44.85,0)" xlink:href="#bl"/><use transform="matrix(0.05,0,0,0.05,54.85,0)" xlink:href="#aR"/></g><g id="o"><use transform="matrix(0.05,0,0,0.05,0,0)" xlink:href="#aQ"/><use transform="matrix(0.05,0,0,0.05,12,0)" xlink:href="#aI"/><use transform="matrix(0.05,0,0,0.05,22,0)" xlink:href="#aK"/><use transform="matrix(0.05,0,0,0.05,25.950000000000003,0)" xlink:href="#aL"/><use transform="matrix(0.05,0,0,0.05,29.899999999999995,0)" xlink:href="#bn"/><use transform="matrix(0.05,0,0,0.05,38.9,0)" xlink:href="#aL"/><use transform="matrix(0.05,0,0,0.05,42.85,0)" xlink:href="#aM"/><use transform="matrix(0.05,0,0,0.05,47.85,0)" xlink:href="#bl"/><use transform="matrix(0.05,0,0,0.05,57.85,0)" xlink:href="#aR"/></g><g id="p"><use transform="matrix(0.05,0,0,0.05,0,0)" xlink:href="#aR"/><use transform="matrix(0.05,0,0,0.05,10,0)" xlink:href="#aG"/></g><g id="q"><use transform="matrix(0.05,0,0,0.05,0,0)" xlink:href="#aL"/><use transform="matrix(0.05,0,0,0.05,3.95,0)" xlink:href="#aD"/><use transform="matrix(0.05,0,0,0.05,13.949999999999998,0)" xlink:href="#aE"/><use transform="matrix(0.05,0,0,0.05,23.95,0)" xlink:href="#aF"/><use transform="matrix(0.05,0,0,0.05,29.899999999999995,0)" xlink:href="#aG"/><use transform="matrix(0.05,0,0,0.05,39.9,0)" xlink:href="#aH"/><use transform="matrix(0.05,0,0,0.05,48.9,0)" xlink:href="#aI"/></g><g id="r"><use transform="matrix(0.05,0,0,0.05,0,0)" xlink:href="#aQ"/><use transform="matrix(0.05,0,0,0.05,12,0)" xlink:href="#aI"/><use transform="matrix(0.05,0,0,0.05,22,0)" xlink:href="#aK"/><use transform="matrix(0.05,0,0,0.05,25.950000000000003,0)" xlink:href="#aL"/><use transform="matrix(0.05,0,0,0.05,29.899999999999995,0)" xlink:href="#bn"/><use transform="matrix(0.05,0,0,0.05,38.9,0)" xlink:href="#aL"/><use transform="matrix(0.05,0,0,0.05,42.85,0)" xlink:href="#aM"/><use transform="matrix(0.05,0,0,0.05,47.85,0)" xlink:href="#bl"/><use transform="matrix(0.05,0,0,0.05,57.85,0)" xlink:href="#aR"/></g><path fill="#333" d="M115-194c53 0 69 39 70 98 0 66-23 100-70 100C84 3 66-7 56-30L54 0H23l1-261h32v101c10-23 28-34 59-34zm-8 174c40 0 45-34 45-75 0-40-5-75-45-74-42 0-51 32-51 76 0 43 10 73 51 73" id="bo"/><g id="s"><use transform="matrix(0.05,0,0,0.05,0,0)" xlink:href="#aF"/><use transform="matrix(0.05,0,0,0.05,5.95,0)" xlink:href="#aG"/><use transform="matrix(0.05,0,0,0.05,15.949999999999998,0)" xlink:href="#bn"/><use transform="matrix(0.05,0,0,0.05,24.95,0)" xlink:href="#aL"/><use transform="matrix(0.05,0,0,0.05,28.899999999999995,0)" xlink:href="#bo"/><use transform="matrix(0.05,0,0,0.05,38.9,0)" xlink:href="#aL"/><use transform="matrix(0.05,0,0,0.05,42.85,0)" xlink:href="#aR"/><use transform="matrix(0.05,0,0,0.05,52.85,0)" xlink:href="#aP"/></g><path fill="#333" d="M233-177c-1 41-23 64-60 70L243 0h-38l-65-103H63V0H30v-248c88 3 205-21 203 71zM63-129c60-2 137 13 137-47 0-61-80-42-137-45v92" id="bp"/><path fill="#333" d="M106-169C34-169 62-67 57 0H25v-261h32l-1 103c12-21 28-36 61-36 89 0 53 116 60 194h-32v-121c2-32-8-49-39-48" id="bq"/><path fill="#333" d="M9 0v-24l116-142H16v-24h144v24L44-24h123V0H9" id="br"/><g id="t"><use transform="matrix(0.05,0,0,0.05,0,0)" xlink:href="#bp"/><use transform="matrix(0.05,0,0,0.05,12.950000000000001,0)" xlink:href="#aG"/><use transform="matrix(0.05,0,0,0.05,22.950000000000003,0)" xlink:href="#bn"/><use transform="matrix(0.05,0,0,0.05,31.950000000000003,0)" xlink:href="#bq"/><use transform="matrix(0.05,0,0,0.05,41.95,0)" xlink:href="#aP"/><use transform="matrix(0.05,0,0,0.05,51.95,0)" xlink:href="#br"/><use transform="matrix(0.05,0,0,0.05,60.95,0)" xlink:href="#aI"/></g><path fill="#333" d="M190 0L58-211 59 0H30v-248h39L202-35l-2-213h31V0h-41" id="bs"/><g id="u"><use transform="matrix(0.05,0,0,0.05,0,0)" xlink:href="#bs"/><use transform="matrix(0.05,0,0,0.05,12.950000000000001,0)" xlink:href="#aI"/></g><g id="v"><use transform="matrix(0.05,0,0,0.05,0,0)" xlink:href="#bp"/><use transform="matrix(0.05,0,0,0.05,12.950000000000001,0)" xlink:href="#aG"/><use transform="matrix(0.05,0,0,0.05,22.950000000000003,0)" xlink:href="#bn"/><use transform="matrix(0.05,0,0,0.05,31.950000000000003,0)" xlink:href="#bq"/><use transform="matrix(0.05,0,0,0.05,41.95,0)" xlink:href="#aP"/><use transform="matrix(0.05,0,0,0.05,51.95,0)" xlink:href="#br"/><use transform="matrix(0.05,0,0,0.05,60.95,0)" xlink:href="#aI"/></g><g id="w"><use transform="matrix(0.05,0,0,0.05,0,0)" xlink:href="#aF"/><use transform="matrix(0.05,0,0,0.05,5.95,0)" xlink:href="#aG"/><use transform="matrix(0.05,0,0,0.05,15.949999999999998,0)" xlink:href="#bn"/><use transform="matrix(0.05,0,0,0.05,24.95,0)" xlink:href="#aL"/><use transform="matrix(0.05,0,0,0.05,28.899999999999995,0)" xlink:href="#bo"/><use transform="matrix(0.05,0,0,0.05,38.9,0)" xlink:href="#aL"/><use transform="matrix(0.05,0,0,0.05,42.85,0)" xlink:href="#aR"/><use transform="matrix(0.05,0,0,0.05,52.85,0)" xlink:href="#aI"/></g><path fill="#333" d="M26 75v-336h71v23H56V52h41v23H26" id="bt"/><path fill="#333" d="M107 61C57 61 25 39 23-9c-2-65 71-58 78-115h30c1 64-76 54-76 114 0 30 21 42 52 43 32 0 53-17 56-46l32 2c-6 46-36 72-88 72zm26-251v35H99v-35h34" id="bu"/><path fill="#333" d="M197 0v-115H63V0H30v-248h33v105h134v-105h34V0h-34" id="bv"/><path fill="#333" d="M179-190L93 31C79 59 56 82 12 73V49c39 6 53-20 64-50L1-190h34L92-34l54-156h33" id="bw"/><g id="x"><use transform="matrix(0.03765432098765432,0,0,0.03765432098765432,0,0)" xlink:href="#bt"/><use transform="matrix(0.03765432098765432,0,0,0.03765432098765432,3.765432098765432,0)" xlink:href="#bu"/><use transform="matrix(0.03765432098765432,0,0,0.03765432098765432,12.011728395061727,0)" xlink:href="#bv"/><use transform="matrix(0.03765432098765432,0,0,0.03765432098765432,21.764197530864195,0)" xlink:href="#aP"/><use transform="matrix(0.03765432098765432,0,0,0.03765432098765432,29.29506172839506,0)" xlink:href="#bw"/></g><g id="y"><use transform="matrix(0.03765432098765432,0,0,0.03765432098765432,0,0)" xlink:href="#aO"/><use transform="matrix(0.03765432098765432,0,0,0.03765432098765432,7.530864197530864,0)" xlink:href="#aK"/><use transform="matrix(0.03765432098765432,0,0,0.03765432098765432,10.505555555555555,0)" xlink:href="#aP"/><use transform="matrix(0.03765432098765432,0,0,0.03765432098765432,18.03641975308642,0)" xlink:href="#br"/><use transform="matrix(0.03765432098765432,0,0,0.03765432098765432,24.8141975308642,0)" xlink:href="#aP"/><use transform="matrix(0.03765432098765432,0,0,0.03765432098765432,32.345061728395066,0)" xlink:href="#aH"/></g><path fill="#333" d="M103-251c84 0 111 97 45 133-19 10-37 24-39 52H78c0-63 77-55 77-114 0-30-21-42-52-43-32 0-53 17-56 46l-32-2c7-45 34-72 88-72zM77 0v-35h34V0H77" id="bx"/><path fill="#333" d="M3 75V52h41v-290H3v-23h71V75H3" id="by"/><g id="z"><use transform="matrix(0.03765432098765432,0,0,0.03765432098765432,0,0)" xlink:href="#aR"/><use transform="matrix(0.03765432098765432,0,0,0.03765432098765432,7.530864197530864,0)" xlink:href="#aL"/><use transform="matrix(0.03765432098765432,0,0,0.03765432098765432,10.505555555555555,0)" xlink:href="#aH"/><use transform="matrix(0.03765432098765432,0,0,0.03765432098765432,17.28333333333333,0)" xlink:href="#aO"/><use transform="matrix(0.03765432098765432,0,0,0.03765432098765432,24.814197530864195,0)" xlink:href="#aI"/><use transform="matrix(0.03765432098765432,0,0,0.03765432098765432,32.34506172839506,0)" xlink:href="#aD"/><use transform="matrix(0.03765432098765432,0,0,0.03765432098765432,39.875925925925934,0)" xlink:href="#aL"/><use transform="matrix(0.03765432098765432,0,0,0.03765432098765432,42.85061728395062,0)" xlink:href="#bo"/><use transform="matrix(0.03765432098765432,0,0,0.03765432098765432,50.38148148148149,0)" xlink:href="#aK"/><use transform="matrix(0.03765432098765432,0,0,0.03765432098765432,53.35617283950618,0)" xlink:href="#aG"/><use transform="matrix(0.03765432098765432,0,0,0.03765432098765432,60.88703703703705,0)" xlink:href="#aH"/><use transform="matrix(0.03765432098765432,0,0,0.03765432098765432,67.66481481481482,0)" xlink:href="#bx"/><use transform="matrix(0.03765432098765432,0,0,0.03765432098765432,75.19567901234568,0)" xlink:href="#by"/></g><g id="A"><use transform="matrix(0.03765432098765432,0,0,0.03765432098765432,0,0)" xlink:href="#aC"/><use transform="matrix(0.03765432098765432,0,0,0.03765432098765432,3.765432098765432,0)" xlink:href="#aD"/><use transform="matrix(0.03765432098765432,0,0,0.03765432098765432,11.296296296296296,0)" xlink:href="#aE"/><use transform="matrix(0.03765432098765432,0,0,0.03765432098765432,18.827160493827158,0)" xlink:href="#aF"/><use transform="matrix(0.03765432098765432,0,0,0.03765432098765432,23.30802469135802,0)" xlink:href="#aG"/><use transform="matrix(0.03765432098765432,0,0,0.03765432098765432,30.838888888888885,0)" xlink:href="#aH"/><use transform="matrix(0.03765432098765432,0,0,0.03765432098765432,37.61666666666666,0)" xlink:href="#aI"/></g><g id="B"><use transform="matrix(0.03765432098765432,0,0,0.03765432098765432,0,0)" xlink:href="#bn"/><use transform="matrix(0.03765432098765432,0,0,0.03765432098765432,6.777777777777777,0)" xlink:href="#aP"/><use transform="matrix(0.03765432098765432,0,0,0.03765432098765432,14.30864197530864,0)" xlink:href="#aD"/><use transform="matrix(0.03765432098765432,0,0,0.03765432098765432,21.83950617283951,0)" xlink:href="#bn"/><use transform="matrix(0.03765432098765432,0,0,0.03765432098765432,28.617283950617285,0)" xlink:href="#aG"/><use transform="matrix(0.03765432098765432,0,0,0.03765432098765432,36.14814814814815,0)" xlink:href="#aK"/><use transform="matrix(0.03765432098765432,0,0,0.03765432098765432,39.122839506172845,0)" xlink:href="#aP"/><use transform="matrix(0.03765432098765432,0,0,0.03765432098765432,46.65370370370372,0)" xlink:href="#aR"/><use transform="matrix(0.03765432098765432,0,0,0.03765432098765432,54.18456790123457,0)" xlink:href="#aI"/></g><g id="C"><use transform="matrix(0.05,0,0,0.05,0,0)" xlink:href="#aC"/><use transform="matrix(0.05,0,0,0.05,5,0)" xlink:href="#aD"/><use transform="matrix(0.05,0,0,0.05,15,0)" xlink:href="#aE"/><use transform="matrix(0.05,0,0,0.05,25,0)" xlink:href="#aF"/><use transform="matrix(0.05,0,0,0.05,30.950000000000003,0)" xlink:href="#aG"/><use transform="matrix(0.05,0,0,0.05,40.95,0)" xlink:href="#aH"/><use transform="matrix(0.05,0,0,0.05,49.95,0)" xlink:href="#aI"/></g><g id="D"><use transform="matrix(0.05,0,0,0.05,0,0)" xlink:href="#aP"/><use transform="matrix(0.05,0,0,0.05,10,0)" xlink:href="#bn"/><use transform="matrix(0.05,0,0,0.05,19,0)" xlink:href="#aG"/><use transform="matrix(0.05,0,0,0.05,29,0)" xlink:href="#aO"/><use transform="matrix(0.05,0,0,0.05,39,0)" xlink:href="#aM"/><use transform="matrix(0.05,0,0,0.05,44,0)" xlink:href="#aP"/><use transform="matrix(0.05,0,0,0.05,54,0)" xlink:href="#aR"/><use transform="matrix(0.05,0,0,0.05,64,0)" xlink:href="#aI"/></g><g id="E"><use transform="matrix(0.05,0,0,0.05,0,0)" xlink:href="#aQ"/><use transform="matrix(0.05,0,0,0.05,12,0)" xlink:href="#aL"/></g><path fill="#333" d="M205 0l-28-72H64L36 0H1l101-248h38L239 0h-34zm-38-99l-47-123c-12 45-31 82-46 123h93" id="bz"/><g id="F"><use transform="matrix(0.05,0,0,0.05,0,0)" xlink:href="#bz"/><use transform="matrix(0.05,0,0,0.05,12,0)" xlink:href="#bn"/><use transform="matrix(0.05,0,0,0.05,21,0)" xlink:href="#aG"/><use transform="matrix(0.05,0,0,0.05,31,0)" xlink:href="#aO"/><use transform="matrix(0.05,0,0,0.05,41,0)" xlink:href="#aM"/><use transform="matrix(0.05,0,0,0.05,46,0)" xlink:href="#aP"/><use transform="matrix(0.05,0,0,0.05,56,0)" xlink:href="#aR"/><use transform="matrix(0.05,0,0,0.05,66,0)" xlink:href="#aI"/></g><g id="G"><use transform="matrix(0.05,0,0,0.05,0,0)" xlink:href="#bz"/><use transform="matrix(0.05,0,0,0.05,12,0)" xlink:href="#aD"/><use transform="matrix(0.05,0,0,0.05,22,0)" xlink:href="#aP"/><use transform="matrix(0.05,0,0,0.05,32,0)" xlink:href="#aK"/><use transform="matrix(0.05,0,0,0.05,35.95,0)" xlink:href="#aL"/><use transform="matrix(0.05,0,0,0.05,39.900000000000006,0)" xlink:href="#br"/><use transform="matrix(0.05,0,0,0.05,48.900000000000006,0)" xlink:href="#aP"/><use transform="matrix(0.05,0,0,0.05,58.900000000000006,0)" xlink:href="#aF"/></g><g id="H"><use transform="matrix(0.05,0,0,0.05,0,0)" xlink:href="#bn"/><use transform="matrix(0.05,0,0,0.05,9,0)" xlink:href="#aI"/><use transform="matrix(0.05,0,0,0.05,19,0)" xlink:href="#aD"/><use transform="matrix(0.05,0,0,0.05,29,0)" xlink:href="#aR"/><use transform="matrix(0.05,0,0,0.05,39,0)" xlink:href="#aL"/><use transform="matrix(0.05,0,0,0.05,42.95,0)" xlink:href="#bn"/><use transform="matrix(0.05,0,0,0.05,51.95,0)" xlink:href="#aL"/><use transform="matrix(0.05,0,0,0.05,55.900000000000006,0)" xlink:href="#aI"/><use transform="matrix(0.05,0,0,0.05,65.9,0)" xlink:href="#aD"/><use transform="matrix(0.05,0,0,0.05,75.9,0)" xlink:href="#aG"/><use transform="matrix(0.05,0,0,0.05,85.9,0)" xlink:href="#aH"/></g><use transform="matrix(0.05,0,0,0.05,0,0)" xlink:href="#bw" id="I"/><path fill="#333" d="M101-234c-31-9-42 10-38 44h38v23H63V0H32v-167H5v-23h27c-7-52 17-82 69-68v24" id="bA"/><g id="J"><use transform="matrix(0.05,0,0,0.05,0,0)" xlink:href="#aM"/><use transform="matrix(0.05,0,0,0.05,5,0)" xlink:href="#aP"/><use transform="matrix(0.05,0,0,0.05,15,0)" xlink:href="#aF"/><use transform="matrix(0.05,0,0,0.05,20.95,0)" xlink:href="#aL"/><use transform="matrix(0.05,0,0,0.05,24.9,0)" xlink:href="#bA"/><use transform="matrix(0.05,0,0,0.05,29.899999999999995,0)" xlink:href="#aP"/><use transform="matrix(0.05,0,0,0.05,39.9,0)" xlink:href="#aH"/></g><g id="K"><use transform="matrix(0.05,0,0,0.05,0,0)" xlink:href="#bn"/><use transform="matrix(0.05,0,0,0.05,9,0)" xlink:href="#aI"/><use transform="matrix(0.05,0,0,0.05,19,0)" xlink:href="#aD"/><use transform="matrix(0.05,0,0,0.05,29,0)" xlink:href="#aR"/><use transform="matrix(0.05,0,0,0.05,39,0)" xlink:href="#aL"/><use transform="matrix(0.05,0,0,0.05,42.95,0)" xlink:href="#bn"/><use transform="matrix(0.05,0,0,0.05,51.95,0)" xlink:href="#aL"/><use transform="matrix(0.05,0,0,0.05,55.900000000000006,0)" xlink:href="#aI"/><use transform="matrix(0.05,0,0,0.05,65.9,0)" xlink:href="#aD"/><use transform="matrix(0.05,0,0,0.05,75.9,0)" xlink:href="#aG"/><use transform="matrix(0.05,0,0,0.05,85.9,0)" xlink:href="#aH"/></g><g id="L"><use transform="matrix(0.03765432098765432,0,0,0.03765432098765432,0,0)" xlink:href="#bt"/><use transform="matrix(0.03765432098765432,0,0,0.03765432098765432,3.765432098765432,0)" xlink:href="#bu"/><use transform="matrix(0.03765432098765432,0,0,0.03765432098765432,12.011728395061727,0)" xlink:href="#bz"/><use transform="matrix(0.03765432098765432,0,0,0.03765432098765432,21.048765432098765,0)" xlink:href="#bn"/><use transform="matrix(0.03765432098765432,0,0,0.03765432098765432,27.82654320987654,0)" xlink:href="#aG"/><use transform="matrix(0.03765432098765432,0,0,0.03765432098765432,35.35740740740741,0)" xlink:href="#aO"/><use transform="matrix(0.03765432098765432,0,0,0.03765432098765432,42.88827160493827,0)" xlink:href="#aM"/><use transform="matrix(0.03765432098765432,0,0,0.03765432098765432,46.6537037037037,0)" xlink:href="#aP"/><use transform="matrix(0.03765432098765432,0,0,0.03765432098765432,54.18456790123455,0)" xlink:href="#aF"/></g><g id="M"><use transform="matrix(0.03765432098765432,0,0,0.03765432098765432,0,0)" xlink:href="#bn"/><use transform="matrix(0.03765432098765432,0,0,0.03765432098765432,6.777777777777777,0)" xlink:href="#aI"/><use transform="matrix(0.03765432098765432,0,0,0.03765432098765432,14.30864197530864,0)" xlink:href="#aD"/><use transform="matrix(0.03765432098765432,0,0,0.03765432098765432,21.83950617283951,0)" xlink:href="#aR"/><use transform="matrix(0.03765432098765432,0,0,0.03765432098765432,29.37037037037037,0)" xlink:href="#aL"/><use transform="matrix(0.03765432098765432,0,0,0.03765432098765432,32.34506172839506,0)" xlink:href="#bn"/><use transform="matrix(0.03765432098765432,0,0,0.03765432098765432,39.12283950617284,0)" xlink:href="#aL"/><use transform="matrix(0.03765432098765432,0,0,0.03765432098765432,42.09753086419753,0)" xlink:href="#aI"/><use transform="matrix(0.03765432098765432,0,0,0.03765432098765432,49.6283950617284,0)" xlink:href="#aD"/><use transform="matrix(0.03765432098765432,0,0,0.03765432098765432,57.15925925925925,0)" xlink:href="#aG"/><use transform="matrix(0.03765432098765432,0,0,0.03765432098765432,64.69012345679012,0)" xlink:href="#aH"/><use transform="matrix(0.03765432098765432,0,0,0.03765432098765432,71.46790123456789,0)" xlink:href="#bx"/><use transform="matrix(0.03765432098765432,0,0,0.03765432098765432,78.99876543209876,0)" xlink:href="#by"/></g><path fill="#333" d="M30 0v-248h187v28H63v79h144v27H63v87h162V0H30" id="bB"/><path fill="#333" d="M108 0H70L1-190h34L89-25l56-165h34" id="bC"/><path fill="#333" d="M34 0v-190h32V0H34zM24-211c8-23 27-35 38-54h36v5l-58 49H24" id="bD"/><g id="N"><use transform="matrix(0.05,0,0,0.05,0,0)" xlink:href="#bB"/><use transform="matrix(0.05,0,0,0.05,12,0)" xlink:href="#aD"/><use transform="matrix(0.05,0,0,0.05,22,0)" xlink:href="#bC"/><use transform="matrix(0.05,0,0,0.05,31,0)" xlink:href="#bD"/><use transform="matrix(0.05,0,0,0.05,36,0)" xlink:href="#aP"/></g><g id="O"><use transform="matrix(0.05,0,0,0.05,0,0)" xlink:href="#aR"/><use transform="matrix(0.05,0,0,0.05,10,0)" xlink:href="#aP"/><use transform="matrix(0.05,0,0,0.05,20,0)" xlink:href="#aM"/><use transform="matrix(0.05,0,0,0.05,25,0)" xlink:href="#aI"/><use transform="matrix(0.05,0,0,0.05,35,0)" xlink:href="#aH"/></g><path fill="#333" d="M30-248c118-7 216 8 213 122C240-48 200 0 122 0H30v-248zM63-27c89 8 146-16 146-99s-60-101-146-95v194" id="bE"/><g id="P"><use transform="matrix(0.03765432098765432,0,0,0.03765432098765432,0,0)" xlink:href="#bE"/><use transform="matrix(0.03765432098765432,0,0,0.03765432098765432,9.752469135802468,0)" xlink:href="#aP"/><use transform="matrix(0.03765432098765432,0,0,0.03765432098765432,17.28333333333333,0)" xlink:href="#aM"/><use transform="matrix(0.03765432098765432,0,0,0.03765432098765432,21.048765432098765,0)" xlink:href="#aI"/><use transform="matrix(0.03765432098765432,0,0,0.03765432098765432,28.579629629629625,0)" xlink:href="#aH"/></g><g id="Q"><use transform="matrix(0.03765432098765432,0,0,0.03765432098765432,0,0)" xlink:href="#aF"/><use transform="matrix(0.03765432098765432,0,0,0.03765432098765432,4.480864197530864,0)" xlink:href="#aG"/><use transform="matrix(0.03765432098765432,0,0,0.03765432098765432,12.011728395061727,0)" xlink:href="#bk"/><use transform="matrix(0.03765432098765432,0,0,0.03765432098765432,19.54259259259259,0)" xlink:href="#bl"/><use transform="matrix(0.03765432098765432,0,0,0.03765432098765432,27.073456790123455,0)" xlink:href="#aG"/><use transform="matrix(0.03765432098765432,0,0,0.03765432098765432,34.60432098765432,0)" xlink:href="#aF"/><use transform="matrix(0.03765432098765432,0,0,0.03765432098765432,39.08518518518518,0)" xlink:href="#aL"/><use transform="matrix(0.03765432098765432,0,0,0.03765432098765432,42.059876543209874,0)" xlink:href="#aR"/><use transform="matrix(0.03765432098765432,0,0,0.03765432098765432,49.59074074074074,0)" xlink:href="#aI"/><use transform="matrix(0.03765432098765432,0,0,0.03765432098765432,57.1216049382716,0)" xlink:href="#aH"/></g><g id="R"><use transform="matrix(0.03765432098765432,0,0,0.03765432098765432,0,0)" xlink:href="#aO"/><use transform="matrix(0.03765432098765432,0,0,0.03765432098765432,7.530864197530864,0)" xlink:href="#aP"/><use transform="matrix(0.03765432098765432,0,0,0.03765432098765432,15.061728395061728,0)" xlink:href="#aF"/><use transform="matrix(0.03765432098765432,0,0,0.03765432098765432,19.54259259259259,0)" xlink:href="#aP"/></g><g id="S"><use transform="matrix(0.03765432098765432,0,0,0.03765432098765432,0,0)" xlink:href="#aL"/><use transform="matrix(0.03765432098765432,0,0,0.03765432098765432,2.974691358024691,0)" xlink:href="#aF"/><use transform="matrix(0.03765432098765432,0,0,0.03765432098765432,7.455555555555556,0)" xlink:href="#aG"/><use transform="matrix(0.03765432098765432,0,0,0.03765432098765432,14.986419753086421,0)" xlink:href="#aE"/><use transform="matrix(0.03765432098765432,0,0,0.03765432098765432,22.517283950617283,0)" xlink:href="#aL"/><use transform="matrix(0.03765432098765432,0,0,0.03765432098765432,25.491975308641976,0)" xlink:href="#aH"/><use transform="matrix(0.03765432098765432,0,0,0.03765432098765432,32.269753086419755,0)" xlink:href="#aM"/><use transform="matrix(0.03765432098765432,0,0,0.03765432098765432,36.035185185185185,0)" xlink:href="#aF"/><use transform="matrix(0.03765432098765432,0,0,0.03765432098765432,40.51604938271605,0)" xlink:href="#aP"/><use transform="matrix(0.03765432098765432,0,0,0.03765432098765432,48.04691358024691,0)" xlink:href="#aF"/></g><path fill="#333" d="M33-154v-36h34v36H33zM33 0v-36h34V0H33" id="bF"/><g id="T"><use transform="matrix(0.03765432098765432,0,0,0.03765432098765432,0,0)" xlink:href="#aL"/><use transform="matrix(0.03765432098765432,0,0,0.03765432098765432,2.974691358024691,0)" xlink:href="#aD"/><use transform="matrix(0.03765432098765432,0,0,0.03765432098765432,10.505555555555555,0)" xlink:href="#aE"/><use transform="matrix(0.03765432098765432,0,0,0.03765432098765432,18.03641975308642,0)" xlink:href="#aF"/><use transform="matrix(0.03765432098765432,0,0,0.03765432098765432,22.517283950617283,0)" xlink:href="#aG"/><use transform="matrix(0.03765432098765432,0,0,0.03765432098765432,30.048148148148144,0)" xlink:href="#aH"/><use transform="matrix(0.03765432098765432,0,0,0.03765432098765432,36.82592592592592,0)" xlink:href="#aI"/><use transform="matrix(0.03765432098765432,0,0,0.03765432098765432,44.35679012345678,0)" xlink:href="#bF"/></g><path fill="#333" d="M68-38c1 34 0 65-14 84H32c9-13 17-26 17-46H33v-38h35" id="bG"/><g id="U"><use transform="matrix(0.03765432098765432,0,0,0.03765432098765432,0,0)" xlink:href="#aJ"/><use transform="matrix(0.03765432098765432,0,0,0.03765432098765432,9.752469135802468,0)" xlink:href="#aG"/><use transform="matrix(0.03765432098765432,0,0,0.03765432098765432,17.28333333333333,0)" xlink:href="#aR"/><use transform="matrix(0.03765432098765432,0,0,0.03765432098765432,24.814197530864195,0)" xlink:href="#bl"/><use transform="matrix(0.03765432098765432,0,0,0.03765432098765432,32.34506172839506,0)" xlink:href="#aK"/><use transform="matrix(0.03765432098765432,0,0,0.03765432098765432,35.31975308641975,0)" xlink:href="#aP"/><use transform="matrix(0.03765432098765432,0,0,0.03765432098765432,42.85061728395061,0)" xlink:href="#bG"/></g><g id="V"><use transform="matrix(0.03765432098765432,0,0,0.03765432098765432,0,0)" xlink:href="#bm"/><use transform="matrix(0.03765432098765432,0,0,0.03765432098765432,9.037037037037036,0)" xlink:href="#aK"/><use transform="matrix(0.03765432098765432,0,0,0.03765432098765432,12.011728395061727,0)" xlink:href="#aP"/><use transform="matrix(0.03765432098765432,0,0,0.03765432098765432,19.54259259259259,0)" xlink:href="#bn"/><use transform="matrix(0.03765432098765432,0,0,0.03765432098765432,26.32037037037037,0)" xlink:href="#aP"/><use transform="matrix(0.03765432098765432,0,0,0.03765432098765432,33.85123456790123,0)" xlink:href="#aH"/><use transform="matrix(0.03765432098765432,0,0,0.03765432098765432,40.62901234567901,0)" xlink:href="#bG"/></g><path fill="#333" d="M100-194c63 0 86 42 84 106H49c0 40 14 67 53 68 26 1 43-12 49-29l28 8c-11 28-37 45-77 45C44 4 14-33 15-96c1-61 26-98 85-98zm52 81c6-60-76-77-97-28-3 7-6 17-6 28h103zm-74-98c8-23 27-35 38-54h36v5l-58 49H78" id="bH"/><path fill="#333" d="M33 0v-38h34V0H33" id="bI"/><g id="W"><use transform="matrix(0.03765432098765432,0,0,0.03765432098765432,0,0)" xlink:href="#aM"/><use transform="matrix(0.03765432098765432,0,0,0.03765432098765432,3.765432098765432,0)" xlink:href="#aG"/><use transform="matrix(0.03765432098765432,0,0,0.03765432098765432,11.296296296296296,0)" xlink:href="#aK"/><use transform="matrix(0.03765432098765432,0,0,0.03765432098765432,14.270987654320987,0)" xlink:href="#bH"/><use transform="matrix(0.03765432098765432,0,0,0.03765432098765432,21.80185185185185,0)" xlink:href="#bA"/><use transform="matrix(0.03765432098765432,0,0,0.03765432098765432,25.56728395061728,0)" xlink:href="#aI"/><use transform="matrix(0.03765432098765432,0,0,0.03765432098765432,33.09814814814814,0)" xlink:href="#aD"/><use transform="matrix(0.03765432098765432,0,0,0.03765432098765432,40.629012345679,0)" xlink:href="#aI"/><use transform="matrix(0.03765432098765432,0,0,0.03765432098765432,48.15987654320986,0)" xlink:href="#bI"/></g><g id="X"><use transform="matrix(0.05,0,0,0.05,0,0)" xlink:href="#bp"/><use transform="matrix(0.05,0,0,0.05,12.950000000000001,0)" xlink:href="#aG"/><use transform="matrix(0.05,0,0,0.05,22.950000000000003,0)" xlink:href="#aE"/><use transform="matrix(0.05,0,0,0.05,32.95,0)" xlink:href="#aL"/><use transform="matrix(0.05,0,0,0.05,36.900000000000006,0)" xlink:href="#aH"/><use transform="matrix(0.05,0,0,0.05,45.900000000000006,0)" xlink:href="#aM"/><use transform="matrix(0.05,0,0,0.05,50.900000000000006,0)" xlink:href="#aF"/><use transform="matrix(0.05,0,0,0.05,56.85,0)" xlink:href="#aP"/><use transform="matrix(0.05,0,0,0.05,66.85000000000001,0)" xlink:href="#aF"/></g><g id="Y"><use transform="matrix(0.05,0,0,0.05,0,0)" xlink:href="#aL"/><use transform="matrix(0.05,0,0,0.05,3.95,0)" xlink:href="#aD"/><use transform="matrix(0.05,0,0,0.05,13.949999999999998,0)" xlink:href="#aE"/><use transform="matrix(0.05,0,0,0.05,23.95,0)" xlink:href="#aF"/><use transform="matrix(0.05,0,0,0.05,29.899999999999995,0)" xlink:href="#aG"/><use transform="matrix(0.05,0,0,0.05,39.9,0)" xlink:href="#aH"/><use transform="matrix(0.05,0,0,0.05,48.9,0)" xlink:href="#aI"/></g><g id="Z"><use transform="matrix(0.05,0,0,0.05,0,0)" xlink:href="#bC"/><use transform="matrix(0.05,0,0,0.05,9,0)" xlink:href="#aG"/><use transform="matrix(0.05,0,0,0.05,19,0)" xlink:href="#bq"/><use transform="matrix(0.05,0,0,0.05,29,0)" xlink:href="#bD"/><use transform="matrix(0.05,0,0,0.05,34,0)" xlink:href="#bn"/><use transform="matrix(0.05,0,0,0.05,43,0)" xlink:href="#bl"/><use transform="matrix(0.05,0,0,0.05,53,0)" xlink:href="#aK"/><use transform="matrix(0.05,0,0,0.05,56.95,0)" xlink:href="#aI"/></g><path fill="#333" d="M143 4C61 4 22-44 18-125c-5-107 100-154 193-111 17 8 29 25 37 43l-32 9c-13-25-37-40-76-40-61 0-88 39-88 99 0 61 29 100 91 101 35 0 62-11 79-27v-45h-74v-28h105v86C228-13 192 4 143 4" id="bJ"/><g id="aa"><use transform="matrix(0.05,0,0,0.05,0,0)" xlink:href="#bJ"/><use transform="matrix(0.05,0,0,0.05,14,0)" xlink:href="#aG"/><use transform="matrix(0.05,0,0,0.05,24,0)" xlink:href="#aD"/><use transform="matrix(0.05,0,0,0.05,34,0)" xlink:href="#aG"/><use transform="matrix(0.05,0,0,0.05,44,0)" xlink:href="#aF"/><use transform="matrix(0.05,0,0,0.05,49.95,0)" xlink:href="#aP"/><use transform="matrix(0.05,0,0,0.05,59.95,0)" xlink:href="#aF"/></g><g id="ab"><use transform="matrix(0.05,0,0,0.05,0,0)" xlink:href="#aM"/><use transform="matrix(0.05,0,0,0.05,5,0)" xlink:href="#aL"/><use transform="matrix(0.05,0,0,0.05,8.95,0)" xlink:href="#bk"/><use transform="matrix(0.05,0,0,0.05,18.95,0)" xlink:href="#bl"/><use transform="matrix(0.05,0,0,0.05,28.950000000000003,0)" xlink:href="#aG"/><use transform="matrix(0.05,0,0,0.05,38.95,0)" xlink:href="#aM"/><use transform="matrix(0.05,0,0,0.05,43.95,0)" xlink:href="#aG"/></g><path fill="#333" d="M127-220V0H93v-220H8v-28h204v28h-85" id="bK"/><g id="ac"><use transform="matrix(0.05,0,0,0.05,0,0)" xlink:href="#bK"/><use transform="matrix(0.05,0,0,0.05,10.3,0)" xlink:href="#aL"/><use transform="matrix(0.05,0,0,0.05,14.25,0)" xlink:href="#bk"/><use transform="matrix(0.05,0,0,0.05,24.25,0)" xlink:href="#bl"/><use transform="matrix(0.05,0,0,0.05,34.25,0)" xlink:href="#aG"/><use transform="matrix(0.05,0,0,0.05,44.25,0)" xlink:href="#aM"/><use transform="matrix(0.05,0,0,0.05,49.25,0)" xlink:href="#aG"/></g><path fill="#333" d="M137 0h-34L2-248h35l83 218 83-218h36" id="bL"/><g id="ad"><use transform="matrix(0.05,0,0,0.05,0,0)" xlink:href="#bL"/><use transform="matrix(0.05,0,0,0.05,11,0)" xlink:href="#aG"/><use transform="matrix(0.05,0,0,0.05,21,0)" xlink:href="#aF"/><use transform="matrix(0.05,0,0,0.05,26.950000000000003,0)" xlink:href="#aL"/><use transform="matrix(0.05,0,0,0.05,30.899999999999995,0)" xlink:href="#bA"/><use transform="matrix(0.05,0,0,0.05,35.9,0)" xlink:href="#aL"/><use transform="matrix(0.05,0,0,0.05,39.85,0)" xlink:href="#bn"/><use transform="matrix(0.05,0,0,0.05,48.85,0)" xlink:href="#aP"/><use transform="matrix(0.05,0,0,0.05,58.85,0)" xlink:href="#aF"/></g><g id="ae"><use transform="matrix(0.03765432098765432,0,0,0.03765432098765432,0,0)" xlink:href="#aC"/><use transform="matrix(0.03765432098765432,0,0,0.03765432098765432,3.765432098765432,0)" xlink:href="#aD"/><use transform="matrix(0.03765432098765432,0,0,0.03765432098765432,11.296296296296296,0)" xlink:href="#aE"/><use transform="matrix(0.03765432098765432,0,0,0.03765432098765432,18.827160493827158,0)" xlink:href="#aF"/><use transform="matrix(0.03765432098765432,0,0,0.03765432098765432,23.30802469135802,0)" xlink:href="#aG"/><use transform="matrix(0.03765432098765432,0,0,0.03765432098765432,30.838888888888885,0)" xlink:href="#aH"/><use transform="matrix(0.03765432098765432,0,0,0.03765432098765432,37.61666666666666,0)" xlink:href="#aP"/></g><g id="af"><use transform="matrix(0.03765432098765432,0,0,0.03765432098765432,0,0)" xlink:href="#bC"/><use transform="matrix(0.03765432098765432,0,0,0.03765432098765432,6.777777777777777,0)" xlink:href="#aG"/><use transform="matrix(0.03765432098765432,0,0,0.03765432098765432,14.30864197530864,0)" xlink:href="#bq"/><use transform="matrix(0.03765432098765432,0,0,0.03765432098765432,21.83950617283951,0)" xlink:href="#bD"/><use transform="matrix(0.03765432098765432,0,0,0.03765432098765432,25.604938271604937,0)" xlink:href="#bn"/><use transform="matrix(0.03765432098765432,0,0,0.03765432098765432,32.382716049382715,0)" xlink:href="#bl"/><use transform="matrix(0.03765432098765432,0,0,0.03765432098765432,39.91358024691358,0)" xlink:href="#aK"/><use transform="matrix(0.03765432098765432,0,0,0.03765432098765432,42.888271604938275,0)" xlink:href="#aI"/></g><g id="ag"><use transform="matrix(0.05,0,0,0.05,0,0)" xlink:href="#bz"/><use transform="matrix(0.05,0,0,0.05,11.65,0)" xlink:href="#bC"/><use transform="matrix(0.05,0,0,0.05,20.65,0)" xlink:href="#aP"/><use transform="matrix(0.05,0,0,0.05,30.649999999999995,0)" xlink:href="#aD"/><use transform="matrix(0.05,0,0,0.05,40.65,0)" xlink:href="#br"/><use transform="matrix(0.05,0,0,0.05,49.65,0)" xlink:href="#aP"/><use transform="matrix(0.05,0,0,0.05,59.650000000000006,0)" xlink:href="#aF"/></g><g id="ah"><use transform="matrix(0.05,0,0,0.05,0,0)" xlink:href="#aG"/><use transform="matrix(0.05,0,0,0.05,10,0)" xlink:href="#aD"/></g><g id="ai"><use transform="matrix(0.05,0,0,0.05,0,0)" xlink:href="#aG"/><use transform="matrix(0.05,0,0,0.05,10,0)" xlink:href="#aK"/></g><g id="aj"><use transform="matrix(0.05,0,0,0.05,0,0)" xlink:href="#bC"/><use transform="matrix(0.05,0,0,0.05,9,0)" xlink:href="#aG"/><use transform="matrix(0.05,0,0,0.05,19,0)" xlink:href="#bq"/><use transform="matrix(0.05,0,0,0.05,29,0)" xlink:href="#bD"/><use transform="matrix(0.05,0,0,0.05,34,0)" xlink:href="#bn"/><use transform="matrix(0.05,0,0,0.05,43,0)" xlink:href="#bl"/><use transform="matrix(0.05,0,0,0.05,53,0)" xlink:href="#aK"/><use transform="matrix(0.05,0,0,0.05,56.95,0)" xlink:href="#aI"/></g><use transform="matrix(0.05,0,0,0.05,0,0)" xlink:href="#aP" id="ak"/><g id="al"><use transform="matrix(0.05,0,0,0.05,0,0)" xlink:href="#aK"/><use transform="matrix(0.05,0,0,0.05,3.95,0)" xlink:href="#aP"/></g><g id="am"><use transform="matrix(0.05,0,0,0.05,0,0)" xlink:href="#aH"/><use transform="matrix(0.05,0,0,0.05,9,0)" xlink:href="#aP"/><use transform="matrix(0.05,0,0,0.05,19,0)" xlink:href="#aK"/><use transform="matrix(0.05,0,0,0.05,22.95,0)" xlink:href="#aL"/><use transform="matrix(0.05,0,0,0.05,26.899999999999995,0)" xlink:href="#aR"/><use transform="matrix(0.05,0,0,0.05,36.9,0)" xlink:href="#aP"/></g><g id="an"><use transform="matrix(0.05,0,0,0.05,0,0)" xlink:href="#bA"/><use transform="matrix(0.05,0,0,0.05,5,0)" xlink:href="#aP"/><use transform="matrix(0.05,0,0,0.05,15,0)" xlink:href="#bn"/><use transform="matrix(0.05,0,0,0.05,24,0)" xlink:href="#aM"/><use transform="matrix(0.05,0,0,0.05,29,0)" xlink:href="#bl"/><use transform="matrix(0.05,0,0,0.05,39,0)" xlink:href="#aF"/><use transform="matrix(0.05,0,0,0.05,44.95,0)" xlink:href="#aP"/></g><path fill="#333" d="M63-220v92h138v28H63V0H30v-248h175v28H63" id="bM"/><g id="ao"><use transform="matrix(0.05,0,0,0.05,0,0)" xlink:href="#bM"/><use transform="matrix(0.05,0,0,0.05,10.950000000000001,0)" xlink:href="#aP"/><use transform="matrix(0.05,0,0,0.05,20.950000000000003,0)" xlink:href="#bn"/><use transform="matrix(0.05,0,0,0.05,29.950000000000003,0)" xlink:href="#aM"/><use transform="matrix(0.05,0,0,0.05,34.95,0)" xlink:href="#bl"/><use transform="matrix(0.05,0,0,0.05,44.95,0)" xlink:href="#aF"/><use transform="matrix(0.05,0,0,0.05,50.900000000000006,0)" xlink:href="#aP"/></g><g id="ap"><use transform="matrix(0.05,0,0,0.05,0,0)" xlink:href="#bz"/><use transform="matrix(0.05,0,0,0.05,12,0)" xlink:href="#aD"/><use transform="matrix(0.05,0,0,0.05,22,0)" xlink:href="#aP"/><use transform="matrix(0.05,0,0,0.05,32,0)" xlink:href="#aK"/><use transform="matrix(0.05,0,0,0.05,35.95,0)" xlink:href="#aL"/><use transform="matrix(0.05,0,0,0.05,39.900000000000006,0)" xlink:href="#br"/><use transform="matrix(0.05,0,0,0.05,48.900000000000006,0)" xlink:href="#aP"/><use transform="matrix(0.05,0,0,0.05,58.900000000000006,0)" xlink:href="#aF"/></g><g id="aq"><use transform="matrix(0.03765432098765432,0,0,0.03765432098765432,0,0)" xlink:href="#aQ"/><use transform="matrix(0.03765432098765432,0,0,0.03765432098765432,9.037037037037036,0)" xlink:href="#aP"/><use transform="matrix(0.03765432098765432,0,0,0.03765432098765432,16.5679012345679,0)" xlink:href="#aK"/><use transform="matrix(0.03765432098765432,0,0,0.03765432098765432,19.54259259259259,0)" xlink:href="#aL"/><use transform="matrix(0.03765432098765432,0,0,0.03765432098765432,22.517283950617283,0)" xlink:href="#aR"/><use transform="matrix(0.03765432098765432,0,0,0.03765432098765432,30.048148148148144,0)" xlink:href="#aP"/></g><g id="ar"><use transform="matrix(0.03765432098765432,0,0,0.03765432098765432,0,0)" xlink:href="#bn"/><use transform="matrix(0.03765432098765432,0,0,0.03765432098765432,6.777777777777777,0)" xlink:href="#aP"/><use transform="matrix(0.03765432098765432,0,0,0.03765432098765432,14.30864197530864,0)" xlink:href="#aD"/><use transform="matrix(0.03765432098765432,0,0,0.03765432098765432,21.83950617283951,0)" xlink:href="#bn"/><use transform="matrix(0.03765432098765432,0,0,0.03765432098765432,28.617283950617285,0)" xlink:href="#aG"/><use transform="matrix(0.03765432098765432,0,0,0.03765432098765432,36.14814814814815,0)" xlink:href="#aK"/><use transform="matrix(0.03765432098765432,0,0,0.03765432098765432,39.122839506172845,0)" xlink:href="#aP"/><use transform="matrix(0.03765432098765432,0,0,0.03765432098765432,46.65370370370372,0)" xlink:href="#aR"/><use transform="matrix(0.03765432098765432,0,0,0.03765432098765432,54.18456790123457,0)" xlink:href="#aP"/></g><g id="as"><use transform="matrix(0.03765432098765432,0,0,0.03765432098765432,0,0)" xlink:href="#bA"/><use transform="matrix(0.03765432098765432,0,0,0.03765432098765432,3.765432098765432,0)" xlink:href="#aP"/><use transform="matrix(0.03765432098765432,0,0,0.03765432098765432,11.296296296296296,0)" xlink:href="#bn"/><use transform="matrix(0.03765432098765432,0,0,0.03765432098765432,18.074074074074073,0)" xlink:href="#aM"/><use transform="matrix(0.03765432098765432,0,0,0.03765432098765432,21.83950617283951,0)" xlink:href="#bl"/><use transform="matrix(0.03765432098765432,0,0,0.03765432098765432,29.37037037037037,0)" xlink:href="#aF"/><use transform="matrix(0.03765432098765432,0,0,0.03765432098765432,33.85123456790124,0)" xlink:href="#aP"/><use transform="matrix(0.03765432098765432,0,0,0.03765432098765432,41.382098765432104,0)" xlink:href="#bx"/><use transform="matrix(0.03765432098765432,0,0,0.03765432098765432,48.912962962962965,0)" xlink:href="#by"/></g><g id="at"><use transform="matrix(0.05,0,0,0.05,0,0)" xlink:href="#bp"/><use transform="matrix(0.05,0,0,0.05,12.950000000000001,0)" xlink:href="#aG"/><use transform="matrix(0.05,0,0,0.05,22.950000000000003,0)" xlink:href="#aP"/><use transform="matrix(0.05,0,0,0.05,32.95,0)" xlink:href="#aK"/><use transform="matrix(0.05,0,0,0.05,36.900000000000006,0)" xlink:href="#aL"/><use transform="matrix(0.05,0,0,0.05,40.85000000000001,0)" xlink:href="#br"/><use transform="matrix(0.05,0,0,0.05,49.85000000000001,0)" xlink:href="#aP"/></g><g id="au"><use transform="matrix(0.05,0,0,0.05,0,0)" xlink:href="#aO"/><use transform="matrix(0.05,0,0,0.05,10,0)" xlink:href="#aP"/><use transform="matrix(0.05,0,0,0.05,20,0)" xlink:href="#aE"/><use transform="matrix(0.05,0,0,0.05,30,0)" xlink:href="#aI"/></g><g id="av"><use transform="matrix(0.05,0,0,0.05,0,0)" xlink:href="#bm"/><use transform="matrix(0.05,0,0,0.05,12,0)" xlink:href="#aP"/><use transform="matrix(0.05,0,0,0.05,22,0)" xlink:href="#aE"/><use transform="matrix(0.05,0,0,0.05,32,0)" xlink:href="#aI"/></g><g id="aw"><use transform="matrix(0.05,0,0,0.05,0,0)" xlink:href="#aF"/><use transform="matrix(0.05,0,0,0.05,5.95,0)" xlink:href="#aG"/><use transform="matrix(0.05,0,0,0.05,15.949999999999998,0)" xlink:href="#aE"/><use transform="matrix(0.05,0,0,0.05,25.950000000000003,0)" xlink:href="#aL"/><use transform="matrix(0.05,0,0,0.05,29.899999999999995,0)" xlink:href="#aH"/><use transform="matrix(0.05,0,0,0.05,38.9,0)" xlink:href="#aM"/><use transform="matrix(0.05,0,0,0.05,43.9,0)" xlink:href="#aF"/><use transform="matrix(0.05,0,0,0.05,49.85,0)" xlink:href="#aP"/><use transform="matrix(0.05,0,0,0.05,59.85,0)" xlink:href="#aR"/><use transform="matrix(0.05,0,0,0.05,69.85,0)" xlink:href="#aI"/></g><g id="ax"><use transform="matrix(0.05,0,0,0.05,0,0)" xlink:href="#bJ"/><use transform="matrix(0.05,0,0,0.05,14,0)" xlink:href="#aG"/><use transform="matrix(0.05,0,0,0.05,24,0)" xlink:href="#aD"/><use transform="matrix(0.05,0,0,0.05,34,0)" xlink:href="#aG"/><use transform="matrix(0.05,0,0,0.05,44,0)" xlink:href="#aF"/><use transform="matrix(0.05,0,0,0.05,49.95,0)" xlink:href="#aP"/><use transform="matrix(0.05,0,0,0.05,59.95,0)" xlink:href="#aF"/></g><path fill="#333" d="M210-169c-67 3-38 105-44 169h-31v-121c0-29-5-50-35-48C34-165 62-65 56 0H25l-1-190h30c1 10-1 24 2 32 10-44 99-50 107 0 11-21 27-35 58-36 85-2 47 119 55 194h-31v-121c0-29-5-49-35-48" id="bN"/><g id="ay"><use transform="matrix(0.05,0,0,0.05,0,0)" xlink:href="#bn"/><use transform="matrix(0.05,0,0,0.05,9,0)" xlink:href="#aI"/><use transform="matrix(0.05,0,0,0.05,19,0)" xlink:href="#bN"/><use transform="matrix(0.05,0,0,0.05,33.95,0)" xlink:href="#aO"/><use transform="matrix(0.05,0,0,0.05,43.95,0)" xlink:href="#aF"/><use transform="matrix(0.05,0,0,0.05,49.900000000000006,0)" xlink:href="#aI"/><use transform="matrix(0.05,0,0,0.05,59.900000000000006,0)" xlink:href="#bo"/><use transform="matrix(0.05,0,0,0.05,69.9,0)" xlink:href="#aP"/><use transform="matrix(0.05,0,0,0.05,79.9,0)" xlink:href="#aD"/><use transform="matrix(0.05,0,0,0.05,89.9,0)" xlink:href="#aM"/><use transform="matrix(0.05,0,0,0.05,94.9,0)" xlink:href="#aG"/></g><g id="az"><use transform="matrix(0.05,0,0,0.05,0,0)" xlink:href="#aJ"/><use transform="matrix(0.05,0,0,0.05,12.950000000000001,0)" xlink:href="#aI"/><use transform="matrix(0.05,0,0,0.05,22.950000000000003,0)" xlink:href="#bN"/><use transform="matrix(0.05,0,0,0.05,37.900000000000006,0)" xlink:href="#aO"/><use transform="matrix(0.05,0,0,0.05,47.900000000000006,0)" xlink:href="#aF"/><use transform="matrix(0.05,0,0,0.05,53.85,0)" xlink:href="#aI"/><use transform="matrix(0.05,0,0,0.05,63.85,0)" xlink:href="#bo"/><use transform="matrix(0.05,0,0,0.05,73.85000000000001,0)" xlink:href="#aP"/><use transform="matrix(0.05,0,0,0.05,83.85000000000001,0)" xlink:href="#aD"/><use transform="matrix(0.05,0,0,0.05,93.85000000000001,0)" xlink:href="#aM"/><use transform="matrix(0.05,0,0,0.05,98.85000000000001,0)" xlink:href="#aG"/></g><g id="aA"><use transform="matrix(0.05,0,0,0.05,0,0)" xlink:href="#bL"/><use transform="matrix(0.05,0,0,0.05,11,0)" xlink:href="#aG"/><use transform="matrix(0.05,0,0,0.05,21,0)" xlink:href="#aF"/><use transform="matrix(0.05,0,0,0.05,26.950000000000003,0)" xlink:href="#aL"/><use transform="matrix(0.05,0,0,0.05,30.899999999999995,0)" xlink:href="#bA"/><use transform="matrix(0.05,0,0,0.05,35.9,0)" xlink:href="#aL"/><use transform="matrix(0.05,0,0,0.05,39.85,0)" xlink:href="#bn"/><use transform="matrix(0.05,0,0,0.05,48.85,0)" xlink:href="#aP"/><use transform="matrix(0.05,0,0,0.05,58.85,0)" xlink:href="#aF"/></g><g id="aB"><use transform="matrix(0.03765432098765432,0,0,0.03765432098765432,0,0)" xlink:href="#aH"/><use transform="matrix(0.03765432098765432,0,0,0.03765432098765432,6.777777777777777,0)" xlink:href="#aP"/><use transform="matrix(0.03765432098765432,0,0,0.03765432098765432,14.30864197530864,0)" xlink:href="#aK"/><use transform="matrix(0.03765432098765432,0,0,0.03765432098765432,17.28333333333333,0)" xlink:href="#aL"/><use transform="matrix(0.03765432098765432,0,0,0.03765432098765432,20.258024691358024,0)" xlink:href="#aR"/><use transform="matrix(0.03765432098765432,0,0,0.03765432098765432,27.788888888888888,0)" xlink:href="#aP"/></g></defs></g></svg>