<?xml version="1.0" encoding="utf-8"?>
<!-- created with bpmn-js / http://bpmn.io -->
<!DOCTYPE svg PUBLIC "-//W3C//DTD SVG 1.1//EN" "http://www.w3.org/Graphics/SVG/1.1/DTD/svg11.dtd">
<svg xmlns="http://www.w3.org/2000/svg" xmlns:xlink="http://www.w3.org/1999/xlink" width="1082" height="547.5" viewBox="104 61.5 1082 547.5" version="1.1"><defs><marker id="sequenceflow-end-white-hsl_225_10_15_-1po0k2qprrhqdlpgeynqercwu" viewBox="0 0 20 20" refX="11" refY="10" markerWidth="10" markerHeight="10" orient="auto" _mstVisible="2"><path d="M 1 5 L 11 10 L 1 15 Z" style="fill: rgb(34, 36, 42); stroke-width: 1px; stroke-linecap: round; stroke-dasharray: 10000, 1; stroke: rgb(34, 36, 42);" _mstVisible="3"/></marker><marker id="conditional-default-flow-marker-white-hsl_225_10_15_-1po0k2qprrhqdlpgeynqercwu" viewBox="0 0 20 20" refX="0" refY="10" markerWidth="10" markerHeight="10" orient="auto" _mstVisible="2"><path d="M 6 4 L 10 16" style="fill: rgb(34, 36, 42); stroke-width: 1px; stroke-linecap: round; stroke-dasharray: 10000, 1; stroke: rgb(34, 36, 42);" _mstVisible="3"/></marker><marker id="association-end-white-hsl_225_10_15_-1po0k2qprrhqdlpgeynqercwu" viewBox="0 0 20 20" refX="12" refY="10" markerWidth="10" markerHeight="10" orient="auto"><path d="M 1 5 L 11 10 L 1 15" style="fill: none; stroke-width: 1.5px; stroke-linecap: round; stroke-dasharray: 10000, 1; stroke: rgb(34, 36, 42);"/></marker></defs><g class="djs-group" _mstVisible="3"><g class="djs-element djs-shape" data-element-id="TextAnnotation_07bn1qj" style="display: block;" transform="matrix(1 0 0 1 110 220)" _mstVisible="0"><g class="djs-visual" _mstVisible="1" _mstHidden="1"><rect x="0" y="0" width="100" height="55" rx="0" ry="0" style="stroke: none; stroke-width: 2px; fill: none;"/><path d="m 0, 0 m 10,0 l -10,0 l 0,55 l 10,0" style="fill: none; stroke-width: 2px; stroke: rgb(34, 36, 42);"/><text lineHeight="1.2" class="djs-label" _mstHash="24848123" _mstTextHash="889330" style="font-family: Arial, sans-serif; font-size: 12px; font-weight: normal; fill: rgb(34, 36, 42);"><tspan x="5" y="15.799999999999999">Acceso del </tspan><tspan x="5" y="30.199999999999996">vehiculo al </tspan><tspan x="5" y="44.599999999999994">parqueadero</tspan></text></g><rect class="djs-hit djs-hit-all" x="0" y="0" width="100" height="55" style="fill: none; stroke-opacity: 0; stroke: white; stroke-width: 15px;" _mstVisible="1"/><rect x="-6" y="-6" rx="3" width="112" height="67" class="djs-outline" style="fill: none;" _mstVisible="1"/></g></g><g class="djs-group" _mstHidden="2"><g class="djs-element djs-shape" data-element-id="TextAnnotation_0r73njq" style="display: block;" transform="matrix(1 0 0 1 1080 270)" _mstVisible="0"><g class="djs-visual" _mstVisible="1"><rect x="0" y="0" width="100" height="55" rx="0" ry="0" style="stroke: none; stroke-width: 2px; fill: none;" _mstVisible="2"/><path d="m 0, 0 m 10,0 l -10,0 l 0,55 l 10,0" style="fill: none; stroke-width: 2px; stroke: rgb(34, 36, 42);" _mstVisible="2"/><text lineHeight="1.2" class="djs-label" style="font-family: Arial, sans-serif; font-size: 12px; font-weight: normal; fill: rgb(34, 36, 42);" _mstVisible="2" _mstHash="24889228" _mstTextHash="938470"><tspan x="5" y="15.799999999999999" _mstVisible="3">Salida del </tspan><tspan x="5" y="30.199999999999996" _mstVisible="3">vehiculo del </tspan><tspan x="5" y="44.599999999999994" _mstVisible="3">parqueadero</tspan></text></g><rect class="djs-hit djs-hit-all" x="0" y="0" width="100" height="55" style="fill: none; stroke-opacity: 0; stroke: white; stroke-width: 15px;" _mstVisible="1"/><rect x="-6" y="-6" rx="3" width="112" height="67" class="djs-outline" style="fill: none;" _mstVisible="1"/></g></g><g class="djs-group" _mstVisible="3"><g class="djs-element djs-shape" data-element-id="Task_1hcentk" style="display: block;" transform="matrix(1 0 0 1 260 90)" _mstVisible="4"><g class="djs-visual" _mstVisible="5"><rect x="0" y="0" width="100" height="80" rx="10" ry="10" style="stroke: rgb(34, 36, 42); stroke-width: 2px; fill: white; fill-opacity: 0.95;"/><text lineHeight="1.2" class="djs-label" _mstHash="17477499" _mstTextHash="381225" style="font-family: Arial, sans-serif; font-size: 12px; font-weight: normal; fill: rgb(34, 36, 42);"><tspan x="19.154296875" y="36.4">Registro de </tspan><tspan x="27.15234375" y="50.8">Vehiculo</tspan></text></g><rect class="djs-hit djs-hit-all" x="0" y="0" width="100" height="80" style="fill: none; stroke-opacity: 0; stroke: white; stroke-width: 15px;" _mstVisible="5"/><rect x="-6" y="-6" rx="3" width="112" height="92" class="djs-outline" style="fill: none;" _mstVisible="5"/></g></g><g class="djs-group" _mstVisible="3"><g class="djs-element djs-shape" data-element-id="ExclusiveGateway_15hu1pt" style="display: block;" transform="matrix(1 0 0 1 385 105)" _mstVisible="4"><g class="djs-visual" _mstVisible="5"><polygon points="25,0 50,25 25,50 0,25" style="stroke: rgb(34, 36, 42); stroke-width: 2px; fill: white; fill-opacity: 0.95;"/><path d="m 16,15 7.42857142857143,9.714285714285715 -7.42857142857143,9.714285714285715 3.428571428571429,0 5.714285714285715,-7.464228571428572 5.714285714285715,7.464228571428572 3.428571428571429,0 -7.42857142857143,-9.714285714285715 7.42857142857143,-9.714285714285715 -3.428571428571429,0 -5.714285714285715,7.464228571428572 -5.714285714285715,-7.464228571428572 -3.428571428571429,0 z" style="fill: rgb(34, 36, 42); stroke-width: 1px; stroke: rgb(34, 36, 42);"/></g><rect class="djs-hit djs-hit-all" x="0" y="0" width="50" height="50" style="fill: none; stroke-opacity: 0; stroke: white; stroke-width: 15px;" _mstVisible="5"/><rect x="-6" y="-6" rx="3" width="62" height="62" class="djs-outline" style="fill: none;" _mstVisible="5"/></g></g><g class="djs-group" _mstVisible="3"><g class="djs-element djs-shape" data-element-id="Activity_1vm5d80" style="display: block;" transform="matrix(1 0 0 1 490 90)" _mstVisible="0"><g class="djs-visual" _mstVisible="1" _mstHidden="1"><rect x="0" y="0" width="100" height="80" rx="10" ry="10" style="stroke: rgb(34, 36, 42); stroke-width: 2px; fill: white; fill-opacity: 0.95;"/><text lineHeight="1.2" class="djs-label" _mstHash="19758635" _mstTextHash="616642" style="font-family: Arial, sans-serif; font-size: 12px; font-weight: normal; fill: rgb(34, 36, 42);"><tspan x="14.65625" y="36.4">Crear ticket y </tspan><tspan x="14.810546875" y="50.8">asignar lugar</tspan></text></g><rect class="djs-hit djs-hit-all" x="0" y="0" width="100" height="80" style="fill: none; stroke-opacity: 0; stroke: white; stroke-width: 15px;" _mstVisible="1"/><rect x="-6" y="-6" rx="3" width="112" height="92" class="djs-outline" style="fill: none;" _mstVisible="1"/></g></g><g class="djs-group" _mstHidden="2"><g class="djs-element djs-shape" data-element-id="Activity_0qzcfla" style="display: block;" transform="matrix(1 0 0 1 360 240)" _mstVisible="0"><g class="djs-visual" _mstVisible="1"><rect x="0" y="0" width="100" height="80" rx="10" ry="10" style="stroke: rgb(34, 36, 42); stroke-width: 2px; fill: white; fill-opacity: 0.95;"/><text lineHeight="1.2" class="djs-label" _mstHash="14162837" _mstTextHash="848146" style="font-family: Arial, sans-serif; font-size: 12px; font-weight: normal; fill: rgb(34, 36, 42);"><tspan x="13.1455078125" y="29.200000000000003">Cliente nuevo </tspan><tspan x="25.158203125" y="43.6">Registrar </tspan><tspan x="28.3232421875" y="58">vehiculo</tspan></text></g><rect class="djs-hit djs-hit-all" x="0" y="0" width="100" height="80" style="fill: none; stroke-opacity: 0; stroke: white; stroke-width: 15px;" _mstVisible="1"/><rect x="-6" y="-6" rx="3" width="112" height="92" class="djs-outline" style="fill: none;" _mstVisible="1"/></g></g><g class="djs-group"><g class="djs-element djs-shape" data-element-id="DataStoreReference_0ku6pge" style="display: block;" transform="matrix(1 0 0 1 515 250)"><g class="djs-visual"><path d="m  0,6.65 l  0,36.885245901639344 c  1.639344262295082,8.196721311475411 47.540983606557376,8.196721311475411  49.18032786885246,0 l  0,-36.885245901639344 c -1.639344262295082,-8.196721311475411 -47.540983606557376,-8.196721311475411 -49.18032786885246,0c  1.639344262295082,8.196721311475411 47.540983606557376,8.196721311475411  49.18032786885246,0 m  -49.18032786885246,5.737704918032787c  1.639344262295082,8.196721311475411 47.540983606557376,8.196721311475411 49.18032786885246,0m  -49.18032786885246,5.737704918032787c  1.639344262295082,8.196721311475411 47.540983606557376,8.196721311475411  49.18032786885246,0" style="fill: white; stroke-width: 2px; stroke: rgb(34, 36, 42); fill-opacity: 0.95;"/></g><rect class="djs-hit djs-hit-all" x="0" y="0" width="50" height="50" style="fill: none; stroke-opacity: 0; stroke: white; stroke-width: 15px;"/><rect x="-6" y="-6" rx="3" width="62" height="62" class="djs-outline" style="fill: none;"/></g></g><g class="djs-group"><g class="djs-element djs-shape" data-element-id="Activity_0mvkmk6" style="display: block;" transform="matrix(1 0 0 1 710 90)"><g class="djs-visual"><rect x="0" y="0" width="100" height="80" rx="10" ry="10" style="stroke: rgb(34, 36, 42); stroke-width: 2px; fill: white; fill-opacity: 0.95;"/><text lineHeight="1.2" class="djs-label" _mstHash="27375725" _mstTextHash="1484730" style="font-family: Arial, sans-serif; font-size: 12px; font-weight: normal; fill: rgb(34, 36, 42);"><tspan x="24.8232421875" y="22">Iniciación </tspan><tspan x="14.982421875" y="36.4">temporizador </tspan><tspan x="17.150390625" y="50.8">estimado de </tspan><tspan x="27.4892578125" y="65.19999999999999">estancia</tspan></text></g><rect class="djs-hit djs-hit-all" x="0" y="0" width="100" height="80" style="fill: none; stroke-opacity: 0; stroke: white; stroke-width: 15px;"/><rect x="-6" y="-6" rx="3" width="112" height="92" class="djs-outline" style="fill: none;"/></g></g><g class="djs-group"><g class="djs-element djs-shape" data-element-id="Gateway_0q04lkl" style="display: block;" transform="matrix(1 0 0 1 735 205)"><g class="djs-visual"><polygon points="25,0 50,25 25,50 0,25" style="stroke: rgb(34, 36, 42); stroke-width: 2px; fill: white; fill-opacity: 0.95;"/><path d="m 16,15 7.42857142857143,9.714285714285715 -7.42857142857143,9.714285714285715 3.428571428571429,0 5.714285714285715,-7.464228571428572 5.714285714285715,7.464228571428572 3.428571428571429,0 -7.42857142857143,-9.714285714285715 7.42857142857143,-9.714285714285715 -3.428571428571429,0 -5.714285714285715,7.464228571428572 -5.714285714285715,-7.464228571428572 -3.428571428571429,0 z" style="fill: rgb(34, 36, 42); stroke-width: 1px; stroke: rgb(34, 36, 42);"/></g><rect class="djs-hit djs-hit-all" x="0" y="0" width="50" height="50" style="fill: none; stroke-opacity: 0; stroke: white; stroke-width: 15px;"/><rect x="-6" y="-6" rx="3" width="62" height="62" class="djs-outline" style="fill: none;"/></g></g><g class="djs-group"><g class="djs-element djs-shape" data-element-id="Activity_1jmjgag" style="display: block;" transform="matrix(1 0 0 1 710 300)"><g class="djs-visual"><rect x="0" y="0" width="100" height="80" rx="10" ry="10" style="stroke: rgb(34, 36, 42); stroke-width: 2px; fill: white; fill-opacity: 0.95;"/><text lineHeight="1.2" class="djs-label" _mstHash="25785682" _mstTextHash="633022" style="font-family: Arial, sans-serif; font-size: 12px; font-weight: normal; fill: rgb(34, 36, 42);"><tspan x="10.810546875" y="36.4">Señal inicio de </tspan><tspan x="17.322265625" y="50.8">tiempo extra</tspan></text></g><rect class="djs-hit djs-hit-all" x="0" y="0" width="100" height="80" style="fill: none; stroke-opacity: 0; stroke: white; stroke-width: 15px;"/><rect x="-6" y="-6" rx="3" width="112" height="92" class="djs-outline" style="fill: none;"/></g></g><g class="djs-group"><g class="djs-element djs-shape" data-element-id="Activity_1ojrtkb" style="display: block;" transform="matrix(1 0 0 1 710 410)"><g class="djs-visual"><rect x="0" y="0" width="100" height="80" rx="10" ry="10" style="stroke: rgb(34, 36, 42); stroke-width: 2px; fill: white; fill-opacity: 0.95;"/><text lineHeight="1.2" class="djs-label" _mstHash="34092487" _mstTextHash="393302" style="font-family: Arial, sans-serif; font-size: 12px; font-weight: normal; fill: rgb(34, 36, 42);"><tspan x="5.8095703125" y="36.4">Pago por tiempo</tspan><tspan x="36.498046875" y="50.8">extra</tspan></text></g><rect class="djs-hit djs-hit-all" x="0" y="0" width="100" height="80" style="fill: none; stroke-opacity: 0; stroke: white; stroke-width: 15px;"/><rect x="-6" y="-6" rx="3" width="112" height="92" class="djs-outline" style="fill: none;"/></g></g><g class="djs-group"><g class="djs-element djs-shape" data-element-id="Activity_0pw9298" style="display: block;" transform="matrix(1 0 0 1 550 490)"><g class="djs-visual"><rect x="0" y="0" width="100" height="80" rx="10" ry="10" style="stroke: rgb(34, 36, 42); stroke-width: 2px; fill: white; fill-opacity: 0.95;"/><text lineHeight="1.2" class="djs-label" _mstHash="40622946" _mstTextHash="844610" style="font-family: Arial, sans-serif; font-size: 12px; font-weight: normal; fill: rgb(34, 36, 42);"><tspan x="11.150390625" y="29.200000000000003">No se autoriza </tspan><tspan x="25.8193359375" y="43.6">salida de </tspan><tspan x="27.9892578125" y="58">vehículo</tspan></text></g><rect class="djs-hit djs-hit-all" x="0" y="0" width="100" height="80" style="fill: none; stroke-opacity: 0; stroke: white; stroke-width: 15px;"/><rect x="-6" y="-6" rx="3" width="112" height="92" class="djs-outline" style="fill: none;"/></g></g><g class="djs-group"><g class="djs-element djs-shape" data-element-id="Gateway_1y7caby" style="display: block;" transform="matrix(1 0 0 1 735 505)"><g class="djs-visual"><polygon points="25,0 50,25 25,50 0,25" style="stroke: rgb(34, 36, 42); stroke-width: 2px; fill: white; fill-opacity: 0.95;"/><path d="m 16,15 7.42857142857143,9.714285714285715 -7.42857142857143,9.714285714285715 3.428571428571429,0 5.714285714285715,-7.464228571428572 5.714285714285715,7.464228571428572 3.428571428571429,0 -7.42857142857143,-9.714285714285715 7.42857142857143,-9.714285714285715 -3.428571428571429,0 -5.714285714285715,7.464228571428572 -5.714285714285715,-7.464228571428572 -3.428571428571429,0 z" style="fill: rgb(34, 36, 42); stroke-width: 1px; stroke: rgb(34, 36, 42);"/></g><rect class="djs-hit djs-hit-all" x="0" y="0" width="50" height="50" style="fill: none; stroke-opacity: 0; stroke: white; stroke-width: 15px;"/><rect x="-6" y="-6" rx="3" width="62" height="62" class="djs-outline" style="fill: none;"/></g></g><g class="djs-group" _mstVisible="3"><g class="djs-element djs-shape" data-element-id="StartEvent_1y45yut" style="display: block;" transform="matrix(1 0 0 1 182 112)" _mstVisible="4"><g class="djs-visual" _mstVisible="5"><circle cx="18" cy="18" r="18" style="stroke: rgb(34, 36, 42); stroke-width: 2px; fill: white; fill-opacity: 0.95;"/></g><rect class="djs-hit djs-hit-all" x="0" y="0" width="36" height="36" style="fill: none; stroke-opacity: 0; stroke: white; stroke-width: 15px;" _mstVisible="5"/><rect x="-6" y="-6" rx="3" width="48" height="48" class="djs-outline" style="fill: none;" _mstVisible="5"/></g></g><g class="djs-group"><g class="djs-element djs-shape" data-element-id="Activity_0wkwfnf" style="display: block;" transform="matrix(1 0 0 1 880 330)"><g class="djs-visual"><rect x="0" y="0" width="100" height="80" rx="10" ry="10" style="stroke: rgb(34, 36, 42); stroke-width: 2px; fill: white; fill-opacity: 0.95;"/><text lineHeight="1.2" class="djs-label" _mstHash="39770562" _mstTextHash="745966" style="font-family: Arial, sans-serif; font-size: 12px; font-weight: normal; fill: rgb(34, 36, 42);"><tspan x="14.9765625" y="36.4">Se autoriza y </tspan><tspan x="6.1494140625" y="50.8">registra la salida</tspan></text></g><rect class="djs-hit djs-hit-all" x="0" y="0" width="100" height="80" style="fill: none; stroke-opacity: 0; stroke: white; stroke-width: 15px;"/><rect x="-6" y="-6" rx="3" width="112" height="92" class="djs-outline" style="fill: none;"/></g></g><g class="djs-group"><g class="djs-element djs-shape" data-element-id="Event_1abngqq" style="display: block;" transform="matrix(1 0 0 1 1042 352)"><g class="djs-visual"><circle cx="18" cy="18" r="18" style="stroke: rgb(34, 36, 42); stroke-width: 4px; fill: white; fill-opacity: 0.95;"/></g><rect class="djs-hit djs-hit-all" x="0" y="0" width="36" height="36" style="fill: none; stroke-opacity: 0; stroke: white; stroke-width: 15px;"/><rect x="-6" y="-6" rx="3" width="48" height="48" class="djs-outline" style="fill: none;"/></g></g><g class="djs-group" _mstVisible="3"><g class="djs-element djs-connection" data-element-id="Association_036udqq" style="display: block;" _mstVisible="4"><g class="djs-visual" _mstVisible="5"><polyline points="166,220 194,147 " style="fill: none; stroke: rgb(34, 36, 42); stroke-width: 2px; stroke-dasharray: 0.5, 5; stroke-linecap: round; stroke-linejoin: round;"/></g><polyline points="166,220 194,147 " class="djs-hit djs-hit-stroke" style="fill: none; stroke-opacity: 0; stroke: white; stroke-width: 15px;" _mstVisible="5"/><rect x="160" y="141" rx="3" width="40" height="85" class="djs-outline" style="fill: none;" _mstVisible="5"/></g></g><g class="djs-group" _mstHidden="1"><g class="djs-element djs-connection" data-element-id="Association_0ykl6lm" style="display: block;" _mstHidden="1"><g class="djs-visual"><polyline points="1071,356 1097,325 " style="fill: none; stroke: rgb(34, 36, 42); stroke-width: 2px; stroke-dasharray: 0.5, 5; stroke-linecap: round; stroke-linejoin: round;"/></g><polyline points="1071,356 1097,325 " class="djs-hit djs-hit-stroke" style="fill: none; stroke-opacity: 0; stroke: white; stroke-width: 15px;"/><rect x="1065" y="319" rx="3" width="38" height="43" class="djs-outline" style="fill: none;"/></g></g><g class="djs-group" _mstVisible="3"><g class="djs-element djs-connection" data-element-id="SequenceFlow_0h21x7r" style="display: block;" _mstVisible="4"><g class="djs-visual" _mstVisible="5"><path d="m  218,130L260,130 " style="fill: none; stroke-width: 2px; stroke: rgb(34, 36, 42); stroke-linejoin: round; marker-end: url('#sequenceflow-end-white-hsl_225_10_15_-1po0k2qprrhqdlpgeynqercwu');"/></g><polyline points="218,130 260,130 " class="djs-hit djs-hit-stroke" style="fill: none; stroke-opacity: 0; stroke: white; stroke-width: 15px;" _mstVisible="5"/><rect x="212" y="124" rx="3" width="54" height="12" class="djs-outline" style="fill: none;" _mstVisible="5"/></g></g><g class="djs-group" _mstVisible="3"><g class="djs-element djs-connection" data-element-id="SequenceFlow_0wnb4ke" style="display: block;" _mstVisible="4"><g class="djs-visual" _mstVisible="5"><path d="m  360,130L385,130 " style="fill: none; stroke-width: 2px; stroke: rgb(34, 36, 42); stroke-linejoin: round; marker-end: url('#sequenceflow-end-white-hsl_225_10_15_-1po0k2qprrhqdlpgeynqercwu');"/></g><polyline points="360,130 385,130 " class="djs-hit djs-hit-stroke" style="fill: none; stroke-opacity: 0; stroke: white; stroke-width: 15px;" _mstVisible="5"/><rect x="354" y="124" rx="3" width="37" height="12" class="djs-outline" style="fill: none;" _mstVisible="5"/></g></g><g class="djs-group"><g class="djs-element djs-connection new-parent" data-element-id="Flow_1d10lbq" style="display: block;"><g class="djs-visual"><path d="m  435,130L490,130 " style="fill: none; stroke-width: 2px; stroke: rgb(34, 36, 42); stroke-linejoin: round; marker-end: url('#sequenceflow-end-white-hsl_225_10_15_-1po0k2qprrhqdlpgeynqercwu');"/></g><polyline points="435,130 490,130 " class="djs-hit djs-hit-stroke" style="fill: none; stroke-opacity: 0; stroke: white; stroke-width: 15px;"/><rect x="429" y="124" rx="3" width="67" height="12" class="djs-outline" style="fill: none;"/></g></g><g class="djs-group"><g class="djs-element djs-connection" data-element-id="Flow_1hft35e" style="display: block;"><g class="djs-visual"><path d="m  410,155L410,240 " style="fill: none; stroke-width: 2px; stroke: rgb(34, 36, 42); stroke-linejoin: round; marker-end: url('#sequenceflow-end-white-hsl_225_10_15_-1po0k2qprrhqdlpgeynqercwu');"/></g><polyline points="410,155 410,240 " class="djs-hit djs-hit-stroke" style="fill: none; stroke-opacity: 0; stroke: white; stroke-width: 15px;"/><rect x="404" y="149" rx="3" width="12" height="97" class="djs-outline" style="fill: none;"/></g></g><g class="djs-group"><g class="djs-element djs-connection" data-element-id="DataOutputAssociation_0ht3aw3" style="display: block;"><g class="djs-visual"><polyline points="460,280 515,280 " style="fill: none; stroke: rgb(34, 36, 42); stroke-width: 2px; stroke-dasharray: 0.5, 5; stroke-linecap: round; stroke-linejoin: round; marker-end: url('#association-end-white-hsl_225_10_15_-1po0k2qprrhqdlpgeynqercwu');"/></g><polyline points="460,280 515,280 " class="djs-hit djs-hit-stroke" style="fill: none; stroke-opacity: 0; stroke: white; stroke-width: 15px;"/><rect x="454" y="274" rx="3" width="67" height="12" class="djs-outline" style="fill: none;"/></g></g><g class="djs-group"><g class="djs-element djs-connection" data-element-id="DataInputAssociation_17zsr67" style="display: block;"><g class="djs-visual"><polyline points="540,250 540,170 " style="fill: none; stroke: rgb(34, 36, 42); stroke-width: 2px; stroke-dasharray: 0.5, 5; stroke-linecap: round; stroke-linejoin: round; marker-end: url('#association-end-white-hsl_225_10_15_-1po0k2qprrhqdlpgeynqercwu');"/></g><polyline points="540,250 540,170 " class="djs-hit djs-hit-stroke" style="fill: none; stroke-opacity: 0; stroke: white; stroke-width: 15px;"/><rect x="534" y="164" rx="3" width="12" height="92" class="djs-outline" style="fill: none;"/></g></g><g class="djs-group"><g class="djs-element djs-connection" data-element-id="Flow_1loyw3g" style="display: block;"><g class="djs-visual"><path d="m  590,130L710,130 " style="fill: none; stroke-width: 2px; stroke: rgb(34, 36, 42); stroke-linejoin: round; marker-end: url('#sequenceflow-end-white-hsl_225_10_15_-1po0k2qprrhqdlpgeynqercwu');"/></g><polyline points="590,130 710,130 " class="djs-hit djs-hit-stroke" style="fill: none; stroke-opacity: 0; stroke: white; stroke-width: 15px;"/><rect x="584" y="124" rx="3" width="132" height="12" class="djs-outline" style="fill: none;"/></g></g><g class="djs-group" _mstVisible="3"><g class="djs-element djs-shape" data-element-id="ExclusiveGateway_15hu1pt_label" style="display: block;" transform="matrix(1 0 0 1 368 67.5)" _mstVisible="4"><g class="djs-visual" _mstVisible="5"><text lineHeight="1.2" class="djs-label" _mstHash="18772299" _mstTextHash="694109" style="font-family: Arial, sans-serif; font-size: 11px; font-weight: normal; fill: rgb(34, 36, 42);"><tspan x="0" y="9.899999999999999">¿El vehiculo esta </tspan><tspan x="14.359375" y="23.099999999999998">registrado?</tspan></text></g><rect class="djs-hit djs-hit-all" x="0" y="0" width="84" height="27" style="fill: none; stroke-opacity: 0; stroke: white; stroke-width: 15px;" _mstVisible="5"/><rect x="-6" y="-6" rx="3" width="96" height="39" class="djs-outline" style="fill: none;" _mstVisible="5"/></g></g><g class="djs-group"><g class="djs-element djs-shape" data-element-id="Flow_1d10lbq_label" style="display: block;" transform="matrix(1 0 0 1 455 139)"><g class="djs-visual"><text lineHeight="1.2" class="djs-label" style="font-family: Arial, sans-serif; font-size: 11px; font-weight: normal; fill: rgb(34, 36, 42);"><tspan x="0" y="9.899999999999999" _mstHash="9081839" _mstTextHash="15145">SI</tspan></text></g><rect class="djs-hit djs-hit-all" x="0" y="0" width="11" height="14" style="fill: none; stroke-opacity: 0; stroke: white; stroke-width: 15px;"/><rect x="-6" y="-6" rx="3" width="23" height="26" class="djs-outline" style="fill: none;"/></g></g><g class="djs-group"><g class="djs-element djs-shape" data-element-id="Flow_1hft35e_label" style="display: block;" transform="matrix(1 0 0 1 391 197)"><g class="djs-visual"><text lineHeight="1.2" class="djs-label" style="font-family: Arial, sans-serif; font-size: 11px; font-weight: normal; fill: rgb(34, 36, 42);"><tspan x="0" y="9.899999999999999" _mstHash="5452890" _mstTextHash="18642">No</tspan></text></g><rect class="djs-hit djs-hit-all" x="0" y="0" width="17" height="14" style="fill: none; stroke-opacity: 0; stroke: white; stroke-width: 15px;"/><rect x="-6" y="-6" rx="3" width="29" height="26" class="djs-outline" style="fill: none;"/></g></g><g class="djs-group"><g class="djs-element djs-shape" data-element-id="DataStoreReference_0ku6pge_label" style="display: block;" transform="matrix(1 0 0 1 572 248)"><g class="djs-visual"><text lineHeight="1.2" class="djs-label" _mstHash="5418363" _mstTextHash="1167192" style="font-family: Arial, sans-serif; font-size: 11px; font-weight: normal; fill: rgb(34, 36, 42);"><tspan x="16.72998046875" y="9.899999999999999">Guardar </tspan><tspan x="0" y="23.099999999999998">información del </tspan><tspan x="1.184326171875" y="36.3">usuario en una </tspan><tspan x="29.906494140625" y="49.5">BD</tspan></text></g><rect class="djs-hit djs-hit-all" x="0" y="0" width="76" height="53" style="fill: none; stroke-opacity: 0; stroke: white; stroke-width: 15px;"/><rect x="-6" y="-6" rx="3" width="88" height="65" class="djs-outline" style="fill: none;"/></g></g><g class="djs-group"><g class="djs-element djs-connection" data-element-id="Flow_079n35h" style="display: block;"><g class="djs-visual"><path d="m  760,170L760,205 " style="fill: none; stroke-width: 2px; stroke: rgb(34, 36, 42); stroke-linejoin: round; marker-end: url('#sequenceflow-end-white-hsl_225_10_15_-1po0k2qprrhqdlpgeynqercwu');"/></g><polyline points="760,170 760,205 " class="djs-hit djs-hit-stroke" style="fill: none; stroke-opacity: 0; stroke: white; stroke-width: 15px;"/><rect x="754" y="164" rx="3" width="12" height="47" class="djs-outline" style="fill: none;"/></g></g><g class="djs-group"><g class="djs-element djs-connection" data-element-id="Flow_0u79hzm" style="display: block;"><g class="djs-visual"><path d="m  760,255L760,300 " style="fill: none; stroke-width: 2px; stroke: rgb(34, 36, 42); stroke-linejoin: round; marker-end: url('#sequenceflow-end-white-hsl_225_10_15_-1po0k2qprrhqdlpgeynqercwu');"/></g><polyline points="760,255 760,300 " class="djs-hit djs-hit-stroke" style="fill: none; stroke-opacity: 0; stroke: white; stroke-width: 15px;"/><rect x="754" y="249" rx="3" width="12" height="57" class="djs-outline" style="fill: none;"/></g></g><g class="djs-group"><g class="djs-element djs-connection" data-element-id="Flow_0xvp8mu" style="display: block;"><g class="djs-visual"><path d="m  760,380L760,410 " style="fill: none; stroke-width: 2px; stroke: rgb(34, 36, 42); stroke-linejoin: round; marker-end: url('#sequenceflow-end-white-hsl_225_10_15_-1po0k2qprrhqdlpgeynqercwu');"/></g><polyline points="760,380 760,410 " class="djs-hit djs-hit-stroke" style="fill: none; stroke-opacity: 0; stroke: white; stroke-width: 15px;"/><rect x="754" y="374" rx="3" width="12" height="42" class="djs-outline" style="fill: none;"/></g></g><g class="djs-group"><g class="djs-element djs-connection" data-element-id="Flow_06657lo" style="display: block;"><g class="djs-visual"><path d="m  760,490L760,505 " style="fill: none; stroke-width: 2px; stroke: rgb(34, 36, 42); stroke-linejoin: round; marker-end: url('#sequenceflow-end-white-hsl_225_10_15_-1po0k2qprrhqdlpgeynqercwu');"/></g><polyline points="760,490 760,505 " class="djs-hit djs-hit-stroke" style="fill: none; stroke-opacity: 0; stroke: white; stroke-width: 15px;"/><rect x="754" y="484" rx="3" width="12" height="27" class="djs-outline" style="fill: none;"/></g></g><g class="djs-group"><g class="djs-element djs-connection" data-element-id="Flow_1mqz1ys" style="display: block;"><g class="djs-visual"><path d="m  735,530L650,530 " style="fill: none; stroke-width: 2px; stroke: rgb(34, 36, 42); stroke-linejoin: round; marker-end: url('#sequenceflow-end-white-hsl_225_10_15_-1po0k2qprrhqdlpgeynqercwu');"/></g><polyline points="735,530 650,530 " class="djs-hit djs-hit-stroke" style="fill: none; stroke-opacity: 0; stroke: white; stroke-width: 15px;"/><rect x="644" y="524" rx="3" width="97" height="12" class="djs-outline" style="fill: none;"/></g></g><g class="djs-group"><g class="djs-element djs-connection" data-element-id="Flow_126riqq" style="display: block;"><g class="djs-visual"><path d="m  600,490L600,450 L710,450 " style="fill: none; stroke-width: 2px; stroke: rgb(34, 36, 42); stroke-linejoin: round; marker-end: url('#sequenceflow-end-white-hsl_225_10_15_-1po0k2qprrhqdlpgeynqercwu');"/></g><polyline points="600,490 600,450 710,450 " class="djs-hit djs-hit-stroke" style="fill: none; stroke-opacity: 0; stroke: white; stroke-width: 15px;"/><rect x="594" y="444" rx="3" width="122" height="52" class="djs-outline" style="fill: none;"/></g></g><g class="djs-group"><g class="djs-element djs-shape" data-element-id="Gateway_0q04lkl_label" style="display: block;" transform="matrix(1 0 0 1 659 206)"><g class="djs-visual"><text lineHeight="1.2" class="djs-label" _mstHash="13260546" _mstTextHash="525902" style="font-family: Arial, sans-serif; font-size: 11px; font-weight: normal; fill: rgb(34, 36, 42);"><tspan x="0" y="9.899999999999999">¿Cumple tiempo </tspan><tspan x="14.96875" y="23.099999999999998">estimado?</tspan></text></g><rect class="djs-hit djs-hit-all" x="0" y="0" width="81" height="27" style="fill: none; stroke-opacity: 0; stroke: white; stroke-width: 15px;"/><rect x="-6" y="-6" rx="3" width="93" height="39" class="djs-outline" style="fill: none;"/></g></g><g class="djs-group"><g class="djs-element djs-connection" data-element-id="Flow_08up583" style="display: block;"><g class="djs-visual"><path d="m  785,230L930,230 L930,330 " style="fill: none; stroke-width: 2px; stroke: rgb(34, 36, 42); stroke-linejoin: round; marker-end: url('#sequenceflow-end-white-hsl_225_10_15_-1po0k2qprrhqdlpgeynqercwu');"/></g><polyline points="785,230 930,230 930,330 " class="djs-hit djs-hit-stroke" style="fill: none; stroke-opacity: 0; stroke: white; stroke-width: 15px;"/><rect x="779" y="224" rx="3" width="157" height="112" class="djs-outline" style="fill: none;"/></g></g><g class="djs-group"><g class="djs-element djs-shape" data-element-id="Flow_0u79hzm_label" style="display: block;" transform="matrix(1 0 0 1 732 269)"><g class="djs-visual"><text lineHeight="1.2" class="djs-label" style="font-family: Arial, sans-serif; font-size: 11px; font-weight: normal; fill: rgb(34, 36, 42);"><tspan x="0" y="9.899999999999999" _mstHash="7155852" _mstTextHash="18642">No</tspan></text></g><rect class="djs-hit djs-hit-all" x="0" y="0" width="15" height="14" style="fill: none; stroke-opacity: 0; stroke: white; stroke-width: 15px;"/><rect x="-6" y="-6" rx="3" width="27" height="26" class="djs-outline" style="fill: none;"/></g></g><g class="djs-group"><g class="djs-element djs-shape" data-element-id="label_12" style="display: block;" transform="matrix(1 0 0 1 720 576)"><g class="djs-visual"><text lineHeight="1.2" class="djs-label" _mstHash="22672741" _mstTextHash="456248" style="font-family: Arial, sans-serif; font-size: 11px; font-weight: normal; fill: rgb(34, 36, 42);"><tspan x="0" y="9.899999999999999">¿Liquido tiempo </tspan><tspan x="23.8515625" y="23.099999999999998">extra?</tspan></text></g><rect class="djs-hit djs-hit-all" x="0" y="0" width="79" height="27" style="fill: none; stroke-opacity: 0; stroke: white; stroke-width: 15px;"/><rect x="-6" y="-6" rx="3" width="91" height="39" class="djs-outline" style="fill: none;"/></g></g><g class="djs-group"><g class="djs-element djs-shape" data-element-id="Flow_1mqz1ys_label" style="display: block;" transform="matrix(1 0 0 1 687 512)"><g class="djs-visual"><text lineHeight="1.2" class="djs-label" style="font-family: Arial, sans-serif; font-size: 11px; font-weight: normal; fill: rgb(34, 36, 42);"><tspan x="0" y="9.899999999999999" _mstHash="21819681" _mstTextHash="18642">No</tspan></text></g><rect class="djs-hit djs-hit-all" x="0" y="0" width="15" height="14" style="fill: none; stroke-opacity: 0; stroke: white; stroke-width: 15px;"/><rect x="-6" y="-6" rx="3" width="27" height="26" class="djs-outline" style="fill: none;"/></g></g><g class="djs-group"><g class="djs-element djs-connection" data-element-id="Flow_02755ju" style="display: block;"><g class="djs-visual"><path d="m  785,530L930,530 L930,410 " style="fill: none; stroke-width: 2px; stroke: rgb(34, 36, 42); stroke-linejoin: round; marker-end: url('#sequenceflow-end-white-hsl_225_10_15_-1po0k2qprrhqdlpgeynqercwu');"/></g><polyline points="785,530 930,530 930,410 " class="djs-hit djs-hit-stroke" style="fill: none; stroke-opacity: 0; stroke: white; stroke-width: 15px;"/><rect x="779" y="404" rx="3" width="157" height="132" class="djs-outline" style="fill: none;"/></g></g><g class="djs-group"><g class="djs-element djs-shape" data-element-id="Flow_08up583_label" style="display: block;" transform="matrix(1 0 0 1 853 212)"><g class="djs-visual"><text lineHeight="1.2" class="djs-label" style="font-family: Arial, sans-serif; font-size: 11px; font-weight: normal; fill: rgb(34, 36, 42);"><tspan x="0" y="9.899999999999999" _mstHash="15869074" _mstTextHash="15145">SI</tspan></text></g><rect class="djs-hit djs-hit-all" x="0" y="0" width="11" height="14" style="fill: none; stroke-opacity: 0; stroke: white; stroke-width: 15px;"/><rect x="-6" y="-6" rx="3" width="23" height="26" class="djs-outline" style="fill: none;"/></g></g><g class="djs-group"><g class="djs-element djs-shape" data-element-id="Flow_02755ju_label" style="display: block;" transform="matrix(1 0 0 1 852 512)"><g class="djs-visual"><text lineHeight="1.2" class="djs-label" style="font-family: Arial, sans-serif; font-size: 11px; font-weight: normal; fill: rgb(34, 36, 42);"><tspan x="0" y="9.899999999999999" _mstHash="15154074" _mstTextHash="15145">SI</tspan></text></g><rect class="djs-hit djs-hit-all" x="0" y="0" width="11" height="14" style="fill: none; stroke-opacity: 0; stroke: white; stroke-width: 15px;"/><rect x="-6" y="-6" rx="3" width="23" height="26" class="djs-outline" style="fill: none;"/></g></g><g class="djs-group"><g class="djs-element djs-connection" data-element-id="Flow_0aa5sud" style="display: block;"><g class="djs-visual"><path d="m  980,370L1042,370 " style="fill: none; stroke-width: 2px; stroke: rgb(34, 36, 42); stroke-linejoin: round; marker-end: url('#sequenceflow-end-white-hsl_225_10_15_-1po0k2qprrhqdlpgeynqercwu');"/></g><polyline points="980,370 1042,370 " class="djs-hit djs-hit-stroke" style="fill: none; stroke-opacity: 0; stroke: white; stroke-width: 15px;"/><rect x="974" y="364" rx="3" width="74" height="12" class="djs-outline" style="fill: none;"/></g></g><g class="djs-group" _mstVisible="3"><g class="djs-element djs-shape" data-element-id="StartEvent_1y45yut_label" style="display: block;" transform="matrix(1 0 0 1 157 83)" _mstVisible="4"><g class="djs-visual" _mstVisible="5"><text lineHeight="1.2" class="djs-label" style="font-family: Arial, sans-serif; font-size: 11px; font-weight: normal; fill: rgb(34, 36, 42);"><tspan x="0" y="9.899999999999999" _mstHash="788202" _mstTextHash="377962">Activar Aplicación</tspan></text></g><rect class="djs-hit djs-hit-all" x="0" y="0" width="86" height="14" style="fill: none; stroke-opacity: 0; stroke: white; stroke-width: 15px;" _mstVisible="5"/><rect x="-6" y="-6" rx="3" width="98" height="26" class="djs-outline" style="fill: none;" _mstVisible="5"/></g></g><g class="djs-group"><g class="djs-element djs-shape" data-element-id="Event_1abngqq_label" style="display: block;" transform="matrix(1 0 0 1 1035 395)"><g class="djs-visual"><text lineHeight="1.2" class="djs-label" _mstHash="1662202" _mstTextHash="339651" style="font-family: Arial, sans-serif; font-size: 11px; font-weight: normal; fill: rgb(34, 36, 42);"><tspan x="4.3349609375" y="9.899999999999999">Detener </tspan><tspan x="0" y="23.099999999999998">Aplicacion</tspan></text></g><rect class="djs-hit djs-hit-all" x="0" y="0" width="50" height="27" style="fill: none; stroke-opacity: 0; stroke: white; stroke-width: 15px;"/><rect x="-6" y="-6" rx="3" width="62" height="39" class="djs-outline" style="fill: none;"/></g></g></svg>